<?xml version="1.0" encoding="UTF-8" standalone="no"?><svg xmlns="http://www.w3.org/2000/svg" xmlns:xlink="http://www.w3.org/1999/xlink" contentScriptType="application/ecmascript" contentStyleType="text/css" height="301px" preserveAspectRatio="none" style="width:347px;height:301px;" version="1.1" viewBox="0 0 347 301" width="347px" zoomAndPan="magnify"><defs><filter height="300%" id="f1hovb71aq0tir" width="300%" x="-1" y="-1"><feGaussianBlur result="blurOut" stdDeviation="2.0"/><feColorMatrix in="blurOut" result="blurOut2" type="matrix" values="0 0 0 0 0 0 0 0 0 0 0 0 0 0 0 0 0 0 .4 0"/><feOffset dx="4.0" dy="4.0" in="blurOut2" result="blurOut3"/><feBlend in="SourceGraphic" in2="blurOut3" mode="normal"/></filter></defs><g><!--MD5=[bf699320657f98c5646d5bebc3a2ac9e]
class PipeEntry--><rect fill="#FEFECE" filter="url(#f1hovb71aq0tir)" height="48" id="PipeEntry" style="stroke: #A80036; stroke-width: 1.5;" width="91" x="6" y="8"/><ellipse cx="21" cy="24" fill="#A9DCDF" rx="11" ry="11" style="stroke: #A80036; stroke-width: 1.0;"/><path d="M21.1094,19.3438 L19.9531,24.4219 L22.2813,24.4219 L21.1094,19.3438 Z M19.625,17.1094 L22.6094,17.1094 L25.9688,29.5 L23.5156,29.5 L22.75,26.4375 L19.4688,26.4375 L18.7188,29.5 L16.2813,29.5 L19.625,17.1094 Z "/><text fill="#000000" font-family="sans-serif" font-size="12" font-style="italic" lengthAdjust="spacingAndGlyphs" textLength="59" x="35" y="28.1543">PipeEntry</text><line style="stroke: #A80036; stroke-width: 1.5;" x1="7" x2="96" y1="40" y2="40"/><line style="stroke: #A80036; stroke-width: 1.5;" x1="7" x2="96" y1="48" y2="48"/><!--MD5=[eb4b7d5a3fb17f4387b4daa5c58afc9f]
class PipeExit--><rect fill="#FEFECE" filter="url(#f1hovb71aq0tir)" height="48" id="PipeExit" style="stroke: #A80036; stroke-width: 1.5;" width="81" x="132" y="8"/><ellipse cx="147" cy="24" fill="#A9DCDF" rx="11" ry="11" style="stroke: #A80036; stroke-width: 1.0;"/><path d="M147.1094,19.3438 L145.9531,24.4219 L148.2813,24.4219 L147.1094,19.3438 Z M145.625,17.1094 L148.6094,17.1094 L151.9688,29.5 L149.5156,29.5 L148.75,26.4375 L145.4688,26.4375 L144.7188,29.5 L142.2813,29.5 L145.625,17.1094 Z "/><text fill="#000000" font-family="sans-serif" font-size="12" font-style="italic" lengthAdjust="spacingAndGlyphs" textLength="49" x="161" y="28.1543">PipeExit</text><line style="stroke: #A80036; stroke-width: 1.5;" x1="133" x2="212" y1="40" y2="40"/><line style="stroke: #A80036; stroke-width: 1.5;" x1="133" x2="212" y1="48" y2="48"/><!--MD5=[4dfa3bfde5407297cdf87f3e284398fb]
class Pipe--><rect fill="#FEFECE" filter="url(#f1hovb71aq0tir)" height="48" id="Pipe" style="stroke: #A80036; stroke-width: 1.5;" width="58" x="143.5" y="117"/><ellipse cx="158.5" cy="133" fill="#A9DCDF" rx="11" ry="11" style="stroke: #A80036; stroke-width: 1.0;"/><path d="M158.6094,128.3438 L157.4531,133.4219 L159.7813,133.4219 L158.6094,128.3438 Z M157.125,126.1094 L160.1094,126.1094 L163.4688,138.5 L161.0156,138.5 L160.25,135.4375 L156.9688,135.4375 L156.2188,138.5 L153.7813,138.5 L157.125,126.1094 Z "/><text fill="#000000" font-family="sans-serif" font-size="12" font-style="italic" lengthAdjust="spacingAndGlyphs" textLength="26" x="172.5" y="137.1543">Pipe</text><line style="stroke: #A80036; stroke-width: 1.5;" x1="144.5" x2="200.5" y1="149" y2="149"/><line style="stroke: #A80036; stroke-width: 1.5;" x1="144.5" x2="200.5" y1="157" y2="157"/><!--MD5=[e5800e5441037c43f974d868e964cffc]
class PipeBase--><rect fill="#FEFECE" filter="url(#f1hovb71aq0tir)" height="48" id="PipeBase" style="stroke: #A80036; stroke-width: 1.5;" width="88" x="248.5" y="8"/><ellipse cx="263.5" cy="24" fill="#A9DCDF" rx="11" ry="11" style="stroke: #A80036; stroke-width: 1.0;"/><path d="M263.6094,19.3438 L262.4531,24.4219 L264.7813,24.4219 L263.6094,19.3438 Z M262.125,17.1094 L265.1094,17.1094 L268.4688,29.5 L266.0156,29.5 L265.25,26.4375 L261.9688,26.4375 L261.2188,29.5 L258.7813,29.5 L262.125,17.1094 Z "/><text fill="#000000" font-family="sans-serif" font-size="12" font-style="italic" lengthAdjust="spacingAndGlyphs" textLength="56" x="277.5" y="28.1543">PipeBase</text><line style="stroke: #A80036; stroke-width: 1.5;" x1="249.5" x2="335.5" y1="40" y2="40"/><line style="stroke: #A80036; stroke-width: 1.5;" x1="249.5" x2="335.5" y1="48" y2="48"/><!--MD5=[35f86f2cb192150036799bc107afde78]
class PipeInstance--><rect fill="#FEFECE" filter="url(#f1hovb71aq0tir)" height="48" id="PipeInstance" style="stroke: #A80036; stroke-width: 1.5;" width="113" x="172" y="242"/><ellipse cx="187" cy="258" fill="#ADD1B2" rx="11" ry="11" style="stroke: #A80036; stroke-width: 1.0;"/><path d="M189.9688,263.6406 Q189.3906,263.9375 188.75,264.0781 Q188.1094,264.2344 187.4063,264.2344 Q184.9063,264.2344 183.5781,262.5938 Q182.2656,260.9375 182.2656,257.8125 Q182.2656,254.6875 183.5781,253.0313 Q184.9063,251.375 187.4063,251.375 Q188.1094,251.375 188.75,251.5313 Q189.4063,251.6875 189.9688,251.9844 L189.9688,254.7031 Q189.3438,254.125 188.75,253.8594 Q188.1563,253.5781 187.5313,253.5781 Q186.1875,253.5781 185.5,254.6563 Q184.8125,255.7188 184.8125,257.8125 Q184.8125,259.9063 185.5,260.9844 Q186.1875,262.0469 187.5313,262.0469 Q188.1563,262.0469 188.75,261.7813 Q189.3438,261.5 189.9688,260.9219 L189.9688,263.6406 Z "/><text fill="#000000" font-family="sans-serif" font-size="12" lengthAdjust="spacingAndGlyphs" textLength="81" x="201" y="262.1543">PipeInstance</text><line style="stroke: #A80036; stroke-width: 1.5;" x1="173" x2="284" y1="274" y2="274"/><line style="stroke: #A80036; stroke-width: 1.5;" x1="173" x2="284" y1="282" y2="282"/><!--MD5=[12ea755240aca6e808488fd789cafc67]
class Segments--><rect fill="#FEFECE" filter="url(#f1hovb71aq0tir)" height="48" id="Segments" style="stroke: #A80036; stroke-width: 1.5;" width="95" x="237" y="117"/><ellipse cx="252" cy="133" fill="#ADD1B2" rx="11" ry="11" style="stroke: #A80036; stroke-width: 1.0;"/><path d="M254.9688,138.6406 Q254.3906,138.9375 253.75,139.0781 Q253.1094,139.2344 252.4063,139.2344 Q249.9063,139.2344 248.5781,137.5938 Q247.2656,135.9375 247.2656,132.8125 Q247.2656,129.6875 248.5781,128.0313 Q249.9063,126.375 252.4063,126.375 Q253.1094,126.375 253.75,126.5313 Q254.4063,126.6875 254.9688,126.9844 L254.9688,129.7031 Q254.3438,129.125 253.75,128.8594 Q253.1563,128.5781 252.5313,128.5781 Q251.1875,128.5781 250.5,129.6563 Q249.8125,130.7188 249.8125,132.8125 Q249.8125,134.9063 250.5,135.9844 Q251.1875,137.0469 252.5313,137.0469 Q253.1563,137.0469 253.75,136.7813 Q254.3438,136.5 254.9688,135.9219 L254.9688,138.6406 Z "/><text fill="#000000" font-family="sans-serif" font-size="12" lengthAdjust="spacingAndGlyphs" textLength="63" x="266" y="137.1543">Segments</text><line style="stroke: #A80036; stroke-width: 1.5;" x1="238" x2="331" y1="149" y2="149"/><line style="stroke: #A80036; stroke-width: 1.5;" x1="238" x2="331" y1="157" y2="157"/><!--MD5=[638dd18315f4e6d75c7fe5d8fda04fa1]
reverse link PipeBase to Pipe--><path d="M251.52,69.54 C233.96,85.2 213.97,103.03 198.49,116.83 " fill="none" id="PipeBase&lt;-Pipe" style="stroke: #A80036; stroke-width: 1.0;"/><polygon fill="none" points="246.88,64.3,266.46,56.22,256.19,74.75,246.88,64.3" style="stroke: #A80036; stroke-width: 1.0;"/><!--MD5=[8deef409553d55eacc50493a4b1fd63f]
reverse link PipeEntry to Pipe--><path d="M92.82,69.54 C110.53,85.2 130.69,103.03 146.3,116.83 " fill="none" id="PipeEntry&lt;-Pipe" style="stroke: #A80036; stroke-width: 1.0;"/><polygon fill="none" points="88.1,74.71,77.76,56.22,97.37,64.22,88.1,74.71" style="stroke: #A80036; stroke-width: 1.0;"/><!--MD5=[70469639e5a4579cd7ef78da625400c3]
reverse link PipeExit to Pipe--><path d="M172.5,76.58 C172.5,90.36 172.5,105.06 172.5,116.83 " fill="none" id="PipeExit&lt;-Pipe" style="stroke: #A80036; stroke-width: 1.0;"/><polygon fill="none" points="165.5,76.22,172.5,56.22,179.5,76.22,165.5,76.22" style="stroke: #A80036; stroke-width: 1.0;"/><!--MD5=[266e9a18ba7ddc88fcad5f97bff6473b]
reverse link Pipe to PipeInstance--><path d="M191.46,183.64 C200.33,203.12 210.56,225.59 218.01,241.97 " fill="none" id="Pipe&lt;-PipeInstance" style="stroke: #A80036; stroke-width: 1.0;"/><polygon fill="none" points="184.95,186.24,183.03,165.14,197.69,180.44,184.95,186.24" style="stroke: #A80036; stroke-width: 1.0;"/><!--MD5=[b8c5133585b1e6eb0500e3a515d8d8c4]
reverse link Segments to PipeInstance--><path d="M265.54,183.64 C256.67,203.12 246.44,225.59 238.99,241.97 " fill="none" id="Segments&lt;-PipeInstance" style="stroke: #A80036; stroke-width: 1.0;"/><polygon fill="none" points="259.31,180.44,273.97,165.14,272.05,186.24,259.31,180.44" style="stroke: #A80036; stroke-width: 1.0;"/><text fill="#000000" font-family="sans-serif" font-size="13" lengthAdjust="spacingAndGlyphs" textLength="44" x="260.5" y="208.0669">private</text><!--MD5=[30177121c0370b4d305612b9023e64fe]
@startuml
abstract PipeEntry
abstract PipeExit
abstract Pipe
abstract PipeBase
PipeBase <|- - Pipe
PipeEntry <|- - Pipe
PipeExit <|- - Pipe

class PipeInstance
class Segments
Pipe <|- - PipeInstance
Segments <|- - PipeInstance : private

@enduml

PlantUML version 1.2020.02(Sun Mar 01 10:22:07 UTC 2020)
(GPL source distribution)
Java Runtime: OpenJDK Runtime Environment
JVM: OpenJDK 64-Bit Server VM
Java Version: 11.0.22+7
Operating System: Linux
Default Encoding: UTF-8
Language: en
Country: null
--></g></svg>