<?xml version="1.0" encoding="UTF-8" standalone="no"?><svg xmlns="http://www.w3.org/2000/svg" xmlns:xlink="http://www.w3.org/1999/xlink" contentScriptType="application/ecmascript" contentStyleType="text/css" height="710px" preserveAspectRatio="none" style="width:1038px;height:710px;" version="1.1" viewBox="0 0 1038 710" width="1038px" zoomAndPan="magnify"><defs><filter height="300%" id="f18pf0pv6xqzmc" width="300%" x="-1" y="-1"><feGaussianBlur result="blurOut" stdDeviation="2.0"/><feColorMatrix in="blurOut" result="blurOut2" type="matrix" values="0 0 0 0 0 0 0 0 0 0 0 0 0 0 0 0 0 0 .4 0"/><feOffset dx="4.0" dy="4.0" in="blurOut2" result="blurOut3"/><feBlend in="SourceGraphic" in2="blurOut3" mode="normal"/></filter></defs><g><!--cluster Microcontroller--><polygon fill="#FFFFFF" filter="url(#f18pf0pv6xqzmc)" points="467,34,477,24,1016,24,1016,407.5,1006,417.5,467,417.5,467,34" style="stroke: #000000; stroke-width: 1.5;"/><line style="stroke: #000000; stroke-width: 1.5;" x1="1006" x2="1015" y1="34" y2="25"/><line style="stroke: #000000; stroke-width: 1.5;" x1="467" x2="1006" y1="34" y2="34"/><line style="stroke: #000000; stroke-width: 1.5;" x1="1006" x2="1006" y1="34" y2="417.5"/><text fill="#000000" font-family="sans-serif" font-size="14" font-weight="bold" lengthAdjust="spacingAndGlyphs" textLength="120" x="677.5" y="49.9951">Microcontroller</text><!--cluster PC--><polygon fill="#FFFFFF" filter="url(#f18pf0pv6xqzmc)" points="22,226,32,216,438,216,438,663.5,428,673.5,22,673.5,22,226" style="stroke: #000000; stroke-width: 1.5;"/><line style="stroke: #000000; stroke-width: 1.5;" x1="428" x2="437" y1="226" y2="217"/><line style="stroke: #000000; stroke-width: 1.5;" x1="22" x2="428" y1="226" y2="226"/><line style="stroke: #000000; stroke-width: 1.5;" x1="428" x2="428" y1="226" y2="673.5"/><text fill="#000000" font-family="sans-serif" font-size="14" font-weight="bold" lengthAdjust="spacingAndGlyphs" textLength="21" x="215.5" y="241.9951">PC</text><!--cluster FPGA--><polygon fill="#FFFFFF" filter="url(#f18pf0pv6xqzmc)" points="562,451.5,572,441.5,863,441.5,863,688,853,698,562,698,562,451.5" style="stroke: #000000; stroke-width: 1.5;"/><line style="stroke: #000000; stroke-width: 1.5;" x1="853" x2="862" y1="451.5" y2="442.5"/><line style="stroke: #000000; stroke-width: 1.5;" x1="562" x2="853" y1="451.5" y2="451.5"/><line style="stroke: #000000; stroke-width: 1.5;" x1="853" x2="853" y1="451.5" y2="698"/><text fill="#000000" font-family="sans-serif" font-size="14" font-weight="bold" lengthAdjust="spacingAndGlyphs" textLength="42" x="687.5" y="467.4951">FPGA</text><!--entity storeA1--><rect fill="#FEFECE" filter="url(#f18pf0pv6xqzmc)" height="36.2969" style="stroke: #000000; stroke-width: 1.5;" width="118" x="700" y="64"/><text fill="#000000" font-family="sans-serif" font-size="14" lengthAdjust="spacingAndGlyphs" textLength="98" x="710" y="86.9951">Store A (C++)</text><!--entity storeB1--><rect fill="#FEFECE" filter="url(#f18pf0pv6xqzmc)" height="36.2969" style="stroke: #000000; stroke-width: 1.5;" width="119" x="545.5" y="64"/><text fill="#000000" font-family="sans-serif" font-size="14" lengthAdjust="spacingAndGlyphs" textLength="99" x="555.5" y="86.9951">Store B (C++)</text><!--entity app1--><path d="M560.5,167 C560.5,164 562.5,162 565.5,162 C568.5,162 570.5,164 570.5,167 C570.5,164 572.5,162 575.5,162 C578.5,162 580.5,164 580.5,167 C580.5,164 582.5,162 585.5,162 C588.5,162 590.5,164 590.5,167 C590.5,164 592.5,162 595.5,162 C598.5,162 600.5,164 600.5,167 C600.5,164 602.5,162 605.5,162 C608.5,162 610.5,164 610.5,167 C610.5,164 612.5,162 615.5,162 C618.5,162 620.5,164 620.5,167 C620.5,164 622.5,162 625.5,162 C628.5,162 630.5,164 630.5,167 C630.5,164 632.5,162 635.5,162 C638.5,162 640.5,164 640.5,167 C640.5,164 642.5,162 645.5,162 C648.5,162 650.5,164 650.5,167 C653.5,167 655.5,169 655.5,172 C655.5,175 653.5,177 650.5,177 C653.5,177 655.5,179 655.5,182 C655.5,185 653.5,187 650.5,187 C650.5,190 647.5,192 645.5,192 C642.5,192 640.5,190 640.5,187 C640.5,190 637.5,192 635.5,192 C632.5,192 630.5,190 630.5,187 C630.5,190 627.5,192 625.5,192 C622.5,192 620.5,190 620.5,187 C620.5,190 617.5,192 615.5,192 C612.5,192 610.5,190 610.5,187 C610.5,190 607.5,192 605.5,192 C602.5,192 600.5,190 600.5,187 C600.5,190 597.5,192 595.5,192 C592.5,192 590.5,190 590.5,187 C590.5,190 587.5,192 585.5,192 C582.5,192 580.5,190 580.5,187 C580.5,190 577.5,192 575.5,192 C572.5,192 570.5,190 570.5,187 C570.5,190 567.5,192 565.5,192 C562.5,192 560.5,190 560.5,187 C557.5,187 555.5,185 555.5,182 C555.5,179 557.5,177 560.5,177 C557.5,177 555.5,175 555.5,172 C555.5,169 557.5,167 560.5,167 " fill="#FEFECE" filter="url(#f18pf0pv6xqzmc)" style="stroke: #000000; stroke-width: 1.5;"/><text fill="#000000" font-family="sans-serif" font-size="14" lengthAdjust="spacingAndGlyphs" textLength="75" x="567.5" y="182.9951">Application</text><!--entity debugger--><rect fill="#FEFECE" filter="url(#f18pf0pv6xqzmc)" height="36.2969" style="stroke: #000000; stroke-width: 1.5;" width="90" x="688" y="160"/><text fill="#000000" font-family="sans-serif" font-size="14" lengthAdjust="spacingAndGlyphs" textLength="70" x="698" y="182.9951">Debugger</text><!--entity debugstack--><rect fill="#FEFECE" filter="url(#f18pf0pv6xqzmc)" height="133.4844" style="stroke: #000000; stroke-width: 1.5;" width="150" x="483" y="268.5"/><text fill="#000000" font-family="sans-serif" font-size="14" lengthAdjust="spacingAndGlyphs" textLength="106" x="493" y="291.4951">DebugArqLayer</text><line style="stroke: #000000; stroke-width: 1.0;" x1="484" x2="632" y1="294.7969" y2="294.7969"/><text fill="#000000" font-family="sans-serif" font-size="14" lengthAdjust="spacingAndGlyphs" textLength="77" x="499" y="311.792">Crc16Layer</text><line style="stroke: #000000; stroke-width: 1.0;" x1="484" x2="632" y1="319.0938" y2="319.0938"/><text fill="#000000" font-family="sans-serif" font-size="14" lengthAdjust="spacingAndGlyphs" textLength="118" x="499" y="336.0889">AsciiEscapeLayer</text><line style="stroke: #000000; stroke-width: 1.0;" x1="484" x2="632" y1="343.3906" y2="343.3906"/><text fill="#000000" font-family="sans-serif" font-size="14" lengthAdjust="spacingAndGlyphs" textLength="95" x="499" y="360.3857">TerminalLayer</text><line style="stroke: #000000; stroke-width: 1.0;" x1="484" x2="632" y1="367.6875" y2="367.6875"/><text fill="#000000" font-family="sans-serif" font-size="14" lengthAdjust="spacingAndGlyphs" textLength="71" x="499" y="384.6826">StdioLayer</text><path d="M667.5,315 L667.5,331 L633.3,335 L667.5,339 L667.5,355.2656 A0,0 0 0 0 667.5,355.2656 L826.5,355.2656 A0,0 0 0 0 826.5,355.2656 L826.5,325 L816.5,315 L667.5,315 A0,0 0 0 0 667.5,315 " fill="#FBFB77" filter="url(#f18pf0pv6xqzmc)" style="stroke: #A80036; stroke-width: 1.0;"/><path d="M816.5,315 L816.5,325 L826.5,325 L816.5,315 " fill="#FBFB77" style="stroke: #A80036; stroke-width: 1.0;"/><text fill="#000000" font-family="sans-serif" font-size="13" lengthAdjust="spacingAndGlyphs" textLength="138" x="673.5" y="332.0669">Any stack as required</text><text fill="#000000" font-family="sans-serif" font-size="13" lengthAdjust="spacingAndGlyphs" textLength="138" x="673.5" y="347.1997">for you infrastructure.</text><!--entity sync1--><rect fill="#FEFECE" filter="url(#f18pf0pv6xqzmc)" height="36.2969" style="stroke: #000000; stroke-width: 1.5;" width="110" x="844" y="160"/><text fill="#000000" font-family="sans-serif" font-size="14" lengthAdjust="spacingAndGlyphs" textLength="90" x="854" y="182.9951">Synchronizer</text><!--entity syncstack--><rect fill="#FEFECE" filter="url(#f18pf0pv6xqzmc)" height="84.8906" style="stroke: #000000; stroke-width: 1.5;" width="138" x="862" y="292.5"/><text fill="#000000" font-family="sans-serif" font-size="14" lengthAdjust="spacingAndGlyphs" textLength="118" x="872" y="315.4951">AsciiEscapeLayer</text><line style="stroke: #000000; stroke-width: 1.0;" x1="863" x2="999" y1="318.7969" y2="318.7969"/><text fill="#000000" font-family="sans-serif" font-size="14" lengthAdjust="spacingAndGlyphs" textLength="95" x="878" y="335.792">TerminalLayer</text><line style="stroke: #000000; stroke-width: 1.0;" x1="863" x2="999" y1="343.0938" y2="343.0938"/><text fill="#000000" font-family="sans-serif" font-size="14" lengthAdjust="spacingAndGlyphs" textLength="59" x="878" y="360.0889">FileLayer</text><!--entity wrapper--><rect fill="#FEFECE" filter="url(#f18pf0pv6xqzmc)" height="157.7813" style="stroke: #000000; stroke-width: 1.5;" width="159" x="37.5" y="256"/><text fill="#000000" font-family="sans-serif" font-size="14" lengthAdjust="spacingAndGlyphs" textLength="107" x="47.5" y="278.9951">ed2.ZmqServer</text><line style="stroke: #000000; stroke-width: 1.0;" x1="38.5" x2="195.5" y1="282.2969" y2="282.2969"/><text fill="#000000" font-family="sans-serif" font-size="14" lengthAdjust="spacingAndGlyphs" textLength="106" x="53.5" y="299.292">DebugArqLayer</text><line style="stroke: #000000; stroke-width: 1.0;" x1="38.5" x2="195.5" y1="306.5938" y2="306.5938"/><text fill="#000000" font-family="sans-serif" font-size="14" lengthAdjust="spacingAndGlyphs" textLength="77" x="53.5" y="323.5889">Crc16Layer</text><line style="stroke: #000000; stroke-width: 1.0;" x1="38.5" x2="195.5" y1="330.8906" y2="330.8906"/><text fill="#000000" font-family="sans-serif" font-size="14" lengthAdjust="spacingAndGlyphs" textLength="118" x="53.5" y="347.8857">AsciiEscapeLayer</text><line style="stroke: #000000; stroke-width: 1.0;" x1="38.5" x2="195.5" y1="355.1875" y2="355.1875"/><text fill="#000000" font-family="sans-serif" font-size="14" lengthAdjust="spacingAndGlyphs" textLength="95" x="53.5" y="372.1826">TerminalLayer</text><line style="stroke: #000000; stroke-width: 1.0;" x1="38.5" x2="195.5" y1="379.4844" y2="379.4844"/><text fill="#000000" font-family="sans-serif" font-size="14" lengthAdjust="spacingAndGlyphs" textLength="127" x="53.5" y="396.4795">ed2.wrapper.serial</text><path d="M232,307.5 L232,331 L196.57,335 L232,339 L232,362.8984 A0,0 0 0 0 232,362.8984 L422,362.8984 A0,0 0 0 0 422,362.8984 L422,317.5 L412,307.5 L232,307.5 A0,0 0 0 0 232,307.5 " fill="#FBFB77" filter="url(#f18pf0pv6xqzmc)" style="stroke: #A80036; stroke-width: 1.0;"/><path d="M412,307.5 L412,317.5 L422,317.5 L412,307.5 " fill="#FBFB77" style="stroke: #A80036; stroke-width: 1.0;"/><text fill="#000000" font-family="sans-serif" font-size="13" lengthAdjust="spacingAndGlyphs" textLength="169" x="238" y="324.5669">The configured stack must</text><text fill="#000000" font-family="sans-serif" font-size="13" lengthAdjust="spacingAndGlyphs" textLength="136" x="238" y="339.6997">match the one at the</text><text fill="#000000" font-family="sans-serif" font-size="13" lengthAdjust="spacingAndGlyphs" textLength="103" x="238" y="354.8325">embedded side.</text><!--entity ZMQ--><ellipse cx="117" cy="508" fill="#FEFECE" filter="url(#f18pf0pv6xqzmc)" rx="8" ry="8" style="stroke: #A80036; stroke-width: 2.0;"/><text fill="#000000" font-family="sans-serif" font-size="14" lengthAdjust="spacingAndGlyphs" textLength="33" x="100.5" y="537.9951">ZMQ</text><!--entity gui--><rect fill="#FEFECE" filter="url(#f18pf0pv6xqzmc)" height="36.2969" style="stroke: #000000; stroke-width: 1.5;" width="72" x="60" y="621.5"/><text fill="#000000" font-family="sans-serif" font-size="14" lengthAdjust="spacingAndGlyphs" textLength="52" x="70" y="644.4951">ed2.gui</text><!--entity visu--><rect fill="#FEFECE" filter="url(#f18pf0pv6xqzmc)" height="36.2969" style="stroke: #000000; stroke-width: 1.5;" width="78" x="167" y="621.5"/><text fill="#000000" font-family="sans-serif" font-size="14" lengthAdjust="spacingAndGlyphs" textLength="58" x="177" y="644.4951">ed2.visu</text><!--entity storeA2--><rect fill="#FEFECE" filter="url(#f18pf0pv6xqzmc)" height="52.5938" style="stroke: #000000; stroke-width: 1.5;" width="172" x="626" y="481.5"/><text fill="#000000" font-family="sans-serif" font-size="14" lengthAdjust="spacingAndGlyphs" textLength="101" x="636" y="504.4951">Store A (VHDL)</text><text fill="#000000" font-family="sans-serif" font-size="14" lengthAdjust="spacingAndGlyphs" textLength="152" x="636" y="520.792">includes Synchronizer</text><!--entity fpgastack--><rect fill="#FEFECE" filter="url(#f18pf0pv6xqzmc)" height="84.8906" style="stroke: #000000; stroke-width: 1.5;" width="138" x="709" y="597"/><text fill="#000000" font-family="sans-serif" font-size="14" lengthAdjust="spacingAndGlyphs" textLength="118" x="719" y="619.9951">AsciiEscapeLayer</text><line style="stroke: #000000; stroke-width: 1.0;" x1="710" x2="846" y1="623.2969" y2="623.2969"/><text fill="#000000" font-family="sans-serif" font-size="14" lengthAdjust="spacingAndGlyphs" textLength="95" x="725" y="640.292">TerminalLayer</text><line style="stroke: #000000; stroke-width: 1.0;" x1="710" x2="846" y1="647.5938" y2="647.5938"/><text fill="#000000" font-family="sans-serif" font-size="14" lengthAdjust="spacingAndGlyphs" textLength="74" x="725" y="664.5889">UARTLayer</text><!--entity app2--><path d="M581.5,628.5 C581.5,625.5 583.5,623.5 586.5,623.5 C589.5,623.5 591.5,625.5 591.5,628.5 C591.5,625.5 593.5,623.5 596.5,623.5 C599.5,623.5 601.5,625.5 601.5,628.5 C601.5,625.5 603.5,623.5 606.5,623.5 C609.5,623.5 611.5,625.5 611.5,628.5 C611.5,625.5 613.5,623.5 616.5,623.5 C619.5,623.5 621.5,625.5 621.5,628.5 C621.5,625.5 623.5,623.5 626.5,623.5 C629.5,623.5 631.5,625.5 631.5,628.5 C631.5,625.5 633.5,623.5 636.5,623.5 C639.5,623.5 641.5,625.5 641.5,628.5 C641.5,625.5 643.5,623.5 646.5,623.5 C649.5,623.5 651.5,625.5 651.5,628.5 C651.5,625.5 653.5,623.5 656.5,623.5 C659.5,623.5 661.5,625.5 661.5,628.5 C661.5,625.5 663.5,623.5 666.5,623.5 C669.5,623.5 671.5,625.5 671.5,628.5 C674.5,628.5 676.5,630.5 676.5,633.5 C676.5,636.5 674.5,638.5 671.5,638.5 C674.5,638.5 676.5,640.5 676.5,643.5 C676.5,646.5 674.5,648.5 671.5,648.5 C671.5,651.5 668.5,653.5 666.5,653.5 C663.5,653.5 661.5,651.5 661.5,648.5 C661.5,651.5 658.5,653.5 656.5,653.5 C653.5,653.5 651.5,651.5 651.5,648.5 C651.5,651.5 648.5,653.5 646.5,653.5 C643.5,653.5 641.5,651.5 641.5,648.5 C641.5,651.5 638.5,653.5 636.5,653.5 C633.5,653.5 631.5,651.5 631.5,648.5 C631.5,651.5 628.5,653.5 626.5,653.5 C623.5,653.5 621.5,651.5 621.5,648.5 C621.5,651.5 618.5,653.5 616.5,653.5 C613.5,653.5 611.5,651.5 611.5,648.5 C611.5,651.5 608.5,653.5 606.5,653.5 C603.5,653.5 601.5,651.5 601.5,648.5 C601.5,651.5 598.5,653.5 596.5,653.5 C593.5,653.5 591.5,651.5 591.5,648.5 C591.5,651.5 588.5,653.5 586.5,653.5 C583.5,653.5 581.5,651.5 581.5,648.5 C578.5,648.5 576.5,646.5 576.5,643.5 C576.5,640.5 578.5,638.5 581.5,638.5 C578.5,638.5 576.5,636.5 576.5,633.5 C576.5,630.5 578.5,628.5 581.5,628.5 " fill="#FEFECE" filter="url(#f18pf0pv6xqzmc)" style="stroke: #000000; stroke-width: 1.5;"/><text fill="#000000" font-family="sans-serif" font-size="14" lengthAdjust="spacingAndGlyphs" textLength="75" x="588.5" y="644.4951">Application</text><!--entity UART--><ellipse cx="500" cy="508" fill="#FEFECE" filter="url(#f18pf0pv6xqzmc)" rx="8" ry="8" style="stroke: #A80036; stroke-width: 2.0;"/><text fill="#000000" font-family="sans-serif" font-size="14" lengthAdjust="spacingAndGlyphs" textLength="77" x="461.5" y="537.9951">lossy UART</text><!--entity UARTsync--><ellipse cx="936" cy="508" fill="#FEFECE" filter="url(#f18pf0pv6xqzmc)" rx="8" ry="8" style="stroke: #A80036; stroke-width: 2.0;"/><text fill="#000000" font-family="sans-serif" font-size="14" lengthAdjust="spacingAndGlyphs" textLength="98" x="887" y="537.9951">lossless UART</text><!--link storeA1 to app1--><path d="M731.11,100.02 C703.29,117.01 660.78,142.95 632.94,159.95 " fill="none" id="storeA1-app1" style="stroke: #A80036; stroke-width: 1.0;"/><!--link storeB1 to app1--><path d="M605,100.24 C605,117.2 605,142.95 605,159.87 " fill="none" id="storeB1-app1" style="stroke: #A80036; stroke-width: 1.0;"/><!--link storeA1 to debugger--><path d="M754.23,100.24 C749.54,117.2 742.42,142.95 737.74,159.87 " fill="none" id="storeA1-debugger" style="stroke: #A80036; stroke-width: 1.0;"/><!--link storeB1 to debugger--><path d="M628.18,100.02 C651.23,116.95 686.42,142.79 709.56,159.79 " fill="none" id="storeB1-debugger" style="stroke: #A80036; stroke-width: 1.0;"/><!--link debugger to debugstack--><path d="M687.91,189.3 C674.87,193.67 661.16,199.73 650,208 C628.35,224.05 609.64,246.66 594.84,268.31 " fill="none" id="debugger-debugstack" style="stroke: #A80036; stroke-width: 1.0;"/><!--link storeA1 to sync1--><path d="M784.35,100.02 C809.57,116.95 848.05,142.79 873.36,159.79 " fill="none" id="storeA1-sync1" style="stroke: #A80036; stroke-width: 1.0;"/><!--link sync1 to syncstack--><path d="M902.55,196.18 C907.3,219.2 915.88,260.79 922.39,292.28 " fill="none" id="sync1-syncstack" style="stroke: #A80036; stroke-width: 1.0;"/><!--link debugstack to UART--><path d="M535.74,401.62 C523.09,438.92 508.63,481.56 502.72,498.97 " fill="none" id="debugstack-UART" style="stroke: #A80036; stroke-width: 1.0;"/><!--link syncstack to UARTsync--><path d="M932.22,377.83 C933.41,418.57 935.13,477.38 935.76,498.8 " fill="none" id="syncstack-UARTsync" style="stroke: #A80036; stroke-width: 1.0;"/><!--link wrapper to UART--><path d="M192.48,414.11 C199.38,418.56 206.58,422.45 214,425.5 C260.06,444.46 393.21,411.71 438,433.5 C467.12,447.67 487.71,482.57 495.98,498.65 " fill="none" id="wrapper-UART" style="stroke: #A80036; stroke-width: 1.0;"/><!--link wrapper to ZMQ--><path d="M117,414.49 C117,448.21 117,483.39 117,498.87 " fill="none" id="wrapper-ZMQ" style="stroke: #A80036; stroke-width: 1.0;"/><!--link ZMQ to gui--><path d="M115.69,517.1 C112.33,537.81 103.37,593.04 98.79,621.31 " fill="none" id="ZMQ-gui" style="stroke: #A80036; stroke-width: 1.0;"/><!--link ZMQ to visu--><path d="M122.57,517.1 C136.8,537.81 174.76,593.04 194.19,621.31 " fill="none" id="ZMQ-visu" style="stroke: #A80036; stroke-width: 1.0;"/><!--link storeA2 to fpgastack--><path d="M725.04,534.59 C734.09,552.35 746.36,576.41 756.8,596.91 " fill="none" id="storeA2-fpgastack" style="stroke: #A80036; stroke-width: 1.0;"/><!--link storeA2 to app2--><path d="M695.01,534.59 C677.97,560.24 652.22,599.02 637.46,621.24 " fill="none" id="storeA2-app2" style="stroke: #A80036; stroke-width: 1.0;"/><!--link UARTsync to fpgastack--><path d="M926.59,516.71 C907.72,532.18 864.07,567.96 828.93,596.76 " fill="none" id="UARTsync-fpgastack" style="stroke: #A80036; stroke-width: 1.0;"/><!--
@startuml
node "Microcontroller" {
   rectangle storeA1 [
   Store A (C++)
   ]

   rectangle storeB1 [
   Store B (C++)
   ]

   cloud app1 [
      Application
   ]
   storeA1 - - app1
   storeB1 - - app1

   rectangle debugger [
   Debugger
   ]
   storeA1 - - debugger
   storeB1 - - debugger

   rectangle debugstack [
   DebugArqLayer
   - - - -
   Crc16Layer
   - - - -
   AsciiEscapeLayer
   - - - -
   TerminalLayer
   - - - -
   StdioLayer
   ]
   debugger - - debugstack

   note right of debugstack
      Any stack as required
      for you infrastructure.
   end note

   rectangle sync1 [
   Synchronizer
   ]

   storeA1 - - sync1

   rectangle syncstack [
   AsciiEscapeLayer
   - - - -
   TerminalLayer
   - - - -
   FileLayer
   ]
   sync1 - - syncstack
}

() "lossy UART" as UART
debugstack - - UART

() "lossless UART" as UARTsync
syncstack - - UARTsync

node "PC" {
   rectangle wrapper [
      ed2.ZmqServer
      - - - -
      DebugArqLayer
      - - - -
      Crc16Layer
      - - - -
      AsciiEscapeLayer
      - - - -
      TerminalLayer
      - - - -
      ed2.wrapper.serial
   ]
   wrapper - - UART

   note right of wrapper
      The configured stack must
      match the one at the
      embedded side.
   end note

   () ZMQ
   wrapper - - ZMQ

   rectangle gui [
      ed2.gui
   ]
   ZMQ - - gui

   rectangle visu [
      ed2.visu
   ]
   ZMQ - - visu
}

node "FPGA" {
   rectangle storeA2 [
   Store A (VHDL)
   includes Synchronizer
   ]

   rectangle fpgastack [
   AsciiEscapeLayer
   - - - -
   TerminalLayer
   - - - -
   UARTLayer
   ]
   storeA2 - - fpgastack

   cloud app2 [
      Application
   ]
   storeA2 - - app2
}

UARTsync - - fpgastack

@enduml

PlantUML version 1.2018.13(Mon Nov 26 17:11:51 UTC 2018)
(GPL source distribution)
Java Runtime: OpenJDK Runtime Environment
JVM: OpenJDK 64-Bit Server VM
Java Version: 11.0.11+9
Operating System: Linux
OS Version: 5.8.0-1039-azure
Default Encoding: UTF-8
Language: en
Country: null
--></g></svg>