<?xml version="1.0" encoding="UTF-8" standalone="no"?><svg xmlns="http://www.w3.org/2000/svg" xmlns:xlink="http://www.w3.org/1999/xlink" contentScriptType="application/ecmascript" contentStyleType="text/css" height="720px" preserveAspectRatio="none" style="width:704px;height:720px;" version="1.1" viewBox="0 0 704 720" width="704px" zoomAndPan="magnify"><defs><filter height="300%" id="f1a53gqzem1jlj" width="300%" x="-1" y="-1"><feGaussianBlur result="blurOut" stdDeviation="2.0"/><feColorMatrix in="blurOut" result="blurOut2" type="matrix" values="0 0 0 0 0 0 0 0 0 0 0 0 0 0 0 0 0 0 .4 0"/><feOffset dx="4.0" dy="4.0" in="blurOut2" result="blurOut3"/><feBlend in="SourceGraphic" in2="blurOut3" mode="normal"/></filter></defs><g><ellipse cx="351.5" cy="20" fill="#000000" filter="url(#f1a53gqzem1jlj)" rx="10" ry="10" style="stroke: none; stroke-width: 1.0;"/><polygon fill="#FEFECE" filter="url(#f1a53gqzem1jlj)" points="307.5,50,405.5,50,395.5,83.9688,297.5,83.9688" style="stroke: #A80036; stroke-width: 1.5;"/><text fill="#000000" font-family="sans-serif" font-size="12" lengthAdjust="spacingAndGlyphs" textLength="88" x="307.5" y="71.1387">store.st file(s)</text><rect fill="#FEFECE" filter="url(#f1a53gqzem1jlj)" height="47.9375" rx="12.5" ry="12.5" style="stroke: #A80036; stroke-width: 1.5;" width="206" x="248.5" y="103.9688"/><text fill="#000000" font-family="sans-serif" font-size="12" lengthAdjust="spacingAndGlyphs" textLength="96" x="258.5" y="125.1074">Generate store</text><text fill="#000000" font-family="sans-serif" font-size="12" lengthAdjust="spacingAndGlyphs" textLength="186" x="258.5" y="139.0762">(by libstored's CMakeLists.txt)</text><rect fill="#000000" filter="url(#f1a53gqzem1jlj)" height="6" rx="2.5" ry="2.5" style="stroke: #000000; stroke-width: 1.0;" width="683" x="10" y="171.9063"/><polygon fill="#FEFECE" filter="url(#f1a53gqzem1jlj)" points="86,197.9063,205,197.9063,195,231.875,76,231.875" style="stroke: #A80036; stroke-width: 1.5;"/><text fill="#000000" font-family="sans-serif" font-size="12" lengthAdjust="spacingAndGlyphs" textLength="109" x="86" y="219.0449">C++ static library</text><rect fill="#FEFECE" filter="url(#f1a53gqzem1jlj)" height="33.9688" rx="12.5" ry="12.5" style="stroke: #A80036; stroke-width: 1.5;" width="219" x="31" y="266.875"/><text fill="#000000" font-family="sans-serif" font-size="12" lengthAdjust="spacingAndGlyphs" textLength="199" x="41" y="288.0137">Link to common libstored library</text><rect fill="#FEFECE" filter="url(#f1a53gqzem1jlj)" height="33.9688" rx="12.5" ry="12.5" style="stroke: #A80036; stroke-width: 1.5;" width="178" x="51.5" y="335.8438"/><text fill="#000000" font-family="sans-serif" font-size="12" lengthAdjust="spacingAndGlyphs" textLength="158" x="61.5" y="356.9824">Integrate store in project</text><rect fill="#FEFECE" filter="url(#f1a53gqzem1jlj)" height="47.9375" rx="12.5" ry="12.5" style="stroke: #A80036; stroke-width: 1.5;" width="216" x="32.5" y="404.8125"/><text fill="#000000" font-family="sans-serif" font-size="12" lengthAdjust="spacingAndGlyphs" textLength="196" x="42.5" y="425.9512">Instantiate Debugger instance,</text><text fill="#000000" font-family="sans-serif" font-size="12" lengthAdjust="spacingAndGlyphs" textLength="152" x="42.5" y="439.9199">and build protocol stack</text><rect fill="#FEFECE" filter="url(#f1a53gqzem1jlj)" height="47.9375" rx="12.5" ry="12.5" style="stroke: #A80036; stroke-width: 1.5;" width="233" x="24" y="487.75"/><text fill="#000000" font-family="sans-serif" font-size="12" lengthAdjust="spacingAndGlyphs" textLength="213" x="34" y="508.8887">Instantiate Synchronizer instance,</text><text fill="#000000" font-family="sans-serif" font-size="12" lengthAdjust="spacingAndGlyphs" textLength="152" x="34" y="522.8574">and build protocol stack</text><polygon fill="#FEFECE" filter="url(#f1a53gqzem1jlj)" points="297,232.3906,464,232.3906,454,266.3594,287,266.3594" style="stroke: #A80036; stroke-width: 1.5;"/><text fill="#000000" font-family="sans-serif" font-size="12" lengthAdjust="spacingAndGlyphs" textLength="157" x="297" y="253.5293">VHDL package and entity</text><rect fill="#FEFECE" filter="url(#f1a53gqzem1jlj)" height="47.9375" rx="12.5" ry="12.5" style="stroke: #A80036; stroke-width: 1.5;" width="181" x="285" y="301.3594"/><text fill="#000000" font-family="sans-serif" font-size="12" lengthAdjust="spacingAndGlyphs" textLength="161" x="295" y="322.498">Include common libstored</text><text fill="#000000" font-family="sans-serif" font-size="12" lengthAdjust="spacingAndGlyphs" textLength="105" x="295" y="336.4668">package/entities</text><rect fill="#FEFECE" filter="url(#f1a53gqzem1jlj)" height="33.9688" rx="12.5" ry="12.5" style="stroke: #A80036; stroke-width: 1.5;" width="178" x="286.5" y="384.2969"/><text fill="#000000" font-family="sans-serif" font-size="12" lengthAdjust="spacingAndGlyphs" textLength="158" x="296.5" y="405.4355">Integrate store in project</text><rect fill="#FEFECE" filter="url(#f1a53gqzem1jlj)" height="47.9375" rx="12.5" ry="12.5" style="stroke: #A80036; stroke-width: 1.5;" width="179" x="286" y="453.2656"/><text fill="#000000" font-family="sans-serif" font-size="12" lengthAdjust="spacingAndGlyphs" textLength="159" x="296" y="474.4043">Build store's synchronizer</text><text fill="#000000" font-family="sans-serif" font-size="12" lengthAdjust="spacingAndGlyphs" textLength="90" x="296" y="488.373">protocol stack</text><polygon fill="#FEFECE" filter="url(#f1a53gqzem1jlj)" points="538.5,315.3281,644.5,315.3281,634.5,349.2969,528.5,349.2969" style="stroke: #A80036; stroke-width: 1.5;"/><text fill="#000000" font-family="sans-serif" font-size="12" lengthAdjust="spacingAndGlyphs" textLength="96" x="538.5" y="336.4668">Documentation</text><rect fill="#FEFECE" filter="url(#f1a53gqzem1jlj)" height="33.9688" rx="12.5" ry="12.5" style="stroke: #A80036; stroke-width: 1.5;" width="185" x="494" y="384.2969"/><text fill="#000000" font-family="sans-serif" font-size="12" lengthAdjust="spacingAndGlyphs" textLength="165" x="504" y="405.4355">Integrate in project's docs</text><rect fill="#000000" filter="url(#f1a53gqzem1jlj)" height="6" rx="2.5" ry="2.5" style="stroke: #000000; stroke-width: 1.0;" width="683" x="10" y="555.6875"/><rect fill="#FEFECE" filter="url(#f1a53gqzem1jlj)" height="33.9688" rx="12.5" ry="12.5" style="stroke: #A80036; stroke-width: 1.5;" width="142" x="280.5" y="581.6875"/><text fill="#000000" font-family="sans-serif" font-size="12" lengthAdjust="spacingAndGlyphs" textLength="122" x="290.5" y="602.8262">Integrate on device</text><rect fill="#FEFECE" filter="url(#f1a53gqzem1jlj)" height="33.9688" rx="12.5" ry="12.5" style="stroke: #A80036; stroke-width: 1.5;" width="175" x="264" y="635.6563"/><text fill="#000000" font-family="sans-serif" font-size="12" lengthAdjust="spacingAndGlyphs" textLength="155" x="274" y="656.7949">Debug with Python client</text><ellipse cx="351.5" cy="699.625" fill="none" filter="url(#f1a53gqzem1jlj)" rx="10" ry="10" style="stroke: #000000; stroke-width: 1.0;"/><ellipse cx="352" cy="700.125" fill="#000000" filter="url(#f1a53gqzem1jlj)" rx="6" ry="6" style="stroke: none; stroke-width: 1.0;"/><line style="stroke: #A80036; stroke-width: 1.5;" x1="351.5" x2="351.5" y1="30" y2="50"/><polygon fill="#A80036" points="347.5,40,351.5,50,355.5,40,351.5,44" style="stroke: #A80036; stroke-width: 1.0;"/><line style="stroke: #A80036; stroke-width: 1.5;" x1="351.5" x2="351.5" y1="83.9688" y2="103.9688"/><polygon fill="#A80036" points="347.5,93.9688,351.5,103.9688,355.5,93.9688,351.5,97.9688" style="stroke: #A80036; stroke-width: 1.0;"/><line style="stroke: #A80036; stroke-width: 1.5;" x1="140.5" x2="140.5" y1="231.875" y2="266.875"/><polygon fill="#A80036" points="136.5,256.875,140.5,266.875,144.5,256.875,140.5,260.875" style="stroke: #A80036; stroke-width: 1.0;"/><line style="stroke: #A80036; stroke-width: 1.5;" x1="140.5" x2="140.5" y1="300.8438" y2="335.8438"/><polygon fill="#A80036" points="136.5,325.8438,140.5,335.8438,144.5,325.8438,140.5,329.8438" style="stroke: #A80036; stroke-width: 1.0;"/><line style="stroke: #A80036; stroke-width: 1.5;" x1="140.5" x2="140.5" y1="369.8125" y2="404.8125"/><polygon fill="#A80036" points="136.5,394.8125,140.5,404.8125,144.5,394.8125,140.5,398.8125" style="stroke: #A80036; stroke-width: 1.0;"/><line style="stroke: #A80036; stroke-width: 1.5;" x1="140.5" x2="140.5" y1="452.75" y2="487.75"/><polygon fill="#A80036" points="136.5,477.75,140.5,487.75,144.5,477.75,140.5,481.75" style="stroke: #A80036; stroke-width: 1.0;"/><line style="stroke: #A80036; stroke-width: 1.5;" x1="375.5" x2="375.5" y1="266.3594" y2="301.3594"/><polygon fill="#A80036" points="371.5,291.3594,375.5,301.3594,379.5,291.3594,375.5,295.3594" style="stroke: #A80036; stroke-width: 1.0;"/><line style="stroke: #A80036; stroke-width: 1.5;" x1="375.5" x2="375.5" y1="349.2969" y2="384.2969"/><polygon fill="#A80036" points="371.5,374.2969,375.5,384.2969,379.5,374.2969,375.5,378.2969" style="stroke: #A80036; stroke-width: 1.0;"/><line style="stroke: #A80036; stroke-width: 1.5;" x1="375.5" x2="375.5" y1="418.2656" y2="453.2656"/><polygon fill="#A80036" points="371.5,443.2656,375.5,453.2656,379.5,443.2656,375.5,447.2656" style="stroke: #A80036; stroke-width: 1.0;"/><line style="stroke: #A80036; stroke-width: 1.5;" x1="586.5" x2="586.5" y1="349.2969" y2="384.2969"/><polygon fill="#A80036" points="582.5,374.2969,586.5,384.2969,590.5,374.2969,586.5,378.2969" style="stroke: #A80036; stroke-width: 1.0;"/><line style="stroke: #A80036; stroke-width: 1.5;" x1="140.5" x2="140.5" y1="177.9063" y2="197.9063"/><polygon fill="#A80036" points="136.5,187.9063,140.5,197.9063,144.5,187.9063,140.5,191.9063" style="stroke: #A80036; stroke-width: 1.0;"/><line style="stroke: #A80036; stroke-width: 1.5;" x1="375.5" x2="375.5" y1="177.9063" y2="232.3906"/><polygon fill="#A80036" points="371.5,222.3906,375.5,232.3906,379.5,222.3906,375.5,226.3906" style="stroke: #A80036; stroke-width: 1.0;"/><line style="stroke: #A80036; stroke-width: 1.5;" x1="586.5" x2="586.5" y1="177.9063" y2="315.3281"/><polygon fill="#A80036" points="582.5,305.3281,586.5,315.3281,590.5,305.3281,586.5,309.3281" style="stroke: #A80036; stroke-width: 1.0;"/><line style="stroke: #A80036; stroke-width: 1.5;" x1="140.5" x2="140.5" y1="535.6875" y2="555.6875"/><polygon fill="#A80036" points="136.5,545.6875,140.5,555.6875,144.5,545.6875,140.5,549.6875" style="stroke: #A80036; stroke-width: 1.0;"/><line style="stroke: #A80036; stroke-width: 1.5;" x1="375.5" x2="375.5" y1="501.2031" y2="555.6875"/><polygon fill="#A80036" points="371.5,545.6875,375.5,555.6875,379.5,545.6875,375.5,549.6875" style="stroke: #A80036; stroke-width: 1.0;"/><line style="stroke: #A80036; stroke-width: 1.5;" x1="586.5" x2="586.5" y1="418.2656" y2="555.6875"/><polygon fill="#A80036" points="582.5,545.6875,586.5,555.6875,590.5,545.6875,586.5,549.6875" style="stroke: #A80036; stroke-width: 1.0;"/><line style="stroke: #A80036; stroke-width: 1.5;" x1="351.5" x2="351.5" y1="151.9063" y2="171.9063"/><polygon fill="#A80036" points="347.5,161.9063,351.5,171.9063,355.5,161.9063,351.5,165.9063" style="stroke: #A80036; stroke-width: 1.0;"/><line style="stroke: #A80036; stroke-width: 1.5;" x1="351.5" x2="351.5" y1="561.6875" y2="581.6875"/><polygon fill="#A80036" points="347.5,571.6875,351.5,581.6875,355.5,571.6875,351.5,575.6875" style="stroke: #A80036; stroke-width: 1.0;"/><line style="stroke: #A80036; stroke-width: 1.5;" x1="351.5" x2="351.5" y1="615.6563" y2="635.6563"/><polygon fill="#A80036" points="347.5,625.6563,351.5,635.6563,355.5,625.6563,351.5,629.6563" style="stroke: #A80036; stroke-width: 1.0;"/><line style="stroke: #A80036; stroke-width: 1.5;" x1="351.5" x2="351.5" y1="669.625" y2="689.625"/><polygon fill="#A80036" points="347.5,679.625,351.5,689.625,355.5,679.625,351.5,683.625" style="stroke: #A80036; stroke-width: 1.0;"/><!--
@startuml
start
:store.st file(s)/
:Generate store
(by libstored's CMakeLists.txt);
fork
   :C++ static library/
   :Link to common libstored library;
   :Integrate store in project;
   :Instantiate Debugger instance,
   and build protocol stack;
   :Instantiate Synchronizer instance,
   and build protocol stack;
fork again
   :VHDL package and entity/
   :Include common libstored
   package/entities;
   :Integrate store in project;
   :Build store's synchronizer
   protocol stack;
fork again
   :Documentation/
   :Integrate in project's docs;
end fork
:Integrate on device;
:Debug with Python client;
stop

@enduml

PlantUML version 1.2017.15(Mon Jul 03 16:45:34 UTC 2017)
(GPL source distribution)
Java Runtime: OpenJDK Runtime Environment
JVM: OpenJDK 64-Bit Server VM
Java Version: 1.8.0_282-b08
Operating System: Linux
OS Version: 5.4.0-1039-azure
Default Encoding: UTF-8
Language: en
Country: null
--></g></svg>