<?xml version="1.0" encoding="UTF-8" standalone="no"?><svg xmlns="http://www.w3.org/2000/svg" xmlns:xlink="http://www.w3.org/1999/xlink" contentScriptType="application/ecmascript" contentStyleType="text/css" height="644px" preserveAspectRatio="none" style="width:2334px;height:644px;" version="1.1" viewBox="0 0 2334 644" width="2334px" zoomAndPan="magnify"><defs><filter height="300%" id="f1a37cvl8hddgj" width="300%" x="-1" y="-1"><feGaussianBlur result="blurOut" stdDeviation="2.0"/><feColorMatrix in="blurOut" result="blurOut2" type="matrix" values="0 0 0 0 0 0 0 0 0 0 0 0 0 0 0 0 0 0 .4 0"/><feOffset dx="4.0" dy="4.0" in="blurOut2" result="blurOut3"/><feBlend in="SourceGraphic" in2="blurOut3" mode="normal"/></filter></defs><g><!--MD5=[46d1e3c8abd880dae8a49e8eedf97ea2]
class ProtocolLayer--><rect fill="#FEFECE" filter="url(#f1a37cvl8hddgj)" height="48" id="ProtocolLayer" style="stroke: #A80036; stroke-width: 1.5;" width="118" x="979.5" y="8"/><ellipse cx="994.5" cy="24" fill="#A9DCDF" rx="11" ry="11" style="stroke: #A80036; stroke-width: 1.0;"/><path d="M994.6094,19.3438 L993.4531,24.4219 L995.7813,24.4219 L994.6094,19.3438 Z M993.125,17.1094 L996.1094,17.1094 L999.4688,29.5 L997.0156,29.5 L996.25,26.4375 L992.9688,26.4375 L992.2188,29.5 L989.7813,29.5 L993.125,17.1094 Z "/><text fill="#000000" font-family="sans-serif" font-size="12" font-style="italic" lengthAdjust="spacingAndGlyphs" textLength="86" x="1008.5" y="28.1543">ProtocolLayer</text><line style="stroke: #A80036; stroke-width: 1.5;" x1="980.5" x2="1096.5" y1="40" y2="40"/><line style="stroke: #A80036; stroke-width: 1.5;" x1="980.5" x2="1096.5" y1="48" y2="48"/><!--MD5=[fa734f904effd40d67737ba831d45ecc]
class AsciiEscapeLayer--><rect fill="#FEFECE" filter="url(#f1a37cvl8hddgj)" height="48" id="AsciiEscapeLayer" style="stroke: #A80036; stroke-width: 1.5;" width="139" x="6" y="117"/><ellipse cx="21" cy="133" fill="#ADD1B2" rx="11" ry="11" style="stroke: #A80036; stroke-width: 1.0;"/><path d="M23.9688,138.6406 Q23.3906,138.9375 22.75,139.0781 Q22.1094,139.2344 21.4063,139.2344 Q18.9063,139.2344 17.5781,137.5938 Q16.2656,135.9375 16.2656,132.8125 Q16.2656,129.6875 17.5781,128.0313 Q18.9063,126.375 21.4063,126.375 Q22.1094,126.375 22.75,126.5313 Q23.4063,126.6875 23.9688,126.9844 L23.9688,129.7031 Q23.3438,129.125 22.75,128.8594 Q22.1563,128.5781 21.5313,128.5781 Q20.1875,128.5781 19.5,129.6563 Q18.8125,130.7188 18.8125,132.8125 Q18.8125,134.9063 19.5,135.9844 Q20.1875,137.0469 21.5313,137.0469 Q22.1563,137.0469 22.75,136.7813 Q23.3438,136.5 23.9688,135.9219 L23.9688,138.6406 Z "/><text fill="#000000" font-family="sans-serif" font-size="12" lengthAdjust="spacingAndGlyphs" textLength="107" x="35" y="137.1543">AsciiEscapeLayer</text><line style="stroke: #A80036; stroke-width: 1.5;" x1="7" x2="144" y1="149" y2="149"/><line style="stroke: #A80036; stroke-width: 1.5;" x1="7" x2="144" y1="157" y2="157"/><!--MD5=[bb0656247591208f9366ec855291f8fb]
class TerminalLayer--><rect fill="#FEFECE" filter="url(#f1a37cvl8hddgj)" height="48" id="TerminalLayer" style="stroke: #A80036; stroke-width: 1.5;" width="118" x="91.5" y="351"/><ellipse cx="106.5" cy="367" fill="#ADD1B2" rx="11" ry="11" style="stroke: #A80036; stroke-width: 1.0;"/><path d="M109.4688,372.6406 Q108.8906,372.9375 108.25,373.0781 Q107.6094,373.2344 106.9063,373.2344 Q104.4063,373.2344 103.0781,371.5938 Q101.7656,369.9375 101.7656,366.8125 Q101.7656,363.6875 103.0781,362.0313 Q104.4063,360.375 106.9063,360.375 Q107.6094,360.375 108.25,360.5313 Q108.9063,360.6875 109.4688,360.9844 L109.4688,363.7031 Q108.8438,363.125 108.25,362.8594 Q107.6563,362.5781 107.0313,362.5781 Q105.6875,362.5781 105,363.6563 Q104.3125,364.7188 104.3125,366.8125 Q104.3125,368.9063 105,369.9844 Q105.6875,371.0469 107.0313,371.0469 Q107.6563,371.0469 108.25,370.7813 Q108.8438,370.5 109.4688,369.9219 L109.4688,372.6406 Z "/><text fill="#000000" font-family="sans-serif" font-size="12" lengthAdjust="spacingAndGlyphs" textLength="86" x="120.5" y="371.1543">TerminalLayer</text><line style="stroke: #A80036; stroke-width: 1.5;" x1="92.5" x2="208.5" y1="383" y2="383"/><line style="stroke: #A80036; stroke-width: 1.5;" x1="92.5" x2="208.5" y1="391" y2="391"/><!--MD5=[543f82e4ba47b63ed11c2834cf8c98fc]
class SegmentationLayer--><rect fill="#FEFECE" filter="url(#f1a37cvl8hddgj)" height="48" id="SegmentationLayer" style="stroke: #A80036; stroke-width: 1.5;" width="153" x="252" y="117"/><ellipse cx="267" cy="133" fill="#ADD1B2" rx="11" ry="11" style="stroke: #A80036; stroke-width: 1.0;"/><path d="M269.9688,138.6406 Q269.3906,138.9375 268.75,139.0781 Q268.1094,139.2344 267.4063,139.2344 Q264.9063,139.2344 263.5781,137.5938 Q262.2656,135.9375 262.2656,132.8125 Q262.2656,129.6875 263.5781,128.0313 Q264.9063,126.375 267.4063,126.375 Q268.1094,126.375 268.75,126.5313 Q269.4063,126.6875 269.9688,126.9844 L269.9688,129.7031 Q269.3438,129.125 268.75,128.8594 Q268.1563,128.5781 267.5313,128.5781 Q266.1875,128.5781 265.5,129.6563 Q264.8125,130.7188 264.8125,132.8125 Q264.8125,134.9063 265.5,135.9844 Q266.1875,137.0469 267.5313,137.0469 Q268.1563,137.0469 268.75,136.7813 Q269.3438,136.5 269.9688,135.9219 L269.9688,138.6406 Z "/><text fill="#000000" font-family="sans-serif" font-size="12" lengthAdjust="spacingAndGlyphs" textLength="121" x="281" y="137.1543">SegmentationLayer</text><line style="stroke: #A80036; stroke-width: 1.5;" x1="253" x2="404" y1="149" y2="149"/><line style="stroke: #A80036; stroke-width: 1.5;" x1="253" x2="404" y1="157" y2="157"/><!--MD5=[9d0517014db113a2c0d2f38315e22207]
class Crc8Layer--><rect fill="#FEFECE" filter="url(#f1a37cvl8hddgj)" height="48" id="Crc8Layer" style="stroke: #A80036; stroke-width: 1.5;" width="93" x="583" y="117"/><ellipse cx="598" cy="133" fill="#ADD1B2" rx="11" ry="11" style="stroke: #A80036; stroke-width: 1.0;"/><path d="M600.9688,138.6406 Q600.3906,138.9375 599.75,139.0781 Q599.1094,139.2344 598.4063,139.2344 Q595.9063,139.2344 594.5781,137.5938 Q593.2656,135.9375 593.2656,132.8125 Q593.2656,129.6875 594.5781,128.0313 Q595.9063,126.375 598.4063,126.375 Q599.1094,126.375 599.75,126.5313 Q600.4063,126.6875 600.9688,126.9844 L600.9688,129.7031 Q600.3438,129.125 599.75,128.8594 Q599.1563,128.5781 598.5313,128.5781 Q597.1875,128.5781 596.5,129.6563 Q595.8125,130.7188 595.8125,132.8125 Q595.8125,134.9063 596.5,135.9844 Q597.1875,137.0469 598.5313,137.0469 Q599.1563,137.0469 599.75,136.7813 Q600.3438,136.5 600.9688,135.9219 L600.9688,138.6406 Z "/><text fill="#000000" font-family="sans-serif" font-size="12" lengthAdjust="spacingAndGlyphs" textLength="61" x="612" y="137.1543">Crc8Layer</text><line style="stroke: #A80036; stroke-width: 1.5;" x1="584" x2="675" y1="149" y2="149"/><line style="stroke: #A80036; stroke-width: 1.5;" x1="584" x2="675" y1="157" y2="157"/><!--MD5=[f060905354f34a6b643dd088971be09a]
class Crc16Layer--><rect fill="#FEFECE" filter="url(#f1a37cvl8hddgj)" height="48" id="Crc16Layer" style="stroke: #A80036; stroke-width: 1.5;" width="101" x="679" y="351"/><ellipse cx="694" cy="367" fill="#ADD1B2" rx="11" ry="11" style="stroke: #A80036; stroke-width: 1.0;"/><path d="M696.9688,372.6406 Q696.3906,372.9375 695.75,373.0781 Q695.1094,373.2344 694.4063,373.2344 Q691.9063,373.2344 690.5781,371.5938 Q689.2656,369.9375 689.2656,366.8125 Q689.2656,363.6875 690.5781,362.0313 Q691.9063,360.375 694.4063,360.375 Q695.1094,360.375 695.75,360.5313 Q696.4063,360.6875 696.9688,360.9844 L696.9688,363.7031 Q696.3438,363.125 695.75,362.8594 Q695.1563,362.5781 694.5313,362.5781 Q693.1875,362.5781 692.5,363.6563 Q691.8125,364.7188 691.8125,366.8125 Q691.8125,368.9063 692.5,369.9844 Q693.1875,371.0469 694.5313,371.0469 Q695.1563,371.0469 695.75,370.7813 Q696.3438,370.5 696.9688,369.9219 L696.9688,372.6406 Z "/><text fill="#000000" font-family="sans-serif" font-size="12" lengthAdjust="spacingAndGlyphs" textLength="69" x="708" y="371.1543">Crc16Layer</text><line style="stroke: #A80036; stroke-width: 1.5;" x1="680" x2="779" y1="383" y2="383"/><line style="stroke: #A80036; stroke-width: 1.5;" x1="680" x2="779" y1="391" y2="391"/><!--MD5=[ad4329de00fa236c248ee783e9ea8988]
class Crc32Layer--><rect fill="#FEFECE" filter="url(#f1a37cvl8hddgj)" height="48" id="Crc32Layer" style="stroke: #A80036; stroke-width: 1.5;" width="101" x="531" y="351"/><ellipse cx="546" cy="367" fill="#ADD1B2" rx="11" ry="11" style="stroke: #A80036; stroke-width: 1.0;"/><path d="M548.9688,372.6406 Q548.3906,372.9375 547.75,373.0781 Q547.1094,373.2344 546.4063,373.2344 Q543.9063,373.2344 542.5781,371.5938 Q541.2656,369.9375 541.2656,366.8125 Q541.2656,363.6875 542.5781,362.0313 Q543.9063,360.375 546.4063,360.375 Q547.1094,360.375 547.75,360.5313 Q548.4063,360.6875 548.9688,360.9844 L548.9688,363.7031 Q548.3438,363.125 547.75,362.8594 Q547.1563,362.5781 546.5313,362.5781 Q545.1875,362.5781 544.5,363.6563 Q543.8125,364.7188 543.8125,366.8125 Q543.8125,368.9063 544.5,369.9844 Q545.1875,371.0469 546.5313,371.0469 Q547.1563,371.0469 547.75,370.7813 Q548.3438,370.5 548.9688,369.9219 L548.9688,372.6406 Z "/><text fill="#000000" font-family="sans-serif" font-size="12" lengthAdjust="spacingAndGlyphs" textLength="69" x="560" y="371.1543">Crc32Layer</text><line style="stroke: #A80036; stroke-width: 1.5;" x1="532" x2="631" y1="383" y2="383"/><line style="stroke: #A80036; stroke-width: 1.5;" x1="532" x2="631" y1="391" y2="391"/><!--MD5=[8c9e012c4bfa7292e0b2bc0bf19ded9b]
class BufferLayer--><rect fill="#FEFECE" filter="url(#f1a37cvl8hddgj)" height="48" id="BufferLayer" style="stroke: #A80036; stroke-width: 1.5;" width="102" x="782.5" y="117"/><ellipse cx="797.5" cy="133" fill="#ADD1B2" rx="11" ry="11" style="stroke: #A80036; stroke-width: 1.0;"/><path d="M800.4688,138.6406 Q799.8906,138.9375 799.25,139.0781 Q798.6094,139.2344 797.9063,139.2344 Q795.4063,139.2344 794.0781,137.5938 Q792.7656,135.9375 792.7656,132.8125 Q792.7656,129.6875 794.0781,128.0313 Q795.4063,126.375 797.9063,126.375 Q798.6094,126.375 799.25,126.5313 Q799.9063,126.6875 800.4688,126.9844 L800.4688,129.7031 Q799.8438,129.125 799.25,128.8594 Q798.6563,128.5781 798.0313,128.5781 Q796.6875,128.5781 796,129.6563 Q795.3125,130.7188 795.3125,132.8125 Q795.3125,134.9063 796,135.9844 Q796.6875,137.0469 798.0313,137.0469 Q798.6563,137.0469 799.25,136.7813 Q799.8438,136.5 800.4688,135.9219 L800.4688,138.6406 Z "/><text fill="#000000" font-family="sans-serif" font-size="12" lengthAdjust="spacingAndGlyphs" textLength="70" x="811.5" y="137.1543">BufferLayer</text><line style="stroke: #A80036; stroke-width: 1.5;" x1="783.5" x2="883.5" y1="149" y2="149"/><line style="stroke: #A80036; stroke-width: 1.5;" x1="783.5" x2="883.5" y1="157" y2="157"/><!--MD5=[e605664fb0cd0c40842af6c9479a1b65]
class PrintLayer--><rect fill="#FEFECE" filter="url(#f1a37cvl8hddgj)" height="48" id="PrintLayer" style="stroke: #A80036; stroke-width: 1.5;" width="94" x="919.5" y="117"/><ellipse cx="934.5" cy="133" fill="#ADD1B2" rx="11" ry="11" style="stroke: #A80036; stroke-width: 1.0;"/><path d="M937.4688,138.6406 Q936.8906,138.9375 936.25,139.0781 Q935.6094,139.2344 934.9063,139.2344 Q932.4063,139.2344 931.0781,137.5938 Q929.7656,135.9375 929.7656,132.8125 Q929.7656,129.6875 931.0781,128.0313 Q932.4063,126.375 934.9063,126.375 Q935.6094,126.375 936.25,126.5313 Q936.9063,126.6875 937.4688,126.9844 L937.4688,129.7031 Q936.8438,129.125 936.25,128.8594 Q935.6563,128.5781 935.0313,128.5781 Q933.6875,128.5781 933,129.6563 Q932.3125,130.7188 932.3125,132.8125 Q932.3125,134.9063 933,135.9844 Q933.6875,137.0469 935.0313,137.0469 Q935.6563,137.0469 936.25,136.7813 Q936.8438,136.5 937.4688,135.9219 L937.4688,138.6406 Z "/><text fill="#000000" font-family="sans-serif" font-size="12" lengthAdjust="spacingAndGlyphs" textLength="62" x="948.5" y="137.1543">PrintLayer</text><line style="stroke: #A80036; stroke-width: 1.5;" x1="920.5" x2="1012.5" y1="149" y2="149"/><line style="stroke: #A80036; stroke-width: 1.5;" x1="920.5" x2="1012.5" y1="157" y2="157"/><!--MD5=[805c9a420312e2ac344fdb3e320113b3]
class IdleCheckLayer--><rect fill="#FEFECE" filter="url(#f1a37cvl8hddgj)" height="48" id="IdleCheckLayer" style="stroke: #A80036; stroke-width: 1.5;" width="125" x="1049" y="117"/><ellipse cx="1064" cy="133" fill="#ADD1B2" rx="11" ry="11" style="stroke: #A80036; stroke-width: 1.0;"/><path d="M1066.9688,138.6406 Q1066.3906,138.9375 1065.75,139.0781 Q1065.1094,139.2344 1064.4063,139.2344 Q1061.9063,139.2344 1060.5781,137.5938 Q1059.2656,135.9375 1059.2656,132.8125 Q1059.2656,129.6875 1060.5781,128.0313 Q1061.9063,126.375 1064.4063,126.375 Q1065.1094,126.375 1065.75,126.5313 Q1066.4063,126.6875 1066.9688,126.9844 L1066.9688,129.7031 Q1066.3438,129.125 1065.75,128.8594 Q1065.1563,128.5781 1064.5313,128.5781 Q1063.1875,128.5781 1062.5,129.6563 Q1061.8125,130.7188 1061.8125,132.8125 Q1061.8125,134.9063 1062.5,135.9844 Q1063.1875,137.0469 1064.5313,137.0469 Q1065.1563,137.0469 1065.75,136.7813 Q1066.3438,136.5 1066.9688,135.9219 L1066.9688,138.6406 Z "/><text fill="#000000" font-family="sans-serif" font-size="12" lengthAdjust="spacingAndGlyphs" textLength="93" x="1078" y="137.1543">IdleCheckLayer</text><line style="stroke: #A80036; stroke-width: 1.5;" x1="1050" x2="1173" y1="149" y2="149"/><line style="stroke: #A80036; stroke-width: 1.5;" x1="1050" x2="1173" y1="157" y2="157"/><!--MD5=[787b20bc6ef04a244537a1e39e0749f8]
class CallbackLayer--><rect fill="#FEFECE" filter="url(#f1a37cvl8hddgj)" height="48" id="CallbackLayer" style="stroke: #A80036; stroke-width: 1.5;" width="117" x="1209" y="117"/><ellipse cx="1224" cy="133" fill="#ADD1B2" rx="11" ry="11" style="stroke: #A80036; stroke-width: 1.0;"/><path d="M1226.9688,138.6406 Q1226.3906,138.9375 1225.75,139.0781 Q1225.1094,139.2344 1224.4063,139.2344 Q1221.9063,139.2344 1220.5781,137.5938 Q1219.2656,135.9375 1219.2656,132.8125 Q1219.2656,129.6875 1220.5781,128.0313 Q1221.9063,126.375 1224.4063,126.375 Q1225.1094,126.375 1225.75,126.5313 Q1226.4063,126.6875 1226.9688,126.9844 L1226.9688,129.7031 Q1226.3438,129.125 1225.75,128.8594 Q1225.1563,128.5781 1224.5313,128.5781 Q1223.1875,128.5781 1222.5,129.6563 Q1221.8125,130.7188 1221.8125,132.8125 Q1221.8125,134.9063 1222.5,135.9844 Q1223.1875,137.0469 1224.5313,137.0469 Q1225.1563,137.0469 1225.75,136.7813 Q1226.3438,136.5 1226.9688,135.9219 L1226.9688,138.6406 Z "/><text fill="#000000" font-family="sans-serif" font-size="12" lengthAdjust="spacingAndGlyphs" textLength="85" x="1238" y="137.1543">CallbackLayer</text><line style="stroke: #A80036; stroke-width: 1.5;" x1="1210" x2="1325" y1="149" y2="149"/><line style="stroke: #A80036; stroke-width: 1.5;" x1="1210" x2="1325" y1="157" y2="157"/><!--MD5=[97f9ff64c477c2aedb8e88a88cef2dd7]
class MuxLayer--><rect fill="#FEFECE" filter="url(#f1a37cvl8hddgj)" height="48" id="MuxLayer" style="stroke: #A80036; stroke-width: 1.5;" width="89" x="1361" y="117"/><ellipse cx="1376" cy="133" fill="#ADD1B2" rx="11" ry="11" style="stroke: #A80036; stroke-width: 1.0;"/><path d="M1378.9688,138.6406 Q1378.3906,138.9375 1377.75,139.0781 Q1377.1094,139.2344 1376.4063,139.2344 Q1373.9063,139.2344 1372.5781,137.5938 Q1371.2656,135.9375 1371.2656,132.8125 Q1371.2656,129.6875 1372.5781,128.0313 Q1373.9063,126.375 1376.4063,126.375 Q1377.1094,126.375 1377.75,126.5313 Q1378.4063,126.6875 1378.9688,126.9844 L1378.9688,129.7031 Q1378.3438,129.125 1377.75,128.8594 Q1377.1563,128.5781 1376.5313,128.5781 Q1375.1875,128.5781 1374.5,129.6563 Q1373.8125,130.7188 1373.8125,132.8125 Q1373.8125,134.9063 1374.5,135.9844 Q1375.1875,137.0469 1376.5313,137.0469 Q1377.1563,137.0469 1377.75,136.7813 Q1378.3438,136.5 1378.9688,135.9219 L1378.9688,138.6406 Z "/><text fill="#000000" font-family="sans-serif" font-size="12" lengthAdjust="spacingAndGlyphs" textLength="57" x="1390" y="137.1543">MuxLayer</text><line style="stroke: #A80036; stroke-width: 1.5;" x1="1362" x2="1449" y1="149" y2="149"/><line style="stroke: #A80036; stroke-width: 1.5;" x1="1362" x2="1449" y1="157" y2="157"/><!--MD5=[70bd3c14a03cb6f4a5db26d03306b0c0]
class Aes256Layer--><rect fill="#FEFECE" filter="url(#f1a37cvl8hddgj)" height="48" id="Aes256Layer" style="stroke: #A80036; stroke-width: 1.5;" width="112" x="1485.5" y="117"/><ellipse cx="1500.5" cy="133" fill="#ADD1B2" rx="11" ry="11" style="stroke: #A80036; stroke-width: 1.0;"/><path d="M1503.4688,138.6406 Q1502.8906,138.9375 1502.25,139.0781 Q1501.6094,139.2344 1500.9063,139.2344 Q1498.4063,139.2344 1497.0781,137.5938 Q1495.7656,135.9375 1495.7656,132.8125 Q1495.7656,129.6875 1497.0781,128.0313 Q1498.4063,126.375 1500.9063,126.375 Q1501.6094,126.375 1502.25,126.5313 Q1502.9063,126.6875 1503.4688,126.9844 L1503.4688,129.7031 Q1502.8438,129.125 1502.25,128.8594 Q1501.6563,128.5781 1501.0313,128.5781 Q1499.6875,128.5781 1499,129.6563 Q1498.3125,130.7188 1498.3125,132.8125 Q1498.3125,134.9063 1499,135.9844 Q1499.6875,137.0469 1501.0313,137.0469 Q1501.6563,137.0469 1502.25,136.7813 Q1502.8438,136.5 1503.4688,135.9219 L1503.4688,138.6406 Z "/><text fill="#000000" font-family="sans-serif" font-size="12" lengthAdjust="spacingAndGlyphs" textLength="80" x="1514.5" y="137.1543">Aes256Layer</text><line style="stroke: #A80036; stroke-width: 1.5;" x1="1486.5" x2="1596.5" y1="149" y2="149"/><line style="stroke: #A80036; stroke-width: 1.5;" x1="1486.5" x2="1596.5" y1="157" y2="157"/><!--MD5=[de9430c0a2721ea39640ffc371273433]
class ArqLayer--><rect fill="#FEFECE" filter="url(#f1a37cvl8hddgj)" height="48" id="ArqLayer" style="stroke: #A80036; stroke-width: 1.5;" width="88" x="388.5" y="351"/><ellipse cx="403.5" cy="367" fill="#A9DCDF" rx="11" ry="11" style="stroke: #A80036; stroke-width: 1.0;"/><path d="M403.6094,362.3438 L402.4531,367.4219 L404.7813,367.4219 L403.6094,362.3438 Z M402.125,360.1094 L405.1094,360.1094 L408.4688,372.5 L406.0156,372.5 L405.25,369.4375 L401.9688,369.4375 L401.2188,372.5 L398.7813,372.5 L402.125,360.1094 Z "/><text fill="#000000" font-family="sans-serif" font-size="12" font-style="italic" lengthAdjust="spacingAndGlyphs" textLength="56" x="417.5" y="371.1543">ArqLayer</text><line style="stroke: #A80036; stroke-width: 1.5;" x1="389.5" x2="475.5" y1="383" y2="383"/><line style="stroke: #A80036; stroke-width: 1.5;" x1="389.5" x2="475.5" y1="391" y2="391"/><!--MD5=[cda4e922e9ebe3258af1a67339c9ed87]
class DebugArqLayer--><rect fill="#FEFECE" filter="url(#f1a37cvl8hddgj)" height="48" id="DebugArqLayer" style="stroke: #A80036; stroke-width: 1.5;" width="127" x="369" y="476"/><ellipse cx="384" cy="492" fill="#ADD1B2" rx="11" ry="11" style="stroke: #A80036; stroke-width: 1.0;"/><path d="M386.9688,497.6406 Q386.3906,497.9375 385.75,498.0781 Q385.1094,498.2344 384.4063,498.2344 Q381.9063,498.2344 380.5781,496.5938 Q379.2656,494.9375 379.2656,491.8125 Q379.2656,488.6875 380.5781,487.0313 Q381.9063,485.375 384.4063,485.375 Q385.1094,485.375 385.75,485.5313 Q386.4063,485.6875 386.9688,485.9844 L386.9688,488.7031 Q386.3438,488.125 385.75,487.8594 Q385.1563,487.5781 384.5313,487.5781 Q383.1875,487.5781 382.5,488.6563 Q381.8125,489.7188 381.8125,491.8125 Q381.8125,493.9063 382.5,494.9844 Q383.1875,496.0469 384.5313,496.0469 Q385.1563,496.0469 385.75,495.7813 Q386.3438,495.5 386.9688,494.9219 L386.9688,497.6406 Z "/><text fill="#000000" font-family="sans-serif" font-size="12" lengthAdjust="spacingAndGlyphs" textLength="95" x="398" y="496.1543">DebugArqLayer</text><line style="stroke: #A80036; stroke-width: 1.5;" x1="370" x2="495" y1="508" y2="508"/><line style="stroke: #A80036; stroke-width: 1.5;" x1="370" x2="495" y1="516" y2="516"/><!--MD5=[da4e52b4e1b9eb66b706931eb8301346]
class PolledLayer--><rect fill="#FEFECE" filter="url(#f1a37cvl8hddgj)" height="48" id="PolledLayer" style="stroke: #A80036; stroke-width: 1.5;" width="104" x="1632.5" y="117"/><ellipse cx="1647.5" cy="133" fill="#A9DCDF" rx="11" ry="11" style="stroke: #A80036; stroke-width: 1.0;"/><path d="M1647.6094,128.3438 L1646.4531,133.4219 L1648.7813,133.4219 L1647.6094,128.3438 Z M1646.125,126.1094 L1649.1094,126.1094 L1652.4688,138.5 L1650.0156,138.5 L1649.25,135.4375 L1645.9688,135.4375 L1645.2188,138.5 L1642.7813,138.5 L1646.125,126.1094 Z "/><text fill="#000000" font-family="sans-serif" font-size="12" font-style="italic" lengthAdjust="spacingAndGlyphs" textLength="72" x="1661.5" y="137.1543">PolledLayer</text><line style="stroke: #A80036; stroke-width: 1.5;" x1="1633.5" x2="1735.5" y1="149" y2="149"/><line style="stroke: #A80036; stroke-width: 1.5;" x1="1633.5" x2="1735.5" y1="157" y2="157"/><!--MD5=[55c1bb5dd3e5d85f448bb0cecb7dd072]
class PolledFileLayer--><rect fill="#FEFECE" filter="url(#f1a37cvl8hddgj)" height="48" id="PolledFileLayer" style="stroke: #A80036; stroke-width: 1.5;" width="125" x="1611" y="226"/><ellipse cx="1626" cy="242" fill="#A9DCDF" rx="11" ry="11" style="stroke: #A80036; stroke-width: 1.0;"/><path d="M1626.1094,237.3438 L1624.9531,242.4219 L1627.2813,242.4219 L1626.1094,237.3438 Z M1624.625,235.1094 L1627.6094,235.1094 L1630.9688,247.5 L1628.5156,247.5 L1627.75,244.4375 L1624.4688,244.4375 L1623.7188,247.5 L1621.2813,247.5 L1624.625,235.1094 Z "/><text fill="#000000" font-family="sans-serif" font-size="12" font-style="italic" lengthAdjust="spacingAndGlyphs" textLength="93" x="1640" y="246.1543">PolledFileLayer</text><line style="stroke: #A80036; stroke-width: 1.5;" x1="1612" x2="1735" y1="258" y2="258"/><line style="stroke: #A80036; stroke-width: 1.5;" x1="1612" x2="1735" y1="266" y2="266"/><!--MD5=[cd704860da6a5de3d0440995dd00cb7a]
class PolledSocketLayer--><rect fill="#FEFECE" filter="url(#f1a37cvl8hddgj)" height="48" id="PolledSocketLayer" style="stroke: #A80036; stroke-width: 1.5;" width="147" x="1446" y="351"/><ellipse cx="1461" cy="367" fill="#A9DCDF" rx="11" ry="11" style="stroke: #A80036; stroke-width: 1.0;"/><path d="M1461.1094,362.3438 L1459.9531,367.4219 L1462.2813,367.4219 L1461.1094,362.3438 Z M1459.625,360.1094 L1462.6094,360.1094 L1465.9688,372.5 L1463.5156,372.5 L1462.75,369.4375 L1459.4688,369.4375 L1458.7188,372.5 L1456.2813,372.5 L1459.625,360.1094 Z "/><text fill="#000000" font-family="sans-serif" font-size="12" font-style="italic" lengthAdjust="spacingAndGlyphs" textLength="115" x="1475" y="371.1543">PolledSocketLayer</text><line style="stroke: #A80036; stroke-width: 1.5;" x1="1447" x2="1592" y1="383" y2="383"/><line style="stroke: #A80036; stroke-width: 1.5;" x1="1447" x2="1592" y1="391" y2="391"/><!--MD5=[ae00d67a786444fb93ca10aa52e37b10]
class FileLayer--><rect fill="#FEFECE" filter="url(#f1a37cvl8hddgj)" height="48" id="FileLayer" style="stroke: #A80036; stroke-width: 1.5;" width="86" x="1925.5" y="351"/><ellipse cx="1940.5" cy="367" fill="#ADD1B2" rx="11" ry="11" style="stroke: #A80036; stroke-width: 1.0;"/><path d="M1943.4688,372.6406 Q1942.8906,372.9375 1942.25,373.0781 Q1941.6094,373.2344 1940.9063,373.2344 Q1938.4063,373.2344 1937.0781,371.5938 Q1935.7656,369.9375 1935.7656,366.8125 Q1935.7656,363.6875 1937.0781,362.0313 Q1938.4063,360.375 1940.9063,360.375 Q1941.6094,360.375 1942.25,360.5313 Q1942.9063,360.6875 1943.4688,360.9844 L1943.4688,363.7031 Q1942.8438,363.125 1942.25,362.8594 Q1941.6563,362.5781 1941.0313,362.5781 Q1939.6875,362.5781 1939,363.6563 Q1938.3125,364.7188 1938.3125,366.8125 Q1938.3125,368.9063 1939,369.9844 Q1939.6875,371.0469 1941.0313,371.0469 Q1941.6563,371.0469 1942.25,370.7813 Q1942.8438,370.5 1943.4688,369.9219 L1943.4688,372.6406 Z "/><text fill="#000000" font-family="sans-serif" font-size="12" lengthAdjust="spacingAndGlyphs" textLength="54" x="1954.5" y="371.1543">FileLayer</text><line style="stroke: #A80036; stroke-width: 1.5;" x1="1926.5" x2="2010.5" y1="383" y2="383"/><line style="stroke: #A80036; stroke-width: 1.5;" x1="1926.5" x2="2010.5" y1="391" y2="391"/><!--MD5=[9a67901f5c18579ed4ec81da9c4502ea]
class NamedPipeLayer--><rect fill="#FEFECE" filter="url(#f1a37cvl8hddgj)" height="48" id="NamedPipeLayer" style="stroke: #A80036; stroke-width: 1.5;" width="136" x="1839.5" y="585"/><ellipse cx="1854.5" cy="601" fill="#ADD1B2" rx="11" ry="11" style="stroke: #A80036; stroke-width: 1.0;"/><path d="M1857.4688,606.6406 Q1856.8906,606.9375 1856.25,607.0781 Q1855.6094,607.2344 1854.9063,607.2344 Q1852.4063,607.2344 1851.0781,605.5938 Q1849.7656,603.9375 1849.7656,600.8125 Q1849.7656,597.6875 1851.0781,596.0313 Q1852.4063,594.375 1854.9063,594.375 Q1855.6094,594.375 1856.25,594.5313 Q1856.9063,594.6875 1857.4688,594.9844 L1857.4688,597.7031 Q1856.8438,597.125 1856.25,596.8594 Q1855.6563,596.5781 1855.0313,596.5781 Q1853.6875,596.5781 1853,597.6563 Q1852.3125,598.7188 1852.3125,600.8125 Q1852.3125,602.9063 1853,603.9844 Q1853.6875,605.0469 1855.0313,605.0469 Q1855.6563,605.0469 1856.25,604.7813 Q1856.8438,604.5 1857.4688,603.9219 L1857.4688,606.6406 Z "/><text fill="#000000" font-family="sans-serif" font-size="12" lengthAdjust="spacingAndGlyphs" textLength="104" x="1868.5" y="605.1543">NamedPipeLayer</text><line style="stroke: #A80036; stroke-width: 1.5;" x1="1840.5" x2="1974.5" y1="617" y2="617"/><line style="stroke: #A80036; stroke-width: 1.5;" x1="1840.5" x2="1974.5" y1="625" y2="625"/><!--MD5=[7a69f78ade9745f5b4b13488e7c442e3]
class DoublePipeLayer--><rect fill="#FEFECE" filter="url(#f1a37cvl8hddgj)" height="48" id="DoublePipeLayer" style="stroke: #A80036; stroke-width: 1.5;" width="136" x="1754.5" y="351"/><ellipse cx="1769.5" cy="367" fill="#ADD1B2" rx="11" ry="11" style="stroke: #A80036; stroke-width: 1.0;"/><path d="M1772.4688,372.6406 Q1771.8906,372.9375 1771.25,373.0781 Q1770.6094,373.2344 1769.9063,373.2344 Q1767.4063,373.2344 1766.0781,371.5938 Q1764.7656,369.9375 1764.7656,366.8125 Q1764.7656,363.6875 1766.0781,362.0313 Q1767.4063,360.375 1769.9063,360.375 Q1770.6094,360.375 1771.25,360.5313 Q1771.9063,360.6875 1772.4688,360.9844 L1772.4688,363.7031 Q1771.8438,363.125 1771.25,362.8594 Q1770.6563,362.5781 1770.0313,362.5781 Q1768.6875,362.5781 1768,363.6563 Q1767.3125,364.7188 1767.3125,366.8125 Q1767.3125,368.9063 1768,369.9844 Q1768.6875,371.0469 1770.0313,371.0469 Q1770.6563,371.0469 1771.25,370.7813 Q1771.8438,370.5 1772.4688,369.9219 L1772.4688,372.6406 Z "/><text fill="#000000" font-family="sans-serif" font-size="12" lengthAdjust="spacingAndGlyphs" textLength="104" x="1783.5" y="371.1543">DoublePipeLayer</text><line style="stroke: #A80036; stroke-width: 1.5;" x1="1755.5" x2="1889.5" y1="383" y2="383"/><line style="stroke: #A80036; stroke-width: 1.5;" x1="1755.5" x2="1889.5" y1="391" y2="391"/><!--MD5=[5dfe8c2917122be80f2d1191aa558bd1]
class XsimLayer--><rect fill="#FEFECE" filter="url(#f1a37cvl8hddgj)" height="48" id="XsimLayer" style="stroke: #A80036; stroke-width: 1.5;" width="93" x="1690" y="476"/><ellipse cx="1705" cy="492" fill="#ADD1B2" rx="11" ry="11" style="stroke: #A80036; stroke-width: 1.0;"/><path d="M1707.9688,497.6406 Q1707.3906,497.9375 1706.75,498.0781 Q1706.1094,498.2344 1705.4063,498.2344 Q1702.9063,498.2344 1701.5781,496.5938 Q1700.2656,494.9375 1700.2656,491.8125 Q1700.2656,488.6875 1701.5781,487.0313 Q1702.9063,485.375 1705.4063,485.375 Q1706.1094,485.375 1706.75,485.5313 Q1707.4063,485.6875 1707.9688,485.9844 L1707.9688,488.7031 Q1707.3438,488.125 1706.75,487.8594 Q1706.1563,487.5781 1705.5313,487.5781 Q1704.1875,487.5781 1703.5,488.6563 Q1702.8125,489.7188 1702.8125,491.8125 Q1702.8125,493.9063 1703.5,494.9844 Q1704.1875,496.0469 1705.5313,496.0469 Q1706.1563,496.0469 1706.75,495.7813 Q1707.3438,495.5 1707.9688,494.9219 L1707.9688,497.6406 Z "/><text fill="#000000" font-family="sans-serif" font-size="12" lengthAdjust="spacingAndGlyphs" textLength="61" x="1719" y="496.1543">XsimLayer</text><line style="stroke: #A80036; stroke-width: 1.5;" x1="1691" x2="1782" y1="508" y2="508"/><line style="stroke: #A80036; stroke-width: 1.5;" x1="1691" x2="1782" y1="516" y2="516"/><!--MD5=[5a71615e63dea1da3634e07eacf6d004]
class StdioLayer--><rect fill="#FEFECE" filter="url(#f1a37cvl8hddgj)" height="48" id="StdioLayer" style="stroke: #A80036; stroke-width: 1.5;" width="97" x="1818" y="476"/><ellipse cx="1833" cy="492" fill="#ADD1B2" rx="11" ry="11" style="stroke: #A80036; stroke-width: 1.0;"/><path d="M1835.9688,497.6406 Q1835.3906,497.9375 1834.75,498.0781 Q1834.1094,498.2344 1833.4063,498.2344 Q1830.9063,498.2344 1829.5781,496.5938 Q1828.2656,494.9375 1828.2656,491.8125 Q1828.2656,488.6875 1829.5781,487.0313 Q1830.9063,485.375 1833.4063,485.375 Q1834.1094,485.375 1834.75,485.5313 Q1835.4063,485.6875 1835.9688,485.9844 L1835.9688,488.7031 Q1835.3438,488.125 1834.75,487.8594 Q1834.1563,487.5781 1833.5313,487.5781 Q1832.1875,487.5781 1831.5,488.6563 Q1830.8125,489.7188 1830.8125,491.8125 Q1830.8125,493.9063 1831.5,494.9844 Q1832.1875,496.0469 1833.5313,496.0469 Q1834.1563,496.0469 1834.75,495.7813 Q1835.3438,495.5 1835.9688,494.9219 L1835.9688,497.6406 Z "/><text fill="#000000" font-family="sans-serif" font-size="12" lengthAdjust="spacingAndGlyphs" textLength="65" x="1847" y="496.1543">StdioLayer</text><line style="stroke: #A80036; stroke-width: 1.5;" x1="1819" x2="1914" y1="508" y2="508"/><line style="stroke: #A80036; stroke-width: 1.5;" x1="1819" x2="1914" y1="516" y2="516"/><!--MD5=[bdc8da1d2c439a92d521f69b249f38d1]
class CompressLayer--><rect fill="#FEFECE" filter="url(#f1a37cvl8hddgj)" height="48" id="CompressLayer" style="stroke: #A80036; stroke-width: 1.5;" width="127" x="2063" y="351"/><ellipse cx="2078" cy="367" fill="#ADD1B2" rx="11" ry="11" style="stroke: #A80036; stroke-width: 1.0;"/><path d="M2080.9688,372.6406 Q2080.3906,372.9375 2079.75,373.0781 Q2079.1094,373.2344 2078.4063,373.2344 Q2075.9063,373.2344 2074.5781,371.5938 Q2073.2656,369.9375 2073.2656,366.8125 Q2073.2656,363.6875 2074.5781,362.0313 Q2075.9063,360.375 2078.4063,360.375 Q2079.1094,360.375 2079.75,360.5313 Q2080.4063,360.6875 2080.9688,360.9844 L2080.9688,363.7031 Q2080.3438,363.125 2079.75,362.8594 Q2079.1563,362.5781 2078.5313,362.5781 Q2077.1875,362.5781 2076.5,363.6563 Q2075.8125,364.7188 2075.8125,366.8125 Q2075.8125,368.9063 2076.5,369.9844 Q2077.1875,371.0469 2078.5313,371.0469 Q2079.1563,371.0469 2079.75,370.7813 Q2080.3438,370.5 2080.9688,369.9219 L2080.9688,372.6406 Z "/><text fill="#000000" font-family="sans-serif" font-size="12" lengthAdjust="spacingAndGlyphs" textLength="95" x="2092" y="371.1543">CompressLayer</text><line style="stroke: #A80036; stroke-width: 1.5;" x1="2064" x2="2189" y1="383" y2="383"/><line style="stroke: #A80036; stroke-width: 1.5;" x1="2064" x2="2189" y1="391" y2="391"/><!--MD5=[ff23b3add25146c5cb5a8b21d880a6c4]
class FifoLoopback1--><rect fill="#FEFECE" filter="url(#f1a37cvl8hddgj)" height="48" id="FifoLoopback1" style="stroke: #A80036; stroke-width: 1.5;" width="122" x="1771.5" y="226"/><ellipse cx="1786.5" cy="242" fill="#ADD1B2" rx="11" ry="11" style="stroke: #A80036; stroke-width: 1.0;"/><path d="M1789.4688,247.6406 Q1788.8906,247.9375 1788.25,248.0781 Q1787.6094,248.2344 1786.9063,248.2344 Q1784.4063,248.2344 1783.0781,246.5938 Q1781.7656,244.9375 1781.7656,241.8125 Q1781.7656,238.6875 1783.0781,237.0313 Q1784.4063,235.375 1786.9063,235.375 Q1787.6094,235.375 1788.25,235.5313 Q1788.9063,235.6875 1789.4688,235.9844 L1789.4688,238.7031 Q1788.8438,238.125 1788.25,237.8594 Q1787.6563,237.5781 1787.0313,237.5781 Q1785.6875,237.5781 1785,238.6563 Q1784.3125,239.7188 1784.3125,241.8125 Q1784.3125,243.9063 1785,244.9844 Q1785.6875,246.0469 1787.0313,246.0469 Q1787.6563,246.0469 1788.25,245.7813 Q1788.8438,245.5 1789.4688,244.9219 L1789.4688,247.6406 Z "/><text fill="#000000" font-family="sans-serif" font-size="12" lengthAdjust="spacingAndGlyphs" textLength="90" x="1800.5" y="246.1543">FifoLoopback1</text><line style="stroke: #A80036; stroke-width: 1.5;" x1="1772.5" x2="1892.5" y1="258" y2="258"/><line style="stroke: #A80036; stroke-width: 1.5;" x1="1772.5" x2="1892.5" y1="266" y2="266"/><!--MD5=[700467bd396e71f6623f85beccea6c38]
class SerialLayer--><rect fill="#FEFECE" filter="url(#f1a37cvl8hddgj)" height="48" id="SerialLayer" style="stroke: #A80036; stroke-width: 1.5;" width="100" x="2021.5" y="476"/><ellipse cx="2036.5" cy="492" fill="#ADD1B2" rx="11" ry="11" style="stroke: #A80036; stroke-width: 1.0;"/><path d="M2039.4688,497.6406 Q2038.8906,497.9375 2038.25,498.0781 Q2037.6094,498.2344 2036.9063,498.2344 Q2034.4063,498.2344 2033.0781,496.5938 Q2031.7656,494.9375 2031.7656,491.8125 Q2031.7656,488.6875 2033.0781,487.0313 Q2034.4063,485.375 2036.9063,485.375 Q2037.6094,485.375 2038.25,485.5313 Q2038.9063,485.6875 2039.4688,485.9844 L2039.4688,488.7031 Q2038.8438,488.125 2038.25,487.8594 Q2037.6563,487.5781 2037.0313,487.5781 Q2035.6875,487.5781 2035,488.6563 Q2034.3125,489.7188 2034.3125,491.8125 Q2034.3125,493.9063 2035,494.9844 Q2035.6875,496.0469 2037.0313,496.0469 Q2037.6563,496.0469 2038.25,495.7813 Q2038.8438,495.5 2039.4688,494.9219 L2039.4688,497.6406 Z "/><text fill="#000000" font-family="sans-serif" font-size="12" lengthAdjust="spacingAndGlyphs" textLength="68" x="2050.5" y="496.1543">SerialLayer</text><line style="stroke: #A80036; stroke-width: 1.5;" x1="2022.5" x2="2120.5" y1="508" y2="508"/><line style="stroke: #A80036; stroke-width: 1.5;" x1="2022.5" x2="2120.5" y1="516" y2="516"/><!--MD5=[d71ee11ede0e83c966e8ef97d9465fe6]
class Stream--><rect fill="#FEFECE" filter="url(#f1a37cvl8hddgj)" height="48" id="Stream" style="stroke: #A80036; stroke-width: 1.5;" width="77" x="2008" y="226"/><ellipse cx="2023" cy="242" fill="#ADD1B2" rx="11" ry="11" style="stroke: #A80036; stroke-width: 1.0;"/><path d="M2025.9688,247.6406 Q2025.3906,247.9375 2024.75,248.0781 Q2024.1094,248.2344 2023.4063,248.2344 Q2020.9063,248.2344 2019.5781,246.5938 Q2018.2656,244.9375 2018.2656,241.8125 Q2018.2656,238.6875 2019.5781,237.0313 Q2020.9063,235.375 2023.4063,235.375 Q2024.1094,235.375 2024.75,235.5313 Q2025.4063,235.6875 2025.9688,235.9844 L2025.9688,238.7031 Q2025.3438,238.125 2024.75,237.8594 Q2024.1563,237.5781 2023.5313,237.5781 Q2022.1875,237.5781 2021.5,238.6563 Q2020.8125,239.7188 2020.8125,241.8125 Q2020.8125,243.9063 2021.5,244.9844 Q2022.1875,246.0469 2023.5313,246.0469 Q2024.1563,246.0469 2024.75,245.7813 Q2025.3438,245.5 2025.9688,244.9219 L2025.9688,247.6406 Z "/><text fill="#000000" font-family="sans-serif" font-size="12" lengthAdjust="spacingAndGlyphs" textLength="45" x="2037" y="246.1543">Stream</text><line style="stroke: #A80036; stroke-width: 1.5;" x1="2009" x2="2084" y1="258" y2="258"/><line style="stroke: #A80036; stroke-width: 1.5;" x1="2009" x2="2084" y1="266" y2="266"/><!--MD5=[1f7b1c53b52d60d9d0e855d091174bb3]
class Debugger--><rect fill="#FEFECE" filter="url(#f1a37cvl8hddgj)" height="48" id="Debugger" style="stroke: #A80036; stroke-width: 1.5;" width="94" x="1920.5" y="117"/><ellipse cx="1935.5" cy="133" fill="#ADD1B2" rx="11" ry="11" style="stroke: #A80036; stroke-width: 1.0;"/><path d="M1938.4688,138.6406 Q1937.8906,138.9375 1937.25,139.0781 Q1936.6094,139.2344 1935.9063,139.2344 Q1933.4063,139.2344 1932.0781,137.5938 Q1930.7656,135.9375 1930.7656,132.8125 Q1930.7656,129.6875 1932.0781,128.0313 Q1933.4063,126.375 1935.9063,126.375 Q1936.6094,126.375 1937.25,126.5313 Q1937.9063,126.6875 1938.4688,126.9844 L1938.4688,129.7031 Q1937.8438,129.125 1937.25,128.8594 Q1936.6563,128.5781 1936.0313,128.5781 Q1934.6875,128.5781 1934,129.6563 Q1933.3125,130.7188 1933.3125,132.8125 Q1933.3125,134.9063 1934,135.9844 Q1934.6875,137.0469 1936.0313,137.0469 Q1936.6563,137.0469 1937.25,136.7813 Q1937.8438,136.5 1938.4688,135.9219 L1938.4688,138.6406 Z "/><text fill="#000000" font-family="sans-serif" font-size="12" lengthAdjust="spacingAndGlyphs" textLength="62" x="1949.5" y="137.1543">Debugger</text><line style="stroke: #A80036; stroke-width: 1.5;" x1="1921.5" x2="2013.5" y1="149" y2="149"/><line style="stroke: #A80036; stroke-width: 1.5;" x1="1921.5" x2="2013.5" y1="157" y2="157"/><!--MD5=[55535a83c097026635c1692abc1750d2]
class SyncConnection--><rect fill="#FEFECE" filter="url(#f1a37cvl8hddgj)" height="48" id="SyncConnection" style="stroke: #A80036; stroke-width: 1.5;" width="132" x="2191.5" y="117"/><ellipse cx="2206.5" cy="133" fill="#ADD1B2" rx="11" ry="11" style="stroke: #A80036; stroke-width: 1.0;"/><path d="M2209.4688,138.6406 Q2208.8906,138.9375 2208.25,139.0781 Q2207.6094,139.2344 2206.9063,139.2344 Q2204.4063,139.2344 2203.0781,137.5938 Q2201.7656,135.9375 2201.7656,132.8125 Q2201.7656,129.6875 2203.0781,128.0313 Q2204.4063,126.375 2206.9063,126.375 Q2207.6094,126.375 2208.25,126.5313 Q2208.9063,126.6875 2209.4688,126.9844 L2209.4688,129.7031 Q2208.8438,129.125 2208.25,128.8594 Q2207.6563,128.5781 2207.0313,128.5781 Q2205.6875,128.5781 2205,129.6563 Q2204.3125,130.7188 2204.3125,132.8125 Q2204.3125,134.9063 2205,135.9844 Q2205.6875,137.0469 2207.0313,137.0469 Q2207.6563,137.0469 2208.25,136.7813 Q2208.8438,136.5 2209.4688,135.9219 L2209.4688,138.6406 Z "/><text fill="#000000" font-family="sans-serif" font-size="12" lengthAdjust="spacingAndGlyphs" textLength="100" x="2220.5" y="137.1543">SyncConnection</text><line style="stroke: #A80036; stroke-width: 1.5;" x1="2192.5" x2="2322.5" y1="149" y2="149"/><line style="stroke: #A80036; stroke-width: 1.5;" x1="2192.5" x2="2322.5" y1="157" y2="157"/><!--MD5=[f175c4f53c7fe592fdee54e7d7cd270d]
class ZmqBaseLayer--><rect fill="#FEFECE" filter="url(#f1a37cvl8hddgj)" height="48" id="ZmqBaseLayer" style="stroke: #A80036; stroke-width: 1.5;" width="124" x="1457.5" y="476"/><ellipse cx="1472.5" cy="492" fill="#A9DCDF" rx="11" ry="11" style="stroke: #A80036; stroke-width: 1.0;"/><path d="M1472.6094,487.3438 L1471.4531,492.4219 L1473.7813,492.4219 L1472.6094,487.3438 Z M1471.125,485.1094 L1474.1094,485.1094 L1477.4688,497.5 L1475.0156,497.5 L1474.25,494.4375 L1470.9688,494.4375 L1470.2188,497.5 L1467.7813,497.5 L1471.125,485.1094 Z "/><text fill="#000000" font-family="sans-serif" font-size="12" font-style="italic" lengthAdjust="spacingAndGlyphs" textLength="92" x="1486.5" y="496.1543">ZmqBaseLayer</text><line style="stroke: #A80036; stroke-width: 1.5;" x1="1458.5" x2="1580.5" y1="508" y2="508"/><line style="stroke: #A80036; stroke-width: 1.5;" x1="1458.5" x2="1580.5" y1="516" y2="516"/><!--MD5=[8df53e5399bee3756f1166f93b6a6b9c]
class DebugZmqLayer--><rect fill="#FEFECE" filter="url(#f1a37cvl8hddgj)" height="48" id="DebugZmqLayer" style="stroke: #A80036; stroke-width: 1.5;" width="134" x="1452.5" y="585"/><ellipse cx="1467.5" cy="601" fill="#ADD1B2" rx="11" ry="11" style="stroke: #A80036; stroke-width: 1.0;"/><path d="M1470.4688,606.6406 Q1469.8906,606.9375 1469.25,607.0781 Q1468.6094,607.2344 1467.9063,607.2344 Q1465.4063,607.2344 1464.0781,605.5938 Q1462.7656,603.9375 1462.7656,600.8125 Q1462.7656,597.6875 1464.0781,596.0313 Q1465.4063,594.375 1467.9063,594.375 Q1468.6094,594.375 1469.25,594.5313 Q1469.9063,594.6875 1470.4688,594.9844 L1470.4688,597.7031 Q1469.8438,597.125 1469.25,596.8594 Q1468.6563,596.5781 1468.0313,596.5781 Q1466.6875,596.5781 1466,597.6563 Q1465.3125,598.7188 1465.3125,600.8125 Q1465.3125,602.9063 1466,603.9844 Q1466.6875,605.0469 1468.0313,605.0469 Q1468.6563,605.0469 1469.25,604.7813 Q1469.8438,604.5 1470.4688,603.9219 L1470.4688,606.6406 Z "/><text fill="#000000" font-family="sans-serif" font-size="12" lengthAdjust="spacingAndGlyphs" textLength="102" x="1481.5" y="605.1543">DebugZmqLayer</text><line style="stroke: #A80036; stroke-width: 1.5;" x1="1453.5" x2="1585.5" y1="617" y2="617"/><line style="stroke: #A80036; stroke-width: 1.5;" x1="1453.5" x2="1585.5" y1="625" y2="625"/><!--MD5=[7167a2a2cafcee87d38baf1108dd5356]
class SyncZmqLayer--><rect fill="#FEFECE" filter="url(#f1a37cvl8hddgj)" height="48" id="SyncZmqLayer" style="stroke: #A80036; stroke-width: 1.5;" width="122" x="1621.5" y="585"/><ellipse cx="1636.5" cy="601" fill="#ADD1B2" rx="11" ry="11" style="stroke: #A80036; stroke-width: 1.0;"/><path d="M1639.4688,606.6406 Q1638.8906,606.9375 1638.25,607.0781 Q1637.6094,607.2344 1636.9063,607.2344 Q1634.4063,607.2344 1633.0781,605.5938 Q1631.7656,603.9375 1631.7656,600.8125 Q1631.7656,597.6875 1633.0781,596.0313 Q1634.4063,594.375 1636.9063,594.375 Q1637.6094,594.375 1638.25,594.5313 Q1638.9063,594.6875 1639.4688,594.9844 L1639.4688,597.7031 Q1638.8438,597.125 1638.25,596.8594 Q1637.6563,596.5781 1637.0313,596.5781 Q1635.6875,596.5781 1635,597.6563 Q1634.3125,598.7188 1634.3125,600.8125 Q1634.3125,602.9063 1635,603.9844 Q1635.6875,605.0469 1637.0313,605.0469 Q1637.6563,605.0469 1638.25,604.7813 Q1638.8438,604.5 1639.4688,603.9219 L1639.4688,606.6406 Z "/><text fill="#000000" font-family="sans-serif" font-size="12" lengthAdjust="spacingAndGlyphs" textLength="90" x="1650.5" y="605.1543">SyncZmqLayer</text><line style="stroke: #A80036; stroke-width: 1.5;" x1="1622.5" x2="1742.5" y1="617" y2="617"/><line style="stroke: #A80036; stroke-width: 1.5;" x1="1622.5" x2="1742.5" y1="625" y2="625"/><!--MD5=[5e12db3f42376bab145865503eb764a1]
class ZmqLayer--><rect fill="#FEFECE" filter="url(#f1a37cvl8hddgj)" height="48" id="ZmqLayer" style="stroke: #A80036; stroke-width: 1.5;" width="93" x="1324" y="585"/><ellipse cx="1339" cy="601" fill="#ADD1B2" rx="11" ry="11" style="stroke: #A80036; stroke-width: 1.0;"/><path d="M1341.9688,606.6406 Q1341.3906,606.9375 1340.75,607.0781 Q1340.1094,607.2344 1339.4063,607.2344 Q1336.9063,607.2344 1335.5781,605.5938 Q1334.2656,603.9375 1334.2656,600.8125 Q1334.2656,597.6875 1335.5781,596.0313 Q1336.9063,594.375 1339.4063,594.375 Q1340.1094,594.375 1340.75,594.5313 Q1341.4063,594.6875 1341.9688,594.9844 L1341.9688,597.7031 Q1341.3438,597.125 1340.75,596.8594 Q1340.1563,596.5781 1339.5313,596.5781 Q1338.1875,596.5781 1337.5,597.6563 Q1336.8125,598.7188 1336.8125,600.8125 Q1336.8125,602.9063 1337.5,603.9844 Q1338.1875,605.0469 1339.5313,605.0469 Q1340.1563,605.0469 1340.75,604.7813 Q1341.3438,604.5 1341.9688,603.9219 L1341.9688,606.6406 Z "/><text fill="#000000" font-family="sans-serif" font-size="12" lengthAdjust="spacingAndGlyphs" textLength="61" x="1353" y="605.1543">ZmqLayer</text><line style="stroke: #A80036; stroke-width: 1.5;" x1="1325" x2="1416" y1="617" y2="617"/><line style="stroke: #A80036; stroke-width: 1.5;" x1="1325" x2="1416" y1="625" y2="625"/><!--MD5=[0b48220066db5fd3a71eea6bf9662451]
class Loopback--><rect fill="#FEFECE" filter="url(#f1a37cvl8hddgj)" height="48" id="Loopback" style="stroke: #A80036; stroke-width: 1.5;" width="92" x="1132.5" y="8"/><ellipse cx="1147.5" cy="24" fill="#ADD1B2" rx="11" ry="11" style="stroke: #A80036; stroke-width: 1.0;"/><path d="M1150.4688,29.6406 Q1149.8906,29.9375 1149.25,30.0781 Q1148.6094,30.2344 1147.9063,30.2344 Q1145.4063,30.2344 1144.0781,28.5938 Q1142.7656,26.9375 1142.7656,23.8125 Q1142.7656,20.6875 1144.0781,19.0313 Q1145.4063,17.375 1147.9063,17.375 Q1148.6094,17.375 1149.25,17.5313 Q1149.9063,17.6875 1150.4688,17.9844 L1150.4688,20.7031 Q1149.8438,20.125 1149.25,19.8594 Q1148.6563,19.5781 1148.0313,19.5781 Q1146.6875,19.5781 1146,20.6563 Q1145.3125,21.7188 1145.3125,23.8125 Q1145.3125,25.9063 1146,26.9844 Q1146.6875,28.0469 1148.0313,28.0469 Q1148.6563,28.0469 1149.25,27.7813 Q1149.8438,27.5 1150.4688,26.9219 L1150.4688,29.6406 Z "/><text fill="#000000" font-family="sans-serif" font-size="12" lengthAdjust="spacingAndGlyphs" textLength="60" x="1161.5" y="28.1543">Loopback</text><line style="stroke: #A80036; stroke-width: 1.5;" x1="1133.5" x2="1223.5" y1="40" y2="40"/><line style="stroke: #A80036; stroke-width: 1.5;" x1="1133.5" x2="1223.5" y1="48" y2="48"/><!--MD5=[594a6b5ea59025fb920f2523a5123ac6]
class FifoLoopback--><rect fill="#FEFECE" filter="url(#f1a37cvl8hddgj)" height="48" id="FifoLoopback" style="stroke: #A80036; stroke-width: 1.5;" width="114" x="1771.5" y="117"/><ellipse cx="1786.5" cy="133" fill="#ADD1B2" rx="11" ry="11" style="stroke: #A80036; stroke-width: 1.0;"/><path d="M1789.4688,138.6406 Q1788.8906,138.9375 1788.25,139.0781 Q1787.6094,139.2344 1786.9063,139.2344 Q1784.4063,139.2344 1783.0781,137.5938 Q1781.7656,135.9375 1781.7656,132.8125 Q1781.7656,129.6875 1783.0781,128.0313 Q1784.4063,126.375 1786.9063,126.375 Q1787.6094,126.375 1788.25,126.5313 Q1788.9063,126.6875 1789.4688,126.9844 L1789.4688,129.7031 Q1788.8438,129.125 1788.25,128.8594 Q1787.6563,128.5781 1787.0313,128.5781 Q1785.6875,128.5781 1785,129.6563 Q1784.3125,130.7188 1784.3125,132.8125 Q1784.3125,134.9063 1785,135.9844 Q1785.6875,137.0469 1787.0313,137.0469 Q1787.6563,137.0469 1788.25,136.7813 Q1788.8438,136.5 1789.4688,135.9219 L1789.4688,138.6406 Z "/><text fill="#000000" font-family="sans-serif" font-size="12" lengthAdjust="spacingAndGlyphs" textLength="82" x="1800.5" y="137.1543">FifoLoopback</text><line style="stroke: #A80036; stroke-width: 1.5;" x1="1772.5" x2="1884.5" y1="149" y2="149"/><line style="stroke: #A80036; stroke-width: 1.5;" x1="1772.5" x2="1884.5" y1="157" y2="157"/><!--MD5=[59ba842169ac6ac7bafbb7e5c0e09528]
reverse link ProtocolLayer to AsciiEscapeLayer--><path d="M959.22,33.37 C774.22,34.97 318.67,43.25 172.5,86 C149.75,92.66 126.47,105.38 108.42,116.81 " fill="none" id="ProtocolLayer&lt;-AsciiEscapeLayer" style="stroke: #A80036; stroke-width: 1.0;"/><polygon fill="none" points="959.32,26.37,979.37,33.22,959.42,40.37,959.32,26.37" style="stroke: #A80036; stroke-width: 1.0;"/><!--MD5=[1837e01dc628d33bf3aa03ae7ea43338]
reverse link ProtocolLayer to TerminalLayer--><path d="M959.41,36.21 C767.49,44.69 288.82,70.35 234.5,117 C198.09,148.27 166.25,293.58 154.91,350.78 " fill="none" id="ProtocolLayer&lt;-TerminalLayer" style="stroke: #A80036; stroke-width: 1.0;"/><polygon fill="none" points="959.2,29.21,979.48,35.34,959.8,43.2,959.2,29.21" style="stroke: #A80036; stroke-width: 1.0;"/><!--MD5=[b8b793b4307b2738b5b00461e38a4294]
link AsciiEscapeLayer to TerminalLayer--><!--MD5=[9f4d63c6efa314d39e0391d567e30367]
reverse link ProtocolLayer to SegmentationLayer--><path d="M959.13,36.1 C818,42.25 529.17,57.88 432.5,86 C408.67,92.93 383.93,105.52 364.56,116.8 " fill="none" id="ProtocolLayer&lt;-SegmentationLayer" style="stroke: #A80036; stroke-width: 1.0;"/><polygon fill="none" points="958.96,29.1,979.24,35.24,959.56,43.09,958.96,29.1" style="stroke: #A80036; stroke-width: 1.0;"/><!--MD5=[f5ec718cf5c7fea9ab75aabf7ac7335a]
reverse link ProtocolLayer to Crc8Layer--><path d="M959.28,35.09 C889.54,39.33 786.47,51.54 703.5,86 C685.73,93.38 668.22,105.85 654.71,116.95 " fill="none" id="ProtocolLayer&lt;-Crc8Layer" style="stroke: #A80036; stroke-width: 1.0;"/><polygon fill="none" points="959,28.09,979.35,34.03,959.74,42.07,959,28.09" style="stroke: #A80036; stroke-width: 1.0;"/><!--MD5=[b4bf65d04bada124d437f3035131699e]
reverse link ProtocolLayer to Crc16Layer--><path d="M959.11,35.24 C896.59,41.52 812.26,60.79 764.5,117 C734.76,152 730.19,294.42 729.56,350.83 " fill="none" id="ProtocolLayer&lt;-Crc16Layer" style="stroke: #A80036; stroke-width: 1.0;"/><polygon fill="none" points="958.89,28.24,979.4,33.58,960.04,42.19,958.89,28.24" style="stroke: #A80036; stroke-width: 1.0;"/><!--MD5=[80fd2aaef4f617b9fda933473fc0b17d]
reverse link ProtocolLayer to Crc32Layer--><path d="M959.23,34.86 C837.36,39.62 613.03,56.58 565.5,117 C510.91,186.39 550.07,301.68 570.82,350.74 " fill="none" id="ProtocolLayer&lt;-Crc32Layer" style="stroke: #A80036; stroke-width: 1.0;"/><polygon fill="none" points="959.06,27.86,979.29,34.15,959.56,41.85,959.06,27.86" style="stroke: #A80036; stroke-width: 1.0;"/><!--MD5=[0fe289e1cedfacad6c62d138c8eff36c]
link Crc8Layer to Crc16Layer--><!--MD5=[680a5feb5f579686bd3d7a8cfbf48339]
link Crc8Layer to Crc32Layer--><!--MD5=[36e3b6b6f79200059fe581d147fb951c]
reverse link ProtocolLayer to BufferLayer--><path d="M976.35,65.44 C944.5,82.06 906.46,101.92 877.65,116.96 " fill="none" id="ProtocolLayer&lt;-BufferLayer" style="stroke: #A80036; stroke-width: 1.0;"/><polygon fill="none" points="973.3,59.13,994.27,56.09,979.78,71.55,973.3,59.13" style="stroke: #A80036; stroke-width: 1.0;"/><!--MD5=[0f2bbd01d096ba1e0a6810cc78905faa]
reverse link ProtocolLayer to PrintLayer--><path d="M1011.48,73.15 C1001.56,87.89 990.67,104.08 982.09,116.83 " fill="none" id="ProtocolLayer&lt;-PrintLayer" style="stroke: #A80036; stroke-width: 1.0;"/><polygon fill="none" points="1005.9,68.9,1022.88,56.22,1017.52,76.72,1005.9,68.9" style="stroke: #A80036; stroke-width: 1.0;"/><!--MD5=[68fdfdf456f51442711ba364be9051c6]
reverse link ProtocolLayer to IdleCheckLayer--><path d="M1065.89,73.15 C1075.95,87.89 1086.99,104.08 1095.69,116.83 " fill="none" id="ProtocolLayer&lt;-IdleCheckLayer" style="stroke: #A80036; stroke-width: 1.0;"/><polygon fill="none" points="1059.83,76.68,1054.34,56.22,1071.39,68.79,1059.83,76.68" style="stroke: #A80036; stroke-width: 1.0;"/><!--MD5=[9d4f45fa6260f30627635c90297c1789]
reverse link ProtocolLayer to CallbackLayer--><path d="M1106.44,64.74 C1142.31,81.51 1185.54,101.71 1218.18,116.96 " fill="none" id="ProtocolLayer&lt;-CallbackLayer" style="stroke: #A80036; stroke-width: 1.0;"/><polygon fill="none" points="1103.06,70.89,1087.91,56.09,1108.99,58.21,1103.06,70.89" style="stroke: #A80036; stroke-width: 1.0;"/><!--MD5=[8bcffc81ddda68cc72bceb6a88eef7c0]
reverse link ProtocolLayer to MuxLayer--><path d="M1117.3,56.65 C1219.2,84.95 1248.91,86.93 1343.5,117 C1349.19,118.81 1355.13,120.83 1360.97,122.91 " fill="none" id="ProtocolLayer&lt;-MuxLayer" style="stroke: #A80036; stroke-width: 1.0;"/><polygon fill="none" points="1115.13,63.31,1097.77,51.15,1118.92,49.83,1115.13,63.31" style="stroke: #A80036; stroke-width: 1.0;"/><!--MD5=[8e3a946aabb99cf050654c65a3c34051]
reverse link ProtocolLayer to Aes256Layer--><path d="M1117.2,56.23 C1272.98,91.75 1318.75,81.19 1467.5,117 C1473.26,118.39 1479.22,119.97 1485.15,121.66 " fill="none" id="ProtocolLayer&lt;-Aes256Layer" style="stroke: #A80036; stroke-width: 1.0;"/><polygon fill="none" points="1115.52,63.03,1097.64,51.66,1118.71,49.39,1115.52,63.03" style="stroke: #A80036; stroke-width: 1.0;"/><!--MD5=[65097fe1fcf7c60240d452fdd60ea9e6]
link SegmentationLayer to ArqLayer--><!--MD5=[c85ce8316cc20841ad985b9abcbfc6b8]
reverse link ProtocolLayer to ArqLayer--><path d="M959.28,35.04 C832.48,40.06 592.39,57.39 535.5,117 C469.95,185.67 444.24,301.35 435.91,350.63 " fill="none" id="ProtocolLayer&lt;-ArqLayer" style="stroke: #A80036; stroke-width: 1.0;"/><polygon fill="none" points="959.11,28.04,979.35,34.31,959.62,42.03,959.11,28.04" style="stroke: #A80036; stroke-width: 1.0;"/><!--MD5=[0cffc30829c7b5c3d5d79a8c20178a05]
reverse link ArqLayer to DebugArqLayer--><path d="M432.5,419.17 C432.5,438.29 432.5,460.02 432.5,475.97 " fill="none" id="ArqLayer&lt;-DebugArqLayer" style="stroke: #A80036; stroke-width: 1.0;"/><polygon fill="none" points="425.5,419.14,432.5,399.14,439.5,419.14,425.5,419.14" style="stroke: #A80036; stroke-width: 1.0;"/><!--MD5=[8a0c0cea417bd265ccd2a20c2ed545f3]
reverse link ProtocolLayer to PolledLayer--><path d="M1117.21,56.02 C1337.22,100.3 1402.19,69.65 1614.5,117 C1620.37,118.31 1626.44,119.91 1632.45,121.66 " fill="none" id="ProtocolLayer&lt;-PolledLayer" style="stroke: #A80036; stroke-width: 1.0;"/><polygon fill="none" points="1115.74,62.86,1097.57,51.95,1118.58,49.15,1115.74,62.86" style="stroke: #A80036; stroke-width: 1.0;"/><!--MD5=[3be69d5d7a25b49c91582717d95ed1fc]
reverse link PolledLayer to PolledFileLayer--><path d="M1680.02,185.58 C1678.6,199.36 1677.09,214.06 1675.88,225.83 " fill="none" id="PolledLayer&lt;-PolledFileLayer" style="stroke: #A80036; stroke-width: 1.0;"/><polygon fill="none" points="1673.1,184.4,1682.11,165.22,1687.03,185.83,1673.1,184.4" style="stroke: #A80036; stroke-width: 1.0;"/><!--MD5=[6cfd10fcb7b0e401cbd56d8ffc6236cd]
reverse link PolledFileLayer to FileLayer--><path d="M1747.57,281.88 C1803.61,305.25 1878.63,336.53 1925.24,355.96 " fill="none" id="PolledFileLayer&lt;-FileLayer" style="stroke: #A80036; stroke-width: 1.0;"/><polygon fill="none" points="1744.75,288.29,1728.99,274.14,1750.14,275.37,1744.75,288.29" style="stroke: #A80036; stroke-width: 1.0;"/><!--MD5=[5df6f9b1dc5d01c7d2b79956979ddd56]
reverse link FileLayer to NamedPipeLayer--><path d="M1958.63,419.06 C1951.7,448.67 1942,488.84 1932.5,524 C1926.9,544.71 1919.89,568.09 1914.71,584.91 " fill="none" id="FileLayer&lt;-NamedPipeLayer" style="stroke: #A80036; stroke-width: 1.0;"/><polygon fill="none" points="1951.91,417.07,1963.25,399.16,1965.55,420.23,1951.91,417.07" style="stroke: #A80036; stroke-width: 1.0;"/><!--MD5=[e9fcce735b06244f490aeffb9a2eb902]
reverse link PolledFileLayer to DoublePipeLayer--><path d="M1717.01,286.92 C1742.05,307.59 1772.78,332.96 1794.6,350.97 " fill="none" id="PolledFileLayer&lt;-DoublePipeLayer" style="stroke: #A80036; stroke-width: 1.0;"/><polygon fill="none" points="1712.49,292.27,1701.53,274.14,1721.41,281.47,1712.49,292.27" style="stroke: #A80036; stroke-width: 1.0;"/><!--MD5=[47cf71c7fd7b76a20fb15e2bdbf80b71]
reverse link DoublePipeLayer to XsimLayer--><path d="M1794.67,415.81 C1780.76,435.7 1764.42,459.07 1752.6,475.97 " fill="none" id="DoublePipeLayer&lt;-XsimLayer" style="stroke: #A80036; stroke-width: 1.0;"/><polygon fill="none" points="1789.13,411.52,1806.32,399.14,1800.6,419.54,1789.13,411.52" style="stroke: #A80036; stroke-width: 1.0;"/><!--MD5=[c560959e84d527cd6f58cd6eb15c3426]
link XsimLayer to NamedPipeLayer--><path d="M1773.6,524.22 C1800.83,541.25 1837.82,564.4 1866.02,582.04 " fill="none" id="XsimLayer-&gt;NamedPipeLayer" style="stroke: #A80036; stroke-width: 1.0;"/><polygon fill="#A80036" points="1870.47,584.83,1864.9654,576.663,1866.2324,582.1762,1860.7193,583.4432,1870.47,584.83" style="stroke: #A80036; stroke-width: 1.0;"/><!--MD5=[b3e9785016f1903de719e7586663c608]
reverse link PolledLayer to PolledSocketLayer--><path d="M1613.84,166.15 C1585.6,179.41 1555.56,198.82 1537.5,226 C1512.29,263.95 1513.24,319.67 1516.29,350.79 " fill="none" id="PolledLayer&lt;-PolledSocketLayer" style="stroke: #A80036; stroke-width: 1.0;"/><polygon fill="none" points="1611.33,159.61,1632.46,158.12,1616.87,172.47,1611.33,159.61" style="stroke: #A80036; stroke-width: 1.0;"/><text fill="#000000" font-family="sans-serif" font-size="13" lengthAdjust="spacingAndGlyphs" textLength="54" x="1538.5" y="254.5669">Windows</text><!--MD5=[acd97d48f6aa9334eee789f2044cf0db]
reverse link PolledFileLayer to PolledSocketLayer--><path d="M1621.84,285.75 C1613.57,291.67 1605.21,297.89 1597.5,304 C1578.82,318.8 1558.83,336.79 1543.77,350.82 " fill="none" id="PolledFileLayer&lt;-PolledSocketLayer" style="stroke: #A80036; stroke-width: 1.0;"/><polygon fill="none" points="1618.03,279.88,1638.42,274.14,1626.06,291.34,1618.03,279.88" style="stroke: #A80036; stroke-width: 1.0;"/><text fill="#000000" font-family="sans-serif" font-size="13" lengthAdjust="spacingAndGlyphs" textLength="38" x="1598.5" y="317.0669">POSIX</text><!--MD5=[f383b3a874e95df6b06c9c5efba6d70d]
reverse link PolledFileLayer to StdioLayer--><path d="M1664.92,293.86 C1661,325.35 1660.89,367.88 1680.5,399 C1696.53,424.43 1768.36,458.32 1817.91,479.39 " fill="none" id="PolledFileLayer&lt;-StdioLayer" style="stroke: #A80036; stroke-width: 1.0;"/><polygon fill="none" points="1658.01,292.76,1668.05,274.11,1671.84,294.95,1658.01,292.76" style="stroke: #A80036; stroke-width: 1.0;"/><text fill="#000000" font-family="sans-serif" font-size="13" lengthAdjust="spacingAndGlyphs" textLength="54" x="1681.5" y="379.5669">Windows</text><!--MD5=[d903d25ff4f0707140f60cc82569ad8a]
reverse link FileLayer to StdioLayer--><path d="M1918.61,412.19 C1912.82,417.48 1907.29,423.13 1902.5,429 C1891.01,443.08 1881.74,461.42 1875.49,475.8 " fill="none" id="FileLayer&lt;-StdioLayer" style="stroke: #A80036; stroke-width: 1.0;"/><polygon fill="none" points="1914.35,406.63,1934.18,399.16,1923.34,417.37,1914.35,406.63" style="stroke: #A80036; stroke-width: 1.0;"/><text fill="#000000" font-family="sans-serif" font-size="13" lengthAdjust="spacingAndGlyphs" textLength="38" x="1903.5" y="442.0669">POSIX</text><!--MD5=[044f0c0d9a50f45b82e13a7bd8fe908e]
reverse link ProtocolLayer to CompressLayer--><path d="M1117.82,55.05 C1286.59,70.93 1995.58,46.4 2068.5,117 C2133.9,180.31 2132.67,300.49 2128.88,350.87 " fill="none" id="ProtocolLayer&lt;-CompressLayer" style="stroke: #A80036; stroke-width: 1.0;"/><polygon fill="none" points="1116.87,61.99,1097.9,52.56,1118.61,48.1,1116.87,61.99" style="stroke: #A80036; stroke-width: 1.0;"/><!--MD5=[69e966564c2a708ec217f4188365c431]
reverse link PolledLayer to FifoLoopback1--><path d="M1733.07,177.12 C1755.2,193.11 1780.78,211.61 1800.45,225.83 " fill="none" id="PolledLayer&lt;-FifoLoopback1" style="stroke: #A80036; stroke-width: 1.0;"/><polygon fill="none" points="1728.72,182.61,1716.61,165.22,1736.92,171.26,1728.72,182.61" style="stroke: #A80036; stroke-width: 1.0;"/><!--MD5=[3414af0314e451e2d8ac0e90200d41ba]
reverse link FileLayer to SerialLayer--><path d="M2000.82,414.6 C2017.7,434.75 2037.78,458.73 2052.21,475.97 " fill="none" id="FileLayer&lt;-SerialLayer" style="stroke: #A80036; stroke-width: 1.0;"/><polygon fill="none" points="1995.35,418.96,1987.87,399.14,2006.08,409.97,1995.35,418.96" style="stroke: #A80036; stroke-width: 1.0;"/><!--MD5=[e9b100997c3ef0c88940848dab846e0a]
reverse link ProtocolLayer to Stream--><path d="M1117.88,55.07 C1281.96,71.08 1962.1,48.62 2031.5,117 C2060.17,145.25 2056.72,196.32 2051.62,225.97 " fill="none" id="ProtocolLayer&lt;-Stream" style="stroke: #A80036; stroke-width: 1.0;"/><polygon fill="none" points="1116.84,61.99,1097.91,52.48,1118.64,48.11,1116.84,61.99" style="stroke: #A80036; stroke-width: 1.0;"/><!--MD5=[90b4d62cd8353c37ab5cfad20d40a17d]
link Debugger to Stream--><path d="M1984.64,165.22 C1996.86,181.76 2013.33,204.07 2026.2,221.51 " fill="none" id="Debugger-&gt;Stream" style="stroke: #A80036; stroke-width: 1.0;"/><polygon fill="#A80036" points="2029.39,225.83,2027.2889,216.2079,2026.4313,221.7993,2020.8399,220.9418,2029.39,225.83" style="stroke: #A80036; stroke-width: 1.0;"/><!--MD5=[89071aebe28ee5f0629bc329056474a4]
link Stream to CompressLayer--><path d="M2061.55,274.14 C2074.96,294.75 2094.59,324.94 2108.76,346.73 " fill="none" id="Stream-&gt;CompressLayer" style="stroke: #A80036; stroke-width: 1.0;"/><polygon fill="#A80036" points="2111.52,350.97,2109.9561,341.2461,2108.7895,346.7814,2103.2543,345.6149,2111.52,350.97" style="stroke: #A80036; stroke-width: 1.0;"/><!--MD5=[f6c80e7eb7b3a4994a9cfeb17049104a]
reverse link ProtocolLayer to Debugger--><path d="M1117.42,55.88 C1463.5,118.02 1565.23,45.58 1902.5,117 C1908.36,118.24 1914.4,119.87 1920.34,121.7 " fill="none" id="ProtocolLayer&lt;-Debugger" style="stroke: #A80036; stroke-width: 1.0;"/><polygon fill="none" points="1115.92,62.73,1097.52,52.21,1118.46,48.96,1115.92,62.73" style="stroke: #A80036; stroke-width: 1.0;"/><!--MD5=[c7b210994827e578441b71b9ae3f75e3]
reverse link ProtocolLayer to SyncConnection--><path d="M1117.75,55.55 C1375.45,89.87 1945.8,23.75 2164.5,86 C2186.77,92.34 2209.28,105.21 2226.58,116.79 " fill="none" id="ProtocolLayer&lt;-SyncConnection" style="stroke: #A80036; stroke-width: 1.0;"/><polygon fill="none" points="1116.64,62.46,1097.89,52.6,1118.7,48.62,1116.64,62.46" style="stroke: #A80036; stroke-width: 1.0;"/><!--MD5=[14fe377a5ff6be6160197f13bcfe31e8]
reverse link PolledSocketLayer to ZmqBaseLayer--><path d="M1519.5,419.17 C1519.5,438.29 1519.5,460.02 1519.5,475.97 " fill="none" id="PolledSocketLayer&lt;-ZmqBaseLayer" style="stroke: #A80036; stroke-width: 1.0;"/><polygon fill="none" points="1512.5,419.14,1519.5,399.14,1526.5,419.14,1512.5,419.14" style="stroke: #A80036; stroke-width: 1.0;"/><!--MD5=[136b9879c8f723ac908478956562877a]
reverse link ZmqBaseLayer to DebugZmqLayer--><path d="M1519.5,544.58 C1519.5,558.36 1519.5,573.06 1519.5,584.83 " fill="none" id="ZmqBaseLayer&lt;-DebugZmqLayer" style="stroke: #A80036; stroke-width: 1.0;"/><polygon fill="none" points="1512.5,544.22,1519.5,524.22,1526.5,544.22,1512.5,544.22" style="stroke: #A80036; stroke-width: 1.0;"/><!--MD5=[f3be6fa14864eb0470617cb083fa250b]
reverse link ZmqBaseLayer to SyncZmqLayer--><path d="M1571.92,535.41 C1596.53,551.56 1625.21,570.39 1647.2,584.83 " fill="none" id="ZmqBaseLayer&lt;-SyncZmqLayer" style="stroke: #A80036; stroke-width: 1.0;"/><polygon fill="none" points="1567.75,541.04,1554.87,524.22,1575.43,529.34,1567.75,541.04" style="stroke: #A80036; stroke-width: 1.0;"/><!--MD5=[25f3531d70a20d4322aef2d41adb0dca]
reverse link ZmqBaseLayer to ZmqLayer--><path d="M1470.6,536.12 C1448.32,552.11 1422.57,570.61 1402.77,584.83 " fill="none" id="ZmqBaseLayer&lt;-ZmqLayer" style="stroke: #A80036; stroke-width: 1.0;"/><polygon fill="none" points="1466.84,530.2,1487.17,524.22,1475.01,541.57,1466.84,530.2" style="stroke: #A80036; stroke-width: 1.0;"/><!--MD5=[c23d2073af3fbcc52aedb24cc76e3fdd]
link FifoLoopback to FifoLoopback1--><path d="M1829.37,165.22 C1829.98,181.48 1830.79,203.32 1831.44,220.62 " fill="none" id="FifoLoopback-&gt;FifoLoopback1" style="stroke: #A80036; stroke-width: 1.0;"/><polygon fill="#A80036" points="1831.63,225.83,1835.2932,216.6877,1831.4444,220.8334,1827.2987,216.9847,1831.63,225.83" style="stroke: #A80036; stroke-width: 1.0;"/><!--MD5=[026158ac66e941ea9ed33d3f0192fc42]
@startuml
abstract ProtocolLayer
ProtocolLayer <|- - AsciiEscapeLayer
ProtocolLayer <|- - TerminalLayer
AsciiEscapeLayer -[hidden]- -> TerminalLayer
ProtocolLayer <|- - SegmentationLayer
ProtocolLayer <|- - Crc8Layer
ProtocolLayer <|- - Crc16Layer
ProtocolLayer <|- - Crc32Layer
Crc8Layer -[hidden]- -> Crc16Layer
Crc8Layer -[hidden]- -> Crc32Layer
ProtocolLayer <|- - BufferLayer
ProtocolLayer <|- - PrintLayer
ProtocolLayer <|- - IdleCheckLayer
ProtocolLayer <|- - CallbackLayer
ProtocolLayer <|- - MuxLayer
ProtocolLayer <|- - Aes256Layer

abstract ArqLayer
SegmentationLayer -[hidden]- -> ArqLayer
ProtocolLayer <|- - ArqLayer
ArqLayer <|- - DebugArqLayer

abstract PolledLayer
abstract PolledFileLayer
abstract PolledSocketLayer
ProtocolLayer <|- - PolledLayer
PolledLayer <|- - PolledFileLayer
PolledFileLayer <|- - FileLayer
FileLayer <|- - NamedPipeLayer
PolledFileLayer <|- - DoublePipeLayer
DoublePipeLayer <|- - XsimLayer
XsimLayer - -> NamedPipeLayer
PolledLayer <|- - PolledSocketLayer : Windows
PolledFileLayer <|- - PolledSocketLayer : POSIX
PolledFileLayer <|- - StdioLayer : Windows
FileLayer <|- - StdioLayer : POSIX
ProtocolLayer <|- - CompressLayer
PolledLayer <|- - FifoLoopback1
FileLayer <|- - SerialLayer

ProtocolLayer <|- - Stream
Debugger - -> Stream
Stream - -> CompressLayer
ProtocolLayer <|- - Debugger
ProtocolLayer <|- - SyncConnection

abstract ZmqBaseLayer
PolledSocketLayer <|- - ZmqBaseLayer
ZmqBaseLayer <|- - DebugZmqLayer
ZmqBaseLayer <|- - SyncZmqLayer
ZmqBaseLayer <|- - ZmqLayer

class Loopback
FifoLoopback - -> FifoLoopback1

@enduml

PlantUML version 1.2020.02(Sun Mar 01 10:22:07 UTC 2020)
(GPL source distribution)
Java Runtime: OpenJDK Runtime Environment
JVM: OpenJDK 64-Bit Server VM
Java Version: 17.0.17+10
Operating System: Linux
Default Encoding: UTF-8
Language: en
Country: null
--></g></svg>