<?xml version="1.0" encoding="UTF-8" standalone="no"?><svg xmlns="http://www.w3.org/2000/svg" xmlns:xlink="http://www.w3.org/1999/xlink" contentScriptType="application/ecmascript" contentStyleType="text/css" height="283px" preserveAspectRatio="none" style="width:1135px;height:283px;" version="1.1" viewBox="0 0 1135 283" width="1135px" zoomAndPan="magnify"><defs><filter height="300%" id="f12dian9y58rty" width="300%" x="-1" y="-1"><feGaussianBlur result="blurOut" stdDeviation="2.0"/><feColorMatrix in="blurOut" result="blurOut2" type="matrix" values="0 0 0 0 0 0 0 0 0 0 0 0 0 0 0 0 0 0 .4 0"/><feOffset dx="4.0" dy="4.0" in="blurOut2" result="blurOut3"/><feBlend in="SourceGraphic" in2="blurOut3" mode="normal"/></filter></defs><g><!--class Pollable--><rect fill="#FEFECE" filter="url(#f12dian9y58rty)" height="48" id="Pollable" style="stroke: #A80036; stroke-width: 1.5;" width="80" x="498.5" y="8"/><ellipse cx="513.5" cy="24" fill="#A9DCDF" rx="11" ry="11" style="stroke: #A80036; stroke-width: 1.0;"/><path d="M513.6094,19.3438 L512.4531,24.4219 L514.7813,24.4219 L513.6094,19.3438 Z M512.125,17.1094 L515.1094,17.1094 L518.4688,29.5 L516.0156,29.5 L515.25,26.4375 L511.9688,26.4375 L511.2188,29.5 L508.7813,29.5 L512.125,17.1094 Z "/><text fill="#000000" font-family="sans-serif" font-size="12" font-style="italic" lengthAdjust="spacingAndGlyphs" textLength="48" x="527.5" y="28.1543">Pollable</text><line style="stroke: #A80036; stroke-width: 1.5;" x1="499.5" x2="577.5" y1="40" y2="40"/><line style="stroke: #A80036; stroke-width: 1.5;" x1="499.5" x2="577.5" y1="48" y2="48"/><!--class TypedPollable--><rect fill="#FEFECE" filter="url(#f12dian9y58rty)" height="48" id="TypedPollable" style="stroke: #A80036; stroke-width: 1.5;" width="118" x="479.5" y="116"/><ellipse cx="494.5" cy="132" fill="#A9DCDF" rx="11" ry="11" style="stroke: #A80036; stroke-width: 1.0;"/><path d="M494.6094,127.3438 L493.4531,132.4219 L495.7813,132.4219 L494.6094,127.3438 Z M493.125,125.1094 L496.1094,125.1094 L499.4688,137.5 L497.0156,137.5 L496.25,134.4375 L492.9688,134.4375 L492.2188,137.5 L489.7813,137.5 L493.125,125.1094 Z "/><text fill="#000000" font-family="sans-serif" font-size="12" font-style="italic" lengthAdjust="spacingAndGlyphs" textLength="86" x="508.5" y="136.1543">TypedPollable</text><line style="stroke: #A80036; stroke-width: 1.5;" x1="480.5" x2="596.5" y1="148" y2="148"/><line style="stroke: #A80036; stroke-width: 1.5;" x1="480.5" x2="596.5" y1="156" y2="156"/><!--class PollableCallback--><rect fill="#FEFECE" filter="url(#f12dian9y58rty)" height="48" id="PollableCallback" style="stroke: #A80036; stroke-width: 1.5;" width="133" x="6" y="224"/><ellipse cx="21" cy="240" fill="#ADD1B2" rx="11" ry="11" style="stroke: #A80036; stroke-width: 1.0;"/><path d="M23.9688,245.6406 Q23.3906,245.9375 22.75,246.0781 Q22.1094,246.2344 21.4063,246.2344 Q18.9063,246.2344 17.5781,244.5938 Q16.2656,242.9375 16.2656,239.8125 Q16.2656,236.6875 17.5781,235.0313 Q18.9063,233.375 21.4063,233.375 Q22.1094,233.375 22.75,233.5313 Q23.4063,233.6875 23.9688,233.9844 L23.9688,236.7031 Q23.3438,236.125 22.75,235.8594 Q22.1563,235.5781 21.5313,235.5781 Q20.1875,235.5781 19.5,236.6563 Q18.8125,237.7188 18.8125,239.8125 Q18.8125,241.9063 19.5,242.9844 Q20.1875,244.0469 21.5313,244.0469 Q22.1563,244.0469 22.75,243.7813 Q23.3438,243.5 23.9688,242.9219 L23.9688,245.6406 Z "/><text fill="#000000" font-family="sans-serif" font-size="12" lengthAdjust="spacingAndGlyphs" textLength="101" x="35" y="244.1543">PollableCallback</text><line style="stroke: #A80036; stroke-width: 1.5;" x1="7" x2="138" y1="256" y2="256"/><line style="stroke: #A80036; stroke-width: 1.5;" x1="7" x2="138" y1="264" y2="264"/><!--class PollableFd--><rect fill="#FEFECE" filter="url(#f12dian9y58rty)" height="48" id="PollableFd" style="stroke: #A80036; stroke-width: 1.5;" width="96" x="174.5" y="224"/><ellipse cx="189.5" cy="240" fill="#ADD1B2" rx="11" ry="11" style="stroke: #A80036; stroke-width: 1.0;"/><path d="M192.4688,245.6406 Q191.8906,245.9375 191.25,246.0781 Q190.6094,246.2344 189.9063,246.2344 Q187.4063,246.2344 186.0781,244.5938 Q184.7656,242.9375 184.7656,239.8125 Q184.7656,236.6875 186.0781,235.0313 Q187.4063,233.375 189.9063,233.375 Q190.6094,233.375 191.25,233.5313 Q191.9063,233.6875 192.4688,233.9844 L192.4688,236.7031 Q191.8438,236.125 191.25,235.8594 Q190.6563,235.5781 190.0313,235.5781 Q188.6875,235.5781 188,236.6563 Q187.3125,237.7188 187.3125,239.8125 Q187.3125,241.9063 188,242.9844 Q188.6875,244.0469 190.0313,244.0469 Q190.6563,244.0469 191.25,243.7813 Q191.8438,243.5 192.4688,242.9219 L192.4688,245.6406 Z "/><text fill="#000000" font-family="sans-serif" font-size="12" lengthAdjust="spacingAndGlyphs" textLength="64" x="203.5" y="244.1543">PollableFd</text><line style="stroke: #A80036; stroke-width: 1.5;" x1="175.5" x2="269.5" y1="256" y2="256"/><line style="stroke: #A80036; stroke-width: 1.5;" x1="175.5" x2="269.5" y1="264" y2="264"/><!--class PollableFileLayer--><rect fill="#FEFECE" filter="url(#f12dian9y58rty)" height="48" id="PollableFileLayer" style="stroke: #A80036; stroke-width: 1.5;" width="135" x="306" y="224"/><ellipse cx="321" cy="240" fill="#ADD1B2" rx="11" ry="11" style="stroke: #A80036; stroke-width: 1.0;"/><path d="M323.9688,245.6406 Q323.3906,245.9375 322.75,246.0781 Q322.1094,246.2344 321.4063,246.2344 Q318.9063,246.2344 317.5781,244.5938 Q316.2656,242.9375 316.2656,239.8125 Q316.2656,236.6875 317.5781,235.0313 Q318.9063,233.375 321.4063,233.375 Q322.1094,233.375 322.75,233.5313 Q323.4063,233.6875 323.9688,233.9844 L323.9688,236.7031 Q323.3438,236.125 322.75,235.8594 Q322.1563,235.5781 321.5313,235.5781 Q320.1875,235.5781 319.5,236.6563 Q318.8125,237.7188 318.8125,239.8125 Q318.8125,241.9063 319.5,242.9844 Q320.1875,244.0469 321.5313,244.0469 Q322.1563,244.0469 322.75,243.7813 Q323.3438,243.5 323.9688,242.9219 L323.9688,245.6406 Z "/><text fill="#000000" font-family="sans-serif" font-size="12" lengthAdjust="spacingAndGlyphs" textLength="103" x="335" y="244.1543">PollableFileLayer</text><line style="stroke: #A80036; stroke-width: 1.5;" x1="307" x2="440" y1="256" y2="256"/><line style="stroke: #A80036; stroke-width: 1.5;" x1="307" x2="440" y1="264" y2="264"/><!--class PollableHandle--><rect fill="#FEFECE" filter="url(#f12dian9y58rty)" height="48" id="PollableHandle" style="stroke: #A80036; stroke-width: 1.5;" width="125" x="476" y="224"/><ellipse cx="491" cy="240" fill="#ADD1B2" rx="11" ry="11" style="stroke: #A80036; stroke-width: 1.0;"/><path d="M493.9688,245.6406 Q493.3906,245.9375 492.75,246.0781 Q492.1094,246.2344 491.4063,246.2344 Q488.9063,246.2344 487.5781,244.5938 Q486.2656,242.9375 486.2656,239.8125 Q486.2656,236.6875 487.5781,235.0313 Q488.9063,233.375 491.4063,233.375 Q492.1094,233.375 492.75,233.5313 Q493.4063,233.6875 493.9688,233.9844 L493.9688,236.7031 Q493.3438,236.125 492.75,235.8594 Q492.1563,235.5781 491.5313,235.5781 Q490.1875,235.5781 489.5,236.6563 Q488.8125,237.7188 488.8125,239.8125 Q488.8125,241.9063 489.5,242.9844 Q490.1875,244.0469 491.5313,244.0469 Q492.1563,244.0469 492.75,243.7813 Q493.3438,243.5 493.9688,242.9219 L493.9688,245.6406 Z "/><text fill="#000000" font-family="sans-serif" font-size="12" lengthAdjust="spacingAndGlyphs" textLength="93" x="505" y="244.1543">PollableHandle</text><line style="stroke: #A80036; stroke-width: 1.5;" x1="477" x2="600" y1="256" y2="256"/><line style="stroke: #A80036; stroke-width: 1.5;" x1="477" x2="600" y1="264" y2="264"/><!--class PollableSocket--><rect fill="#FEFECE" filter="url(#f12dian9y58rty)" height="48" id="PollableSocket" style="stroke: #A80036; stroke-width: 1.5;" width="124" x="636.5" y="224"/><ellipse cx="651.5" cy="240" fill="#ADD1B2" rx="11" ry="11" style="stroke: #A80036; stroke-width: 1.0;"/><path d="M654.4688,245.6406 Q653.8906,245.9375 653.25,246.0781 Q652.6094,246.2344 651.9063,246.2344 Q649.4063,246.2344 648.0781,244.5938 Q646.7656,242.9375 646.7656,239.8125 Q646.7656,236.6875 648.0781,235.0313 Q649.4063,233.375 651.9063,233.375 Q652.6094,233.375 653.25,233.5313 Q653.9063,233.6875 654.4688,233.9844 L654.4688,236.7031 Q653.8438,236.125 653.25,235.8594 Q652.6563,235.5781 652.0313,235.5781 Q650.6875,235.5781 650,236.6563 Q649.3125,237.7188 649.3125,239.8125 Q649.3125,241.9063 650,242.9844 Q650.6875,244.0469 652.0313,244.0469 Q652.6563,244.0469 653.25,243.7813 Q653.8438,243.5 654.4688,242.9219 L654.4688,245.6406 Z "/><text fill="#000000" font-family="sans-serif" font-size="12" lengthAdjust="spacingAndGlyphs" textLength="92" x="665.5" y="244.1543">PollableSocket</text><line style="stroke: #A80036; stroke-width: 1.5;" x1="637.5" x2="759.5" y1="256" y2="256"/><line style="stroke: #A80036; stroke-width: 1.5;" x1="637.5" x2="759.5" y1="264" y2="264"/><!--class PollableZmqLayer--><rect fill="#FEFECE" filter="url(#f12dian9y58rty)" height="48" id="PollableZmqLayer" style="stroke: #A80036; stroke-width: 1.5;" width="142" x="795.5" y="224"/><ellipse cx="810.5" cy="240" fill="#ADD1B2" rx="11" ry="11" style="stroke: #A80036; stroke-width: 1.0;"/><path d="M813.4688,245.6406 Q812.8906,245.9375 812.25,246.0781 Q811.6094,246.2344 810.9063,246.2344 Q808.4063,246.2344 807.0781,244.5938 Q805.7656,242.9375 805.7656,239.8125 Q805.7656,236.6875 807.0781,235.0313 Q808.4063,233.375 810.9063,233.375 Q811.6094,233.375 812.25,233.5313 Q812.9063,233.6875 813.4688,233.9844 L813.4688,236.7031 Q812.8438,236.125 812.25,235.8594 Q811.6563,235.5781 811.0313,235.5781 Q809.6875,235.5781 809,236.6563 Q808.3125,237.7188 808.3125,239.8125 Q808.3125,241.9063 809,242.9844 Q809.6875,244.0469 811.0313,244.0469 Q811.6563,244.0469 812.25,243.7813 Q812.8438,243.5 813.4688,242.9219 L813.4688,245.6406 Z "/><text fill="#000000" font-family="sans-serif" font-size="12" lengthAdjust="spacingAndGlyphs" textLength="110" x="824.5" y="244.1543">PollableZmqLayer</text><line style="stroke: #A80036; stroke-width: 1.5;" x1="796.5" x2="936.5" y1="256" y2="256"/><line style="stroke: #A80036; stroke-width: 1.5;" x1="796.5" x2="936.5" y1="264" y2="264"/><!--class PollableZmqSocket--><rect fill="#FEFECE" filter="url(#f12dian9y58rty)" height="48" id="PollableZmqSocket" style="stroke: #A80036; stroke-width: 1.5;" width="152" x="972.5" y="224"/><ellipse cx="987.5" cy="240" fill="#ADD1B2" rx="11" ry="11" style="stroke: #A80036; stroke-width: 1.0;"/><path d="M990.4688,245.6406 Q989.8906,245.9375 989.25,246.0781 Q988.6094,246.2344 987.9063,246.2344 Q985.4063,246.2344 984.0781,244.5938 Q982.7656,242.9375 982.7656,239.8125 Q982.7656,236.6875 984.0781,235.0313 Q985.4063,233.375 987.9063,233.375 Q988.6094,233.375 989.25,233.5313 Q989.9063,233.6875 990.4688,233.9844 L990.4688,236.7031 Q989.8438,236.125 989.25,235.8594 Q988.6563,235.5781 988.0313,235.5781 Q986.6875,235.5781 986,236.6563 Q985.3125,237.7188 985.3125,239.8125 Q985.3125,241.9063 986,242.9844 Q986.6875,244.0469 988.0313,244.0469 Q988.6563,244.0469 989.25,243.7813 Q989.8438,243.5 990.4688,242.9219 L990.4688,245.6406 Z "/><text fill="#000000" font-family="sans-serif" font-size="12" lengthAdjust="spacingAndGlyphs" textLength="120" x="1001.5" y="244.1543">PollableZmqSocket</text><line style="stroke: #A80036; stroke-width: 1.5;" x1="973.5" x2="1123.5" y1="256" y2="256"/><line style="stroke: #A80036; stroke-width: 1.5;" x1="973.5" x2="1123.5" y1="264" y2="264"/><!--class InheritablePoller--><rect fill="#FEFECE" filter="url(#f12dian9y58rty)" height="48" id="InheritablePoller" style="stroke: #A80036; stroke-width: 1.5;" width="134" x="613.5" y="8"/><ellipse cx="628.5" cy="24" fill="#A9DCDF" rx="11" ry="11" style="stroke: #A80036; stroke-width: 1.0;"/><path d="M628.6094,19.3438 L627.4531,24.4219 L629.7813,24.4219 L628.6094,19.3438 Z M627.125,17.1094 L630.1094,17.1094 L633.4688,29.5 L631.0156,29.5 L630.25,26.4375 L626.9688,26.4375 L626.2188,29.5 L623.7813,29.5 L627.125,17.1094 Z "/><text fill="#000000" font-family="sans-serif" font-size="12" font-style="italic" lengthAdjust="spacingAndGlyphs" textLength="102" x="642.5" y="28.1543">InheritablePoller</text><line style="stroke: #A80036; stroke-width: 1.5;" x1="614.5" x2="746.5" y1="40" y2="40"/><line style="stroke: #A80036; stroke-width: 1.5;" x1="614.5" x2="746.5" y1="48" y2="48"/><!--class Poller--><rect fill="#FEFECE" filter="url(#f12dian9y58rty)" height="48" id="Poller" style="stroke: #A80036; stroke-width: 1.5;" width="67" x="640" y="116"/><ellipse cx="655" cy="132" fill="#ADD1B2" rx="11" ry="11" style="stroke: #A80036; stroke-width: 1.0;"/><path d="M657.9688,137.6406 Q657.3906,137.9375 656.75,138.0781 Q656.1094,138.2344 655.4063,138.2344 Q652.9063,138.2344 651.5781,136.5938 Q650.2656,134.9375 650.2656,131.8125 Q650.2656,128.6875 651.5781,127.0313 Q652.9063,125.375 655.4063,125.375 Q656.1094,125.375 656.75,125.5313 Q657.4063,125.6875 657.9688,125.9844 L657.9688,128.7031 Q657.3438,128.125 656.75,127.8594 Q656.1563,127.5781 655.5313,127.5781 Q654.1875,127.5781 653.5,128.6563 Q652.8125,129.7188 652.8125,131.8125 Q652.8125,133.9063 653.5,134.9844 Q654.1875,136.0469 655.5313,136.0469 Q656.1563,136.0469 656.75,135.7813 Q657.3438,135.5 657.9688,134.9219 L657.9688,137.6406 Z "/><text fill="#000000" font-family="sans-serif" font-size="12" lengthAdjust="spacingAndGlyphs" textLength="35" x="669" y="136.1543">Poller</text><line style="stroke: #A80036; stroke-width: 1.5;" x1="641" x2="706" y1="148" y2="148"/><line style="stroke: #A80036; stroke-width: 1.5;" x1="641" x2="706" y1="156" y2="156"/><!--link Pollable to TypedPollable--><path d="M538.5,76.02 C538.5,89.58 538.5,104.04 538.5,115.68 " fill="none" id="Pollable-TypedPollable" style="stroke: #A80036; stroke-width: 1.0;"/><polygon fill="none" points="531.5,76,538.5,56,545.5,76,531.5,76" style="stroke: #A80036; stroke-width: 1.0;"/><!--link TypedPollable to PollableCallback--><path d="M459.72,156.84 C382.28,172.71 260.87,198.39 156.5,224 C150.92,225.37 145.15,226.84 139.36,228.35 " fill="none" id="TypedPollable-PollableCallback" style="stroke: #A80036; stroke-width: 1.0;"/><polygon fill="none" points="458.38,149.97,479.38,152.83,461.18,163.68,458.38,149.97" style="stroke: #A80036; stroke-width: 1.0;"/><!--link TypedPollable to PollableFd--><path d="M460.22,166.66 C410.89,182.91 345.9,204.47 288.5,224 C282.76,225.95 276.74,228.02 270.77,230.09 " fill="none" id="TypedPollable-PollableFd" style="stroke: #A80036; stroke-width: 1.0;"/><polygon fill="none" points="458.13,159.98,479.32,160.38,462.51,173.28,458.13,159.98" style="stroke: #A80036; stroke-width: 1.0;"/><!--link TypedPollable to PollableFileLayer--><path d="M485.86,174.81 C460.96,190.81 431.86,209.51 409.52,223.86 " fill="none" id="TypedPollable-PollableFileLayer" style="stroke: #A80036; stroke-width: 1.0;"/><polygon fill="none" points="482.09,168.92,502.7,164,489.65,180.7,482.09,168.92" style="stroke: #A80036; stroke-width: 1.0;"/><!--link TypedPollable to PollableHandle--><path d="M538.5,184.02 C538.5,197.58 538.5,212.04 538.5,223.68 " fill="none" id="TypedPollable-PollableHandle" style="stroke: #A80036; stroke-width: 1.0;"/><polygon fill="none" points="531.5,184,538.5,164,545.5,184,531.5,184" style="stroke: #A80036; stroke-width: 1.0;"/><!--link TypedPollable to PollableSocket--><path d="M589.89,175.05 C613.96,190.99 642.01,209.58 663.57,223.86 " fill="none" id="TypedPollable-PollableSocket" style="stroke: #A80036; stroke-width: 1.0;"/><polygon fill="none" points="586.02,180.88,573.22,164,593.76,169.21,586.02,180.88" style="stroke: #A80036; stroke-width: 1.0;"/><!--link TypedPollable to PollableZmqLayer--><path d="M616.66,166.26 C670.95,183.8 742.71,206.99 795.39,224.02 " fill="none" id="TypedPollable-PollableZmqLayer" style="stroke: #A80036; stroke-width: 1.0;"/><polygon fill="none" points="614.4,172.88,597.52,160.07,618.7,159.56,614.4,172.88" style="stroke: #A80036; stroke-width: 1.0;"/><!--link TypedPollable to PollableZmqSocket--><path d="M617.13,162.76 C618.93,163.18 620.73,163.6 622.5,164 C769.17,197.22 808.43,192.6 955.5,224 C961.03,225.18 966.73,226.45 972.46,227.77 " fill="none" id="TypedPollable-PollableZmqSocket" style="stroke: #A80036; stroke-width: 1.0;"/><polygon fill="none" points="615.25,169.5,597.53,157.87,618.63,155.92,615.25,169.5" style="stroke: #A80036; stroke-width: 1.0;"/><!--link InheritablePoller to Poller--><path d="M677.66,76.02 C676.76,89.58 675.81,104.04 675.04,115.68 " fill="none" id="InheritablePoller-Poller" style="stroke: #A80036; stroke-width: 1.0;"/><polygon fill="none" points="670.68,75.5,678.98,56,684.65,76.42,670.68,75.5" style="stroke: #A80036; stroke-width: 1.0;"/><!--link Pollable to Poller--><path d="M571.83,59.17 C593.88,76.48 622.53,98.98 643.8,115.68 " fill="none" id="Pollable-Poller" style="stroke: #A80036; stroke-width: 1.0; stroke-dasharray: 7.0,7.0;"/><polygon fill="#A80036" points="567.79,56,572.3774,64.7152,571.7151,59.0973,577.3331,58.435,567.79,56" style="stroke: #A80036; stroke-width: 1.0;"/><!--
@startuml
abstract Pollable
abstract TypedPollable
Pollable <|- - TypedPollable
TypedPollable <|- - PollableCallback
TypedPollable <|- - PollableFd
TypedPollable <|- - PollableFileLayer
TypedPollable <|- - PollableHandle
TypedPollable <|- - PollableSocket
TypedPollable <|- - PollableZmqLayer
TypedPollable <|- - PollableZmqSocket

abstract InheritablePoller
InheritablePoller <|- - Poller

Pollable <.. Poller

@enduml

PlantUML version 1.2018.13(Mon Nov 26 17:11:51 UTC 2018)
(GPL source distribution)
Java Runtime: OpenJDK Runtime Environment
JVM: OpenJDK 64-Bit Server VM
Java Version: 11.0.11+9
Operating System: Linux
OS Version: 5.11.0-1022-azure
Default Encoding: UTF-8
Language: en
Country: null
--></g></svg>