<?xml version="1.0" encoding="UTF-8" standalone="no"?><svg xmlns="http://www.w3.org/2000/svg" xmlns:xlink="http://www.w3.org/1999/xlink" contentScriptType="application/ecmascript" contentStyleType="text/css" height="720px" preserveAspectRatio="none" style="width:1076px;height:720px;" version="1.1" viewBox="0 0 1076 720" width="1076px" zoomAndPan="magnify"><defs><filter height="300%" id="f1r7yitzxdv33g" width="300%" x="-1" y="-1"><feGaussianBlur result="blurOut" stdDeviation="2.0"/><feColorMatrix in="blurOut" result="blurOut2" type="matrix" values="0 0 0 0 0 0 0 0 0 0 0 0 0 0 0 0 0 0 .4 0"/><feOffset dx="4.0" dy="4.0" in="blurOut2" result="blurOut3"/><feBlend in="SourceGraphic" in2="blurOut3" mode="normal"/></filter></defs><g><!--MD5=[45ca3b68ced0388bca5bebb6e431c6e1]
cluster Microcontroller--><polygon fill="#FFFFFF" filter="url(#f1r7yitzxdv33g)" points="505,34,515,24,1054,24,1054,417.5,1044,427.5,505,427.5,505,34" style="stroke: #000000; stroke-width: 1.5;"/><line style="stroke: #000000; stroke-width: 1.5;" x1="1044" x2="1053" y1="34" y2="25"/><line style="stroke: #000000; stroke-width: 1.5;" x1="505" x2="1044" y1="34" y2="34"/><line style="stroke: #000000; stroke-width: 1.5;" x1="1044" x2="1044" y1="34" y2="427.5"/><text fill="#000000" font-family="sans-serif" font-size="14" font-weight="bold" lengthAdjust="spacingAndGlyphs" textLength="120" x="715.5" y="49.9951">Microcontroller</text><!--MD5=[47973610d6dc68264315f43ad8ea827e]
cluster PC--><polygon fill="#FFFFFF" filter="url(#f1r7yitzxdv33g)" points="22,236,32,226,471,226,471,673.5,461,683.5,22,683.5,22,236" style="stroke: #000000; stroke-width: 1.5;"/><line style="stroke: #000000; stroke-width: 1.5;" x1="461" x2="470" y1="236" y2="227"/><line style="stroke: #000000; stroke-width: 1.5;" x1="22" x2="461" y1="236" y2="236"/><line style="stroke: #000000; stroke-width: 1.5;" x1="461" x2="461" y1="236" y2="683.5"/><text fill="#000000" font-family="sans-serif" font-size="14" font-weight="bold" lengthAdjust="spacingAndGlyphs" textLength="21" x="232" y="251.9951">PC</text><!--MD5=[bc83b539b42669b3d580ce828cb160c0]
cluster FPGA--><polygon fill="#FFFFFF" filter="url(#f1r7yitzxdv33g)" points="595,461.5,605,451.5,906,451.5,906,698,896,708,595,708,595,461.5" style="stroke: #000000; stroke-width: 1.5;"/><line style="stroke: #000000; stroke-width: 1.5;" x1="896" x2="905" y1="461.5" y2="452.5"/><line style="stroke: #000000; stroke-width: 1.5;" x1="595" x2="896" y1="461.5" y2="461.5"/><line style="stroke: #000000; stroke-width: 1.5;" x1="896" x2="896" y1="461.5" y2="708"/><text fill="#000000" font-family="sans-serif" font-size="14" font-weight="bold" lengthAdjust="spacingAndGlyphs" textLength="42" x="725.5" y="477.4951">FPGA</text><!--MD5=[d06e92097c65f81c81c41599d4b0660f]
entity storeA1--><rect fill="#FEFECE" filter="url(#f1r7yitzxdv33g)" height="36.2969" style="stroke: #000000; stroke-width: 1.5;" width="118" x="736" y="64"/><text fill="#000000" font-family="sans-serif" font-size="14" lengthAdjust="spacingAndGlyphs" textLength="98" x="746" y="86.9951">Store A (C++)</text><!--MD5=[23a837cba5c1e62540662f68b02abebc]
entity storeB1--><rect fill="#FEFECE" filter="url(#f1r7yitzxdv33g)" height="36.2969" style="stroke: #000000; stroke-width: 1.5;" width="119" x="581.5" y="64"/><text fill="#000000" font-family="sans-serif" font-size="14" lengthAdjust="spacingAndGlyphs" textLength="99" x="591.5" y="86.9951">Store B (C++)</text><!--MD5=[019f6774f902f72c488c9dcee70d4d6c]
entity app1--><path d="M598.1958,169.2248 C599.8992,164.6046 604.2577,162.8976 607.7369,167.359 C610.9838,162.2283 616.5092,161.5071 619.6043,167.5206 C623.5647,162.0332 627.1069,161.8704 631.2057,167.3745 C633.9923,161.739 637.1039,161.8353 641.2067,166.0362 C645.2214,159.7186 650.7558,160.8391 653.5275,167.2402 C657.1217,162.5248 661.3687,162.5172 664.1024,168.122 C668.7411,162.3319 672.2943,163.1452 675.5924,169.4007 C678.473,163.5897 682.899,164.0208 686.2289,168.956 C695.5946,168.1512 699.1622,175.9475 695.7646,183.507 C701.6049,193.402 698.7527,199.7617 686.9063,200.3605 C683.5191,204.5954 678.9532,204.2157 676.5598,199.2438 C673.504,204.4849 668.7381,204.6827 664.9997,200.0424 C661.8863,204.8422 657.4522,204.6796 654.1787,200.2296 C650.7333,205.9325 645.3145,207.3601 641.1246,201.0379 C638.2068,206.3779 633.7623,205.1922 631.1696,200.7085 C627.5817,205.6637 622.6863,206.7712 619.0343,200.7795 C615.633,205.1963 611.2535,205.7083 608.7444,199.8831 C605.8371,206.4301 600.0604,205.1812 596.7413,200.3162 C587.9517,196.3332 586.6428,191.1504 592.6713,183.5668 C587.3509,176.4185 589.2737,170.8868 598.1958,169.2248 " fill="#FEFECE" style="stroke: #000000; stroke-width: 1.5;"/><text fill="#000000" font-family="sans-serif" font-size="14" lengthAdjust="spacingAndGlyphs" textLength="75" x="603.5" y="187.9951">Application</text><!--MD5=[4fd68376e29f6744da0617cadefedf36]
entity debugger--><rect fill="#FEFECE" filter="url(#f1r7yitzxdv33g)" height="36.2969" style="stroke: #000000; stroke-width: 1.5;" width="90" x="729" y="165"/><text fill="#000000" font-family="sans-serif" font-size="14" lengthAdjust="spacingAndGlyphs" textLength="70" x="739" y="187.9951">Debugger</text><!--MD5=[236537b84e9c35de8b0789cad4c07860]
entity debugstack--><rect fill="#FEFECE" filter="url(#f1r7yitzxdv33g)" height="133.4844" style="stroke: #000000; stroke-width: 1.5;" width="150" x="521" y="278.5"/><text fill="#000000" font-family="sans-serif" font-size="14" lengthAdjust="spacingAndGlyphs" textLength="106" x="531" y="301.4951">DebugArqLayer</text><line style="stroke: #000000; stroke-width: 1.0;" x1="522" x2="670" y1="304.7969" y2="304.7969"/><text fill="#000000" font-family="sans-serif" font-size="14" lengthAdjust="spacingAndGlyphs" textLength="77" x="537" y="321.792">Crc16Layer</text><line style="stroke: #000000; stroke-width: 1.0;" x1="522" x2="670" y1="329.0938" y2="329.0938"/><text fill="#000000" font-family="sans-serif" font-size="14" lengthAdjust="spacingAndGlyphs" textLength="118" x="537" y="346.0889">AsciiEscapeLayer</text><line style="stroke: #000000; stroke-width: 1.0;" x1="522" x2="670" y1="353.3906" y2="353.3906"/><text fill="#000000" font-family="sans-serif" font-size="14" lengthAdjust="spacingAndGlyphs" textLength="95" x="537" y="370.3857">TerminalLayer</text><line style="stroke: #000000; stroke-width: 1.0;" x1="522" x2="670" y1="377.6875" y2="377.6875"/><text fill="#000000" font-family="sans-serif" font-size="14" lengthAdjust="spacingAndGlyphs" textLength="71" x="537" y="394.6826">StdioLayer</text><path d="M705.5,325 L705.5,341 L671.3,345 L705.5,349 L705.5,365.2656 A0,0 0 0 0 705.5,365.2656 L864.5,365.2656 A0,0 0 0 0 864.5,365.2656 L864.5,335 L854.5,325 L705.5,325 A0,0 0 0 0 705.5,325 " fill="#FBFB77" filter="url(#f1r7yitzxdv33g)" style="stroke: #A80036; stroke-width: 1.0;"/><path d="M854.5,325 L854.5,335 L864.5,335 L854.5,325 " fill="#FBFB77" style="stroke: #A80036; stroke-width: 1.0;"/><text fill="#000000" font-family="sans-serif" font-size="13" lengthAdjust="spacingAndGlyphs" textLength="138" x="711.5" y="342.0669">Any stack as required</text><text fill="#000000" font-family="sans-serif" font-size="13" lengthAdjust="spacingAndGlyphs" textLength="138" x="711.5" y="357.1997">for you infrastructure.</text><!--MD5=[49619224c987b491f131f4b8a4d3cdd8]
entity sync1--><rect fill="#FEFECE" filter="url(#f1r7yitzxdv33g)" height="36.2969" style="stroke: #000000; stroke-width: 1.5;" width="110" x="884" y="165"/><text fill="#000000" font-family="sans-serif" font-size="14" lengthAdjust="spacingAndGlyphs" textLength="90" x="894" y="187.9951">Synchronizer</text><!--MD5=[4107d2ab7673ec464931befb30dd4267]
entity syncstack--><rect fill="#FEFECE" filter="url(#f1r7yitzxdv33g)" height="84.8906" style="stroke: #000000; stroke-width: 1.5;" width="138" x="900" y="302.5"/><text fill="#000000" font-family="sans-serif" font-size="14" lengthAdjust="spacingAndGlyphs" textLength="118" x="910" y="325.4951">AsciiEscapeLayer</text><line style="stroke: #000000; stroke-width: 1.0;" x1="901" x2="1037" y1="328.7969" y2="328.7969"/><text fill="#000000" font-family="sans-serif" font-size="14" lengthAdjust="spacingAndGlyphs" textLength="95" x="916" y="345.792">TerminalLayer</text><line style="stroke: #000000; stroke-width: 1.0;" x1="901" x2="1037" y1="353.0938" y2="353.0938"/><text fill="#000000" font-family="sans-serif" font-size="14" lengthAdjust="spacingAndGlyphs" textLength="59" x="916" y="370.0889">FileLayer</text><!--MD5=[7cbef5cc3986d331b7b72e62d3337b82]
entity wrapper--><rect fill="#FEFECE" filter="url(#f1r7yitzxdv33g)" height="157.7813" style="stroke: #000000; stroke-width: 1.5;" width="192" x="38" y="266"/><text fill="#000000" font-family="sans-serif" font-size="14" lengthAdjust="spacingAndGlyphs" textLength="140" x="48" y="288.9951">libstored.ZmqServer</text><line style="stroke: #000000; stroke-width: 1.0;" x1="39" x2="229" y1="292.2969" y2="292.2969"/><text fill="#000000" font-family="sans-serif" font-size="14" lengthAdjust="spacingAndGlyphs" textLength="106" x="54" y="309.292">DebugArqLayer</text><line style="stroke: #000000; stroke-width: 1.0;" x1="39" x2="229" y1="316.5938" y2="316.5938"/><text fill="#000000" font-family="sans-serif" font-size="14" lengthAdjust="spacingAndGlyphs" textLength="77" x="54" y="333.5889">Crc16Layer</text><line style="stroke: #000000; stroke-width: 1.0;" x1="39" x2="229" y1="340.8906" y2="340.8906"/><text fill="#000000" font-family="sans-serif" font-size="14" lengthAdjust="spacingAndGlyphs" textLength="118" x="54" y="357.8857">AsciiEscapeLayer</text><line style="stroke: #000000; stroke-width: 1.0;" x1="39" x2="229" y1="365.1875" y2="365.1875"/><text fill="#000000" font-family="sans-serif" font-size="14" lengthAdjust="spacingAndGlyphs" textLength="95" x="54" y="382.1826">TerminalLayer</text><line style="stroke: #000000; stroke-width: 1.0;" x1="39" x2="229" y1="389.4844" y2="389.4844"/><text fill="#000000" font-family="sans-serif" font-size="14" lengthAdjust="spacingAndGlyphs" textLength="160" x="54" y="406.4795">libstored.wrapper.serial</text><path d="M265,317.5 L265,341 L230.23,345 L265,349 L265,372.8984 A0,0 0 0 0 265,372.8984 L455,372.8984 A0,0 0 0 0 455,372.8984 L455,327.5 L445,317.5 L265,317.5 A0,0 0 0 0 265,317.5 " fill="#FBFB77" filter="url(#f1r7yitzxdv33g)" style="stroke: #A80036; stroke-width: 1.0;"/><path d="M445,317.5 L445,327.5 L455,327.5 L445,317.5 " fill="#FBFB77" style="stroke: #A80036; stroke-width: 1.0;"/><text fill="#000000" font-family="sans-serif" font-size="13" lengthAdjust="spacingAndGlyphs" textLength="169" x="271" y="334.5669">The configured stack must</text><text fill="#000000" font-family="sans-serif" font-size="13" lengthAdjust="spacingAndGlyphs" textLength="136" x="271" y="349.6997">match the one at the</text><text fill="#000000" font-family="sans-serif" font-size="13" lengthAdjust="spacingAndGlyphs" textLength="103" x="271" y="364.8325">embedded side.</text><!--MD5=[151950b9211408c78aa369b63e31ce25]
entity ZMQ--><ellipse cx="134" cy="518" fill="#FEFECE" filter="url(#f1r7yitzxdv33g)" rx="8" ry="8" style="stroke: #A80036; stroke-width: 2.0;"/><text fill="#000000" font-family="sans-serif" font-size="14" lengthAdjust="spacingAndGlyphs" textLength="33" x="117.5" y="547.9951">ZMQ</text><!--MD5=[fe12c9350b36738caec70ad8fa8d3c1b]
entity gui--><rect fill="#FEFECE" filter="url(#f1r7yitzxdv33g)" height="36.2969" style="stroke: #000000; stroke-width: 1.5;" width="105" x="60.5" y="631.5"/><text fill="#000000" font-family="sans-serif" font-size="14" lengthAdjust="spacingAndGlyphs" textLength="85" x="70.5" y="654.4951">libstored.gui</text><!--MD5=[7dc3992a0919d1d9128bba8bea2deff4]
entity visu--><rect fill="#FEFECE" filter="url(#f1r7yitzxdv33g)" height="36.2969" style="stroke: #000000; stroke-width: 1.5;" width="111" x="200.5" y="631.5"/><text fill="#000000" font-family="sans-serif" font-size="14" lengthAdjust="spacingAndGlyphs" textLength="91" x="210.5" y="654.4951">libstored.visu</text><!--MD5=[91b8ef66b01f98c731404c4e53e64afd]
entity storeA2--><rect fill="#FEFECE" filter="url(#f1r7yitzxdv33g)" height="52.5938" style="stroke: #000000; stroke-width: 1.5;" width="172" x="664" y="491.5"/><text fill="#000000" font-family="sans-serif" font-size="14" lengthAdjust="spacingAndGlyphs" textLength="101" x="674" y="514.4951">Store A (VHDL)</text><text fill="#000000" font-family="sans-serif" font-size="14" lengthAdjust="spacingAndGlyphs" textLength="152" x="674" y="530.792">includes Synchronizer</text><!--MD5=[b7ec9b280e3ad3796f8c92642f39fca2]
entity fpgastack--><rect fill="#FEFECE" filter="url(#f1r7yitzxdv33g)" height="84.8906" style="stroke: #000000; stroke-width: 1.5;" width="138" x="752" y="607"/><text fill="#000000" font-family="sans-serif" font-size="14" lengthAdjust="spacingAndGlyphs" textLength="118" x="762" y="629.9951">AsciiEscapeLayer</text><line style="stroke: #000000; stroke-width: 1.0;" x1="753" x2="889" y1="633.2969" y2="633.2969"/><text fill="#000000" font-family="sans-serif" font-size="14" lengthAdjust="spacingAndGlyphs" textLength="95" x="768" y="650.292">TerminalLayer</text><line style="stroke: #000000; stroke-width: 1.0;" x1="753" x2="889" y1="657.5938" y2="657.5938"/><text fill="#000000" font-family="sans-serif" font-size="14" lengthAdjust="spacingAndGlyphs" textLength="74" x="768" y="674.5889">UARTLayer</text><!--MD5=[81be28259591a23f63462d93727ccfe3]
entity app2--><path d="M621.1958,635.7248 C622.8992,631.1046 627.2577,629.3976 630.7369,633.859 C633.9838,628.7283 639.5092,628.0071 642.6043,634.0206 C646.5647,628.5332 650.1069,628.3704 654.2057,633.8745 C656.9923,628.239 660.1039,628.3353 664.2067,632.5362 C668.2214,626.2186 673.7558,627.3391 676.5275,633.7402 C680.1217,629.0248 684.3687,629.0172 687.1024,634.622 C691.7411,628.8319 695.2943,629.6452 698.5924,635.9007 C701.473,630.0897 705.899,630.5208 709.2289,635.456 C718.5946,634.6512 722.1622,642.4475 718.7646,650.007 C724.6049,659.902 721.7527,666.2617 709.9063,666.8605 C706.5191,671.0954 701.9532,670.7157 699.5598,665.7438 C696.504,670.9849 691.7381,671.1827 687.9997,666.5424 C684.8863,671.3422 680.4522,671.1796 677.1787,666.7296 C673.7333,672.4325 668.3145,673.8601 664.1246,667.5379 C661.2068,672.8779 656.7623,671.6922 654.1696,667.2085 C650.5817,672.1637 645.6863,673.2712 642.0343,667.2795 C638.633,671.6963 634.2535,672.2083 631.7444,666.3831 C628.8371,672.9301 623.0604,671.6812 619.7413,666.8162 C610.9517,662.8332 609.6428,657.6504 615.6713,650.0668 C610.3509,642.9185 612.2737,637.3868 621.1958,635.7248 " fill="#FEFECE" style="stroke: #000000; stroke-width: 1.5;"/><text fill="#000000" font-family="sans-serif" font-size="14" lengthAdjust="spacingAndGlyphs" textLength="75" x="626.5" y="654.4951">Application</text><!--MD5=[77e2a8891fed626e48810db2111b5d65]
entity UART--><ellipse cx="533" cy="518" fill="#FEFECE" filter="url(#f1r7yitzxdv33g)" rx="8" ry="8" style="stroke: #A80036; stroke-width: 2.0;"/><text fill="#000000" font-family="sans-serif" font-size="14" lengthAdjust="spacingAndGlyphs" textLength="77" x="494.5" y="547.9951">lossy UART</text><!--MD5=[6007a1f74a996cd981b2ad421c3c9e74]
entity UARTsync--><ellipse cx="979" cy="518" fill="#FEFECE" filter="url(#f1r7yitzxdv33g)" rx="8" ry="8" style="stroke: #A80036; stroke-width: 2.0;"/><text fill="#000000" font-family="sans-serif" font-size="14" lengthAdjust="spacingAndGlyphs" textLength="98" x="930" y="547.9951">lossless UART</text><!--MD5=[3401ba030ff6cc50073cd2f4d31953a2]
link storeA1 to app1--><path d="M768.53,100.02 C742.81,116.55 703.64,141.73 675.5,159.82 " fill="none" id="storeA1-app1" style="stroke: #A80036; stroke-width: 1.0;"/><!--MD5=[c180fbec2fc89e9e75f1f8174c75bcae]
link storeB1 to app1--><path d="M641,100.24 C641,116.75 641,141.74 641,159.74 " fill="none" id="storeB1-app1" style="stroke: #A80036; stroke-width: 1.0;"/><!--MD5=[c1217f601b232fdedcace6ee4b34887c]
link storeA1 to debugger--><path d="M791.34,100.24 C787.49,118.42 781.45,146.86 777.62,164.95 " fill="none" id="storeA1-debugger" style="stroke: #A80036; stroke-width: 1.0;"/><!--MD5=[5fc14d5bf34676221da879fadb06827c]
link storeB1 to debugger--><path d="M663.86,100.02 C688.22,118.15 726.57,146.7 750.99,164.87 " fill="none" id="storeB1-debugger" style="stroke: #A80036; stroke-width: 1.0;"/><!--MD5=[d704ec2595295c1c59543cdee8fadc99]
link debugger to debugstack--><path d="M728.81,199.29 C711.85,205.56 694.99,212.6 688,218 C666.79,234.4 648.22,256.96 633.43,278.47 " fill="none" id="debugger-debugstack" style="stroke: #A80036; stroke-width: 1.0;"/><!--MD5=[f038df7d3f99817ba15110454dd5016b]
link storeA1 to sync1--><path d="M819.75,100.02 C846.13,118.15 887.65,146.7 914.09,164.87 " fill="none" id="storeA1-sync1" style="stroke: #A80036; stroke-width: 1.0;"/><!--MD5=[7dfabc421fe3d8639bd7499ae170539a]
link sync1 to syncstack--><path d="M942.21,201.12 C946.7,225.07 955,269.31 961.17,302.24 " fill="none" id="sync1-syncstack" style="stroke: #A80036; stroke-width: 1.0;"/><!--MD5=[6f50e122b15439bf75760dc577903010]
link debugstack to UART--><path d="M571.82,411.62 C558.08,448.92 542.37,491.56 535.96,508.97 " fill="none" id="debugstack-UART" style="stroke: #A80036; stroke-width: 1.0;"/><!--MD5=[b61103c116d0a7d32837a28f59c3fc19]
link syncstack to UARTsync--><path d="M971.45,387.83 C973.83,428.57 977.27,487.38 978.52,508.8 " fill="none" id="syncstack-UARTsync" style="stroke: #A80036; stroke-width: 1.0;"/><!--MD5=[18101e05ddf503b3a297c2a115611baa]
link wrapper to UART--><path d="M222.86,424.17 C230.7,428.6 238.78,432.47 247,435.5 C270.37,444.1 448.61,432.6 471,443.5 C500.12,457.67 520.71,492.57 528.98,508.65 " fill="none" id="wrapper-UART" style="stroke: #A80036; stroke-width: 1.0;"/><!--MD5=[be77f3e2b090e33897b3f9174a0aff65]
link wrapper to ZMQ--><path d="M134,424.49 C134,458.21 134,493.39 134,508.87 " fill="none" id="wrapper-ZMQ" style="stroke: #A80036; stroke-width: 1.0;"/><!--MD5=[e6c6e6a5d59fae45b2ff13d3146f4b62]
link ZMQ to gui--><path d="M132.69,527.1 C129.33,547.81 120.37,603.04 115.79,631.31 " fill="none" id="ZMQ-gui" style="stroke: #A80036; stroke-width: 1.0;"/><!--MD5=[79a8487f17df81021081b11a28e73c5d]
link ZMQ to visu--><path d="M141.63,527.1 C161.14,547.81 213.17,603.04 239.81,631.31 " fill="none" id="ZMQ-visu" style="stroke: #A80036; stroke-width: 1.0;"/><!--MD5=[799a817ffc2a18cd0307133178d758b0]
link storeA2 to fpgastack--><path d="M764.03,544.59 C773.77,562.35 786.96,586.41 798.2,606.91 " fill="none" id="storeA2-fpgastack" style="stroke: #A80036; stroke-width: 1.0;"/><!--MD5=[1048887bfff05e37bf670ca51ced63d2]
link storeA2 to app2--><path d="M733.01,544.59 C717.15,568.47 693.73,603.74 678.66,626.42 " fill="none" id="storeA2-app2" style="stroke: #A80036; stroke-width: 1.0;"/><!--MD5=[48bac06d0c460d4aedb10338632c6f86]
link UARTsync to fpgastack--><path d="M969.59,526.71 C950.72,542.18 907.07,577.96 871.93,606.76 " fill="none" id="UARTsync-fpgastack" style="stroke: #A80036; stroke-width: 1.0;"/><!--MD5=[60bf1d341bb8ffa9d1834a6f3ed66d0c]
@startuml
node "Microcontroller" {
   rectangle storeA1 [
   Store A (C++)
   ]

   rectangle storeB1 [
   Store B (C++)
   ]

   cloud app1 [
      Application
   ]
   storeA1 - - app1
   storeB1 - - app1

   rectangle debugger [
   Debugger
   ]
   storeA1 - - debugger
   storeB1 - - debugger

   rectangle debugstack [
   DebugArqLayer
   - - - -
   Crc16Layer
   - - - -
   AsciiEscapeLayer
   - - - -
   TerminalLayer
   - - - -
   StdioLayer
   ]
   debugger - - debugstack

   note right of debugstack
      Any stack as required
      for you infrastructure.
   end note

   rectangle sync1 [
   Synchronizer
   ]

   storeA1 - - sync1

   rectangle syncstack [
   AsciiEscapeLayer
   - - - -
   TerminalLayer
   - - - -
   FileLayer
   ]
   sync1 - - syncstack
}

() "lossy UART" as UART
debugstack - - UART

() "lossless UART" as UARTsync
syncstack - - UARTsync

node "PC" {
   rectangle wrapper [
      libstored.ZmqServer
      - - - -
      DebugArqLayer
      - - - -
      Crc16Layer
      - - - -
      AsciiEscapeLayer
      - - - -
      TerminalLayer
      - - - -
      libstored.wrapper.serial
   ]
   wrapper - - UART

   note right of wrapper
      The configured stack must
      match the one at the
      embedded side.
   end note

   () ZMQ
   wrapper - - ZMQ

   rectangle gui [
      libstored.gui
   ]
   ZMQ - - gui

   rectangle visu [
      libstored.visu
   ]
   ZMQ - - visu
}

node "FPGA" {
   rectangle storeA2 [
   Store A (VHDL)
   includes Synchronizer
   ]

   rectangle fpgastack [
   AsciiEscapeLayer
   - - - -
   TerminalLayer
   - - - -
   UARTLayer
   ]
   storeA2 - - fpgastack

   cloud app2 [
      Application
   ]
   storeA2 - - app2
}

UARTsync - - fpgastack

@enduml

PlantUML version 1.2020.02(Sun Mar 01 10:22:07 UTC 2020)
(GPL source distribution)
Java Runtime: OpenJDK Runtime Environment
JVM: OpenJDK 64-Bit Server VM
Java Version: 11.0.21+9
Operating System: Linux
Default Encoding: UTF-8
Language: en
Country: null
--></g></svg>