<?xml version="1.0" encoding="UTF-8" standalone="no"?><svg xmlns="http://www.w3.org/2000/svg" xmlns:xlink="http://www.w3.org/1999/xlink" contentScriptType="application/ecmascript" contentStyleType="text/css" height="644px" preserveAspectRatio="none" style="width:1536px;height:644px;" version="1.1" viewBox="0 0 1536 644" width="1536px" zoomAndPan="magnify"><defs><filter height="300%" id="f8k9m9mn4bpc5" width="300%" x="-1" y="-1"><feGaussianBlur result="blurOut" stdDeviation="2.0"/><feColorMatrix in="blurOut" result="blurOut2" type="matrix" values="0 0 0 0 0 0 0 0 0 0 0 0 0 0 0 0 0 0 .4 0"/><feOffset dx="4.0" dy="4.0" in="blurOut2" result="blurOut3"/><feBlend in="SourceGraphic" in2="blurOut3" mode="normal"/></filter></defs><g><!--class ProtocolLayer--><rect fill="#FEFECE" filter="url(#f8k9m9mn4bpc5)" height="48" id="ProtocolLayer" style="stroke: #A80036; stroke-width: 1.5;" width="118" x="713" y="8"/><ellipse cx="728" cy="24" fill="#A9DCDF" rx="11" ry="11" style="stroke: #A80036; stroke-width: 1.0;"/><path d="M728.1094,19.3438 L726.9531,24.4219 L729.2813,24.4219 L728.1094,19.3438 Z M726.625,17.1094 L729.6094,17.1094 L732.9688,29.5 L730.5156,29.5 L729.75,26.4375 L726.4688,26.4375 L725.7188,29.5 L723.2813,29.5 L726.625,17.1094 Z "/><text fill="#000000" font-family="sans-serif" font-size="12" font-style="italic" lengthAdjust="spacingAndGlyphs" textLength="86" x="742" y="28.1543">ProtocolLayer</text><line style="stroke: #A80036; stroke-width: 1.5;" x1="714" x2="830" y1="40" y2="40"/><line style="stroke: #A80036; stroke-width: 1.5;" x1="714" x2="830" y1="48" y2="48"/><!--class AsciiEscapeLayer--><rect fill="#FEFECE" filter="url(#f8k9m9mn4bpc5)" height="48" id="AsciiEscapeLayer" style="stroke: #A80036; stroke-width: 1.5;" width="139" x="82.5" y="117"/><ellipse cx="97.5" cy="133" fill="#ADD1B2" rx="11" ry="11" style="stroke: #A80036; stroke-width: 1.0;"/><path d="M100.4688,138.6406 Q99.8906,138.9375 99.25,139.0781 Q98.6094,139.2344 97.9063,139.2344 Q95.4063,139.2344 94.0781,137.5938 Q92.7656,135.9375 92.7656,132.8125 Q92.7656,129.6875 94.0781,128.0313 Q95.4063,126.375 97.9063,126.375 Q98.6094,126.375 99.25,126.5313 Q99.9063,126.6875 100.4688,126.9844 L100.4688,129.7031 Q99.8438,129.125 99.25,128.8594 Q98.6563,128.5781 98.0313,128.5781 Q96.6875,128.5781 96,129.6563 Q95.3125,130.7188 95.3125,132.8125 Q95.3125,134.9063 96,135.9844 Q96.6875,137.0469 98.0313,137.0469 Q98.6563,137.0469 99.25,136.7813 Q99.8438,136.5 100.4688,135.9219 L100.4688,138.6406 Z "/><text fill="#000000" font-family="sans-serif" font-size="12" lengthAdjust="spacingAndGlyphs" textLength="107" x="111.5" y="137.1543">AsciiEscapeLayer</text><line style="stroke: #A80036; stroke-width: 1.5;" x1="83.5" x2="220.5" y1="149" y2="149"/><line style="stroke: #A80036; stroke-width: 1.5;" x1="83.5" x2="220.5" y1="157" y2="157"/><!--class TerminalLayer--><rect fill="#FEFECE" filter="url(#f8k9m9mn4bpc5)" height="48" id="TerminalLayer" style="stroke: #A80036; stroke-width: 1.5;" width="118" x="6" y="351"/><ellipse cx="21" cy="367" fill="#ADD1B2" rx="11" ry="11" style="stroke: #A80036; stroke-width: 1.0;"/><path d="M23.9688,372.6406 Q23.3906,372.9375 22.75,373.0781 Q22.1094,373.2344 21.4063,373.2344 Q18.9063,373.2344 17.5781,371.5938 Q16.2656,369.9375 16.2656,366.8125 Q16.2656,363.6875 17.5781,362.0313 Q18.9063,360.375 21.4063,360.375 Q22.1094,360.375 22.75,360.5313 Q23.4063,360.6875 23.9688,360.9844 L23.9688,363.7031 Q23.3438,363.125 22.75,362.8594 Q22.1563,362.5781 21.5313,362.5781 Q20.1875,362.5781 19.5,363.6563 Q18.8125,364.7188 18.8125,366.8125 Q18.8125,368.9063 19.5,369.9844 Q20.1875,371.0469 21.5313,371.0469 Q22.1563,371.0469 22.75,370.7813 Q23.3438,370.5 23.9688,369.9219 L23.9688,372.6406 Z "/><text fill="#000000" font-family="sans-serif" font-size="12" lengthAdjust="spacingAndGlyphs" textLength="86" x="35" y="371.1543">TerminalLayer</text><line style="stroke: #A80036; stroke-width: 1.5;" x1="7" x2="123" y1="383" y2="383"/><line style="stroke: #A80036; stroke-width: 1.5;" x1="7" x2="123" y1="391" y2="391"/><!--class SegmentationLayer--><rect fill="#FEFECE" filter="url(#f8k9m9mn4bpc5)" height="48" id="SegmentationLayer" style="stroke: #A80036; stroke-width: 1.5;" width="153" x="328.5" y="117"/><ellipse cx="343.5" cy="133" fill="#ADD1B2" rx="11" ry="11" style="stroke: #A80036; stroke-width: 1.0;"/><path d="M346.4688,138.6406 Q345.8906,138.9375 345.25,139.0781 Q344.6094,139.2344 343.9063,139.2344 Q341.4063,139.2344 340.0781,137.5938 Q338.7656,135.9375 338.7656,132.8125 Q338.7656,129.6875 340.0781,128.0313 Q341.4063,126.375 343.9063,126.375 Q344.6094,126.375 345.25,126.5313 Q345.9063,126.6875 346.4688,126.9844 L346.4688,129.7031 Q345.8438,129.125 345.25,128.8594 Q344.6563,128.5781 344.0313,128.5781 Q342.6875,128.5781 342,129.6563 Q341.3125,130.7188 341.3125,132.8125 Q341.3125,134.9063 342,135.9844 Q342.6875,137.0469 344.0313,137.0469 Q344.6563,137.0469 345.25,136.7813 Q345.8438,136.5 346.4688,135.9219 L346.4688,138.6406 Z "/><text fill="#000000" font-family="sans-serif" font-size="12" lengthAdjust="spacingAndGlyphs" textLength="121" x="357.5" y="137.1543">SegmentationLayer</text><line style="stroke: #A80036; stroke-width: 1.5;" x1="329.5" x2="480.5" y1="149" y2="149"/><line style="stroke: #A80036; stroke-width: 1.5;" x1="329.5" x2="480.5" y1="157" y2="157"/><!--class Crc8Layer--><rect fill="#FEFECE" filter="url(#f8k9m9mn4bpc5)" height="48" id="Crc8Layer" style="stroke: #A80036; stroke-width: 1.5;" width="93" x="854.5" y="117"/><ellipse cx="869.5" cy="133" fill="#ADD1B2" rx="11" ry="11" style="stroke: #A80036; stroke-width: 1.0;"/><path d="M872.4688,138.6406 Q871.8906,138.9375 871.25,139.0781 Q870.6094,139.2344 869.9063,139.2344 Q867.4063,139.2344 866.0781,137.5938 Q864.7656,135.9375 864.7656,132.8125 Q864.7656,129.6875 866.0781,128.0313 Q867.4063,126.375 869.9063,126.375 Q870.6094,126.375 871.25,126.5313 Q871.9063,126.6875 872.4688,126.9844 L872.4688,129.7031 Q871.8438,129.125 871.25,128.8594 Q870.6563,128.5781 870.0313,128.5781 Q868.6875,128.5781 868,129.6563 Q867.3125,130.7188 867.3125,132.8125 Q867.3125,134.9063 868,135.9844 Q868.6875,137.0469 870.0313,137.0469 Q870.6563,137.0469 871.25,136.7813 Q871.8438,136.5 872.4688,135.9219 L872.4688,138.6406 Z "/><text fill="#000000" font-family="sans-serif" font-size="12" lengthAdjust="spacingAndGlyphs" textLength="61" x="883.5" y="137.1543">Crc8Layer</text><line style="stroke: #A80036; stroke-width: 1.5;" x1="855.5" x2="946.5" y1="149" y2="149"/><line style="stroke: #A80036; stroke-width: 1.5;" x1="855.5" x2="946.5" y1="157" y2="157"/><!--class Crc16Layer--><rect fill="#FEFECE" filter="url(#f8k9m9mn4bpc5)" height="48" id="Crc16Layer" style="stroke: #A80036; stroke-width: 1.5;" width="101" x="485.5" y="351"/><ellipse cx="500.5" cy="367" fill="#ADD1B2" rx="11" ry="11" style="stroke: #A80036; stroke-width: 1.0;"/><path d="M503.4688,372.6406 Q502.8906,372.9375 502.25,373.0781 Q501.6094,373.2344 500.9063,373.2344 Q498.4063,373.2344 497.0781,371.5938 Q495.7656,369.9375 495.7656,366.8125 Q495.7656,363.6875 497.0781,362.0313 Q498.4063,360.375 500.9063,360.375 Q501.6094,360.375 502.25,360.5313 Q502.9063,360.6875 503.4688,360.9844 L503.4688,363.7031 Q502.8438,363.125 502.25,362.8594 Q501.6563,362.5781 501.0313,362.5781 Q499.6875,362.5781 499,363.6563 Q498.3125,364.7188 498.3125,366.8125 Q498.3125,368.9063 499,369.9844 Q499.6875,371.0469 501.0313,371.0469 Q501.6563,371.0469 502.25,370.7813 Q502.8438,370.5 503.4688,369.9219 L503.4688,372.6406 Z "/><text fill="#000000" font-family="sans-serif" font-size="12" lengthAdjust="spacingAndGlyphs" textLength="69" x="514.5" y="371.1543">Crc16Layer</text><line style="stroke: #A80036; stroke-width: 1.5;" x1="486.5" x2="585.5" y1="383" y2="383"/><line style="stroke: #A80036; stroke-width: 1.5;" x1="486.5" x2="585.5" y1="391" y2="391"/><!--class BufferLayer--><rect fill="#FEFECE" filter="url(#f8k9m9mn4bpc5)" height="48" id="BufferLayer" style="stroke: #A80036; stroke-width: 1.5;" width="102" x="588" y="117"/><ellipse cx="603" cy="133" fill="#ADD1B2" rx="11" ry="11" style="stroke: #A80036; stroke-width: 1.0;"/><path d="M605.9688,138.6406 Q605.3906,138.9375 604.75,139.0781 Q604.1094,139.2344 603.4063,139.2344 Q600.9063,139.2344 599.5781,137.5938 Q598.2656,135.9375 598.2656,132.8125 Q598.2656,129.6875 599.5781,128.0313 Q600.9063,126.375 603.4063,126.375 Q604.1094,126.375 604.75,126.5313 Q605.4063,126.6875 605.9688,126.9844 L605.9688,129.7031 Q605.3438,129.125 604.75,128.8594 Q604.1563,128.5781 603.5313,128.5781 Q602.1875,128.5781 601.5,129.6563 Q600.8125,130.7188 600.8125,132.8125 Q600.8125,134.9063 601.5,135.9844 Q602.1875,137.0469 603.5313,137.0469 Q604.1563,137.0469 604.75,136.7813 Q605.3438,136.5 605.9688,135.9219 L605.9688,138.6406 Z "/><text fill="#000000" font-family="sans-serif" font-size="12" lengthAdjust="spacingAndGlyphs" textLength="70" x="617" y="137.1543">BufferLayer</text><line style="stroke: #A80036; stroke-width: 1.5;" x1="589" x2="689" y1="149" y2="149"/><line style="stroke: #A80036; stroke-width: 1.5;" x1="589" x2="689" y1="157" y2="157"/><!--class PrintLayer--><rect fill="#FEFECE" filter="url(#f8k9m9mn4bpc5)" height="48" id="PrintLayer" style="stroke: #A80036; stroke-width: 1.5;" width="94" x="725" y="117"/><ellipse cx="740" cy="133" fill="#ADD1B2" rx="11" ry="11" style="stroke: #A80036; stroke-width: 1.0;"/><path d="M742.9688,138.6406 Q742.3906,138.9375 741.75,139.0781 Q741.1094,139.2344 740.4063,139.2344 Q737.9063,139.2344 736.5781,137.5938 Q735.2656,135.9375 735.2656,132.8125 Q735.2656,129.6875 736.5781,128.0313 Q737.9063,126.375 740.4063,126.375 Q741.1094,126.375 741.75,126.5313 Q742.4063,126.6875 742.9688,126.9844 L742.9688,129.7031 Q742.3438,129.125 741.75,128.8594 Q741.1563,128.5781 740.5313,128.5781 Q739.1875,128.5781 738.5,129.6563 Q737.8125,130.7188 737.8125,132.8125 Q737.8125,134.9063 738.5,135.9844 Q739.1875,137.0469 740.5313,137.0469 Q741.1563,137.0469 741.75,136.7813 Q742.3438,136.5 742.9688,135.9219 L742.9688,138.6406 Z "/><text fill="#000000" font-family="sans-serif" font-size="12" lengthAdjust="spacingAndGlyphs" textLength="62" x="754" y="137.1543">PrintLayer</text><line style="stroke: #A80036; stroke-width: 1.5;" x1="726" x2="818" y1="149" y2="149"/><line style="stroke: #A80036; stroke-width: 1.5;" x1="726" x2="818" y1="157" y2="157"/><!--class ArqLayer--><rect fill="#FEFECE" filter="url(#f8k9m9mn4bpc5)" height="48" id="ArqLayer" style="stroke: #A80036; stroke-width: 1.5;" width="88" x="282" y="351"/><ellipse cx="297" cy="367" fill="#A9DCDF" rx="11" ry="11" style="stroke: #A80036; stroke-width: 1.0;"/><path d="M297.1094,362.3438 L295.9531,367.4219 L298.2813,367.4219 L297.1094,362.3438 Z M295.625,360.1094 L298.6094,360.1094 L301.9688,372.5 L299.5156,372.5 L298.75,369.4375 L295.4688,369.4375 L294.7188,372.5 L292.2813,372.5 L295.625,360.1094 Z "/><text fill="#000000" font-family="sans-serif" font-size="12" font-style="italic" lengthAdjust="spacingAndGlyphs" textLength="56" x="311" y="371.1543">ArqLayer</text><line style="stroke: #A80036; stroke-width: 1.5;" x1="283" x2="369" y1="383" y2="383"/><line style="stroke: #A80036; stroke-width: 1.5;" x1="283" x2="369" y1="391" y2="391"/><!--class DebugArqLayer--><rect fill="#FEFECE" filter="url(#f8k9m9mn4bpc5)" height="48" id="DebugArqLayer" style="stroke: #A80036; stroke-width: 1.5;" width="127" x="262.5" y="476"/><ellipse cx="277.5" cy="492" fill="#ADD1B2" rx="11" ry="11" style="stroke: #A80036; stroke-width: 1.0;"/><path d="M280.4688,497.6406 Q279.8906,497.9375 279.25,498.0781 Q278.6094,498.2344 277.9063,498.2344 Q275.4063,498.2344 274.0781,496.5938 Q272.7656,494.9375 272.7656,491.8125 Q272.7656,488.6875 274.0781,487.0313 Q275.4063,485.375 277.9063,485.375 Q278.6094,485.375 279.25,485.5313 Q279.9063,485.6875 280.4688,485.9844 L280.4688,488.7031 Q279.8438,488.125 279.25,487.8594 Q278.6563,487.5781 278.0313,487.5781 Q276.6875,487.5781 276,488.6563 Q275.3125,489.7188 275.3125,491.8125 Q275.3125,493.9063 276,494.9844 Q276.6875,496.0469 278.0313,496.0469 Q278.6563,496.0469 279.25,495.7813 Q279.8438,495.5 280.4688,494.9219 L280.4688,497.6406 Z "/><text fill="#000000" font-family="sans-serif" font-size="12" lengthAdjust="spacingAndGlyphs" textLength="95" x="291.5" y="496.1543">DebugArqLayer</text><line style="stroke: #A80036; stroke-width: 1.5;" x1="263.5" x2="388.5" y1="508" y2="508"/><line style="stroke: #A80036; stroke-width: 1.5;" x1="263.5" x2="388.5" y1="516" y2="516"/><!--class PolledLayer--><rect fill="#FEFECE" filter="url(#f8k9m9mn4bpc5)" height="48" id="PolledLayer" style="stroke: #A80036; stroke-width: 1.5;" width="104" x="983" y="117"/><ellipse cx="998" cy="133" fill="#A9DCDF" rx="11" ry="11" style="stroke: #A80036; stroke-width: 1.0;"/><path d="M998.1094,128.3438 L996.9531,133.4219 L999.2813,133.4219 L998.1094,128.3438 Z M996.625,126.1094 L999.6094,126.1094 L1002.9688,138.5 L1000.5156,138.5 L999.75,135.4375 L996.4688,135.4375 L995.7188,138.5 L993.2813,138.5 L996.625,126.1094 Z "/><text fill="#000000" font-family="sans-serif" font-size="12" font-style="italic" lengthAdjust="spacingAndGlyphs" textLength="72" x="1012" y="137.1543">PolledLayer</text><line style="stroke: #A80036; stroke-width: 1.5;" x1="984" x2="1086" y1="149" y2="149"/><line style="stroke: #A80036; stroke-width: 1.5;" x1="984" x2="1086" y1="157" y2="157"/><!--class PolledFileLayer--><rect fill="#FEFECE" filter="url(#f8k9m9mn4bpc5)" height="48" id="PolledFileLayer" style="stroke: #A80036; stroke-width: 1.5;" width="125" x="900.5" y="226"/><ellipse cx="915.5" cy="242" fill="#A9DCDF" rx="11" ry="11" style="stroke: #A80036; stroke-width: 1.0;"/><path d="M915.6094,237.3438 L914.4531,242.4219 L916.7813,242.4219 L915.6094,237.3438 Z M914.125,235.1094 L917.1094,235.1094 L920.4688,247.5 L918.0156,247.5 L917.25,244.4375 L913.9688,244.4375 L913.2188,247.5 L910.7813,247.5 L914.125,235.1094 Z "/><text fill="#000000" font-family="sans-serif" font-size="12" font-style="italic" lengthAdjust="spacingAndGlyphs" textLength="93" x="929.5" y="246.1543">PolledFileLayer</text><line style="stroke: #A80036; stroke-width: 1.5;" x1="901.5" x2="1024.5" y1="258" y2="258"/><line style="stroke: #A80036; stroke-width: 1.5;" x1="901.5" x2="1024.5" y1="266" y2="266"/><!--class PolledSocketLayer--><rect fill="#FEFECE" filter="url(#f8k9m9mn4bpc5)" height="48" id="PolledSocketLayer" style="stroke: #A80036; stroke-width: 1.5;" width="147" x="1041.5" y="351"/><ellipse cx="1056.5" cy="367" fill="#A9DCDF" rx="11" ry="11" style="stroke: #A80036; stroke-width: 1.0;"/><path d="M1056.6094,362.3438 L1055.4531,367.4219 L1057.7813,367.4219 L1056.6094,362.3438 Z M1055.125,360.1094 L1058.1094,360.1094 L1061.4688,372.5 L1059.0156,372.5 L1058.25,369.4375 L1054.9688,369.4375 L1054.2188,372.5 L1051.7813,372.5 L1055.125,360.1094 Z "/><text fill="#000000" font-family="sans-serif" font-size="12" font-style="italic" lengthAdjust="spacingAndGlyphs" textLength="115" x="1070.5" y="371.1543">PolledSocketLayer</text><line style="stroke: #A80036; stroke-width: 1.5;" x1="1042.5" x2="1187.5" y1="383" y2="383"/><line style="stroke: #A80036; stroke-width: 1.5;" x1="1042.5" x2="1187.5" y1="391" y2="391"/><!--class FileLayer--><rect fill="#FEFECE" filter="url(#f8k9m9mn4bpc5)" height="48" id="FileLayer" style="stroke: #A80036; stroke-width: 1.5;" width="86" x="920" y="351"/><ellipse cx="935" cy="367" fill="#ADD1B2" rx="11" ry="11" style="stroke: #A80036; stroke-width: 1.0;"/><path d="M937.9688,372.6406 Q937.3906,372.9375 936.75,373.0781 Q936.1094,373.2344 935.4063,373.2344 Q932.9063,373.2344 931.5781,371.5938 Q930.2656,369.9375 930.2656,366.8125 Q930.2656,363.6875 931.5781,362.0313 Q932.9063,360.375 935.4063,360.375 Q936.1094,360.375 936.75,360.5313 Q937.4063,360.6875 937.9688,360.9844 L937.9688,363.7031 Q937.3438,363.125 936.75,362.8594 Q936.1563,362.5781 935.5313,362.5781 Q934.1875,362.5781 933.5,363.6563 Q932.8125,364.7188 932.8125,366.8125 Q932.8125,368.9063 933.5,369.9844 Q934.1875,371.0469 935.5313,371.0469 Q936.1563,371.0469 936.75,370.7813 Q937.3438,370.5 937.9688,369.9219 L937.9688,372.6406 Z "/><text fill="#000000" font-family="sans-serif" font-size="12" lengthAdjust="spacingAndGlyphs" textLength="54" x="949" y="371.1543">FileLayer</text><line style="stroke: #A80036; stroke-width: 1.5;" x1="921" x2="1005" y1="383" y2="383"/><line style="stroke: #A80036; stroke-width: 1.5;" x1="921" x2="1005" y1="391" y2="391"/><!--class NamedPipeLayer--><rect fill="#FEFECE" filter="url(#f8k9m9mn4bpc5)" height="48" id="NamedPipeLayer" style="stroke: #A80036; stroke-width: 1.5;" width="136" x="798" y="585"/><ellipse cx="813" cy="601" fill="#ADD1B2" rx="11" ry="11" style="stroke: #A80036; stroke-width: 1.0;"/><path d="M815.9688,606.6406 Q815.3906,606.9375 814.75,607.0781 Q814.1094,607.2344 813.4063,607.2344 Q810.9063,607.2344 809.5781,605.5938 Q808.2656,603.9375 808.2656,600.8125 Q808.2656,597.6875 809.5781,596.0313 Q810.9063,594.375 813.4063,594.375 Q814.1094,594.375 814.75,594.5313 Q815.4063,594.6875 815.9688,594.9844 L815.9688,597.7031 Q815.3438,597.125 814.75,596.8594 Q814.1563,596.5781 813.5313,596.5781 Q812.1875,596.5781 811.5,597.6563 Q810.8125,598.7188 810.8125,600.8125 Q810.8125,602.9063 811.5,603.9844 Q812.1875,605.0469 813.5313,605.0469 Q814.1563,605.0469 814.75,604.7813 Q815.3438,604.5 815.9688,603.9219 L815.9688,606.6406 Z "/><text fill="#000000" font-family="sans-serif" font-size="12" lengthAdjust="spacingAndGlyphs" textLength="104" x="827" y="605.1543">NamedPipeLayer</text><line style="stroke: #A80036; stroke-width: 1.5;" x1="799" x2="933" y1="617" y2="617"/><line style="stroke: #A80036; stroke-width: 1.5;" x1="799" x2="933" y1="625" y2="625"/><!--class DoublePipeLayer--><rect fill="#FEFECE" filter="url(#f8k9m9mn4bpc5)" height="48" id="DoublePipeLayer" style="stroke: #A80036; stroke-width: 1.5;" width="136" x="623" y="351"/><ellipse cx="638" cy="367" fill="#ADD1B2" rx="11" ry="11" style="stroke: #A80036; stroke-width: 1.0;"/><path d="M640.9688,372.6406 Q640.3906,372.9375 639.75,373.0781 Q639.1094,373.2344 638.4063,373.2344 Q635.9063,373.2344 634.5781,371.5938 Q633.2656,369.9375 633.2656,366.8125 Q633.2656,363.6875 634.5781,362.0313 Q635.9063,360.375 638.4063,360.375 Q639.1094,360.375 639.75,360.5313 Q640.4063,360.6875 640.9688,360.9844 L640.9688,363.7031 Q640.3438,363.125 639.75,362.8594 Q639.1563,362.5781 638.5313,362.5781 Q637.1875,362.5781 636.5,363.6563 Q635.8125,364.7188 635.8125,366.8125 Q635.8125,368.9063 636.5,369.9844 Q637.1875,371.0469 638.5313,371.0469 Q639.1563,371.0469 639.75,370.7813 Q640.3438,370.5 640.9688,369.9219 L640.9688,372.6406 Z "/><text fill="#000000" font-family="sans-serif" font-size="12" lengthAdjust="spacingAndGlyphs" textLength="104" x="652" y="371.1543">DoublePipeLayer</text><line style="stroke: #A80036; stroke-width: 1.5;" x1="624" x2="758" y1="383" y2="383"/><line style="stroke: #A80036; stroke-width: 1.5;" x1="624" x2="758" y1="391" y2="391"/><!--class XsimLayer--><rect fill="#FEFECE" filter="url(#f8k9m9mn4bpc5)" height="48" id="XsimLayer" style="stroke: #A80036; stroke-width: 1.5;" width="93" x="653.5" y="476"/><ellipse cx="668.5" cy="492" fill="#ADD1B2" rx="11" ry="11" style="stroke: #A80036; stroke-width: 1.0;"/><path d="M671.4688,497.6406 Q670.8906,497.9375 670.25,498.0781 Q669.6094,498.2344 668.9063,498.2344 Q666.4063,498.2344 665.0781,496.5938 Q663.7656,494.9375 663.7656,491.8125 Q663.7656,488.6875 665.0781,487.0313 Q666.4063,485.375 668.9063,485.375 Q669.6094,485.375 670.25,485.5313 Q670.9063,485.6875 671.4688,485.9844 L671.4688,488.7031 Q670.8438,488.125 670.25,487.8594 Q669.6563,487.5781 669.0313,487.5781 Q667.6875,487.5781 667,488.6563 Q666.3125,489.7188 666.3125,491.8125 Q666.3125,493.9063 667,494.9844 Q667.6875,496.0469 669.0313,496.0469 Q669.6563,496.0469 670.25,495.7813 Q670.8438,495.5 671.4688,494.9219 L671.4688,497.6406 Z "/><text fill="#000000" font-family="sans-serif" font-size="12" lengthAdjust="spacingAndGlyphs" textLength="61" x="682.5" y="496.1543">XsimLayer</text><line style="stroke: #A80036; stroke-width: 1.5;" x1="654.5" x2="745.5" y1="508" y2="508"/><line style="stroke: #A80036; stroke-width: 1.5;" x1="654.5" x2="745.5" y1="516" y2="516"/><!--class StdioLayer--><rect fill="#FEFECE" filter="url(#f8k9m9mn4bpc5)" height="48" id="StdioLayer" style="stroke: #A80036; stroke-width: 1.5;" width="97" x="799.5" y="476"/><ellipse cx="814.5" cy="492" fill="#ADD1B2" rx="11" ry="11" style="stroke: #A80036; stroke-width: 1.0;"/><path d="M817.4688,497.6406 Q816.8906,497.9375 816.25,498.0781 Q815.6094,498.2344 814.9063,498.2344 Q812.4063,498.2344 811.0781,496.5938 Q809.7656,494.9375 809.7656,491.8125 Q809.7656,488.6875 811.0781,487.0313 Q812.4063,485.375 814.9063,485.375 Q815.6094,485.375 816.25,485.5313 Q816.9063,485.6875 817.4688,485.9844 L817.4688,488.7031 Q816.8438,488.125 816.25,487.8594 Q815.6563,487.5781 815.0313,487.5781 Q813.6875,487.5781 813,488.6563 Q812.3125,489.7188 812.3125,491.8125 Q812.3125,493.9063 813,494.9844 Q813.6875,496.0469 815.0313,496.0469 Q815.6563,496.0469 816.25,495.7813 Q816.8438,495.5 817.4688,494.9219 L817.4688,497.6406 Z "/><text fill="#000000" font-family="sans-serif" font-size="12" lengthAdjust="spacingAndGlyphs" textLength="65" x="828.5" y="496.1543">StdioLayer</text><line style="stroke: #A80036; stroke-width: 1.5;" x1="800.5" x2="895.5" y1="508" y2="508"/><line style="stroke: #A80036; stroke-width: 1.5;" x1="800.5" x2="895.5" y1="516" y2="516"/><!--class CompressLayer--><rect fill="#FEFECE" filter="url(#f8k9m9mn4bpc5)" height="48" id="CompressLayer" style="stroke: #A80036; stroke-width: 1.5;" width="127" x="1250.5" y="351"/><ellipse cx="1265.5" cy="367" fill="#ADD1B2" rx="11" ry="11" style="stroke: #A80036; stroke-width: 1.0;"/><path d="M1268.4688,372.6406 Q1267.8906,372.9375 1267.25,373.0781 Q1266.6094,373.2344 1265.9063,373.2344 Q1263.4063,373.2344 1262.0781,371.5938 Q1260.7656,369.9375 1260.7656,366.8125 Q1260.7656,363.6875 1262.0781,362.0313 Q1263.4063,360.375 1265.9063,360.375 Q1266.6094,360.375 1267.25,360.5313 Q1267.9063,360.6875 1268.4688,360.9844 L1268.4688,363.7031 Q1267.8438,363.125 1267.25,362.8594 Q1266.6563,362.5781 1266.0313,362.5781 Q1264.6875,362.5781 1264,363.6563 Q1263.3125,364.7188 1263.3125,366.8125 Q1263.3125,368.9063 1264,369.9844 Q1264.6875,371.0469 1266.0313,371.0469 Q1266.6563,371.0469 1267.25,370.7813 Q1267.8438,370.5 1268.4688,369.9219 L1268.4688,372.6406 Z "/><text fill="#000000" font-family="sans-serif" font-size="12" lengthAdjust="spacingAndGlyphs" textLength="95" x="1279.5" y="371.1543">CompressLayer</text><line style="stroke: #A80036; stroke-width: 1.5;" x1="1251.5" x2="1376.5" y1="383" y2="383"/><line style="stroke: #A80036; stroke-width: 1.5;" x1="1251.5" x2="1376.5" y1="391" y2="391"/><!--class Stream--><rect fill="#FEFECE" filter="url(#f8k9m9mn4bpc5)" height="48" id="Stream" style="stroke: #A80036; stroke-width: 1.5;" width="77" x="1201.5" y="226"/><ellipse cx="1216.5" cy="242" fill="#ADD1B2" rx="11" ry="11" style="stroke: #A80036; stroke-width: 1.0;"/><path d="M1219.4688,247.6406 Q1218.8906,247.9375 1218.25,248.0781 Q1217.6094,248.2344 1216.9063,248.2344 Q1214.4063,248.2344 1213.0781,246.5938 Q1211.7656,244.9375 1211.7656,241.8125 Q1211.7656,238.6875 1213.0781,237.0313 Q1214.4063,235.375 1216.9063,235.375 Q1217.6094,235.375 1218.25,235.5313 Q1218.9063,235.6875 1219.4688,235.9844 L1219.4688,238.7031 Q1218.8438,238.125 1218.25,237.8594 Q1217.6563,237.5781 1217.0313,237.5781 Q1215.6875,237.5781 1215,238.6563 Q1214.3125,239.7188 1214.3125,241.8125 Q1214.3125,243.9063 1215,244.9844 Q1215.6875,246.0469 1217.0313,246.0469 Q1217.6563,246.0469 1218.25,245.7813 Q1218.8438,245.5 1219.4688,244.9219 L1219.4688,247.6406 Z "/><text fill="#000000" font-family="sans-serif" font-size="12" lengthAdjust="spacingAndGlyphs" textLength="45" x="1230.5" y="246.1543">Stream</text><line style="stroke: #A80036; stroke-width: 1.5;" x1="1202.5" x2="1277.5" y1="258" y2="258"/><line style="stroke: #A80036; stroke-width: 1.5;" x1="1202.5" x2="1277.5" y1="266" y2="266"/><!--class Debugger--><rect fill="#FEFECE" filter="url(#f8k9m9mn4bpc5)" height="48" id="Debugger" style="stroke: #A80036; stroke-width: 1.5;" width="94" x="1193" y="117"/><ellipse cx="1208" cy="133" fill="#ADD1B2" rx="11" ry="11" style="stroke: #A80036; stroke-width: 1.0;"/><path d="M1210.9688,138.6406 Q1210.3906,138.9375 1209.75,139.0781 Q1209.1094,139.2344 1208.4063,139.2344 Q1205.9063,139.2344 1204.5781,137.5938 Q1203.2656,135.9375 1203.2656,132.8125 Q1203.2656,129.6875 1204.5781,128.0313 Q1205.9063,126.375 1208.4063,126.375 Q1209.1094,126.375 1209.75,126.5313 Q1210.4063,126.6875 1210.9688,126.9844 L1210.9688,129.7031 Q1210.3438,129.125 1209.75,128.8594 Q1209.1563,128.5781 1208.5313,128.5781 Q1207.1875,128.5781 1206.5,129.6563 Q1205.8125,130.7188 1205.8125,132.8125 Q1205.8125,134.9063 1206.5,135.9844 Q1207.1875,137.0469 1208.5313,137.0469 Q1209.1563,137.0469 1209.75,136.7813 Q1210.3438,136.5 1210.9688,135.9219 L1210.9688,138.6406 Z "/><text fill="#000000" font-family="sans-serif" font-size="12" lengthAdjust="spacingAndGlyphs" textLength="62" x="1222" y="137.1543">Debugger</text><line style="stroke: #A80036; stroke-width: 1.5;" x1="1194" x2="1286" y1="149" y2="149"/><line style="stroke: #A80036; stroke-width: 1.5;" x1="1194" x2="1286" y1="157" y2="157"/><!--class SyncConnection--><rect fill="#FEFECE" filter="url(#f8k9m9mn4bpc5)" height="48" id="SyncConnection" style="stroke: #A80036; stroke-width: 1.5;" width="132" x="1393" y="117"/><ellipse cx="1408" cy="133" fill="#ADD1B2" rx="11" ry="11" style="stroke: #A80036; stroke-width: 1.0;"/><path d="M1410.9688,138.6406 Q1410.3906,138.9375 1409.75,139.0781 Q1409.1094,139.2344 1408.4063,139.2344 Q1405.9063,139.2344 1404.5781,137.5938 Q1403.2656,135.9375 1403.2656,132.8125 Q1403.2656,129.6875 1404.5781,128.0313 Q1405.9063,126.375 1408.4063,126.375 Q1409.1094,126.375 1409.75,126.5313 Q1410.4063,126.6875 1410.9688,126.9844 L1410.9688,129.7031 Q1410.3438,129.125 1409.75,128.8594 Q1409.1563,128.5781 1408.5313,128.5781 Q1407.1875,128.5781 1406.5,129.6563 Q1405.8125,130.7188 1405.8125,132.8125 Q1405.8125,134.9063 1406.5,135.9844 Q1407.1875,137.0469 1408.5313,137.0469 Q1409.1563,137.0469 1409.75,136.7813 Q1410.3438,136.5 1410.9688,135.9219 L1410.9688,138.6406 Z "/><text fill="#000000" font-family="sans-serif" font-size="12" lengthAdjust="spacingAndGlyphs" textLength="100" x="1422" y="137.1543">SyncConnection</text><line style="stroke: #A80036; stroke-width: 1.5;" x1="1394" x2="1524" y1="149" y2="149"/><line style="stroke: #A80036; stroke-width: 1.5;" x1="1394" x2="1524" y1="157" y2="157"/><!--class ZmqLayer--><rect fill="#FEFECE" filter="url(#f8k9m9mn4bpc5)" height="48" id="ZmqLayer" style="stroke: #A80036; stroke-width: 1.5;" width="94" x="1068" y="476"/><ellipse cx="1083" cy="492" fill="#A9DCDF" rx="11" ry="11" style="stroke: #A80036; stroke-width: 1.0;"/><path d="M1083.1094,487.3438 L1081.9531,492.4219 L1084.2813,492.4219 L1083.1094,487.3438 Z M1081.625,485.1094 L1084.6094,485.1094 L1087.9688,497.5 L1085.5156,497.5 L1084.75,494.4375 L1081.4688,494.4375 L1080.7188,497.5 L1078.2813,497.5 L1081.625,485.1094 Z "/><text fill="#000000" font-family="sans-serif" font-size="12" font-style="italic" lengthAdjust="spacingAndGlyphs" textLength="62" x="1097" y="496.1543">ZmqLayer</text><line style="stroke: #A80036; stroke-width: 1.5;" x1="1069" x2="1161" y1="508" y2="508"/><line style="stroke: #A80036; stroke-width: 1.5;" x1="1069" x2="1161" y1="516" y2="516"/><!--class DebugZmqLayer--><rect fill="#FEFECE" filter="url(#f8k9m9mn4bpc5)" height="48" id="DebugZmqLayer" style="stroke: #A80036; stroke-width: 1.5;" width="134" x="995" y="585"/><ellipse cx="1010" cy="601" fill="#ADD1B2" rx="11" ry="11" style="stroke: #A80036; stroke-width: 1.0;"/><path d="M1012.9688,606.6406 Q1012.3906,606.9375 1011.75,607.0781 Q1011.1094,607.2344 1010.4063,607.2344 Q1007.9063,607.2344 1006.5781,605.5938 Q1005.2656,603.9375 1005.2656,600.8125 Q1005.2656,597.6875 1006.5781,596.0313 Q1007.9063,594.375 1010.4063,594.375 Q1011.1094,594.375 1011.75,594.5313 Q1012.4063,594.6875 1012.9688,594.9844 L1012.9688,597.7031 Q1012.3438,597.125 1011.75,596.8594 Q1011.1563,596.5781 1010.5313,596.5781 Q1009.1875,596.5781 1008.5,597.6563 Q1007.8125,598.7188 1007.8125,600.8125 Q1007.8125,602.9063 1008.5,603.9844 Q1009.1875,605.0469 1010.5313,605.0469 Q1011.1563,605.0469 1011.75,604.7813 Q1012.3438,604.5 1012.9688,603.9219 L1012.9688,606.6406 Z "/><text fill="#000000" font-family="sans-serif" font-size="12" lengthAdjust="spacingAndGlyphs" textLength="102" x="1024" y="605.1543">DebugZmqLayer</text><line style="stroke: #A80036; stroke-width: 1.5;" x1="996" x2="1128" y1="617" y2="617"/><line style="stroke: #A80036; stroke-width: 1.5;" x1="996" x2="1128" y1="625" y2="625"/><!--class SyncZmqLayer--><rect fill="#FEFECE" filter="url(#f8k9m9mn4bpc5)" height="48" id="SyncZmqLayer" style="stroke: #A80036; stroke-width: 1.5;" width="122" x="1164" y="585"/><ellipse cx="1179" cy="601" fill="#ADD1B2" rx="11" ry="11" style="stroke: #A80036; stroke-width: 1.0;"/><path d="M1181.9688,606.6406 Q1181.3906,606.9375 1180.75,607.0781 Q1180.1094,607.2344 1179.4063,607.2344 Q1176.9063,607.2344 1175.5781,605.5938 Q1174.2656,603.9375 1174.2656,600.8125 Q1174.2656,597.6875 1175.5781,596.0313 Q1176.9063,594.375 1179.4063,594.375 Q1180.1094,594.375 1180.75,594.5313 Q1181.4063,594.6875 1181.9688,594.9844 L1181.9688,597.7031 Q1181.3438,597.125 1180.75,596.8594 Q1180.1563,596.5781 1179.5313,596.5781 Q1178.1875,596.5781 1177.5,597.6563 Q1176.8125,598.7188 1176.8125,600.8125 Q1176.8125,602.9063 1177.5,603.9844 Q1178.1875,605.0469 1179.5313,605.0469 Q1180.1563,605.0469 1180.75,604.7813 Q1181.3438,604.5 1181.9688,603.9219 L1181.9688,606.6406 Z "/><text fill="#000000" font-family="sans-serif" font-size="12" lengthAdjust="spacingAndGlyphs" textLength="90" x="1193" y="605.1543">SyncZmqLayer</text><line style="stroke: #A80036; stroke-width: 1.5;" x1="1165" x2="1285" y1="617" y2="617"/><line style="stroke: #A80036; stroke-width: 1.5;" x1="1165" x2="1285" y1="625" y2="625"/><!--class Loopback--><rect fill="#FEFECE" filter="url(#f8k9m9mn4bpc5)" height="48" id="Loopback" style="stroke: #A80036; stroke-width: 1.5;" width="92" x="866" y="8"/><ellipse cx="881" cy="24" fill="#ADD1B2" rx="11" ry="11" style="stroke: #A80036; stroke-width: 1.0;"/><path d="M883.9688,29.6406 Q883.3906,29.9375 882.75,30.0781 Q882.1094,30.2344 881.4063,30.2344 Q878.9063,30.2344 877.5781,28.5938 Q876.2656,26.9375 876.2656,23.8125 Q876.2656,20.6875 877.5781,19.0313 Q878.9063,17.375 881.4063,17.375 Q882.1094,17.375 882.75,17.5313 Q883.4063,17.6875 883.9688,17.9844 L883.9688,20.7031 Q883.3438,20.125 882.75,19.8594 Q882.1563,19.5781 881.5313,19.5781 Q880.1875,19.5781 879.5,20.6563 Q878.8125,21.7188 878.8125,23.8125 Q878.8125,25.9063 879.5,26.9844 Q880.1875,28.0469 881.5313,28.0469 Q882.1563,28.0469 882.75,27.7813 Q883.3438,27.5 883.9688,26.9219 L883.9688,29.6406 Z "/><text fill="#000000" font-family="sans-serif" font-size="12" lengthAdjust="spacingAndGlyphs" textLength="60" x="895" y="28.1543">Loopback</text><line style="stroke: #A80036; stroke-width: 1.5;" x1="867" x2="957" y1="40" y2="40"/><line style="stroke: #A80036; stroke-width: 1.5;" x1="867" x2="957" y1="48" y2="48"/><!--class Poller--><rect fill="#FEFECE" filter="url(#f8k9m9mn4bpc5)" height="48" id="Poller" style="stroke: #A80036; stroke-width: 1.5;" width="67" x="993.5" y="8"/><ellipse cx="1008.5" cy="24" fill="#ADD1B2" rx="11" ry="11" style="stroke: #A80036; stroke-width: 1.0;"/><path d="M1011.4688,29.6406 Q1010.8906,29.9375 1010.25,30.0781 Q1009.6094,30.2344 1008.9063,30.2344 Q1006.4063,30.2344 1005.0781,28.5938 Q1003.7656,26.9375 1003.7656,23.8125 Q1003.7656,20.6875 1005.0781,19.0313 Q1006.4063,17.375 1008.9063,17.375 Q1009.6094,17.375 1010.25,17.5313 Q1010.9063,17.6875 1011.4688,17.9844 L1011.4688,20.7031 Q1010.8438,20.125 1010.25,19.8594 Q1009.6563,19.5781 1009.0313,19.5781 Q1007.6875,19.5781 1007,20.6563 Q1006.3125,21.7188 1006.3125,23.8125 Q1006.3125,25.9063 1007,26.9844 Q1007.6875,28.0469 1009.0313,28.0469 Q1009.6563,28.0469 1010.25,27.7813 Q1010.8438,27.5 1011.4688,26.9219 L1011.4688,29.6406 Z "/><text fill="#000000" font-family="sans-serif" font-size="12" lengthAdjust="spacingAndGlyphs" textLength="35" x="1022.5" y="28.1543">Poller</text><line style="stroke: #A80036; stroke-width: 1.5;" x1="994.5" x2="1059.5" y1="40" y2="40"/><line style="stroke: #A80036; stroke-width: 1.5;" x1="994.5" x2="1059.5" y1="48" y2="48"/><!--link ProtocolLayer to AsciiEscapeLayer--><path d="M692.6667,36.1973 C567.3453,43.4984 329.5299,60.262 249,86 C226.8719,93.0723 204.1754,105.5993 186.3055,116.9132 " fill="none" id="ProtocolLayer-AsciiEscapeLayer" style="stroke: #A80036; stroke-width: 1.0;"/><polygon fill="none" points="692.5037,29.1953,712.8697,35.0457,693.3005,43.1727,692.5037,29.1953" style="stroke: #A80036; stroke-width: 1.0;"/><!--link ProtocolLayer to TerminalLayer--><path d="M692.8507,35.5289 C516.7424,44.2125 104.8293,69.4475 65,117 C8.3408,184.6458 38.8837,300.9625 55.9715,350.9842 " fill="none" id="ProtocolLayer-TerminalLayer" style="stroke: #A80036; stroke-width: 1.0;"/><polygon fill="none" points="692.556,28.535,712.8701,34.5632,693.2306,42.5188,692.556,28.535" style="stroke: #A80036; stroke-width: 1.0;"/><!--link AsciiEscapeLayer to TerminalLayer--><!--link ProtocolLayer to SegmentationLayer--><path d="M692.8622,42.2474 C639.8027,50.5638 568.9383,64.4948 509,86 C486.699,94.0014 463.2548,106.0442 444.2822,116.8231 " fill="none" id="ProtocolLayer-SegmentationLayer" style="stroke: #A80036; stroke-width: 1.0;"/><polygon fill="none" points="692.1662,35.2735,712.9836,39.2278,694.244,49.1185,692.1662,35.2735" style="stroke: #A80036; stroke-width: 1.0;"/><!--link ProtocolLayer to Crc8Layer--><path d="M816.1668,69.3192 C834.7896,85.0548 855.9315,102.9189 872.4507,116.877 " fill="none" id="ProtocolLayer-Crc8Layer" style="stroke: #A80036; stroke-width: 1.0;"/><polygon fill="none" points="811.3881,74.4457,800.6293,56.1906,820.4239,63.752,811.3881,74.4457" style="stroke: #A80036; stroke-width: 1.0;"/><!--link ProtocolLayer to Crc16Layer--><path d="M693.2114,45.4465 C650.0847,57.0136 599.5541,78.2652 570,117 C516.2862,187.3993 524.8915,301.2345 531.8758,350.7276 " fill="none" id="ProtocolLayer-Crc16Layer" style="stroke: #A80036; stroke-width: 1.0;"/><polygon fill="none" points="691.6308,38.627,712.7171,40.7169,694.9298,52.2328,691.6308,38.627" style="stroke: #A80036; stroke-width: 1.0;"/><!--link Crc8Layer to Crc16Layer--><!--link ProtocolLayer to BufferLayer--><path d="M726.7544,69.081 C707.4837,84.8742 685.552,102.8484 668.4345,116.877 " fill="none" id="ProtocolLayer-BufferLayer" style="stroke: #A80036; stroke-width: 1.0;"/><polygon fill="none" points="722.5771,63.454,742.483,56.1906,731.4513,74.2822,722.5771,63.454" style="stroke: #A80036; stroke-width: 1.0;"/><!--link ProtocolLayer to PrintLayer--><path d="M772,76.5974 C772,90.3785 772,105.0337 772,116.877 " fill="none" id="ProtocolLayer-PrintLayer" style="stroke: #A80036; stroke-width: 1.0;"/><polygon fill="none" points="765.0001,76.1907,772,56.1906,779.0001,76.1906,765.0001,76.1907" style="stroke: #A80036; stroke-width: 1.0;"/><!--link SegmentationLayer to ArqLayer--><!--link ProtocolLayer to ArqLayer--><path d="M692.5662,34.8311 C573.7707,40.9231 358.6461,59.7657 311,117 C254.593,184.7583 293.6172,300.5045 314.8045,350.6481 " fill="none" id="ProtocolLayer-ArqLayer" style="stroke: #A80036; stroke-width: 1.0;"/><polygon fill="none" points="692.5554,27.8238,712.8653,33.8662,693.2202,41.808,692.5554,27.8238" style="stroke: #A80036; stroke-width: 1.0;"/><!--link ArqLayer to DebugArqLayer--><path d="M326,419.1823 C326,438.2919 326,459.9075 326,475.9727 " fill="none" id="ArqLayer-DebugArqLayer" style="stroke: #A80036; stroke-width: 1.0;"/><polygon fill="none" points="319.0001,419.1013,326,399.1013,333.0001,419.1012,319.0001,419.1013" style="stroke: #A80036; stroke-width: 1.0;"/><!--link ProtocolLayer to PolledLayer--><path d="M848.7895,63.8253 C891.9144,81.6983 944.5929,103.5309 982.9009,119.4076 " fill="none" id="ProtocolLayer-PolledLayer" style="stroke: #A80036; stroke-width: 1.0;"/><polygon fill="none" points="845.838,70.1795,830.042,56.0555,851.1982,57.2463,845.838,70.1795" style="stroke: #A80036; stroke-width: 1.0;"/><!--link PolledLayer to PolledFileLayer--><path d="M1007.8035,182.1724 C998.0644,196.9164 987.4095,213.0468 978.9345,225.877 " fill="none" id="PolledLayer-PolledFileLayer" style="stroke: #A80036; stroke-width: 1.0;"/><polygon fill="none" points="1002.1568,178.0205,1019.0209,165.1906,1013.8384,185.7368,1002.1568,178.0205" style="stroke: #A80036; stroke-width: 1.0;"/><!--link PolledFileLayer to FileLayer--><path d="M963,294.1823 C963,313.2919 963,334.9075 963,350.9727 " fill="none" id="PolledFileLayer-FileLayer" style="stroke: #A80036; stroke-width: 1.0;"/><polygon fill="none" points="956.0001,294.1013,963,274.1013,970.0001,294.1012,956.0001,294.1013" style="stroke: #A80036; stroke-width: 1.0;"/><!--link FileLayer to NamedPipeLayer--><path d="M951.1708,418.4361 C942.3621,448.6158 929.2561,489.4568 914,524 C904.6199,545.2387 891.5326,568.0887 881.3924,584.7428 " fill="none" id="FileLayer-NamedPipeLayer" style="stroke: #A80036; stroke-width: 1.0;"/><polygon fill="none" points="944.4853,416.3534,956.6754,399.0212,957.9544,420.1723,944.4853,416.3534" style="stroke: #A80036; stroke-width: 1.0;"/><!--link PolledFileLayer to DoublePipeLayer--><path d="M881.0757,273.4696 C855.555,281.8815 827.6528,292.2356 803,304 C775.3656,317.1872 746.2148,335.8359 724.5822,350.7119 " fill="none" id="PolledFileLayer-DoublePipeLayer" style="stroke: #A80036; stroke-width: 1.0;"/><polygon fill="none" points="879.2963,266.6898,900.4776,267.2875,883.5467,280.0291,879.2963,266.6898" style="stroke: #A80036; stroke-width: 1.0;"/><!--link DoublePipeLayer to XsimLayer--><path d="M694.1811,419.1823 C695.557,438.2919 697.1133,459.9075 698.27,475.9727 " fill="none" id="DoublePipeLayer-XsimLayer" style="stroke: #A80036; stroke-width: 1.0;"/><polygon fill="none" points="687.1897,419.5523,692.7353,399.1013,701.1536,418.5469,687.1897,419.5523" style="stroke: #A80036; stroke-width: 1.0;"/><!--link XsimLayer to NamedPipeLayer--><path d="M736.8408,524.1906 C762.9529,541.3365 798.0023,564.3509 825.0008,582.0789 " fill="none" id="XsimLayer-NamedPipeLayer" style="stroke: #A80036; stroke-width: 1.0;"/><polygon fill="#A80036" points="829.2622,584.877,823.9346,576.5935,825.0827,582.1326,819.5436,583.2807,829.2622,584.877" style="stroke: #A80036; stroke-width: 1.0;"/><!--link PolledLayer to PolledSocketLayer--><path d="M1049.7735,184.2124 C1066.5615,233.3175 1093.3661,311.7208 1106.7848,350.9707 " fill="none" id="PolledLayer-PolledSocketLayer" style="stroke: #A80036; stroke-width: 1.0;"/><polygon fill="none" points="1043.1065,186.3498,1043.2601,165.1608,1056.3537,181.8208,1043.1065,186.3498" style="stroke: #A80036; stroke-width: 1.0;"/><text fill="#000000" font-family="sans-serif" font-size="13" lengthAdjust="spacingAndGlyphs" textLength="54" x="1082" y="254.5669">Windows</text><!--link PolledFileLayer to PolledSocketLayer--><path d="M997.0774,288.8765 C1007.4751,299.806 1019.2712,311.3364 1031,321 C1043.9788,331.6935 1059.182,342.0361 1073.0605,350.7585 " fill="none" id="PolledFileLayer-PolledSocketLayer" style="stroke: #A80036; stroke-width: 1.0;"/><polygon fill="none" points="991.8555,293.5394,983.4623,274.0829,1002.1568,284.0587,991.8555,293.5394" style="stroke: #A80036; stroke-width: 1.0;"/><text fill="#000000" font-family="sans-serif" font-size="13" lengthAdjust="spacingAndGlyphs" textLength="38" x="1032" y="317.0669">POSIX</text><!--link PolledFileLayer to StdioLayer--><path d="M903.3089,285.5834 C880.985,302.3494 858.1201,324.526 846,351 C827.4237,391.5763 834.79,445.1223 841.5716,475.7359 " fill="none" id="PolledFileLayer-StdioLayer" style="stroke: #A80036; stroke-width: 1.0;"/><polygon fill="none" points="899.3018,279.8438,919.6959,274.092,907.34,291.3063,899.3018,279.8438" style="stroke: #A80036; stroke-width: 1.0;"/><text fill="#000000" font-family="sans-serif" font-size="13" lengthAdjust="spacingAndGlyphs" textLength="54" x="847" y="379.5669">Windows</text><!--link FileLayer to StdioLayer--><path d="M910.9169,411.8306 C904.5758,417.2625 898.4293,423.0457 893,429 C880.1189,443.1267 868.6372,461.3874 860.4958,475.852 " fill="none" id="FileLayer-StdioLayer" style="stroke: #A80036; stroke-width: 1.0;"/><polygon fill="none" points="906.7879,406.1697,926.7827,399.1548,915.5266,417.1075,906.7879,406.1697" style="stroke: #A80036; stroke-width: 1.0;"/><text fill="#000000" font-family="sans-serif" font-size="13" lengthAdjust="spacingAndGlyphs" textLength="38" x="894" y="442.0669">POSIX</text><!--link ProtocolLayer to CompressLayer--><path d="M850.9573,55.2943 C978.4814,72.1238 1244.0568,40.9362 1304,117 C1358.5193,186.1812 1335.2347,301.1659 1321.4659,350.8787 " fill="none" id="ProtocolLayer-CompressLayer" style="stroke: #A80036; stroke-width: 1.0;"/><polygon fill="none" points="849.6001,62.1652,831.0022,52.0104,851.8735,48.3511,849.6001,62.1652" style="stroke: #A80036; stroke-width: 1.0;"/><!--link ProtocolLayer to Stream--><path d="M850.6262,56.2614 C965.123,84.6474 1006.8857,63.4302 1104,117 C1154.0268,144.5955 1198.5478,195.6325 1222.1581,225.8259 " fill="none" id="ProtocolLayer-Stream" style="stroke: #A80036; stroke-width: 1.0;"/><polygon fill="none" points="848.7658,63.0102,831.2065,51.1496,852.3296,49.4714,848.7658,63.0102" style="stroke: #A80036; stroke-width: 1.0;"/><!--link Debugger to Stream--><path d="M1240,165.1906 C1240,181.5604 1240,203.2793 1240,220.6399 " fill="none" id="Debugger-Stream" style="stroke: #A80036; stroke-width: 1.0;"/><polygon fill="#A80036" points="1240,225.877,1244,216.877,1240,220.877,1236,216.877,1240,225.877" style="stroke: #A80036; stroke-width: 1.0;"/><!--link Stream to CompressLayer--><path d="M1254.2679,274.1013 C1266.5015,294.766 1284.1482,324.5747 1297.0894,346.4348 " fill="none" id="Stream-CompressLayer" style="stroke: #A80036; stroke-width: 1.0;"/><polygon fill="#A80036" points="1299.7759,350.9727,1298.6329,341.1904,1297.2287,346.6702,1291.7489,345.266,1299.7759,350.9727" style="stroke: #A80036; stroke-width: 1.0;"/><!--link ProtocolLayer to Debugger--><path d="M850.9741,55.7596 C991.3713,80.078 1039.2968,37.3497 1166,86 C1183.9321,92.8854 1201.3126,105.4007 1214.7185,116.7549 " fill="none" id="ProtocolLayer-Debugger" style="stroke: #A80036; stroke-width: 1.0;"/><polygon fill="none" points="849.3526,62.5768,831.0112,51.9659,851.9664,48.823,849.3526,62.5768" style="stroke: #A80036; stroke-width: 1.0;"/><!--link ProtocolLayer to SyncConnection--><path d="M851.3175,55.7966 C1078.8516,93.4263 1151.5575,20.6131 1366,86 C1387.7104,92.6198 1409.6743,105.2691 1426.8018,116.7692 " fill="none" id="ProtocolLayer-SyncConnection" style="stroke: #A80036; stroke-width: 1.0;"/><polygon fill="none" points="849.8708,62.6497,831.3877,52.2874,852.2986,48.8618,849.8708,62.6497" style="stroke: #A80036; stroke-width: 1.0;"/><!--link PolledSocketLayer to ZmqLayer--><path d="M1115,419.1823 C1115,438.2919 1115,459.9075 1115,475.9727 " fill="none" id="PolledSocketLayer-ZmqLayer" style="stroke: #A80036; stroke-width: 1.0;"/><polygon fill="none" points="1108.0001,419.1013,1115,399.1013,1122.0001,419.1012,1108.0001,419.1013" style="stroke: #A80036; stroke-width: 1.0;"/><!--link ZmqLayer to DebugZmqLayer--><path d="M1094.2692,542.635 C1087.2959,556.9764 1079.7624,572.4698 1073.7295,584.877 " fill="none" id="ZmqLayer-DebugZmqLayer" style="stroke: #A80036; stroke-width: 1.0;"/><polygon fill="none" points="1088.1966,539.1161,1103.2376,524.1906,1100.7871,545.2381,1088.1966,539.1161" style="stroke: #A80036; stroke-width: 1.0;"/><!--link ZmqLayer to SyncZmqLayer--><path d="M1153.6266,538.2755 C1169.2683,553.775 1186.8541,571.2008 1200.6557,584.877 " fill="none" id="ZmqLayer-SyncZmqLayer" style="stroke: #A80036; stroke-width: 1.0;"/><polygon fill="none" points="1148.6921,543.2404,1139.4126,524.1906,1158.5463,533.2958,1148.6921,543.2404" style="stroke: #A80036; stroke-width: 1.0;"/><!--
@startuml
abstract ProtocolLayer
ProtocolLayer <|- - AsciiEscapeLayer
ProtocolLayer <|- - TerminalLayer
AsciiEscapeLayer -[hidden]- -> TerminalLayer
ProtocolLayer <|- - SegmentationLayer
ProtocolLayer <|- - Crc8Layer
ProtocolLayer <|- - Crc16Layer
Crc8Layer -[hidden]- -> Crc16Layer
ProtocolLayer <|- - BufferLayer
ProtocolLayer <|- - PrintLayer

abstract ArqLayer
SegmentationLayer -[hidden]- -> ArqLayer
ProtocolLayer <|- - ArqLayer
ArqLayer <|- - DebugArqLayer

abstract PolledLayer
abstract PolledFileLayer
abstract PolledSocketLayer
ProtocolLayer <|- - PolledLayer
PolledLayer <|- - PolledFileLayer
PolledFileLayer <|- - FileLayer
FileLayer <|- - NamedPipeLayer
PolledFileLayer <|- - DoublePipeLayer
DoublePipeLayer <|- - XsimLayer
XsimLayer - -> NamedPipeLayer
PolledLayer <|- - PolledSocketLayer : Windows
PolledFileLayer <|- - PolledSocketLayer : POSIX
PolledFileLayer <|- - StdioLayer : Windows
FileLayer <|- - StdioLayer : POSIX
ProtocolLayer <|- - CompressLayer

ProtocolLayer <|- - Stream
Debugger - -> Stream
Stream - -> CompressLayer
ProtocolLayer <|- - Debugger
ProtocolLayer <|- - SyncConnection

abstract ZmqLayer
PolledSocketLayer <|- - ZmqLayer
ZmqLayer <|- - DebugZmqLayer
ZmqLayer <|- - SyncZmqLayer

class Loopback
class Poller

@enduml

PlantUML version 1.2017.15(Mon Jul 03 16:45:34 UTC 2017)
(GPL source distribution)
Java Runtime: OpenJDK Runtime Environment
JVM: OpenJDK 64-Bit Server VM
Java Version: 1.8.0_275-b01
Operating System: Linux
OS Version: 5.4.0-1032-azure
Default Encoding: UTF-8
Language: en
Country: null
--></g></svg>