<?xml version="1.0" encoding="UTF-8" standalone="no"?><svg xmlns="http://www.w3.org/2000/svg" xmlns:xlink="http://www.w3.org/1999/xlink" contentScriptType="application/ecmascript" contentStyleType="text/css" height="681px" preserveAspectRatio="none" style="width:988px;height:681px;" version="1.1" viewBox="0 0 988 681" width="988px" zoomAndPan="magnify"><defs><filter height="300%" id="f18pf0pv6xqzmc" width="300%" x="-1" y="-1"><feGaussianBlur result="blurOut" stdDeviation="2.0"/><feColorMatrix in="blurOut" result="blurOut2" type="matrix" values="0 0 0 0 0 0 0 0 0 0 0 0 0 0 0 0 0 0 .4 0"/><feOffset dx="4.0" dy="4.0" in="blurOut2" result="blurOut3"/><feBlend in="SourceGraphic" in2="blurOut3" mode="normal"/></filter></defs><g><!--cluster Microcontroller--><polygon fill="#FFFFFF" filter="url(#f18pf0pv6xqzmc)" points="433,26,443,16,966,16,966,383.5,956,393.5,433,393.5,433,26" style="stroke: #000000; stroke-width: 2.0;"/><line style="stroke: #000000; stroke-width: 2.0;" x1="956" x2="965" y1="26" y2="17"/><line style="stroke: #000000; stroke-width: 2.0;" x1="433" x2="956" y1="26" y2="26"/><line style="stroke: #000000; stroke-width: 2.0;" x1="956" x2="956" y1="26" y2="393.5"/><text fill="#000000" font-family="sans-serif" font-size="14" font-weight="bold" lengthAdjust="spacingAndGlyphs" textLength="120" x="635.5" y="41.9951">Microcontroller</text><!--cluster PC--><polygon fill="#FFFFFF" filter="url(#f18pf0pv6xqzmc)" points="14,218,24,208,414,208,414,634.5,404,644.5,14,644.5,14,218" style="stroke: #000000; stroke-width: 2.0;"/><line style="stroke: #000000; stroke-width: 2.0;" x1="404" x2="413" y1="218" y2="209"/><line style="stroke: #000000; stroke-width: 2.0;" x1="14" x2="404" y1="218" y2="218"/><line style="stroke: #000000; stroke-width: 2.0;" x1="404" x2="404" y1="218" y2="644.5"/><text fill="#000000" font-family="sans-serif" font-size="14" font-weight="bold" lengthAdjust="spacingAndGlyphs" textLength="21" x="199.5" y="233.9951">PC</text><!--cluster FPGA--><polygon fill="#FFFFFF" filter="url(#f18pf0pv6xqzmc)" points="539,438.5,549,428.5,824,428.5,824,659,814,669,539,669,539,438.5" style="stroke: #000000; stroke-width: 2.0;"/><line style="stroke: #000000; stroke-width: 2.0;" x1="814" x2="823" y1="438.5" y2="429.5"/><line style="stroke: #000000; stroke-width: 2.0;" x1="539" x2="814" y1="438.5" y2="438.5"/><line style="stroke: #000000; stroke-width: 2.0;" x1="814" x2="814" y1="438.5" y2="669"/><text fill="#000000" font-family="sans-serif" font-size="14" font-weight="bold" lengthAdjust="spacingAndGlyphs" textLength="42" x="656.5" y="454.4951">FPGA</text><!--entity storeA1--><rect fill="#FEFECE" filter="url(#f18pf0pv6xqzmc)" height="36.2969" style="stroke: #000000; stroke-width: 1.5;" width="118" x="658" y="48"/><text fill="#000000" font-family="sans-serif" font-size="14" lengthAdjust="spacingAndGlyphs" textLength="98" x="668" y="70.9951">Store A (C++)</text><!--entity storeB1--><rect fill="#FEFECE" filter="url(#f18pf0pv6xqzmc)" height="36.2969" style="stroke: #000000; stroke-width: 1.5;" width="119" x="503.5" y="48"/><text fill="#000000" font-family="sans-serif" font-size="14" lengthAdjust="spacingAndGlyphs" textLength="99" x="513.5" y="70.9951">Store B (C++)</text><!--entity app1--><path d="M518.5,151 C518.5,148 520.5,146 523.5,146 C526.5,146 528.5,148 528.5,151 C528.5,148 530.5,146 533.5,146 C536.5,146 538.5,148 538.5,151 C538.5,148 540.5,146 543.5,146 C546.5,146 548.5,148 548.5,151 C548.5,148 550.5,146 553.5,146 C556.5,146 558.5,148 558.5,151 C558.5,148 560.5,146 563.5,146 C566.5,146 568.5,148 568.5,151 C568.5,148 570.5,146 573.5,146 C576.5,146 578.5,148 578.5,151 C578.5,148 580.5,146 583.5,146 C586.5,146 588.5,148 588.5,151 C588.5,148 590.5,146 593.5,146 C596.5,146 598.5,148 598.5,151 C598.5,148 600.5,146 603.5,146 C606.5,146 608.5,148 608.5,151 C611.5,151 613.5,153 613.5,156 C613.5,159 611.5,161 608.5,161 C611.5,161 613.5,163 613.5,166 C613.5,169 611.5,171 608.5,171 C608.5,174 605.5,176 603.5,176 C600.5,176 598.5,174 598.5,171 C598.5,174 595.5,176 593.5,176 C590.5,176 588.5,174 588.5,171 C588.5,174 585.5,176 583.5,176 C580.5,176 578.5,174 578.5,171 C578.5,174 575.5,176 573.5,176 C570.5,176 568.5,174 568.5,171 C568.5,174 565.5,176 563.5,176 C560.5,176 558.5,174 558.5,171 C558.5,174 555.5,176 553.5,176 C550.5,176 548.5,174 548.5,171 C548.5,174 545.5,176 543.5,176 C540.5,176 538.5,174 538.5,171 C538.5,174 535.5,176 533.5,176 C530.5,176 528.5,174 528.5,171 C528.5,174 525.5,176 523.5,176 C520.5,176 518.5,174 518.5,171 C515.5,171 513.5,169 513.5,166 C513.5,163 515.5,161 518.5,161 C515.5,161 513.5,159 513.5,156 C513.5,153 515.5,151 518.5,151 " fill="#FEFECE" filter="url(#f18pf0pv6xqzmc)" style="stroke: #000000; stroke-width: 1.5;"/><text fill="#000000" font-family="sans-serif" font-size="14" lengthAdjust="spacingAndGlyphs" textLength="75" x="525.5" y="166.9951">Application</text><!--entity debugger--><rect fill="#FEFECE" filter="url(#f18pf0pv6xqzmc)" height="36.2969" style="stroke: #000000; stroke-width: 1.5;" width="90" x="646" y="144"/><text fill="#000000" font-family="sans-serif" font-size="14" lengthAdjust="spacingAndGlyphs" textLength="70" x="656" y="166.9951">Debugger</text><!--entity debugstack--><rect fill="#FEFECE" filter="url(#f18pf0pv6xqzmc)" height="133.4844" style="stroke: #000000; stroke-width: 1.5;" width="150" x="441" y="252.5"/><text fill="#000000" font-family="sans-serif" font-size="14" lengthAdjust="spacingAndGlyphs" textLength="106" x="451" y="275.4951">DebugArqLayer</text><line style="stroke: #000000; stroke-width: 1.0;" x1="442" x2="590" y1="278.7969" y2="278.7969"/><text fill="#000000" font-family="sans-serif" font-size="14" lengthAdjust="spacingAndGlyphs" textLength="77" x="457" y="295.792">Crc16Layer</text><line style="stroke: #000000; stroke-width: 1.0;" x1="442" x2="590" y1="303.0938" y2="303.0938"/><text fill="#000000" font-family="sans-serif" font-size="14" lengthAdjust="spacingAndGlyphs" textLength="118" x="457" y="320.0889">AsciiEscapeLayer</text><line style="stroke: #000000; stroke-width: 1.0;" x1="442" x2="590" y1="327.3906" y2="327.3906"/><text fill="#000000" font-family="sans-serif" font-size="14" lengthAdjust="spacingAndGlyphs" textLength="95" x="457" y="344.3857">TerminalLayer</text><line style="stroke: #000000; stroke-width: 1.0;" x1="442" x2="590" y1="351.6875" y2="351.6875"/><text fill="#000000" font-family="sans-serif" font-size="14" lengthAdjust="spacingAndGlyphs" textLength="71" x="457" y="368.6826">StdioLayer</text><polygon fill="#FBFB77" filter="url(#f18pf0pv6xqzmc)" points="625.5,299,625.5,339.2656,784.5,339.2656,784.5,309,774.5,299,625.5,299" style="stroke: #A80036; stroke-width: 1.0;"/><polygon fill="#FBFB77" points="625.5,299,625.5,315,591.3047,319,625.5,323,625.5,339.2656,784.5,339.2656,784.5,309,774.5,299,625.5,299" style="stroke: #A80036; stroke-width: 1.0;"/><line style="stroke: #A80036; stroke-width: 1.0;" x1="774.5" x2="774.5" y1="299" y2="309"/><line style="stroke: #A80036; stroke-width: 1.0;" x1="784.5" x2="774.5" y1="309" y2="309"/><text fill="#000000" font-family="sans-serif" font-size="13" lengthAdjust="spacingAndGlyphs" textLength="138" x="631.5" y="316.0669">Any stack as required</text><text fill="#000000" font-family="sans-serif" font-size="13" lengthAdjust="spacingAndGlyphs" textLength="138" x="631.5" y="331.1997">for you infrastructure.</text><!--entity sync1--><rect fill="#FEFECE" filter="url(#f18pf0pv6xqzmc)" height="36.2969" style="stroke: #000000; stroke-width: 1.5;" width="110" x="802" y="144"/><text fill="#000000" font-family="sans-serif" font-size="14" lengthAdjust="spacingAndGlyphs" textLength="90" x="812" y="166.9951">Synchronizer</text><!--entity syncstack--><rect fill="#FEFECE" filter="url(#f18pf0pv6xqzmc)" height="84.8906" style="stroke: #000000; stroke-width: 1.5;" width="138" x="820" y="276.5"/><text fill="#000000" font-family="sans-serif" font-size="14" lengthAdjust="spacingAndGlyphs" textLength="118" x="830" y="299.4951">AsciiEscapeLayer</text><line style="stroke: #000000; stroke-width: 1.0;" x1="821" x2="957" y1="302.7969" y2="302.7969"/><text fill="#000000" font-family="sans-serif" font-size="14" lengthAdjust="spacingAndGlyphs" textLength="95" x="836" y="319.792">TerminalLayer</text><line style="stroke: #000000; stroke-width: 1.0;" x1="821" x2="957" y1="327.0938" y2="327.0938"/><text fill="#000000" font-family="sans-serif" font-size="14" lengthAdjust="spacingAndGlyphs" textLength="59" x="836" y="344.0889">FileLayer</text><!--entity wrapper--><rect fill="#FEFECE" filter="url(#f18pf0pv6xqzmc)" height="157.7813" style="stroke: #000000; stroke-width: 1.5;" width="159" x="21.5" y="240"/><text fill="#000000" font-family="sans-serif" font-size="14" lengthAdjust="spacingAndGlyphs" textLength="107" x="31.5" y="262.9951">ed2.ZmqServer</text><line style="stroke: #000000; stroke-width: 1.0;" x1="22.5" x2="179.5" y1="266.2969" y2="266.2969"/><text fill="#000000" font-family="sans-serif" font-size="14" lengthAdjust="spacingAndGlyphs" textLength="106" x="37.5" y="283.292">DebugArqLayer</text><line style="stroke: #000000; stroke-width: 1.0;" x1="22.5" x2="179.5" y1="290.5938" y2="290.5938"/><text fill="#000000" font-family="sans-serif" font-size="14" lengthAdjust="spacingAndGlyphs" textLength="77" x="37.5" y="307.5889">Crc16Layer</text><line style="stroke: #000000; stroke-width: 1.0;" x1="22.5" x2="179.5" y1="314.8906" y2="314.8906"/><text fill="#000000" font-family="sans-serif" font-size="14" lengthAdjust="spacingAndGlyphs" textLength="118" x="37.5" y="331.8857">AsciiEscapeLayer</text><line style="stroke: #000000; stroke-width: 1.0;" x1="22.5" x2="179.5" y1="339.1875" y2="339.1875"/><text fill="#000000" font-family="sans-serif" font-size="14" lengthAdjust="spacingAndGlyphs" textLength="95" x="37.5" y="356.1826">TerminalLayer</text><line style="stroke: #000000; stroke-width: 1.0;" x1="22.5" x2="179.5" y1="363.4844" y2="363.4844"/><text fill="#000000" font-family="sans-serif" font-size="14" lengthAdjust="spacingAndGlyphs" textLength="127" x="37.5" y="380.4795">ed2.wrapper.serial</text><polygon fill="#FBFB77" filter="url(#f18pf0pv6xqzmc)" points="216,291.5,216,346.8984,406,346.8984,406,301.5,396,291.5,216,291.5" style="stroke: #A80036; stroke-width: 1.0;"/><polygon fill="#FBFB77" points="216,291.5,216,315,180.5703,319,216,323,216,346.8984,406,346.8984,406,301.5,396,291.5,216,291.5" style="stroke: #A80036; stroke-width: 1.0;"/><line style="stroke: #A80036; stroke-width: 1.0;" x1="396" x2="396" y1="291.5" y2="301.5"/><line style="stroke: #A80036; stroke-width: 1.0;" x1="406" x2="396" y1="301.5" y2="301.5"/><text fill="#000000" font-family="sans-serif" font-size="13" lengthAdjust="spacingAndGlyphs" textLength="169" x="222" y="308.5669">The configured stack must</text><text fill="#000000" font-family="sans-serif" font-size="13" lengthAdjust="spacingAndGlyphs" textLength="136" x="222" y="323.6997">match the one at the</text><text fill="#000000" font-family="sans-serif" font-size="13" lengthAdjust="spacingAndGlyphs" textLength="103" x="222" y="338.8325">embedded side.</text><!--entity ZMQ--><ellipse cx="101" cy="487" fill="#FEFECE" filter="url(#f18pf0pv6xqzmc)" rx="8" ry="8" style="stroke: #A80036; stroke-width: 2.0;"/><text fill="#000000" font-family="sans-serif" font-size="14" lengthAdjust="spacingAndGlyphs" textLength="33" x="84.5" y="516.9951">ZMQ</text><!--entity gui--><rect fill="#FEFECE" filter="url(#f18pf0pv6xqzmc)" height="36.2969" style="stroke: #000000; stroke-width: 1.5;" width="72" x="44" y="600.5"/><text fill="#000000" font-family="sans-serif" font-size="14" lengthAdjust="spacingAndGlyphs" textLength="52" x="54" y="623.4951">ed2.gui</text><!--entity visu--><rect fill="#FEFECE" filter="url(#f18pf0pv6xqzmc)" height="36.2969" style="stroke: #000000; stroke-width: 1.5;" width="78" x="151" y="600.5"/><text fill="#000000" font-family="sans-serif" font-size="14" lengthAdjust="spacingAndGlyphs" textLength="58" x="161" y="623.4951">ed2.visu</text><!--entity storeA2--><rect fill="#FEFECE" filter="url(#f18pf0pv6xqzmc)" height="52.5938" style="stroke: #000000; stroke-width: 1.5;" width="172" x="587" y="460.5"/><text fill="#000000" font-family="sans-serif" font-size="14" lengthAdjust="spacingAndGlyphs" textLength="101" x="597" y="483.4951">Store A (VHDL)</text><text fill="#000000" font-family="sans-serif" font-size="14" lengthAdjust="spacingAndGlyphs" textLength="152" x="597" y="499.792">includes Synchronizer</text><!--entity fpgastack--><rect fill="#FEFECE" filter="url(#f18pf0pv6xqzmc)" height="84.8906" style="stroke: #000000; stroke-width: 1.5;" width="138" x="678" y="576"/><text fill="#000000" font-family="sans-serif" font-size="14" lengthAdjust="spacingAndGlyphs" textLength="118" x="688" y="598.9951">AsciiEscapeLayer</text><line style="stroke: #000000; stroke-width: 1.0;" x1="679" x2="815" y1="602.2969" y2="602.2969"/><text fill="#000000" font-family="sans-serif" font-size="14" lengthAdjust="spacingAndGlyphs" textLength="95" x="694" y="619.292">TerminalLayer</text><line style="stroke: #000000; stroke-width: 1.0;" x1="679" x2="815" y1="626.5938" y2="626.5938"/><text fill="#000000" font-family="sans-serif" font-size="14" lengthAdjust="spacingAndGlyphs" textLength="74" x="694" y="643.5889">UARTLayer</text><!--entity app2--><path d="M550.5,607.5 C550.5,604.5 552.5,602.5 555.5,602.5 C558.5,602.5 560.5,604.5 560.5,607.5 C560.5,604.5 562.5,602.5 565.5,602.5 C568.5,602.5 570.5,604.5 570.5,607.5 C570.5,604.5 572.5,602.5 575.5,602.5 C578.5,602.5 580.5,604.5 580.5,607.5 C580.5,604.5 582.5,602.5 585.5,602.5 C588.5,602.5 590.5,604.5 590.5,607.5 C590.5,604.5 592.5,602.5 595.5,602.5 C598.5,602.5 600.5,604.5 600.5,607.5 C600.5,604.5 602.5,602.5 605.5,602.5 C608.5,602.5 610.5,604.5 610.5,607.5 C610.5,604.5 612.5,602.5 615.5,602.5 C618.5,602.5 620.5,604.5 620.5,607.5 C620.5,604.5 622.5,602.5 625.5,602.5 C628.5,602.5 630.5,604.5 630.5,607.5 C630.5,604.5 632.5,602.5 635.5,602.5 C638.5,602.5 640.5,604.5 640.5,607.5 C643.5,607.5 645.5,609.5 645.5,612.5 C645.5,615.5 643.5,617.5 640.5,617.5 C643.5,617.5 645.5,619.5 645.5,622.5 C645.5,625.5 643.5,627.5 640.5,627.5 C640.5,630.5 637.5,632.5 635.5,632.5 C632.5,632.5 630.5,630.5 630.5,627.5 C630.5,630.5 627.5,632.5 625.5,632.5 C622.5,632.5 620.5,630.5 620.5,627.5 C620.5,630.5 617.5,632.5 615.5,632.5 C612.5,632.5 610.5,630.5 610.5,627.5 C610.5,630.5 607.5,632.5 605.5,632.5 C602.5,632.5 600.5,630.5 600.5,627.5 C600.5,630.5 597.5,632.5 595.5,632.5 C592.5,632.5 590.5,630.5 590.5,627.5 C590.5,630.5 587.5,632.5 585.5,632.5 C582.5,632.5 580.5,630.5 580.5,627.5 C580.5,630.5 577.5,632.5 575.5,632.5 C572.5,632.5 570.5,630.5 570.5,627.5 C570.5,630.5 567.5,632.5 565.5,632.5 C562.5,632.5 560.5,630.5 560.5,627.5 C560.5,630.5 557.5,632.5 555.5,632.5 C552.5,632.5 550.5,630.5 550.5,627.5 C547.5,627.5 545.5,625.5 545.5,622.5 C545.5,619.5 547.5,617.5 550.5,617.5 C547.5,617.5 545.5,615.5 545.5,612.5 C545.5,609.5 547.5,607.5 550.5,607.5 " fill="#FEFECE" filter="url(#f18pf0pv6xqzmc)" style="stroke: #000000; stroke-width: 1.5;"/><text fill="#000000" font-family="sans-serif" font-size="14" lengthAdjust="spacingAndGlyphs" textLength="75" x="557.5" y="623.4951">Application</text><!--entity UART--><ellipse cx="477" cy="487" fill="#FEFECE" filter="url(#f18pf0pv6xqzmc)" rx="8" ry="8" style="stroke: #A80036; stroke-width: 2.0;"/><text fill="#000000" font-family="sans-serif" font-size="14" lengthAdjust="spacingAndGlyphs" textLength="77" x="438.5" y="516.9951">lossy UART</text><!--entity UARTsync--><ellipse cx="889" cy="487" fill="#FEFECE" filter="url(#f18pf0pv6xqzmc)" rx="8" ry="8" style="stroke: #A80036; stroke-width: 2.0;"/><text fill="#000000" font-family="sans-serif" font-size="14" lengthAdjust="spacingAndGlyphs" textLength="98" x="840" y="516.9951">lossless UART</text><!--link storeA1 to app1--><path d="M688.0338,84.0569 C660.5881,101.1658 619.5866,126.7253 592.0977,143.8612 " fill="none" id="storeA1-app1" style="stroke: #A80036; stroke-width: 1.0;"/><!--link storeB1 to app1--><path d="M563,84.0569 C563,101.1115 563,126.5631 563,143.6977 " fill="none" id="storeB1-app1" style="stroke: #A80036; stroke-width: 1.0;"/><!--link storeA1 to debugger--><path d="M712.1096,84.0569 C707.4906,101.1115 700.5975,126.5631 695.9569,143.6977 " fill="none" id="storeA1-debugger" style="stroke: #A80036; stroke-width: 1.0;"/><!--link storeB1 to debugger--><path d="M587.0758,84.0569 C609.8154,101.1115 643.7508,126.5631 666.5969,143.6977 " fill="none" id="storeB1-debugger" style="stroke: #A80036; stroke-width: 1.0;"/><!--link debugger to debugstack--><path d="M651.4927,180.0444 C637.0485,187.605 621.0613,197.1672 608,208 C592.3948,220.9426 577.4544,236.8074 564.3204,252.4497 " fill="none" id="debugger-debugstack" style="stroke: #A80036; stroke-width: 1.0;"/><!--link storeA1 to sync1--><path d="M743.3329,84.0569 C768.2043,101.1115 805.3211,126.5631 830.3092,143.6977 " fill="none" id="storeA1-sync1" style="stroke: #A80036; stroke-width: 1.0;"/><!--link sync1 to syncstack--><path d="M860.6708,180.0099 C865.4317,203.3678 873.8878,244.8559 880.3258,276.4424 " fill="none" id="sync1-syncstack" style="stroke: #A80036; stroke-width: 1.0;"/><!--link debugstack to UART--><path d="M500.4741,385.8808 C492.3172,421.0181 483.1915,460.329 479.1384,477.7884 " fill="none" id="debugstack-UART" style="stroke: #A80036; stroke-width: 1.0;"/><!--link syncstack to UARTsync--><path d="M889,361.8282 C889,401.1031 889,456.3317 889,477.8838 " fill="none" id="syncstack-UARTsync" style="stroke: #A80036; stroke-width: 1.0;"/><!--link wrapper to UART--><path d="M180.6297,389.1052 C186.3114,392.4379 192.1225,395.4496 198,398 C290.1708,437.995 332.6848,382.4799 422,428.5 C444.3053,439.9929 462.4349,464.2454 471.2335,477.6324 " fill="none" id="wrapper-UART" style="stroke: #A80036; stroke-width: 1.0;"/><!--link wrapper to ZMQ--><path d="M101,398.0806 C101,429.7399 101,462.3342 101,477.7921 " fill="none" id="wrapper-ZMQ" style="stroke: #A80036; stroke-width: 1.0;"/><!--link ZMQ to gui--><path d="M99.5566,496.0385 C96.1279,517.5083 87.4417,571.9009 82.8873,600.4203 " fill="none" id="ZMQ-gui" style="stroke: #A80036; stroke-width: 1.0;"/><!--link ZMQ to visu--><path d="M107.1173,496.0385 C121.6482,517.5083 158.4614,571.9009 177.7635,600.4203 " fill="none" id="ZMQ-visu" style="stroke: #A80036; stroke-width: 1.0;"/><!--link storeA2 to fpgastack--><path d="M687.975,513.611 C698.0263,531.4725 711.4872,555.3927 723.0158,575.8795 " fill="none" id="storeA2-fpgastack" style="stroke: #A80036; stroke-width: 1.0;"/><!--link storeA2 to app2--><path d="M657.2155,513.611 C641.9023,539.4276 619.0811,577.9017 605.7535,600.3708 " fill="none" id="storeA2-app2" style="stroke: #A80036; stroke-width: 1.0;"/><!--link UARTsync to fpgastack--><path d="M879.683,495.6281 C862.3449,511.6842 824.0723,547.1267 793.0665,575.8398 " fill="none" id="UARTsync-fpgastack" style="stroke: #A80036; stroke-width: 1.0;"/><!--
@startuml
node "Microcontroller" {
   rectangle storeA1 [
   Store A (C++)
   ]

   rectangle storeB1 [
   Store B (C++)
   ]

   cloud app1 [
      Application
   ]
   storeA1 - - app1
   storeB1 - - app1

   rectangle debugger [
   Debugger
   ]
   storeA1 - - debugger
   storeB1 - - debugger

   rectangle debugstack [
   DebugArqLayer
   - - - -
   Crc16Layer
   - - - -
   AsciiEscapeLayer
   - - - -
   TerminalLayer
   - - - -
   StdioLayer
   ]
   debugger - - debugstack

   note right of debugstack
      Any stack as required
      for you infrastructure.
   end note

   rectangle sync1 [
   Synchronizer
   ]

   storeA1 - - sync1

   rectangle syncstack [
   AsciiEscapeLayer
   - - - -
   TerminalLayer
   - - - -
   FileLayer
   ]
   sync1 - - syncstack
}

() "lossy UART" as UART
debugstack - - UART

() "lossless UART" as UARTsync
syncstack - - UARTsync

node "PC" {
   rectangle wrapper [
      ed2.ZmqServer
      - - - -
      DebugArqLayer
      - - - -
      Crc16Layer
      - - - -
      AsciiEscapeLayer
      - - - -
      TerminalLayer
      - - - -
      ed2.wrapper.serial
   ]
   wrapper - - UART

   note right of wrapper
      The configured stack must
      match the one at the
      embedded side.
   end note

   () ZMQ
   wrapper - - ZMQ

   rectangle gui [
      ed2.gui
   ]
   ZMQ - - gui

   rectangle visu [
      ed2.visu
   ]
   ZMQ - - visu
}

node "FPGA" {
   rectangle storeA2 [
   Store A (VHDL)
   includes Synchronizer
   ]

   rectangle fpgastack [
   AsciiEscapeLayer
   - - - -
   TerminalLayer
   - - - -
   UARTLayer
   ]
   storeA2 - - fpgastack

   cloud app2 [
      Application
   ]
   storeA2 - - app2
}

UARTsync - - fpgastack

@enduml

PlantUML version 1.2017.15(Mon Jul 03 16:45:34 UTC 2017)
(GPL source distribution)
Java Runtime: OpenJDK Runtime Environment
JVM: OpenJDK 64-Bit Server VM
Java Version: 1.8.0_282-b08
Operating System: Linux
OS Version: 5.4.0-1039-azure
Default Encoding: UTF-8
Language: en
Country: null
--></g></svg>