<?xml version="1.0" encoding="UTF-8" standalone="no"?><svg xmlns="http://www.w3.org/2000/svg" xmlns:xlink="http://www.w3.org/1999/xlink" contentScriptType="application/ecmascript" contentStyleType="text/css" height="644px" preserveAspectRatio="none" style="width:1998px;height:644px;" version="1.1" viewBox="0 0 1998 644" width="1998px" zoomAndPan="magnify"><defs><filter height="300%" id="fn8fqnhr172jy" width="300%" x="-1" y="-1"><feGaussianBlur result="blurOut" stdDeviation="2.0"/><feColorMatrix in="blurOut" result="blurOut2" type="matrix" values="0 0 0 0 0 0 0 0 0 0 0 0 0 0 0 0 0 0 .4 0"/><feOffset dx="4.0" dy="4.0" in="blurOut2" result="blurOut3"/><feBlend in="SourceGraphic" in2="blurOut3" mode="normal"/></filter></defs><g><!--class ProtocolLayer--><rect fill="#FEFECE" filter="url(#fn8fqnhr172jy)" height="48" id="ProtocolLayer" style="stroke: #A80036; stroke-width: 1.5;" width="118" x="842" y="8"/><ellipse cx="857" cy="24" fill="#A9DCDF" rx="11" ry="11" style="stroke: #A80036; stroke-width: 1.0;"/><path d="M857.1094,19.3438 L855.9531,24.4219 L858.2813,24.4219 L857.1094,19.3438 Z M855.625,17.1094 L858.6094,17.1094 L861.9688,29.5 L859.5156,29.5 L858.75,26.4375 L855.4688,26.4375 L854.7188,29.5 L852.2813,29.5 L855.625,17.1094 Z "/><text fill="#000000" font-family="sans-serif" font-size="12" font-style="italic" lengthAdjust="spacingAndGlyphs" textLength="86" x="871" y="28.1543">ProtocolLayer</text><line style="stroke: #A80036; stroke-width: 1.5;" x1="843" x2="959" y1="40" y2="40"/><line style="stroke: #A80036; stroke-width: 1.5;" x1="843" x2="959" y1="48" y2="48"/><!--class AsciiEscapeLayer--><rect fill="#FEFECE" filter="url(#fn8fqnhr172jy)" height="48" id="AsciiEscapeLayer" style="stroke: #A80036; stroke-width: 1.5;" width="139" x="82.5" y="117"/><ellipse cx="97.5" cy="133" fill="#ADD1B2" rx="11" ry="11" style="stroke: #A80036; stroke-width: 1.0;"/><path d="M100.4688,138.6406 Q99.8906,138.9375 99.25,139.0781 Q98.6094,139.2344 97.9063,139.2344 Q95.4063,139.2344 94.0781,137.5938 Q92.7656,135.9375 92.7656,132.8125 Q92.7656,129.6875 94.0781,128.0313 Q95.4063,126.375 97.9063,126.375 Q98.6094,126.375 99.25,126.5313 Q99.9063,126.6875 100.4688,126.9844 L100.4688,129.7031 Q99.8438,129.125 99.25,128.8594 Q98.6563,128.5781 98.0313,128.5781 Q96.6875,128.5781 96,129.6563 Q95.3125,130.7188 95.3125,132.8125 Q95.3125,134.9063 96,135.9844 Q96.6875,137.0469 98.0313,137.0469 Q98.6563,137.0469 99.25,136.7813 Q99.8438,136.5 100.4688,135.9219 L100.4688,138.6406 Z "/><text fill="#000000" font-family="sans-serif" font-size="12" lengthAdjust="spacingAndGlyphs" textLength="107" x="111.5" y="137.1543">AsciiEscapeLayer</text><line style="stroke: #A80036; stroke-width: 1.5;" x1="83.5" x2="220.5" y1="149" y2="149"/><line style="stroke: #A80036; stroke-width: 1.5;" x1="83.5" x2="220.5" y1="157" y2="157"/><!--class TerminalLayer--><rect fill="#FEFECE" filter="url(#fn8fqnhr172jy)" height="48" id="TerminalLayer" style="stroke: #A80036; stroke-width: 1.5;" width="118" x="6" y="351"/><ellipse cx="21" cy="367" fill="#ADD1B2" rx="11" ry="11" style="stroke: #A80036; stroke-width: 1.0;"/><path d="M23.9688,372.6406 Q23.3906,372.9375 22.75,373.0781 Q22.1094,373.2344 21.4063,373.2344 Q18.9063,373.2344 17.5781,371.5938 Q16.2656,369.9375 16.2656,366.8125 Q16.2656,363.6875 17.5781,362.0313 Q18.9063,360.375 21.4063,360.375 Q22.1094,360.375 22.75,360.5313 Q23.4063,360.6875 23.9688,360.9844 L23.9688,363.7031 Q23.3438,363.125 22.75,362.8594 Q22.1563,362.5781 21.5313,362.5781 Q20.1875,362.5781 19.5,363.6563 Q18.8125,364.7188 18.8125,366.8125 Q18.8125,368.9063 19.5,369.9844 Q20.1875,371.0469 21.5313,371.0469 Q22.1563,371.0469 22.75,370.7813 Q23.3438,370.5 23.9688,369.9219 L23.9688,372.6406 Z "/><text fill="#000000" font-family="sans-serif" font-size="12" lengthAdjust="spacingAndGlyphs" textLength="86" x="35" y="371.1543">TerminalLayer</text><line style="stroke: #A80036; stroke-width: 1.5;" x1="7" x2="123" y1="383" y2="383"/><line style="stroke: #A80036; stroke-width: 1.5;" x1="7" x2="123" y1="391" y2="391"/><!--class SegmentationLayer--><rect fill="#FEFECE" filter="url(#fn8fqnhr172jy)" height="48" id="SegmentationLayer" style="stroke: #A80036; stroke-width: 1.5;" width="153" x="328.5" y="117"/><ellipse cx="343.5" cy="133" fill="#ADD1B2" rx="11" ry="11" style="stroke: #A80036; stroke-width: 1.0;"/><path d="M346.4688,138.6406 Q345.8906,138.9375 345.25,139.0781 Q344.6094,139.2344 343.9063,139.2344 Q341.4063,139.2344 340.0781,137.5938 Q338.7656,135.9375 338.7656,132.8125 Q338.7656,129.6875 340.0781,128.0313 Q341.4063,126.375 343.9063,126.375 Q344.6094,126.375 345.25,126.5313 Q345.9063,126.6875 346.4688,126.9844 L346.4688,129.7031 Q345.8438,129.125 345.25,128.8594 Q344.6563,128.5781 344.0313,128.5781 Q342.6875,128.5781 342,129.6563 Q341.3125,130.7188 341.3125,132.8125 Q341.3125,134.9063 342,135.9844 Q342.6875,137.0469 344.0313,137.0469 Q344.6563,137.0469 345.25,136.7813 Q345.8438,136.5 346.4688,135.9219 L346.4688,138.6406 Z "/><text fill="#000000" font-family="sans-serif" font-size="12" lengthAdjust="spacingAndGlyphs" textLength="121" x="357.5" y="137.1543">SegmentationLayer</text><line style="stroke: #A80036; stroke-width: 1.5;" x1="329.5" x2="480.5" y1="149" y2="149"/><line style="stroke: #A80036; stroke-width: 1.5;" x1="329.5" x2="480.5" y1="157" y2="157"/><!--class Crc8Layer--><rect fill="#FEFECE" filter="url(#fn8fqnhr172jy)" height="48" id="Crc8Layer" style="stroke: #A80036; stroke-width: 1.5;" width="93" x="588.5" y="117"/><ellipse cx="603.5" cy="133" fill="#ADD1B2" rx="11" ry="11" style="stroke: #A80036; stroke-width: 1.0;"/><path d="M606.4688,138.6406 Q605.8906,138.9375 605.25,139.0781 Q604.6094,139.2344 603.9063,139.2344 Q601.4063,139.2344 600.0781,137.5938 Q598.7656,135.9375 598.7656,132.8125 Q598.7656,129.6875 600.0781,128.0313 Q601.4063,126.375 603.9063,126.375 Q604.6094,126.375 605.25,126.5313 Q605.9063,126.6875 606.4688,126.9844 L606.4688,129.7031 Q605.8438,129.125 605.25,128.8594 Q604.6563,128.5781 604.0313,128.5781 Q602.6875,128.5781 602,129.6563 Q601.3125,130.7188 601.3125,132.8125 Q601.3125,134.9063 602,135.9844 Q602.6875,137.0469 604.0313,137.0469 Q604.6563,137.0469 605.25,136.7813 Q605.8438,136.5 606.4688,135.9219 L606.4688,138.6406 Z "/><text fill="#000000" font-family="sans-serif" font-size="12" lengthAdjust="spacingAndGlyphs" textLength="61" x="617.5" y="137.1543">Crc8Layer</text><line style="stroke: #A80036; stroke-width: 1.5;" x1="589.5" x2="680.5" y1="149" y2="149"/><line style="stroke: #A80036; stroke-width: 1.5;" x1="589.5" x2="680.5" y1="157" y2="157"/><!--class Crc16Layer--><rect fill="#FEFECE" filter="url(#fn8fqnhr172jy)" height="48" id="Crc16Layer" style="stroke: #A80036; stroke-width: 1.5;" width="101" x="519.5" y="351"/><ellipse cx="534.5" cy="367" fill="#ADD1B2" rx="11" ry="11" style="stroke: #A80036; stroke-width: 1.0;"/><path d="M537.4688,372.6406 Q536.8906,372.9375 536.25,373.0781 Q535.6094,373.2344 534.9063,373.2344 Q532.4063,373.2344 531.0781,371.5938 Q529.7656,369.9375 529.7656,366.8125 Q529.7656,363.6875 531.0781,362.0313 Q532.4063,360.375 534.9063,360.375 Q535.6094,360.375 536.25,360.5313 Q536.9063,360.6875 537.4688,360.9844 L537.4688,363.7031 Q536.8438,363.125 536.25,362.8594 Q535.6563,362.5781 535.0313,362.5781 Q533.6875,362.5781 533,363.6563 Q532.3125,364.7188 532.3125,366.8125 Q532.3125,368.9063 533,369.9844 Q533.6875,371.0469 535.0313,371.0469 Q535.6563,371.0469 536.25,370.7813 Q536.8438,370.5 537.4688,369.9219 L537.4688,372.6406 Z "/><text fill="#000000" font-family="sans-serif" font-size="12" lengthAdjust="spacingAndGlyphs" textLength="69" x="548.5" y="371.1543">Crc16Layer</text><line style="stroke: #A80036; stroke-width: 1.5;" x1="520.5" x2="619.5" y1="383" y2="383"/><line style="stroke: #A80036; stroke-width: 1.5;" x1="520.5" x2="619.5" y1="391" y2="391"/><!--class BufferLayer--><rect fill="#FEFECE" filter="url(#fn8fqnhr172jy)" height="48" id="BufferLayer" style="stroke: #A80036; stroke-width: 1.5;" width="102" x="717" y="117"/><ellipse cx="732" cy="133" fill="#ADD1B2" rx="11" ry="11" style="stroke: #A80036; stroke-width: 1.0;"/><path d="M734.9688,138.6406 Q734.3906,138.9375 733.75,139.0781 Q733.1094,139.2344 732.4063,139.2344 Q729.9063,139.2344 728.5781,137.5938 Q727.2656,135.9375 727.2656,132.8125 Q727.2656,129.6875 728.5781,128.0313 Q729.9063,126.375 732.4063,126.375 Q733.1094,126.375 733.75,126.5313 Q734.4063,126.6875 734.9688,126.9844 L734.9688,129.7031 Q734.3438,129.125 733.75,128.8594 Q733.1563,128.5781 732.5313,128.5781 Q731.1875,128.5781 730.5,129.6563 Q729.8125,130.7188 729.8125,132.8125 Q729.8125,134.9063 730.5,135.9844 Q731.1875,137.0469 732.5313,137.0469 Q733.1563,137.0469 733.75,136.7813 Q734.3438,136.5 734.9688,135.9219 L734.9688,138.6406 Z "/><text fill="#000000" font-family="sans-serif" font-size="12" lengthAdjust="spacingAndGlyphs" textLength="70" x="746" y="137.1543">BufferLayer</text><line style="stroke: #A80036; stroke-width: 1.5;" x1="718" x2="818" y1="149" y2="149"/><line style="stroke: #A80036; stroke-width: 1.5;" x1="718" x2="818" y1="157" y2="157"/><!--class PrintLayer--><rect fill="#FEFECE" filter="url(#fn8fqnhr172jy)" height="48" id="PrintLayer" style="stroke: #A80036; stroke-width: 1.5;" width="94" x="854" y="117"/><ellipse cx="869" cy="133" fill="#ADD1B2" rx="11" ry="11" style="stroke: #A80036; stroke-width: 1.0;"/><path d="M871.9688,138.6406 Q871.3906,138.9375 870.75,139.0781 Q870.1094,139.2344 869.4063,139.2344 Q866.9063,139.2344 865.5781,137.5938 Q864.2656,135.9375 864.2656,132.8125 Q864.2656,129.6875 865.5781,128.0313 Q866.9063,126.375 869.4063,126.375 Q870.1094,126.375 870.75,126.5313 Q871.4063,126.6875 871.9688,126.9844 L871.9688,129.7031 Q871.3438,129.125 870.75,128.8594 Q870.1563,128.5781 869.5313,128.5781 Q868.1875,128.5781 867.5,129.6563 Q866.8125,130.7188 866.8125,132.8125 Q866.8125,134.9063 867.5,135.9844 Q868.1875,137.0469 869.5313,137.0469 Q870.1563,137.0469 870.75,136.7813 Q871.3438,136.5 871.9688,135.9219 L871.9688,138.6406 Z "/><text fill="#000000" font-family="sans-serif" font-size="12" lengthAdjust="spacingAndGlyphs" textLength="62" x="883" y="137.1543">PrintLayer</text><line style="stroke: #A80036; stroke-width: 1.5;" x1="855" x2="947" y1="149" y2="149"/><line style="stroke: #A80036; stroke-width: 1.5;" x1="855" x2="947" y1="157" y2="157"/><!--class IdleCheckLayer--><rect fill="#FEFECE" filter="url(#fn8fqnhr172jy)" height="48" id="IdleCheckLayer" style="stroke: #A80036; stroke-width: 1.5;" width="125" x="983.5" y="117"/><ellipse cx="998.5" cy="133" fill="#ADD1B2" rx="11" ry="11" style="stroke: #A80036; stroke-width: 1.0;"/><path d="M1001.4688,138.6406 Q1000.8906,138.9375 1000.25,139.0781 Q999.6094,139.2344 998.9063,139.2344 Q996.4063,139.2344 995.0781,137.5938 Q993.7656,135.9375 993.7656,132.8125 Q993.7656,129.6875 995.0781,128.0313 Q996.4063,126.375 998.9063,126.375 Q999.6094,126.375 1000.25,126.5313 Q1000.9063,126.6875 1001.4688,126.9844 L1001.4688,129.7031 Q1000.8438,129.125 1000.25,128.8594 Q999.6563,128.5781 999.0313,128.5781 Q997.6875,128.5781 997,129.6563 Q996.3125,130.7188 996.3125,132.8125 Q996.3125,134.9063 997,135.9844 Q997.6875,137.0469 999.0313,137.0469 Q999.6563,137.0469 1000.25,136.7813 Q1000.8438,136.5 1001.4688,135.9219 L1001.4688,138.6406 Z "/><text fill="#000000" font-family="sans-serif" font-size="12" lengthAdjust="spacingAndGlyphs" textLength="93" x="1012.5" y="137.1543">IdleCheckLayer</text><line style="stroke: #A80036; stroke-width: 1.5;" x1="984.5" x2="1107.5" y1="149" y2="149"/><line style="stroke: #A80036; stroke-width: 1.5;" x1="984.5" x2="1107.5" y1="157" y2="157"/><!--class CallbackLayer--><rect fill="#FEFECE" filter="url(#fn8fqnhr172jy)" height="48" id="CallbackLayer" style="stroke: #A80036; stroke-width: 1.5;" width="117" x="1143.5" y="117"/><ellipse cx="1158.5" cy="133" fill="#ADD1B2" rx="11" ry="11" style="stroke: #A80036; stroke-width: 1.0;"/><path d="M1161.4688,138.6406 Q1160.8906,138.9375 1160.25,139.0781 Q1159.6094,139.2344 1158.9063,139.2344 Q1156.4063,139.2344 1155.0781,137.5938 Q1153.7656,135.9375 1153.7656,132.8125 Q1153.7656,129.6875 1155.0781,128.0313 Q1156.4063,126.375 1158.9063,126.375 Q1159.6094,126.375 1160.25,126.5313 Q1160.9063,126.6875 1161.4688,126.9844 L1161.4688,129.7031 Q1160.8438,129.125 1160.25,128.8594 Q1159.6563,128.5781 1159.0313,128.5781 Q1157.6875,128.5781 1157,129.6563 Q1156.3125,130.7188 1156.3125,132.8125 Q1156.3125,134.9063 1157,135.9844 Q1157.6875,137.0469 1159.0313,137.0469 Q1159.6563,137.0469 1160.25,136.7813 Q1160.8438,136.5 1161.4688,135.9219 L1161.4688,138.6406 Z "/><text fill="#000000" font-family="sans-serif" font-size="12" lengthAdjust="spacingAndGlyphs" textLength="85" x="1172.5" y="137.1543">CallbackLayer</text><line style="stroke: #A80036; stroke-width: 1.5;" x1="1144.5" x2="1259.5" y1="149" y2="149"/><line style="stroke: #A80036; stroke-width: 1.5;" x1="1144.5" x2="1259.5" y1="157" y2="157"/><!--class ArqLayer--><rect fill="#FEFECE" filter="url(#fn8fqnhr172jy)" height="48" id="ArqLayer" style="stroke: #A80036; stroke-width: 1.5;" width="88" x="275" y="351"/><ellipse cx="290" cy="367" fill="#A9DCDF" rx="11" ry="11" style="stroke: #A80036; stroke-width: 1.0;"/><path d="M290.1094,362.3438 L288.9531,367.4219 L291.2813,367.4219 L290.1094,362.3438 Z M288.625,360.1094 L291.6094,360.1094 L294.9688,372.5 L292.5156,372.5 L291.75,369.4375 L288.4688,369.4375 L287.7188,372.5 L285.2813,372.5 L288.625,360.1094 Z "/><text fill="#000000" font-family="sans-serif" font-size="12" font-style="italic" lengthAdjust="spacingAndGlyphs" textLength="56" x="304" y="371.1543">ArqLayer</text><line style="stroke: #A80036; stroke-width: 1.5;" x1="276" x2="362" y1="383" y2="383"/><line style="stroke: #A80036; stroke-width: 1.5;" x1="276" x2="362" y1="391" y2="391"/><!--class DebugArqLayer--><rect fill="#FEFECE" filter="url(#fn8fqnhr172jy)" height="48" id="DebugArqLayer" style="stroke: #A80036; stroke-width: 1.5;" width="127" x="255.5" y="476"/><ellipse cx="270.5" cy="492" fill="#ADD1B2" rx="11" ry="11" style="stroke: #A80036; stroke-width: 1.0;"/><path d="M273.4688,497.6406 Q272.8906,497.9375 272.25,498.0781 Q271.6094,498.2344 270.9063,498.2344 Q268.4063,498.2344 267.0781,496.5938 Q265.7656,494.9375 265.7656,491.8125 Q265.7656,488.6875 267.0781,487.0313 Q268.4063,485.375 270.9063,485.375 Q271.6094,485.375 272.25,485.5313 Q272.9063,485.6875 273.4688,485.9844 L273.4688,488.7031 Q272.8438,488.125 272.25,487.8594 Q271.6563,487.5781 271.0313,487.5781 Q269.6875,487.5781 269,488.6563 Q268.3125,489.7188 268.3125,491.8125 Q268.3125,493.9063 269,494.9844 Q269.6875,496.0469 271.0313,496.0469 Q271.6563,496.0469 272.25,495.7813 Q272.8438,495.5 273.4688,494.9219 L273.4688,497.6406 Z "/><text fill="#000000" font-family="sans-serif" font-size="12" lengthAdjust="spacingAndGlyphs" textLength="95" x="284.5" y="496.1543">DebugArqLayer</text><line style="stroke: #A80036; stroke-width: 1.5;" x1="256.5" x2="381.5" y1="508" y2="508"/><line style="stroke: #A80036; stroke-width: 1.5;" x1="256.5" x2="381.5" y1="516" y2="516"/><!--class PolledLayer--><rect fill="#FEFECE" filter="url(#fn8fqnhr172jy)" height="48" id="PolledLayer" style="stroke: #A80036; stroke-width: 1.5;" width="104" x="1296" y="117"/><ellipse cx="1311" cy="133" fill="#A9DCDF" rx="11" ry="11" style="stroke: #A80036; stroke-width: 1.0;"/><path d="M1311.1094,128.3438 L1309.9531,133.4219 L1312.2813,133.4219 L1311.1094,128.3438 Z M1309.625,126.1094 L1312.6094,126.1094 L1315.9688,138.5 L1313.5156,138.5 L1312.75,135.4375 L1309.4688,135.4375 L1308.7188,138.5 L1306.2813,138.5 L1309.625,126.1094 Z "/><text fill="#000000" font-family="sans-serif" font-size="12" font-style="italic" lengthAdjust="spacingAndGlyphs" textLength="72" x="1325" y="137.1543">PolledLayer</text><line style="stroke: #A80036; stroke-width: 1.5;" x1="1297" x2="1399" y1="149" y2="149"/><line style="stroke: #A80036; stroke-width: 1.5;" x1="1297" x2="1399" y1="157" y2="157"/><!--class PolledFileLayer--><rect fill="#FEFECE" filter="url(#fn8fqnhr172jy)" height="48" id="PolledFileLayer" style="stroke: #A80036; stroke-width: 1.5;" width="125" x="1140.5" y="226"/><ellipse cx="1155.5" cy="242" fill="#A9DCDF" rx="11" ry="11" style="stroke: #A80036; stroke-width: 1.0;"/><path d="M1155.6094,237.3438 L1154.4531,242.4219 L1156.7813,242.4219 L1155.6094,237.3438 Z M1154.125,235.1094 L1157.1094,235.1094 L1160.4688,247.5 L1158.0156,247.5 L1157.25,244.4375 L1153.9688,244.4375 L1153.2188,247.5 L1150.7813,247.5 L1154.125,235.1094 Z "/><text fill="#000000" font-family="sans-serif" font-size="12" font-style="italic" lengthAdjust="spacingAndGlyphs" textLength="93" x="1169.5" y="246.1543">PolledFileLayer</text><line style="stroke: #A80036; stroke-width: 1.5;" x1="1141.5" x2="1264.5" y1="258" y2="258"/><line style="stroke: #A80036; stroke-width: 1.5;" x1="1141.5" x2="1264.5" y1="266" y2="266"/><!--class PolledSocketLayer--><rect fill="#FEFECE" filter="url(#fn8fqnhr172jy)" height="48" id="PolledSocketLayer" style="stroke: #A80036; stroke-width: 1.5;" width="147" x="1417.5" y="351"/><ellipse cx="1432.5" cy="367" fill="#A9DCDF" rx="11" ry="11" style="stroke: #A80036; stroke-width: 1.0;"/><path d="M1432.6094,362.3438 L1431.4531,367.4219 L1433.7813,367.4219 L1432.6094,362.3438 Z M1431.125,360.1094 L1434.1094,360.1094 L1437.4688,372.5 L1435.0156,372.5 L1434.25,369.4375 L1430.9688,369.4375 L1430.2188,372.5 L1427.7813,372.5 L1431.125,360.1094 Z "/><text fill="#000000" font-family="sans-serif" font-size="12" font-style="italic" lengthAdjust="spacingAndGlyphs" textLength="115" x="1446.5" y="371.1543">PolledSocketLayer</text><line style="stroke: #A80036; stroke-width: 1.5;" x1="1418.5" x2="1563.5" y1="383" y2="383"/><line style="stroke: #A80036; stroke-width: 1.5;" x1="1418.5" x2="1563.5" y1="391" y2="391"/><!--class FileLayer--><rect fill="#FEFECE" filter="url(#fn8fqnhr172jy)" height="48" id="FileLayer" style="stroke: #A80036; stroke-width: 1.5;" width="86" x="1160" y="351"/><ellipse cx="1175" cy="367" fill="#ADD1B2" rx="11" ry="11" style="stroke: #A80036; stroke-width: 1.0;"/><path d="M1177.9688,372.6406 Q1177.3906,372.9375 1176.75,373.0781 Q1176.1094,373.2344 1175.4063,373.2344 Q1172.9063,373.2344 1171.5781,371.5938 Q1170.2656,369.9375 1170.2656,366.8125 Q1170.2656,363.6875 1171.5781,362.0313 Q1172.9063,360.375 1175.4063,360.375 Q1176.1094,360.375 1176.75,360.5313 Q1177.4063,360.6875 1177.9688,360.9844 L1177.9688,363.7031 Q1177.3438,363.125 1176.75,362.8594 Q1176.1563,362.5781 1175.5313,362.5781 Q1174.1875,362.5781 1173.5,363.6563 Q1172.8125,364.7188 1172.8125,366.8125 Q1172.8125,368.9063 1173.5,369.9844 Q1174.1875,371.0469 1175.5313,371.0469 Q1176.1563,371.0469 1176.75,370.7813 Q1177.3438,370.5 1177.9688,369.9219 L1177.9688,372.6406 Z "/><text fill="#000000" font-family="sans-serif" font-size="12" lengthAdjust="spacingAndGlyphs" textLength="54" x="1189" y="371.1543">FileLayer</text><line style="stroke: #A80036; stroke-width: 1.5;" x1="1161" x2="1245" y1="383" y2="383"/><line style="stroke: #A80036; stroke-width: 1.5;" x1="1161" x2="1245" y1="391" y2="391"/><!--class NamedPipeLayer--><rect fill="#FEFECE" filter="url(#fn8fqnhr172jy)" height="48" id="NamedPipeLayer" style="stroke: #A80036; stroke-width: 1.5;" width="136" x="1115" y="585"/><ellipse cx="1130" cy="601" fill="#ADD1B2" rx="11" ry="11" style="stroke: #A80036; stroke-width: 1.0;"/><path d="M1132.9688,606.6406 Q1132.3906,606.9375 1131.75,607.0781 Q1131.1094,607.2344 1130.4063,607.2344 Q1127.9063,607.2344 1126.5781,605.5938 Q1125.2656,603.9375 1125.2656,600.8125 Q1125.2656,597.6875 1126.5781,596.0313 Q1127.9063,594.375 1130.4063,594.375 Q1131.1094,594.375 1131.75,594.5313 Q1132.4063,594.6875 1132.9688,594.9844 L1132.9688,597.7031 Q1132.3438,597.125 1131.75,596.8594 Q1131.1563,596.5781 1130.5313,596.5781 Q1129.1875,596.5781 1128.5,597.6563 Q1127.8125,598.7188 1127.8125,600.8125 Q1127.8125,602.9063 1128.5,603.9844 Q1129.1875,605.0469 1130.5313,605.0469 Q1131.1563,605.0469 1131.75,604.7813 Q1132.3438,604.5 1132.9688,603.9219 L1132.9688,606.6406 Z "/><text fill="#000000" font-family="sans-serif" font-size="12" lengthAdjust="spacingAndGlyphs" textLength="104" x="1144" y="605.1543">NamedPipeLayer</text><line style="stroke: #A80036; stroke-width: 1.5;" x1="1116" x2="1250" y1="617" y2="617"/><line style="stroke: #A80036; stroke-width: 1.5;" x1="1116" x2="1250" y1="625" y2="625"/><!--class DoublePipeLayer--><rect fill="#FEFECE" filter="url(#fn8fqnhr172jy)" height="48" id="DoublePipeLayer" style="stroke: #A80036; stroke-width: 1.5;" width="136" x="945" y="351"/><ellipse cx="960" cy="367" fill="#ADD1B2" rx="11" ry="11" style="stroke: #A80036; stroke-width: 1.0;"/><path d="M962.9688,372.6406 Q962.3906,372.9375 961.75,373.0781 Q961.1094,373.2344 960.4063,373.2344 Q957.9063,373.2344 956.5781,371.5938 Q955.2656,369.9375 955.2656,366.8125 Q955.2656,363.6875 956.5781,362.0313 Q957.9063,360.375 960.4063,360.375 Q961.1094,360.375 961.75,360.5313 Q962.4063,360.6875 962.9688,360.9844 L962.9688,363.7031 Q962.3438,363.125 961.75,362.8594 Q961.1563,362.5781 960.5313,362.5781 Q959.1875,362.5781 958.5,363.6563 Q957.8125,364.7188 957.8125,366.8125 Q957.8125,368.9063 958.5,369.9844 Q959.1875,371.0469 960.5313,371.0469 Q961.1563,371.0469 961.75,370.7813 Q962.3438,370.5 962.9688,369.9219 L962.9688,372.6406 Z "/><text fill="#000000" font-family="sans-serif" font-size="12" lengthAdjust="spacingAndGlyphs" textLength="104" x="974" y="371.1543">DoublePipeLayer</text><line style="stroke: #A80036; stroke-width: 1.5;" x1="946" x2="1080" y1="383" y2="383"/><line style="stroke: #A80036; stroke-width: 1.5;" x1="946" x2="1080" y1="391" y2="391"/><!--class XsimLayer--><rect fill="#FEFECE" filter="url(#fn8fqnhr172jy)" height="48" id="XsimLayer" style="stroke: #A80036; stroke-width: 1.5;" width="93" x="921.5" y="476"/><ellipse cx="936.5" cy="492" fill="#ADD1B2" rx="11" ry="11" style="stroke: #A80036; stroke-width: 1.0;"/><path d="M939.4688,497.6406 Q938.8906,497.9375 938.25,498.0781 Q937.6094,498.2344 936.9063,498.2344 Q934.4063,498.2344 933.0781,496.5938 Q931.7656,494.9375 931.7656,491.8125 Q931.7656,488.6875 933.0781,487.0313 Q934.4063,485.375 936.9063,485.375 Q937.6094,485.375 938.25,485.5313 Q938.9063,485.6875 939.4688,485.9844 L939.4688,488.7031 Q938.8438,488.125 938.25,487.8594 Q937.6563,487.5781 937.0313,487.5781 Q935.6875,487.5781 935,488.6563 Q934.3125,489.7188 934.3125,491.8125 Q934.3125,493.9063 935,494.9844 Q935.6875,496.0469 937.0313,496.0469 Q937.6563,496.0469 938.25,495.7813 Q938.8438,495.5 939.4688,494.9219 L939.4688,497.6406 Z "/><text fill="#000000" font-family="sans-serif" font-size="12" lengthAdjust="spacingAndGlyphs" textLength="61" x="950.5" y="496.1543">XsimLayer</text><line style="stroke: #A80036; stroke-width: 1.5;" x1="922.5" x2="1013.5" y1="508" y2="508"/><line style="stroke: #A80036; stroke-width: 1.5;" x1="922.5" x2="1013.5" y1="516" y2="516"/><!--class StdioLayer--><rect fill="#FEFECE" filter="url(#fn8fqnhr172jy)" height="48" id="StdioLayer" style="stroke: #A80036; stroke-width: 1.5;" width="97" x="1266.5" y="476"/><ellipse cx="1281.5" cy="492" fill="#ADD1B2" rx="11" ry="11" style="stroke: #A80036; stroke-width: 1.0;"/><path d="M1284.4688,497.6406 Q1283.8906,497.9375 1283.25,498.0781 Q1282.6094,498.2344 1281.9063,498.2344 Q1279.4063,498.2344 1278.0781,496.5938 Q1276.7656,494.9375 1276.7656,491.8125 Q1276.7656,488.6875 1278.0781,487.0313 Q1279.4063,485.375 1281.9063,485.375 Q1282.6094,485.375 1283.25,485.5313 Q1283.9063,485.6875 1284.4688,485.9844 L1284.4688,488.7031 Q1283.8438,488.125 1283.25,487.8594 Q1282.6563,487.5781 1282.0313,487.5781 Q1280.6875,487.5781 1280,488.6563 Q1279.3125,489.7188 1279.3125,491.8125 Q1279.3125,493.9063 1280,494.9844 Q1280.6875,496.0469 1282.0313,496.0469 Q1282.6563,496.0469 1283.25,495.7813 Q1283.8438,495.5 1284.4688,494.9219 L1284.4688,497.6406 Z "/><text fill="#000000" font-family="sans-serif" font-size="12" lengthAdjust="spacingAndGlyphs" textLength="65" x="1295.5" y="496.1543">StdioLayer</text><line style="stroke: #A80036; stroke-width: 1.5;" x1="1267.5" x2="1362.5" y1="508" y2="508"/><line style="stroke: #A80036; stroke-width: 1.5;" x1="1267.5" x2="1362.5" y1="516" y2="516"/><!--class CompressLayer--><rect fill="#FEFECE" filter="url(#fn8fqnhr172jy)" height="48" id="CompressLayer" style="stroke: #A80036; stroke-width: 1.5;" width="127" x="1614.5" y="351"/><ellipse cx="1629.5" cy="367" fill="#ADD1B2" rx="11" ry="11" style="stroke: #A80036; stroke-width: 1.0;"/><path d="M1632.4688,372.6406 Q1631.8906,372.9375 1631.25,373.0781 Q1630.6094,373.2344 1629.9063,373.2344 Q1627.4063,373.2344 1626.0781,371.5938 Q1624.7656,369.9375 1624.7656,366.8125 Q1624.7656,363.6875 1626.0781,362.0313 Q1627.4063,360.375 1629.9063,360.375 Q1630.6094,360.375 1631.25,360.5313 Q1631.9063,360.6875 1632.4688,360.9844 L1632.4688,363.7031 Q1631.8438,363.125 1631.25,362.8594 Q1630.6563,362.5781 1630.0313,362.5781 Q1628.6875,362.5781 1628,363.6563 Q1627.3125,364.7188 1627.3125,366.8125 Q1627.3125,368.9063 1628,369.9844 Q1628.6875,371.0469 1630.0313,371.0469 Q1630.6563,371.0469 1631.25,370.7813 Q1631.8438,370.5 1632.4688,369.9219 L1632.4688,372.6406 Z "/><text fill="#000000" font-family="sans-serif" font-size="12" lengthAdjust="spacingAndGlyphs" textLength="95" x="1643.5" y="371.1543">CompressLayer</text><line style="stroke: #A80036; stroke-width: 1.5;" x1="1615.5" x2="1740.5" y1="383" y2="383"/><line style="stroke: #A80036; stroke-width: 1.5;" x1="1615.5" x2="1740.5" y1="391" y2="391"/><!--class FifoLoopback1--><rect fill="#FEFECE" filter="url(#fn8fqnhr172jy)" height="48" id="FifoLoopback1" style="stroke: #A80036; stroke-width: 1.5;" width="122" x="1301" y="226"/><ellipse cx="1316" cy="242" fill="#ADD1B2" rx="11" ry="11" style="stroke: #A80036; stroke-width: 1.0;"/><path d="M1318.9688,247.6406 Q1318.3906,247.9375 1317.75,248.0781 Q1317.1094,248.2344 1316.4063,248.2344 Q1313.9063,248.2344 1312.5781,246.5938 Q1311.2656,244.9375 1311.2656,241.8125 Q1311.2656,238.6875 1312.5781,237.0313 Q1313.9063,235.375 1316.4063,235.375 Q1317.1094,235.375 1317.75,235.5313 Q1318.4063,235.6875 1318.9688,235.9844 L1318.9688,238.7031 Q1318.3438,238.125 1317.75,237.8594 Q1317.1563,237.5781 1316.5313,237.5781 Q1315.1875,237.5781 1314.5,238.6563 Q1313.8125,239.7188 1313.8125,241.8125 Q1313.8125,243.9063 1314.5,244.9844 Q1315.1875,246.0469 1316.5313,246.0469 Q1317.1563,246.0469 1317.75,245.7813 Q1318.3438,245.5 1318.9688,244.9219 L1318.9688,247.6406 Z "/><text fill="#000000" font-family="sans-serif" font-size="12" lengthAdjust="spacingAndGlyphs" textLength="90" x="1330" y="246.1543">FifoLoopback1</text><line style="stroke: #A80036; stroke-width: 1.5;" x1="1302" x2="1422" y1="258" y2="258"/><line style="stroke: #A80036; stroke-width: 1.5;" x1="1302" x2="1422" y1="266" y2="266"/><!--class SerialLayer--><rect fill="#FEFECE" filter="url(#fn8fqnhr172jy)" height="48" id="SerialLayer" style="stroke: #A80036; stroke-width: 1.5;" width="100" x="1050" y="476"/><ellipse cx="1065" cy="492" fill="#ADD1B2" rx="11" ry="11" style="stroke: #A80036; stroke-width: 1.0;"/><path d="M1067.9688,497.6406 Q1067.3906,497.9375 1066.75,498.0781 Q1066.1094,498.2344 1065.4063,498.2344 Q1062.9063,498.2344 1061.5781,496.5938 Q1060.2656,494.9375 1060.2656,491.8125 Q1060.2656,488.6875 1061.5781,487.0313 Q1062.9063,485.375 1065.4063,485.375 Q1066.1094,485.375 1066.75,485.5313 Q1067.4063,485.6875 1067.9688,485.9844 L1067.9688,488.7031 Q1067.3438,488.125 1066.75,487.8594 Q1066.1563,487.5781 1065.5313,487.5781 Q1064.1875,487.5781 1063.5,488.6563 Q1062.8125,489.7188 1062.8125,491.8125 Q1062.8125,493.9063 1063.5,494.9844 Q1064.1875,496.0469 1065.5313,496.0469 Q1066.1563,496.0469 1066.75,495.7813 Q1067.3438,495.5 1067.9688,494.9219 L1067.9688,497.6406 Z "/><text fill="#000000" font-family="sans-serif" font-size="12" lengthAdjust="spacingAndGlyphs" textLength="68" x="1079" y="496.1543">SerialLayer</text><line style="stroke: #A80036; stroke-width: 1.5;" x1="1051" x2="1149" y1="508" y2="508"/><line style="stroke: #A80036; stroke-width: 1.5;" x1="1051" x2="1149" y1="516" y2="516"/><!--class Stream--><rect fill="#FEFECE" filter="url(#fn8fqnhr172jy)" height="48" id="Stream" style="stroke: #A80036; stroke-width: 1.5;" width="77" x="1655.5" y="226"/><ellipse cx="1670.5" cy="242" fill="#ADD1B2" rx="11" ry="11" style="stroke: #A80036; stroke-width: 1.0;"/><path d="M1673.4688,247.6406 Q1672.8906,247.9375 1672.25,248.0781 Q1671.6094,248.2344 1670.9063,248.2344 Q1668.4063,248.2344 1667.0781,246.5938 Q1665.7656,244.9375 1665.7656,241.8125 Q1665.7656,238.6875 1667.0781,237.0313 Q1668.4063,235.375 1670.9063,235.375 Q1671.6094,235.375 1672.25,235.5313 Q1672.9063,235.6875 1673.4688,235.9844 L1673.4688,238.7031 Q1672.8438,238.125 1672.25,237.8594 Q1671.6563,237.5781 1671.0313,237.5781 Q1669.6875,237.5781 1669,238.6563 Q1668.3125,239.7188 1668.3125,241.8125 Q1668.3125,243.9063 1669,244.9844 Q1669.6875,246.0469 1671.0313,246.0469 Q1671.6563,246.0469 1672.25,245.7813 Q1672.8438,245.5 1673.4688,244.9219 L1673.4688,247.6406 Z "/><text fill="#000000" font-family="sans-serif" font-size="12" lengthAdjust="spacingAndGlyphs" textLength="45" x="1684.5" y="246.1543">Stream</text><line style="stroke: #A80036; stroke-width: 1.5;" x1="1656.5" x2="1731.5" y1="258" y2="258"/><line style="stroke: #A80036; stroke-width: 1.5;" x1="1656.5" x2="1731.5" y1="266" y2="266"/><!--class Debugger--><rect fill="#FEFECE" filter="url(#fn8fqnhr172jy)" height="48" id="Debugger" style="stroke: #A80036; stroke-width: 1.5;" width="94" x="1726" y="117"/><ellipse cx="1741" cy="133" fill="#ADD1B2" rx="11" ry="11" style="stroke: #A80036; stroke-width: 1.0;"/><path d="M1743.9688,138.6406 Q1743.3906,138.9375 1742.75,139.0781 Q1742.1094,139.2344 1741.4063,139.2344 Q1738.9063,139.2344 1737.5781,137.5938 Q1736.2656,135.9375 1736.2656,132.8125 Q1736.2656,129.6875 1737.5781,128.0313 Q1738.9063,126.375 1741.4063,126.375 Q1742.1094,126.375 1742.75,126.5313 Q1743.4063,126.6875 1743.9688,126.9844 L1743.9688,129.7031 Q1743.3438,129.125 1742.75,128.8594 Q1742.1563,128.5781 1741.5313,128.5781 Q1740.1875,128.5781 1739.5,129.6563 Q1738.8125,130.7188 1738.8125,132.8125 Q1738.8125,134.9063 1739.5,135.9844 Q1740.1875,137.0469 1741.5313,137.0469 Q1742.1563,137.0469 1742.75,136.7813 Q1743.3438,136.5 1743.9688,135.9219 L1743.9688,138.6406 Z "/><text fill="#000000" font-family="sans-serif" font-size="12" lengthAdjust="spacingAndGlyphs" textLength="62" x="1755" y="137.1543">Debugger</text><line style="stroke: #A80036; stroke-width: 1.5;" x1="1727" x2="1819" y1="149" y2="149"/><line style="stroke: #A80036; stroke-width: 1.5;" x1="1727" x2="1819" y1="157" y2="157"/><!--class SyncConnection--><rect fill="#FEFECE" filter="url(#fn8fqnhr172jy)" height="48" id="SyncConnection" style="stroke: #A80036; stroke-width: 1.5;" width="132" x="1855" y="117"/><ellipse cx="1870" cy="133" fill="#ADD1B2" rx="11" ry="11" style="stroke: #A80036; stroke-width: 1.0;"/><path d="M1872.9688,138.6406 Q1872.3906,138.9375 1871.75,139.0781 Q1871.1094,139.2344 1870.4063,139.2344 Q1867.9063,139.2344 1866.5781,137.5938 Q1865.2656,135.9375 1865.2656,132.8125 Q1865.2656,129.6875 1866.5781,128.0313 Q1867.9063,126.375 1870.4063,126.375 Q1871.1094,126.375 1871.75,126.5313 Q1872.4063,126.6875 1872.9688,126.9844 L1872.9688,129.7031 Q1872.3438,129.125 1871.75,128.8594 Q1871.1563,128.5781 1870.5313,128.5781 Q1869.1875,128.5781 1868.5,129.6563 Q1867.8125,130.7188 1867.8125,132.8125 Q1867.8125,134.9063 1868.5,135.9844 Q1869.1875,137.0469 1870.5313,137.0469 Q1871.1563,137.0469 1871.75,136.7813 Q1872.3438,136.5 1872.9688,135.9219 L1872.9688,138.6406 Z "/><text fill="#000000" font-family="sans-serif" font-size="12" lengthAdjust="spacingAndGlyphs" textLength="100" x="1884" y="137.1543">SyncConnection</text><line style="stroke: #A80036; stroke-width: 1.5;" x1="1856" x2="1986" y1="149" y2="149"/><line style="stroke: #A80036; stroke-width: 1.5;" x1="1856" x2="1986" y1="157" y2="157"/><!--class ZmqLayer--><rect fill="#FEFECE" filter="url(#fn8fqnhr172jy)" height="48" id="ZmqLayer" style="stroke: #A80036; stroke-width: 1.5;" width="94" x="1444" y="476"/><ellipse cx="1459" cy="492" fill="#A9DCDF" rx="11" ry="11" style="stroke: #A80036; stroke-width: 1.0;"/><path d="M1459.1094,487.3438 L1457.9531,492.4219 L1460.2813,492.4219 L1459.1094,487.3438 Z M1457.625,485.1094 L1460.6094,485.1094 L1463.9688,497.5 L1461.5156,497.5 L1460.75,494.4375 L1457.4688,494.4375 L1456.7188,497.5 L1454.2813,497.5 L1457.625,485.1094 Z "/><text fill="#000000" font-family="sans-serif" font-size="12" font-style="italic" lengthAdjust="spacingAndGlyphs" textLength="62" x="1473" y="496.1543">ZmqLayer</text><line style="stroke: #A80036; stroke-width: 1.5;" x1="1445" x2="1537" y1="508" y2="508"/><line style="stroke: #A80036; stroke-width: 1.5;" x1="1445" x2="1537" y1="516" y2="516"/><!--class DebugZmqLayer--><rect fill="#FEFECE" filter="url(#fn8fqnhr172jy)" height="48" id="DebugZmqLayer" style="stroke: #A80036; stroke-width: 1.5;" width="134" x="1443" y="585"/><ellipse cx="1458" cy="601" fill="#ADD1B2" rx="11" ry="11" style="stroke: #A80036; stroke-width: 1.0;"/><path d="M1460.9688,606.6406 Q1460.3906,606.9375 1459.75,607.0781 Q1459.1094,607.2344 1458.4063,607.2344 Q1455.9063,607.2344 1454.5781,605.5938 Q1453.2656,603.9375 1453.2656,600.8125 Q1453.2656,597.6875 1454.5781,596.0313 Q1455.9063,594.375 1458.4063,594.375 Q1459.1094,594.375 1459.75,594.5313 Q1460.4063,594.6875 1460.9688,594.9844 L1460.9688,597.7031 Q1460.3438,597.125 1459.75,596.8594 Q1459.1563,596.5781 1458.5313,596.5781 Q1457.1875,596.5781 1456.5,597.6563 Q1455.8125,598.7188 1455.8125,600.8125 Q1455.8125,602.9063 1456.5,603.9844 Q1457.1875,605.0469 1458.5313,605.0469 Q1459.1563,605.0469 1459.75,604.7813 Q1460.3438,604.5 1460.9688,603.9219 L1460.9688,606.6406 Z "/><text fill="#000000" font-family="sans-serif" font-size="12" lengthAdjust="spacingAndGlyphs" textLength="102" x="1472" y="605.1543">DebugZmqLayer</text><line style="stroke: #A80036; stroke-width: 1.5;" x1="1444" x2="1576" y1="617" y2="617"/><line style="stroke: #A80036; stroke-width: 1.5;" x1="1444" x2="1576" y1="625" y2="625"/><!--class SyncZmqLayer--><rect fill="#FEFECE" filter="url(#fn8fqnhr172jy)" height="48" id="SyncZmqLayer" style="stroke: #A80036; stroke-width: 1.5;" width="122" x="1286" y="585"/><ellipse cx="1301" cy="601" fill="#ADD1B2" rx="11" ry="11" style="stroke: #A80036; stroke-width: 1.0;"/><path d="M1303.9688,606.6406 Q1303.3906,606.9375 1302.75,607.0781 Q1302.1094,607.2344 1301.4063,607.2344 Q1298.9063,607.2344 1297.5781,605.5938 Q1296.2656,603.9375 1296.2656,600.8125 Q1296.2656,597.6875 1297.5781,596.0313 Q1298.9063,594.375 1301.4063,594.375 Q1302.1094,594.375 1302.75,594.5313 Q1303.4063,594.6875 1303.9688,594.9844 L1303.9688,597.7031 Q1303.3438,597.125 1302.75,596.8594 Q1302.1563,596.5781 1301.5313,596.5781 Q1300.1875,596.5781 1299.5,597.6563 Q1298.8125,598.7188 1298.8125,600.8125 Q1298.8125,602.9063 1299.5,603.9844 Q1300.1875,605.0469 1301.5313,605.0469 Q1302.1563,605.0469 1302.75,604.7813 Q1303.3438,604.5 1303.9688,603.9219 L1303.9688,606.6406 Z "/><text fill="#000000" font-family="sans-serif" font-size="12" lengthAdjust="spacingAndGlyphs" textLength="90" x="1315" y="605.1543">SyncZmqLayer</text><line style="stroke: #A80036; stroke-width: 1.5;" x1="1287" x2="1407" y1="617" y2="617"/><line style="stroke: #A80036; stroke-width: 1.5;" x1="1287" x2="1407" y1="625" y2="625"/><!--class Loopback--><rect fill="#FEFECE" filter="url(#fn8fqnhr172jy)" height="48" id="Loopback" style="stroke: #A80036; stroke-width: 1.5;" width="92" x="995" y="8"/><ellipse cx="1010" cy="24" fill="#ADD1B2" rx="11" ry="11" style="stroke: #A80036; stroke-width: 1.0;"/><path d="M1012.9688,29.6406 Q1012.3906,29.9375 1011.75,30.0781 Q1011.1094,30.2344 1010.4063,30.2344 Q1007.9063,30.2344 1006.5781,28.5938 Q1005.2656,26.9375 1005.2656,23.8125 Q1005.2656,20.6875 1006.5781,19.0313 Q1007.9063,17.375 1010.4063,17.375 Q1011.1094,17.375 1011.75,17.5313 Q1012.4063,17.6875 1012.9688,17.9844 L1012.9688,20.7031 Q1012.3438,20.125 1011.75,19.8594 Q1011.1563,19.5781 1010.5313,19.5781 Q1009.1875,19.5781 1008.5,20.6563 Q1007.8125,21.7188 1007.8125,23.8125 Q1007.8125,25.9063 1008.5,26.9844 Q1009.1875,28.0469 1010.5313,28.0469 Q1011.1563,28.0469 1011.75,27.7813 Q1012.3438,27.5 1012.9688,26.9219 L1012.9688,29.6406 Z "/><text fill="#000000" font-family="sans-serif" font-size="12" lengthAdjust="spacingAndGlyphs" textLength="60" x="1024" y="28.1543">Loopback</text><line style="stroke: #A80036; stroke-width: 1.5;" x1="996" x2="1086" y1="40" y2="40"/><line style="stroke: #A80036; stroke-width: 1.5;" x1="996" x2="1086" y1="48" y2="48"/><!--class FifoLoopback--><rect fill="#FEFECE" filter="url(#fn8fqnhr172jy)" height="48" id="FifoLoopback" style="stroke: #A80036; stroke-width: 1.5;" width="114" x="1435" y="117"/><ellipse cx="1450" cy="133" fill="#ADD1B2" rx="11" ry="11" style="stroke: #A80036; stroke-width: 1.0;"/><path d="M1452.9688,138.6406 Q1452.3906,138.9375 1451.75,139.0781 Q1451.1094,139.2344 1450.4063,139.2344 Q1447.9063,139.2344 1446.5781,137.5938 Q1445.2656,135.9375 1445.2656,132.8125 Q1445.2656,129.6875 1446.5781,128.0313 Q1447.9063,126.375 1450.4063,126.375 Q1451.1094,126.375 1451.75,126.5313 Q1452.4063,126.6875 1452.9688,126.9844 L1452.9688,129.7031 Q1452.3438,129.125 1451.75,128.8594 Q1451.1563,128.5781 1450.5313,128.5781 Q1449.1875,128.5781 1448.5,129.6563 Q1447.8125,130.7188 1447.8125,132.8125 Q1447.8125,134.9063 1448.5,135.9844 Q1449.1875,137.0469 1450.5313,137.0469 Q1451.1563,137.0469 1451.75,136.7813 Q1452.3438,136.5 1452.9688,135.9219 L1452.9688,138.6406 Z "/><text fill="#000000" font-family="sans-serif" font-size="12" lengthAdjust="spacingAndGlyphs" textLength="82" x="1464" y="137.1543">FifoLoopback</text><line style="stroke: #A80036; stroke-width: 1.5;" x1="1436" x2="1548" y1="149" y2="149"/><line style="stroke: #A80036; stroke-width: 1.5;" x1="1436" x2="1548" y1="157" y2="157"/><!--link ProtocolLayer to AsciiEscapeLayer--><path d="M821.51,35.25 C671.87,40.19 353.99,54.15 249,86 C226.31,92.88 203.04,105.62 184.97,116.99 " fill="none" id="ProtocolLayer-AsciiEscapeLayer" style="stroke: #A80036; stroke-width: 1.0;"/><polygon fill="none" points="821.68,28.24,841.89,34.6,822.13,42.24,821.68,28.24" style="stroke: #A80036; stroke-width: 1.0;"/><!--link ProtocolLayer to TerminalLayer--><path d="M821.49,34.82 C622.07,40.23 113.09,59.58 65,117 C8.27,184.73 39.3,301.43 56.26,350.83 " fill="none" id="ProtocolLayer-TerminalLayer" style="stroke: #A80036; stroke-width: 1.0;"/><polygon fill="none" points="821.57,27.82,841.74,34.29,821.93,41.81,821.57,27.82" style="stroke: #A80036; stroke-width: 1.0;"/><!--link AsciiEscapeLayer to TerminalLayer--><!--link ProtocolLayer to SegmentationLayer--><path d="M821.7,35.75 C741.26,40.36 613.99,52.76 509,86 C485.53,93.43 461.01,105.9 441.68,116.99 " fill="none" id="ProtocolLayer-SegmentationLayer" style="stroke: #A80036; stroke-width: 1.0;"/><polygon fill="none" points="821.51,28.75,841.84,34.7,822.24,42.73,821.51,28.75" style="stroke: #A80036; stroke-width: 1.0;"/><!--link ProtocolLayer to Crc8Layer--><path d="M824.91,63.61 C778.71,82.19 721.21,105.32 681.66,121.23 " fill="none" id="ProtocolLayer-Crc8Layer" style="stroke: #A80036; stroke-width: 1.0;"/><polygon fill="none" points="822.44,57.06,843.61,56.09,827.67,70.04,822.44,57.06" style="stroke: #A80036; stroke-width: 1.0;"/><!--link ProtocolLayer to Crc16Layer--><path d="M821.7,42.07 C734.17,53.9 601.56,77.85 571,117 C516.78,186.47 545.63,301.71 561.64,350.76 " fill="none" id="ProtocolLayer-Crc16Layer" style="stroke: #A80036; stroke-width: 1.0;"/><polygon fill="none" points="821.07,35.09,841.81,39.46,822.88,48.98,821.07,35.09" style="stroke: #A80036; stroke-width: 1.0;"/><!--link Crc8Layer to Crc16Layer--><!--link ProtocolLayer to BufferLayer--><path d="M856.47,68.83 C836.79,84.66 814.22,102.82 796.8,116.83 " fill="none" id="ProtocolLayer-BufferLayer" style="stroke: #A80036; stroke-width: 1.0;"/><polygon fill="none" points="852.17,63.3,872.14,56.22,860.95,74.21,852.17,63.3" style="stroke: #A80036; stroke-width: 1.0;"/><!--link ProtocolLayer to PrintLayer--><path d="M901,76.58 C901,90.36 901,105.06 901,116.83 " fill="none" id="ProtocolLayer-PrintLayer" style="stroke: #A80036; stroke-width: 1.0;"/><polygon fill="none" points="894,76.22,901,56.22,908,76.22,894,76.22" style="stroke: #A80036; stroke-width: 1.0;"/><!--link ProtocolLayer to IdleCheckLayer--><path d="M948.59,68.12 C970.26,84.11 995.32,102.61 1014.6,116.83 " fill="none" id="ProtocolLayer-IdleCheckLayer" style="stroke: #A80036; stroke-width: 1.0;"/><polygon fill="none" points="944.4,73.73,932.46,56.22,952.71,62.46,944.4,73.73" style="stroke: #A80036; stroke-width: 1.0;"/><!--link ProtocolLayer to CallbackLayer--><path d="M978.98,60.72 C1030.3,78.96 1096.4,102.46 1143.28,119.13 " fill="none" id="ProtocolLayer-CallbackLayer" style="stroke: #A80036; stroke-width: 1.0;"/><polygon fill="none" points="976.61,67.31,960.11,54.01,981.3,54.12,976.61,67.31" style="stroke: #A80036; stroke-width: 1.0;"/><!--link SegmentationLayer to ArqLayer--><!--link ProtocolLayer to ArqLayer--><path d="M821.83,38.5 C668.6,49.96 343.62,78.56 311,117 C253.81,184.39 289.87,301.28 309.15,350.78 " fill="none" id="ProtocolLayer-ArqLayer" style="stroke: #A80036; stroke-width: 1.0;"/><polygon fill="none" points="821.36,31.51,841.82,37.03,822.39,45.48,821.36,31.51" style="stroke: #A80036; stroke-width: 1.0;"/><!--link ArqLayer to DebugArqLayer--><path d="M319,419.17 C319,438.29 319,460.02 319,475.97 " fill="none" id="ArqLayer-DebugArqLayer" style="stroke: #A80036; stroke-width: 1.0;"/><polygon fill="none" points="312,419.14,319,399.14,326,419.14,312,419.14" style="stroke: #A80036; stroke-width: 1.0;"/><!--link ProtocolLayer to PolledLayer--><path d="M979.62,56.33 C1112.85,88.79 1151.97,83.65 1278,117 C1283.81,118.54 1289.85,120.29 1295.83,122.12 " fill="none" id="ProtocolLayer-PolledLayer" style="stroke: #A80036; stroke-width: 1.0;"/><polygon fill="none" points="977.9,63.12,960.18,51.5,981.28,49.53,977.9,63.12" style="stroke: #A80036; stroke-width: 1.0;"/><!--link PolledLayer to PolledFileLayer--><path d="M1300.41,177.12 C1278.74,193.11 1253.68,211.61 1234.4,225.83 " fill="none" id="PolledLayer-PolledFileLayer" style="stroke: #A80036; stroke-width: 1.0;"/><polygon fill="none" points="1296.29,171.46,1316.54,165.22,1304.6,182.73,1296.29,171.46" style="stroke: #A80036; stroke-width: 1.0;"/><!--link PolledFileLayer to FileLayer--><path d="M1203,294.17 C1203,313.29 1203,335.02 1203,350.97 " fill="none" id="PolledFileLayer-FileLayer" style="stroke: #A80036; stroke-width: 1.0;"/><polygon fill="none" points="1196,294.14,1203,274.14,1210,294.14,1196,294.14" style="stroke: #A80036; stroke-width: 1.0;"/><!--link FileLayer to NamedPipeLayer--><path d="M1199.27,419.29 C1195.05,468.2 1188.34,546.02 1185.01,584.66 " fill="none" id="FileLayer-NamedPipeLayer" style="stroke: #A80036; stroke-width: 1.0;"/><polygon fill="none" points="1192.32,418.42,1201.01,399.09,1206.27,419.62,1192.32,418.42" style="stroke: #A80036; stroke-width: 1.0;"/><!--link PolledFileLayer to DoublePipeLayer--><path d="M1150.24,285.16 C1117.83,306.14 1077.19,332.44 1048.58,350.97 " fill="none" id="PolledFileLayer-DoublePipeLayer" style="stroke: #A80036; stroke-width: 1.0;"/><polygon fill="none" points="1146.67,279.13,1167.26,274.14,1154.28,290.88,1146.67,279.13" style="stroke: #A80036; stroke-width: 1.0;"/><!--link DoublePipeLayer to XsimLayer--><path d="M997.66,417.94 C990.55,437.36 982.39,459.67 976.43,475.97 " fill="none" id="DoublePipeLayer-XsimLayer" style="stroke: #A80036; stroke-width: 1.0;"/><polygon fill="none" points="991.09,415.51,1004.54,399.14,1004.24,420.32,991.09,415.51" style="stroke: #A80036; stroke-width: 1.0;"/><!--link XsimLayer to NamedPipeLayer--><path d="M1014.39,524.09 C1049,541.31 1096.28,564.84 1131.96,582.6 " fill="none" id="XsimLayer-NamedPipeLayer" style="stroke: #A80036; stroke-width: 1.0;"/><polygon fill="#A80036" points="1136.7,584.96,1130.4293,577.3654,1132.225,582.7297,1126.8607,584.5254,1136.7,584.96" style="stroke: #A80036; stroke-width: 1.0;"/><!--link PolledLayer to PolledSocketLayer--><path d="M1396.59,178.27 C1412.16,191.84 1428.36,208.29 1440,226 C1466.12,265.75 1480.36,320.31 1486.76,350.86 " fill="none" id="PolledLayer-PolledSocketLayer" style="stroke: #A80036; stroke-width: 1.0;"/><polygon fill="none" points="1391.78,183.37,1380.81,165.24,1400.69,172.57,1391.78,183.37" style="stroke: #A80036; stroke-width: 1.0;"/><text fill="#000000" font-family="sans-serif" font-size="13" lengthAdjust="spacingAndGlyphs" textLength="54" x="1465" y="254.5669">Windows</text><!--link PolledFileLayer to PolledSocketLayer--><path d="M1284.94,278.66 C1306.31,286.39 1329.18,295.11 1350,304 C1383.43,318.27 1420.18,336.61 1447.78,350.93 " fill="none" id="PolledFileLayer-PolledSocketLayer" style="stroke: #A80036; stroke-width: 1.0;"/><polygon fill="none" points="1282.34,285.17,1265.84,271.87,1287.03,271.98,1282.34,285.17" style="stroke: #A80036; stroke-width: 1.0;"/><text fill="#000000" font-family="sans-serif" font-size="13" lengthAdjust="spacingAndGlyphs" textLength="38" x="1387" y="317.0669">POSIX</text><!--link PolledFileLayer to StdioLayer--><path d="M1230.98,291.1 C1253.85,325.92 1285.08,378.56 1302,429 C1307.11,444.23 1310.38,462.05 1312.37,475.89 " fill="none" id="PolledFileLayer-StdioLayer" style="stroke: #A80036; stroke-width: 1.0;"/><polygon fill="none" points="1224.94,294.66,1219.59,274.16,1236.56,286.85,1224.94,294.66" style="stroke: #A80036; stroke-width: 1.0;"/><text fill="#000000" font-family="sans-serif" font-size="13" lengthAdjust="spacingAndGlyphs" textLength="54" x="1291" y="379.5669">Windows</text><!--link FileLayer to StdioLayer--><path d="M1231.94,415.05 C1240.06,425.38 1249.11,436.34 1258,446 C1267.42,456.24 1278.49,466.82 1288.36,475.81 " fill="none" id="FileLayer-StdioLayer" style="stroke: #A80036; stroke-width: 1.0;"/><polygon fill="none" points="1226.34,419.25,1219.73,399.11,1237.45,410.73,1226.34,419.25" style="stroke: #A80036; stroke-width: 1.0;"/><text fill="#000000" font-family="sans-serif" font-size="13" lengthAdjust="spacingAndGlyphs" textLength="38" x="1259" y="442.0669">POSIX</text><!--link ProtocolLayer to CompressLayer--><path d="M979.98,55.53 C1135.95,78.51 1464.35,42.65 1566,117 C1576.19,124.45 1643.44,288.67 1668.56,350.62 " fill="none" id="ProtocolLayer-CompressLayer" style="stroke: #A80036; stroke-width: 1.0;"/><polygon fill="none" points="978.56,62.38,960.05,52.06,980.96,48.59,978.56,62.38" style="stroke: #A80036; stroke-width: 1.0;"/><!--link PolledLayer to FifoLoopback1--><path d="M1353.64,185.09 C1355.46,199.01 1357.41,213.92 1358.97,225.83 " fill="none" id="PolledLayer-FifoLoopback1" style="stroke: #A80036; stroke-width: 1.0;"/><polygon fill="none" points="1346.69,185.96,1351.04,165.22,1360.57,184.14,1346.69,185.96" style="stroke: #A80036; stroke-width: 1.0;"/><!--link FileLayer to SerialLayer--><path d="M1170.68,414.6 C1153.8,434.75 1133.72,458.73 1119.29,475.97 " fill="none" id="FileLayer-SerialLayer" style="stroke: #A80036; stroke-width: 1.0;"/><polygon fill="none" points="1165.42,409.97,1183.63,399.14,1176.15,418.96,1165.42,409.97" style="stroke: #A80036; stroke-width: 1.0;"/><!--link ProtocolLayer to Stream--><path d="M980.54,54.91 C1108.75,65.61 1572.42,46.65 1628,86 C1674.1,118.64 1688.04,189.23 1692.22,225.87 " fill="none" id="ProtocolLayer-Stream" style="stroke: #A80036; stroke-width: 1.0;"/><polygon fill="none" points="979.43,61.83,960.41,52.5,981.1,47.93,979.43,61.83" style="stroke: #A80036; stroke-width: 1.0;"/><!--link Debugger to Stream--><path d="M1755.86,165.22 C1743.64,181.76 1727.17,204.07 1714.3,221.51 " fill="none" id="Debugger-Stream" style="stroke: #A80036; stroke-width: 1.0;"/><polygon fill="#A80036" points="1711.11,225.83,1719.6601,220.9418,1714.0687,221.7993,1713.2111,216.2079,1711.11,225.83" style="stroke: #A80036; stroke-width: 1.0;"/><!--link Stream to CompressLayer--><path d="M1690.99,274.14 C1688.34,294.49 1684.48,324.19 1681.65,345.91 " fill="none" id="Stream-CompressLayer" style="stroke: #A80036; stroke-width: 1.0;"/><polygon fill="#A80036" points="1681,350.97,1686.148,342.5737,1681.6571,346.0134,1678.2174,341.5224,1681,350.97" style="stroke: #A80036; stroke-width: 1.0;"/><!--link ProtocolLayer to Debugger--><path d="M980.27,55.5 C1164.77,79.34 1552.87,34.97 1699,86 C1717.62,92.5 1735.56,105.37 1749.12,116.92 " fill="none" id="ProtocolLayer-Debugger" style="stroke: #A80036; stroke-width: 1.0;"/><polygon fill="none" points="979.14,62.41,960.4,52.53,981.22,48.57,979.14,62.41" style="stroke: #A80036; stroke-width: 1.0;"/><!--link ProtocolLayer to SyncConnection--><path d="M980.36,55.83 C1309.63,108.46 1403.87,35.27 1727,86 C1770.35,92.81 1817.82,105.92 1854.95,117.51 " fill="none" id="ProtocolLayer-SyncConnection" style="stroke: #A80036; stroke-width: 1.0;"/><polygon fill="none" points="978.99,62.7,960.4,52.53,981.27,48.89,978.99,62.7" style="stroke: #A80036; stroke-width: 1.0;"/><!--link PolledSocketLayer to ZmqLayer--><path d="M1491,419.17 C1491,438.29 1491,460.02 1491,475.97 " fill="none" id="PolledSocketLayer-ZmqLayer" style="stroke: #A80036; stroke-width: 1.0;"/><polygon fill="none" points="1484,419.14,1491,399.14,1498,419.14,1484,419.14" style="stroke: #A80036; stroke-width: 1.0;"/><!--link ZmqLayer to DebugZmqLayer--><path d="M1498.65,544.09 C1501.12,558.01 1503.77,572.92 1505.89,584.83 " fill="none" id="ZmqLayer-DebugZmqLayer" style="stroke: #A80036; stroke-width: 1.0;"/><polygon fill="none" points="1491.73,545.13,1495.12,524.22,1505.51,542.69,1491.73,545.13" style="stroke: #A80036; stroke-width: 1.0;"/><!--link ZmqLayer to SyncZmqLayer--><path d="M1443.42,536.35 C1421.97,552.29 1397.23,570.68 1378.18,584.83 " fill="none" id="ZmqLayer-SyncZmqLayer" style="stroke: #A80036; stroke-width: 1.0;"/><polygon fill="none" points="1439.53,530.53,1459.75,524.22,1447.88,541.76,1439.53,530.53" style="stroke: #A80036; stroke-width: 1.0;"/><!--link FifoLoopback to FifoLoopback1--><path d="M1463.79,165.22 C1443.26,182.11 1415.44,205.02 1394.07,222.61 " fill="none" id="FifoLoopback-FifoLoopback1" style="stroke: #A80036; stroke-width: 1.0;"/><polygon fill="#A80036" points="1390.15,225.83,1399.6364,223.1828,1394.0051,222.646,1394.542,217.0146,1390.15,225.83" style="stroke: #A80036; stroke-width: 1.0;"/><!--
@startuml
abstract ProtocolLayer
ProtocolLayer <|- - AsciiEscapeLayer
ProtocolLayer <|- - TerminalLayer
AsciiEscapeLayer -[hidden]- -> TerminalLayer
ProtocolLayer <|- - SegmentationLayer
ProtocolLayer <|- - Crc8Layer
ProtocolLayer <|- - Crc16Layer
Crc8Layer -[hidden]- -> Crc16Layer
ProtocolLayer <|- - BufferLayer
ProtocolLayer <|- - PrintLayer
ProtocolLayer <|- - IdleCheckLayer
ProtocolLayer <|- - CallbackLayer

abstract ArqLayer
SegmentationLayer -[hidden]- -> ArqLayer
ProtocolLayer <|- - ArqLayer
ArqLayer <|- - DebugArqLayer

abstract PolledLayer
abstract PolledFileLayer
abstract PolledSocketLayer
ProtocolLayer <|- - PolledLayer
PolledLayer <|- - PolledFileLayer
PolledFileLayer <|- - FileLayer
FileLayer <|- - NamedPipeLayer
PolledFileLayer <|- - DoublePipeLayer
DoublePipeLayer <|- - XsimLayer
XsimLayer - -> NamedPipeLayer
PolledLayer <|- - PolledSocketLayer : Windows
PolledFileLayer <|- - PolledSocketLayer : POSIX
PolledFileLayer <|- - StdioLayer : Windows
FileLayer <|- - StdioLayer : POSIX
ProtocolLayer <|- - CompressLayer
PolledLayer <|- - FifoLoopback1
FileLayer <|- - SerialLayer

ProtocolLayer <|- - Stream
Debugger - -> Stream
Stream - -> CompressLayer
ProtocolLayer <|- - Debugger
ProtocolLayer <|- - SyncConnection

abstract ZmqLayer
PolledSocketLayer <|- - ZmqLayer
ZmqLayer <|- - DebugZmqLayer
ZmqLayer <|- - SyncZmqLayer

class Loopback
FifoLoopback - -> FifoLoopback1

@enduml

PlantUML version 1.2018.13(Mon Nov 26 17:11:51 UTC 2018)
(GPL source distribution)
Java Runtime: OpenJDK Runtime Environment
JVM: OpenJDK 64-Bit Server VM
Java Version: 11.0.13+8
Operating System: Linux
OS Version: 5.11.0-1028-azure
Default Encoding: UTF-8
Language: en
Country: null
--></g></svg>