<?xml version="1.0" encoding="UTF-8" standalone="no"?><svg xmlns="http://www.w3.org/2000/svg" xmlns:xlink="http://www.w3.org/1999/xlink" contentScriptType="application/ecmascript" contentStyleType="text/css" height="644px" preserveAspectRatio="none" style="width:1685px;height:644px;" version="1.1" viewBox="0 0 1685 644" width="1685px" zoomAndPan="magnify"><defs><filter height="300%" id="fnpi2wgffkpyw" width="300%" x="-1" y="-1"><feGaussianBlur result="blurOut" stdDeviation="2.0"/><feColorMatrix in="blurOut" result="blurOut2" type="matrix" values="0 0 0 0 0 0 0 0 0 0 0 0 0 0 0 0 0 0 .4 0"/><feOffset dx="4.0" dy="4.0" in="blurOut2" result="blurOut3"/><feBlend in="SourceGraphic" in2="blurOut3" mode="normal"/></filter></defs><g><!--class ProtocolLayer--><rect fill="#FEFECE" filter="url(#fnpi2wgffkpyw)" height="48" id="ProtocolLayer" style="stroke: #A80036; stroke-width: 1.5;" width="118" x="709" y="8"/><ellipse cx="724" cy="24" fill="#A9DCDF" rx="11" ry="11" style="stroke: #A80036; stroke-width: 1.0;"/><path d="M724.1094,19.3438 L722.9531,24.4219 L725.2813,24.4219 L724.1094,19.3438 Z M722.625,17.1094 L725.6094,17.1094 L728.9688,29.5 L726.5156,29.5 L725.75,26.4375 L722.4688,26.4375 L721.7188,29.5 L719.2813,29.5 L722.625,17.1094 Z "/><text fill="#000000" font-family="sans-serif" font-size="12" font-style="italic" lengthAdjust="spacingAndGlyphs" textLength="86" x="738" y="28.1543">ProtocolLayer</text><line style="stroke: #A80036; stroke-width: 1.5;" x1="710" x2="826" y1="40" y2="40"/><line style="stroke: #A80036; stroke-width: 1.5;" x1="710" x2="826" y1="48" y2="48"/><!--class AsciiEscapeLayer--><rect fill="#FEFECE" filter="url(#fnpi2wgffkpyw)" height="48" id="AsciiEscapeLayer" style="stroke: #A80036; stroke-width: 1.5;" width="139" x="82.5" y="117"/><ellipse cx="97.5" cy="133" fill="#ADD1B2" rx="11" ry="11" style="stroke: #A80036; stroke-width: 1.0;"/><path d="M100.4688,138.6406 Q99.8906,138.9375 99.25,139.0781 Q98.6094,139.2344 97.9063,139.2344 Q95.4063,139.2344 94.0781,137.5938 Q92.7656,135.9375 92.7656,132.8125 Q92.7656,129.6875 94.0781,128.0313 Q95.4063,126.375 97.9063,126.375 Q98.6094,126.375 99.25,126.5313 Q99.9063,126.6875 100.4688,126.9844 L100.4688,129.7031 Q99.8438,129.125 99.25,128.8594 Q98.6563,128.5781 98.0313,128.5781 Q96.6875,128.5781 96,129.6563 Q95.3125,130.7188 95.3125,132.8125 Q95.3125,134.9063 96,135.9844 Q96.6875,137.0469 98.0313,137.0469 Q98.6563,137.0469 99.25,136.7813 Q99.8438,136.5 100.4688,135.9219 L100.4688,138.6406 Z "/><text fill="#000000" font-family="sans-serif" font-size="12" lengthAdjust="spacingAndGlyphs" textLength="107" x="111.5" y="137.1543">AsciiEscapeLayer</text><line style="stroke: #A80036; stroke-width: 1.5;" x1="83.5" x2="220.5" y1="149" y2="149"/><line style="stroke: #A80036; stroke-width: 1.5;" x1="83.5" x2="220.5" y1="157" y2="157"/><!--class TerminalLayer--><rect fill="#FEFECE" filter="url(#fnpi2wgffkpyw)" height="48" id="TerminalLayer" style="stroke: #A80036; stroke-width: 1.5;" width="118" x="6" y="351"/><ellipse cx="21" cy="367" fill="#ADD1B2" rx="11" ry="11" style="stroke: #A80036; stroke-width: 1.0;"/><path d="M23.9688,372.6406 Q23.3906,372.9375 22.75,373.0781 Q22.1094,373.2344 21.4063,373.2344 Q18.9063,373.2344 17.5781,371.5938 Q16.2656,369.9375 16.2656,366.8125 Q16.2656,363.6875 17.5781,362.0313 Q18.9063,360.375 21.4063,360.375 Q22.1094,360.375 22.75,360.5313 Q23.4063,360.6875 23.9688,360.9844 L23.9688,363.7031 Q23.3438,363.125 22.75,362.8594 Q22.1563,362.5781 21.5313,362.5781 Q20.1875,362.5781 19.5,363.6563 Q18.8125,364.7188 18.8125,366.8125 Q18.8125,368.9063 19.5,369.9844 Q20.1875,371.0469 21.5313,371.0469 Q22.1563,371.0469 22.75,370.7813 Q23.3438,370.5 23.9688,369.9219 L23.9688,372.6406 Z "/><text fill="#000000" font-family="sans-serif" font-size="12" lengthAdjust="spacingAndGlyphs" textLength="86" x="35" y="371.1543">TerminalLayer</text><line style="stroke: #A80036; stroke-width: 1.5;" x1="7" x2="123" y1="383" y2="383"/><line style="stroke: #A80036; stroke-width: 1.5;" x1="7" x2="123" y1="391" y2="391"/><!--class SegmentationLayer--><rect fill="#FEFECE" filter="url(#fnpi2wgffkpyw)" height="48" id="SegmentationLayer" style="stroke: #A80036; stroke-width: 1.5;" width="153" x="328.5" y="117"/><ellipse cx="343.5" cy="133" fill="#ADD1B2" rx="11" ry="11" style="stroke: #A80036; stroke-width: 1.0;"/><path d="M346.4688,138.6406 Q345.8906,138.9375 345.25,139.0781 Q344.6094,139.2344 343.9063,139.2344 Q341.4063,139.2344 340.0781,137.5938 Q338.7656,135.9375 338.7656,132.8125 Q338.7656,129.6875 340.0781,128.0313 Q341.4063,126.375 343.9063,126.375 Q344.6094,126.375 345.25,126.5313 Q345.9063,126.6875 346.4688,126.9844 L346.4688,129.7031 Q345.8438,129.125 345.25,128.8594 Q344.6563,128.5781 344.0313,128.5781 Q342.6875,128.5781 342,129.6563 Q341.3125,130.7188 341.3125,132.8125 Q341.3125,134.9063 342,135.9844 Q342.6875,137.0469 344.0313,137.0469 Q344.6563,137.0469 345.25,136.7813 Q345.8438,136.5 346.4688,135.9219 L346.4688,138.6406 Z "/><text fill="#000000" font-family="sans-serif" font-size="12" lengthAdjust="spacingAndGlyphs" textLength="121" x="357.5" y="137.1543">SegmentationLayer</text><line style="stroke: #A80036; stroke-width: 1.5;" x1="329.5" x2="480.5" y1="149" y2="149"/><line style="stroke: #A80036; stroke-width: 1.5;" x1="329.5" x2="480.5" y1="157" y2="157"/><!--class Crc8Layer--><rect fill="#FEFECE" filter="url(#fnpi2wgffkpyw)" height="48" id="Crc8Layer" style="stroke: #A80036; stroke-width: 1.5;" width="93" x="588.5" y="117"/><ellipse cx="603.5" cy="133" fill="#ADD1B2" rx="11" ry="11" style="stroke: #A80036; stroke-width: 1.0;"/><path d="M606.4688,138.6406 Q605.8906,138.9375 605.25,139.0781 Q604.6094,139.2344 603.9063,139.2344 Q601.4063,139.2344 600.0781,137.5938 Q598.7656,135.9375 598.7656,132.8125 Q598.7656,129.6875 600.0781,128.0313 Q601.4063,126.375 603.9063,126.375 Q604.6094,126.375 605.25,126.5313 Q605.9063,126.6875 606.4688,126.9844 L606.4688,129.7031 Q605.8438,129.125 605.25,128.8594 Q604.6563,128.5781 604.0313,128.5781 Q602.6875,128.5781 602,129.6563 Q601.3125,130.7188 601.3125,132.8125 Q601.3125,134.9063 602,135.9844 Q602.6875,137.0469 604.0313,137.0469 Q604.6563,137.0469 605.25,136.7813 Q605.8438,136.5 606.4688,135.9219 L606.4688,138.6406 Z "/><text fill="#000000" font-family="sans-serif" font-size="12" lengthAdjust="spacingAndGlyphs" textLength="61" x="617.5" y="137.1543">Crc8Layer</text><line style="stroke: #A80036; stroke-width: 1.5;" x1="589.5" x2="680.5" y1="149" y2="149"/><line style="stroke: #A80036; stroke-width: 1.5;" x1="589.5" x2="680.5" y1="157" y2="157"/><!--class Crc16Layer--><rect fill="#FEFECE" filter="url(#fnpi2wgffkpyw)" height="48" id="Crc16Layer" style="stroke: #A80036; stroke-width: 1.5;" width="101" x="498.5" y="351"/><ellipse cx="513.5" cy="367" fill="#ADD1B2" rx="11" ry="11" style="stroke: #A80036; stroke-width: 1.0;"/><path d="M516.4688,372.6406 Q515.8906,372.9375 515.25,373.0781 Q514.6094,373.2344 513.9063,373.2344 Q511.4063,373.2344 510.0781,371.5938 Q508.7656,369.9375 508.7656,366.8125 Q508.7656,363.6875 510.0781,362.0313 Q511.4063,360.375 513.9063,360.375 Q514.6094,360.375 515.25,360.5313 Q515.9063,360.6875 516.4688,360.9844 L516.4688,363.7031 Q515.8438,363.125 515.25,362.8594 Q514.6563,362.5781 514.0313,362.5781 Q512.6875,362.5781 512,363.6563 Q511.3125,364.7188 511.3125,366.8125 Q511.3125,368.9063 512,369.9844 Q512.6875,371.0469 514.0313,371.0469 Q514.6563,371.0469 515.25,370.7813 Q515.8438,370.5 516.4688,369.9219 L516.4688,372.6406 Z "/><text fill="#000000" font-family="sans-serif" font-size="12" lengthAdjust="spacingAndGlyphs" textLength="69" x="527.5" y="371.1543">Crc16Layer</text><line style="stroke: #A80036; stroke-width: 1.5;" x1="499.5" x2="598.5" y1="383" y2="383"/><line style="stroke: #A80036; stroke-width: 1.5;" x1="499.5" x2="598.5" y1="391" y2="391"/><!--class BufferLayer--><rect fill="#FEFECE" filter="url(#fnpi2wgffkpyw)" height="48" id="BufferLayer" style="stroke: #A80036; stroke-width: 1.5;" width="102" x="717" y="117"/><ellipse cx="732" cy="133" fill="#ADD1B2" rx="11" ry="11" style="stroke: #A80036; stroke-width: 1.0;"/><path d="M734.9688,138.6406 Q734.3906,138.9375 733.75,139.0781 Q733.1094,139.2344 732.4063,139.2344 Q729.9063,139.2344 728.5781,137.5938 Q727.2656,135.9375 727.2656,132.8125 Q727.2656,129.6875 728.5781,128.0313 Q729.9063,126.375 732.4063,126.375 Q733.1094,126.375 733.75,126.5313 Q734.4063,126.6875 734.9688,126.9844 L734.9688,129.7031 Q734.3438,129.125 733.75,128.8594 Q733.1563,128.5781 732.5313,128.5781 Q731.1875,128.5781 730.5,129.6563 Q729.8125,130.7188 729.8125,132.8125 Q729.8125,134.9063 730.5,135.9844 Q731.1875,137.0469 732.5313,137.0469 Q733.1563,137.0469 733.75,136.7813 Q734.3438,136.5 734.9688,135.9219 L734.9688,138.6406 Z "/><text fill="#000000" font-family="sans-serif" font-size="12" lengthAdjust="spacingAndGlyphs" textLength="70" x="746" y="137.1543">BufferLayer</text><line style="stroke: #A80036; stroke-width: 1.5;" x1="718" x2="818" y1="149" y2="149"/><line style="stroke: #A80036; stroke-width: 1.5;" x1="718" x2="818" y1="157" y2="157"/><!--class PrintLayer--><rect fill="#FEFECE" filter="url(#fnpi2wgffkpyw)" height="48" id="PrintLayer" style="stroke: #A80036; stroke-width: 1.5;" width="94" x="854" y="117"/><ellipse cx="869" cy="133" fill="#ADD1B2" rx="11" ry="11" style="stroke: #A80036; stroke-width: 1.0;"/><path d="M871.9688,138.6406 Q871.3906,138.9375 870.75,139.0781 Q870.1094,139.2344 869.4063,139.2344 Q866.9063,139.2344 865.5781,137.5938 Q864.2656,135.9375 864.2656,132.8125 Q864.2656,129.6875 865.5781,128.0313 Q866.9063,126.375 869.4063,126.375 Q870.1094,126.375 870.75,126.5313 Q871.4063,126.6875 871.9688,126.9844 L871.9688,129.7031 Q871.3438,129.125 870.75,128.8594 Q870.1563,128.5781 869.5313,128.5781 Q868.1875,128.5781 867.5,129.6563 Q866.8125,130.7188 866.8125,132.8125 Q866.8125,134.9063 867.5,135.9844 Q868.1875,137.0469 869.5313,137.0469 Q870.1563,137.0469 870.75,136.7813 Q871.3438,136.5 871.9688,135.9219 L871.9688,138.6406 Z "/><text fill="#000000" font-family="sans-serif" font-size="12" lengthAdjust="spacingAndGlyphs" textLength="62" x="883" y="137.1543">PrintLayer</text><line style="stroke: #A80036; stroke-width: 1.5;" x1="855" x2="947" y1="149" y2="149"/><line style="stroke: #A80036; stroke-width: 1.5;" x1="855" x2="947" y1="157" y2="157"/><!--class ArqLayer--><rect fill="#FEFECE" filter="url(#fnpi2wgffkpyw)" height="48" id="ArqLayer" style="stroke: #A80036; stroke-width: 1.5;" width="88" x="282" y="351"/><ellipse cx="297" cy="367" fill="#A9DCDF" rx="11" ry="11" style="stroke: #A80036; stroke-width: 1.0;"/><path d="M297.1094,362.3438 L295.9531,367.4219 L298.2813,367.4219 L297.1094,362.3438 Z M295.625,360.1094 L298.6094,360.1094 L301.9688,372.5 L299.5156,372.5 L298.75,369.4375 L295.4688,369.4375 L294.7188,372.5 L292.2813,372.5 L295.625,360.1094 Z "/><text fill="#000000" font-family="sans-serif" font-size="12" font-style="italic" lengthAdjust="spacingAndGlyphs" textLength="56" x="311" y="371.1543">ArqLayer</text><line style="stroke: #A80036; stroke-width: 1.5;" x1="283" x2="369" y1="383" y2="383"/><line style="stroke: #A80036; stroke-width: 1.5;" x1="283" x2="369" y1="391" y2="391"/><!--class DebugArqLayer--><rect fill="#FEFECE" filter="url(#fnpi2wgffkpyw)" height="48" id="DebugArqLayer" style="stroke: #A80036; stroke-width: 1.5;" width="127" x="262.5" y="476"/><ellipse cx="277.5" cy="492" fill="#ADD1B2" rx="11" ry="11" style="stroke: #A80036; stroke-width: 1.0;"/><path d="M280.4688,497.6406 Q279.8906,497.9375 279.25,498.0781 Q278.6094,498.2344 277.9063,498.2344 Q275.4063,498.2344 274.0781,496.5938 Q272.7656,494.9375 272.7656,491.8125 Q272.7656,488.6875 274.0781,487.0313 Q275.4063,485.375 277.9063,485.375 Q278.6094,485.375 279.25,485.5313 Q279.9063,485.6875 280.4688,485.9844 L280.4688,488.7031 Q279.8438,488.125 279.25,487.8594 Q278.6563,487.5781 278.0313,487.5781 Q276.6875,487.5781 276,488.6563 Q275.3125,489.7188 275.3125,491.8125 Q275.3125,493.9063 276,494.9844 Q276.6875,496.0469 278.0313,496.0469 Q278.6563,496.0469 279.25,495.7813 Q279.8438,495.5 280.4688,494.9219 L280.4688,497.6406 Z "/><text fill="#000000" font-family="sans-serif" font-size="12" lengthAdjust="spacingAndGlyphs" textLength="95" x="291.5" y="496.1543">DebugArqLayer</text><line style="stroke: #A80036; stroke-width: 1.5;" x1="263.5" x2="388.5" y1="508" y2="508"/><line style="stroke: #A80036; stroke-width: 1.5;" x1="263.5" x2="388.5" y1="516" y2="516"/><!--class PolledLayer--><rect fill="#FEFECE" filter="url(#fnpi2wgffkpyw)" height="48" id="PolledLayer" style="stroke: #A80036; stroke-width: 1.5;" width="104" x="983" y="117"/><ellipse cx="998" cy="133" fill="#A9DCDF" rx="11" ry="11" style="stroke: #A80036; stroke-width: 1.0;"/><path d="M998.1094,128.3438 L996.9531,133.4219 L999.2813,133.4219 L998.1094,128.3438 Z M996.625,126.1094 L999.6094,126.1094 L1002.9688,138.5 L1000.5156,138.5 L999.75,135.4375 L996.4688,135.4375 L995.7188,138.5 L993.2813,138.5 L996.625,126.1094 Z "/><text fill="#000000" font-family="sans-serif" font-size="12" font-style="italic" lengthAdjust="spacingAndGlyphs" textLength="72" x="1012" y="137.1543">PolledLayer</text><line style="stroke: #A80036; stroke-width: 1.5;" x1="984" x2="1086" y1="149" y2="149"/><line style="stroke: #A80036; stroke-width: 1.5;" x1="984" x2="1086" y1="157" y2="157"/><!--class PolledFileLayer--><rect fill="#FEFECE" filter="url(#fnpi2wgffkpyw)" height="48" id="PolledFileLayer" style="stroke: #A80036; stroke-width: 1.5;" width="125" x="827.5" y="226"/><ellipse cx="842.5" cy="242" fill="#A9DCDF" rx="11" ry="11" style="stroke: #A80036; stroke-width: 1.0;"/><path d="M842.6094,237.3438 L841.4531,242.4219 L843.7813,242.4219 L842.6094,237.3438 Z M841.125,235.1094 L844.1094,235.1094 L847.4688,247.5 L845.0156,247.5 L844.25,244.4375 L840.9688,244.4375 L840.2188,247.5 L837.7813,247.5 L841.125,235.1094 Z "/><text fill="#000000" font-family="sans-serif" font-size="12" font-style="italic" lengthAdjust="spacingAndGlyphs" textLength="93" x="856.5" y="246.1543">PolledFileLayer</text><line style="stroke: #A80036; stroke-width: 1.5;" x1="828.5" x2="951.5" y1="258" y2="258"/><line style="stroke: #A80036; stroke-width: 1.5;" x1="828.5" x2="951.5" y1="266" y2="266"/><!--class PolledSocketLayer--><rect fill="#FEFECE" filter="url(#fnpi2wgffkpyw)" height="48" id="PolledSocketLayer" style="stroke: #A80036; stroke-width: 1.5;" width="147" x="1104.5" y="351"/><ellipse cx="1119.5" cy="367" fill="#A9DCDF" rx="11" ry="11" style="stroke: #A80036; stroke-width: 1.0;"/><path d="M1119.6094,362.3438 L1118.4531,367.4219 L1120.7813,367.4219 L1119.6094,362.3438 Z M1118.125,360.1094 L1121.1094,360.1094 L1124.4688,372.5 L1122.0156,372.5 L1121.25,369.4375 L1117.9688,369.4375 L1117.2188,372.5 L1114.7813,372.5 L1118.125,360.1094 Z "/><text fill="#000000" font-family="sans-serif" font-size="12" font-style="italic" lengthAdjust="spacingAndGlyphs" textLength="115" x="1133.5" y="371.1543">PolledSocketLayer</text><line style="stroke: #A80036; stroke-width: 1.5;" x1="1105.5" x2="1250.5" y1="383" y2="383"/><line style="stroke: #A80036; stroke-width: 1.5;" x1="1105.5" x2="1250.5" y1="391" y2="391"/><!--class FileLayer--><rect fill="#FEFECE" filter="url(#fnpi2wgffkpyw)" height="48" id="FileLayer" style="stroke: #A80036; stroke-width: 1.5;" width="86" x="847" y="351"/><ellipse cx="862" cy="367" fill="#ADD1B2" rx="11" ry="11" style="stroke: #A80036; stroke-width: 1.0;"/><path d="M864.9688,372.6406 Q864.3906,372.9375 863.75,373.0781 Q863.1094,373.2344 862.4063,373.2344 Q859.9063,373.2344 858.5781,371.5938 Q857.2656,369.9375 857.2656,366.8125 Q857.2656,363.6875 858.5781,362.0313 Q859.9063,360.375 862.4063,360.375 Q863.1094,360.375 863.75,360.5313 Q864.4063,360.6875 864.9688,360.9844 L864.9688,363.7031 Q864.3438,363.125 863.75,362.8594 Q863.1563,362.5781 862.5313,362.5781 Q861.1875,362.5781 860.5,363.6563 Q859.8125,364.7188 859.8125,366.8125 Q859.8125,368.9063 860.5,369.9844 Q861.1875,371.0469 862.5313,371.0469 Q863.1563,371.0469 863.75,370.7813 Q864.3438,370.5 864.9688,369.9219 L864.9688,372.6406 Z "/><text fill="#000000" font-family="sans-serif" font-size="12" lengthAdjust="spacingAndGlyphs" textLength="54" x="876" y="371.1543">FileLayer</text><line style="stroke: #A80036; stroke-width: 1.5;" x1="848" x2="932" y1="383" y2="383"/><line style="stroke: #A80036; stroke-width: 1.5;" x1="848" x2="932" y1="391" y2="391"/><!--class NamedPipeLayer--><rect fill="#FEFECE" filter="url(#fnpi2wgffkpyw)" height="48" id="NamedPipeLayer" style="stroke: #A80036; stroke-width: 1.5;" width="136" x="802" y="585"/><ellipse cx="817" cy="601" fill="#ADD1B2" rx="11" ry="11" style="stroke: #A80036; stroke-width: 1.0;"/><path d="M819.9688,606.6406 Q819.3906,606.9375 818.75,607.0781 Q818.1094,607.2344 817.4063,607.2344 Q814.9063,607.2344 813.5781,605.5938 Q812.2656,603.9375 812.2656,600.8125 Q812.2656,597.6875 813.5781,596.0313 Q814.9063,594.375 817.4063,594.375 Q818.1094,594.375 818.75,594.5313 Q819.4063,594.6875 819.9688,594.9844 L819.9688,597.7031 Q819.3438,597.125 818.75,596.8594 Q818.1563,596.5781 817.5313,596.5781 Q816.1875,596.5781 815.5,597.6563 Q814.8125,598.7188 814.8125,600.8125 Q814.8125,602.9063 815.5,603.9844 Q816.1875,605.0469 817.5313,605.0469 Q818.1563,605.0469 818.75,604.7813 Q819.3438,604.5 819.9688,603.9219 L819.9688,606.6406 Z "/><text fill="#000000" font-family="sans-serif" font-size="12" lengthAdjust="spacingAndGlyphs" textLength="104" x="831" y="605.1543">NamedPipeLayer</text><line style="stroke: #A80036; stroke-width: 1.5;" x1="803" x2="937" y1="617" y2="617"/><line style="stroke: #A80036; stroke-width: 1.5;" x1="803" x2="937" y1="625" y2="625"/><!--class DoublePipeLayer--><rect fill="#FEFECE" filter="url(#fnpi2wgffkpyw)" height="48" id="DoublePipeLayer" style="stroke: #A80036; stroke-width: 1.5;" width="136" x="662" y="351"/><ellipse cx="677" cy="367" fill="#ADD1B2" rx="11" ry="11" style="stroke: #A80036; stroke-width: 1.0;"/><path d="M679.9688,372.6406 Q679.3906,372.9375 678.75,373.0781 Q678.1094,373.2344 677.4063,373.2344 Q674.9063,373.2344 673.5781,371.5938 Q672.2656,369.9375 672.2656,366.8125 Q672.2656,363.6875 673.5781,362.0313 Q674.9063,360.375 677.4063,360.375 Q678.1094,360.375 678.75,360.5313 Q679.4063,360.6875 679.9688,360.9844 L679.9688,363.7031 Q679.3438,363.125 678.75,362.8594 Q678.1563,362.5781 677.5313,362.5781 Q676.1875,362.5781 675.5,363.6563 Q674.8125,364.7188 674.8125,366.8125 Q674.8125,368.9063 675.5,369.9844 Q676.1875,371.0469 677.5313,371.0469 Q678.1563,371.0469 678.75,370.7813 Q679.3438,370.5 679.9688,369.9219 L679.9688,372.6406 Z "/><text fill="#000000" font-family="sans-serif" font-size="12" lengthAdjust="spacingAndGlyphs" textLength="104" x="691" y="371.1543">DoublePipeLayer</text><line style="stroke: #A80036; stroke-width: 1.5;" x1="663" x2="797" y1="383" y2="383"/><line style="stroke: #A80036; stroke-width: 1.5;" x1="663" x2="797" y1="391" y2="391"/><!--class XsimLayer--><rect fill="#FEFECE" filter="url(#fnpi2wgffkpyw)" height="48" id="XsimLayer" style="stroke: #A80036; stroke-width: 1.5;" width="93" x="608.5" y="476"/><ellipse cx="623.5" cy="492" fill="#ADD1B2" rx="11" ry="11" style="stroke: #A80036; stroke-width: 1.0;"/><path d="M626.4688,497.6406 Q625.8906,497.9375 625.25,498.0781 Q624.6094,498.2344 623.9063,498.2344 Q621.4063,498.2344 620.0781,496.5938 Q618.7656,494.9375 618.7656,491.8125 Q618.7656,488.6875 620.0781,487.0313 Q621.4063,485.375 623.9063,485.375 Q624.6094,485.375 625.25,485.5313 Q625.9063,485.6875 626.4688,485.9844 L626.4688,488.7031 Q625.8438,488.125 625.25,487.8594 Q624.6563,487.5781 624.0313,487.5781 Q622.6875,487.5781 622,488.6563 Q621.3125,489.7188 621.3125,491.8125 Q621.3125,493.9063 622,494.9844 Q622.6875,496.0469 624.0313,496.0469 Q624.6563,496.0469 625.25,495.7813 Q625.8438,495.5 626.4688,494.9219 L626.4688,497.6406 Z "/><text fill="#000000" font-family="sans-serif" font-size="12" lengthAdjust="spacingAndGlyphs" textLength="61" x="637.5" y="496.1543">XsimLayer</text><line style="stroke: #A80036; stroke-width: 1.5;" x1="609.5" x2="700.5" y1="508" y2="508"/><line style="stroke: #A80036; stroke-width: 1.5;" x1="609.5" x2="700.5" y1="516" y2="516"/><!--class StdioLayer--><rect fill="#FEFECE" filter="url(#fnpi2wgffkpyw)" height="48" id="StdioLayer" style="stroke: #A80036; stroke-width: 1.5;" width="97" x="953.5" y="476"/><ellipse cx="968.5" cy="492" fill="#ADD1B2" rx="11" ry="11" style="stroke: #A80036; stroke-width: 1.0;"/><path d="M971.4688,497.6406 Q970.8906,497.9375 970.25,498.0781 Q969.6094,498.2344 968.9063,498.2344 Q966.4063,498.2344 965.0781,496.5938 Q963.7656,494.9375 963.7656,491.8125 Q963.7656,488.6875 965.0781,487.0313 Q966.4063,485.375 968.9063,485.375 Q969.6094,485.375 970.25,485.5313 Q970.9063,485.6875 971.4688,485.9844 L971.4688,488.7031 Q970.8438,488.125 970.25,487.8594 Q969.6563,487.5781 969.0313,487.5781 Q967.6875,487.5781 967,488.6563 Q966.3125,489.7188 966.3125,491.8125 Q966.3125,493.9063 967,494.9844 Q967.6875,496.0469 969.0313,496.0469 Q969.6563,496.0469 970.25,495.7813 Q970.8438,495.5 971.4688,494.9219 L971.4688,497.6406 Z "/><text fill="#000000" font-family="sans-serif" font-size="12" lengthAdjust="spacingAndGlyphs" textLength="65" x="982.5" y="496.1543">StdioLayer</text><line style="stroke: #A80036; stroke-width: 1.5;" x1="954.5" x2="1049.5" y1="508" y2="508"/><line style="stroke: #A80036; stroke-width: 1.5;" x1="954.5" x2="1049.5" y1="516" y2="516"/><!--class CompressLayer--><rect fill="#FEFECE" filter="url(#fnpi2wgffkpyw)" height="48" id="CompressLayer" style="stroke: #A80036; stroke-width: 1.5;" width="127" x="1301.5" y="351"/><ellipse cx="1316.5" cy="367" fill="#ADD1B2" rx="11" ry="11" style="stroke: #A80036; stroke-width: 1.0;"/><path d="M1319.4688,372.6406 Q1318.8906,372.9375 1318.25,373.0781 Q1317.6094,373.2344 1316.9063,373.2344 Q1314.4063,373.2344 1313.0781,371.5938 Q1311.7656,369.9375 1311.7656,366.8125 Q1311.7656,363.6875 1313.0781,362.0313 Q1314.4063,360.375 1316.9063,360.375 Q1317.6094,360.375 1318.25,360.5313 Q1318.9063,360.6875 1319.4688,360.9844 L1319.4688,363.7031 Q1318.8438,363.125 1318.25,362.8594 Q1317.6563,362.5781 1317.0313,362.5781 Q1315.6875,362.5781 1315,363.6563 Q1314.3125,364.7188 1314.3125,366.8125 Q1314.3125,368.9063 1315,369.9844 Q1315.6875,371.0469 1317.0313,371.0469 Q1317.6563,371.0469 1318.25,370.7813 Q1318.8438,370.5 1319.4688,369.9219 L1319.4688,372.6406 Z "/><text fill="#000000" font-family="sans-serif" font-size="12" lengthAdjust="spacingAndGlyphs" textLength="95" x="1330.5" y="371.1543">CompressLayer</text><line style="stroke: #A80036; stroke-width: 1.5;" x1="1302.5" x2="1427.5" y1="383" y2="383"/><line style="stroke: #A80036; stroke-width: 1.5;" x1="1302.5" x2="1427.5" y1="391" y2="391"/><!--class FifoLoopback1--><rect fill="#FEFECE" filter="url(#fnpi2wgffkpyw)" height="48" id="FifoLoopback1" style="stroke: #A80036; stroke-width: 1.5;" width="122" x="988" y="226"/><ellipse cx="1003" cy="242" fill="#ADD1B2" rx="11" ry="11" style="stroke: #A80036; stroke-width: 1.0;"/><path d="M1005.9688,247.6406 Q1005.3906,247.9375 1004.75,248.0781 Q1004.1094,248.2344 1003.4063,248.2344 Q1000.9063,248.2344 999.5781,246.5938 Q998.2656,244.9375 998.2656,241.8125 Q998.2656,238.6875 999.5781,237.0313 Q1000.9063,235.375 1003.4063,235.375 Q1004.1094,235.375 1004.75,235.5313 Q1005.4063,235.6875 1005.9688,235.9844 L1005.9688,238.7031 Q1005.3438,238.125 1004.75,237.8594 Q1004.1563,237.5781 1003.5313,237.5781 Q1002.1875,237.5781 1001.5,238.6563 Q1000.8125,239.7188 1000.8125,241.8125 Q1000.8125,243.9063 1001.5,244.9844 Q1002.1875,246.0469 1003.5313,246.0469 Q1004.1563,246.0469 1004.75,245.7813 Q1005.3438,245.5 1005.9688,244.9219 L1005.9688,247.6406 Z "/><text fill="#000000" font-family="sans-serif" font-size="12" lengthAdjust="spacingAndGlyphs" textLength="90" x="1017" y="246.1543">FifoLoopback1</text><line style="stroke: #A80036; stroke-width: 1.5;" x1="989" x2="1109" y1="258" y2="258"/><line style="stroke: #A80036; stroke-width: 1.5;" x1="989" x2="1109" y1="266" y2="266"/><!--class SerialLayer--><rect fill="#FEFECE" filter="url(#fnpi2wgffkpyw)" height="48" id="SerialLayer" style="stroke: #A80036; stroke-width: 1.5;" width="100" x="737" y="476"/><ellipse cx="752" cy="492" fill="#ADD1B2" rx="11" ry="11" style="stroke: #A80036; stroke-width: 1.0;"/><path d="M754.9688,497.6406 Q754.3906,497.9375 753.75,498.0781 Q753.1094,498.2344 752.4063,498.2344 Q749.9063,498.2344 748.5781,496.5938 Q747.2656,494.9375 747.2656,491.8125 Q747.2656,488.6875 748.5781,487.0313 Q749.9063,485.375 752.4063,485.375 Q753.1094,485.375 753.75,485.5313 Q754.4063,485.6875 754.9688,485.9844 L754.9688,488.7031 Q754.3438,488.125 753.75,487.8594 Q753.1563,487.5781 752.5313,487.5781 Q751.1875,487.5781 750.5,488.6563 Q749.8125,489.7188 749.8125,491.8125 Q749.8125,493.9063 750.5,494.9844 Q751.1875,496.0469 752.5313,496.0469 Q753.1563,496.0469 753.75,495.7813 Q754.3438,495.5 754.9688,494.9219 L754.9688,497.6406 Z "/><text fill="#000000" font-family="sans-serif" font-size="12" lengthAdjust="spacingAndGlyphs" textLength="68" x="766" y="496.1543">SerialLayer</text><line style="stroke: #A80036; stroke-width: 1.5;" x1="738" x2="836" y1="508" y2="508"/><line style="stroke: #A80036; stroke-width: 1.5;" x1="738" x2="836" y1="516" y2="516"/><!--class Stream--><rect fill="#FEFECE" filter="url(#fnpi2wgffkpyw)" height="48" id="Stream" style="stroke: #A80036; stroke-width: 1.5;" width="77" x="1342.5" y="226"/><ellipse cx="1357.5" cy="242" fill="#ADD1B2" rx="11" ry="11" style="stroke: #A80036; stroke-width: 1.0;"/><path d="M1360.4688,247.6406 Q1359.8906,247.9375 1359.25,248.0781 Q1358.6094,248.2344 1357.9063,248.2344 Q1355.4063,248.2344 1354.0781,246.5938 Q1352.7656,244.9375 1352.7656,241.8125 Q1352.7656,238.6875 1354.0781,237.0313 Q1355.4063,235.375 1357.9063,235.375 Q1358.6094,235.375 1359.25,235.5313 Q1359.9063,235.6875 1360.4688,235.9844 L1360.4688,238.7031 Q1359.8438,238.125 1359.25,237.8594 Q1358.6563,237.5781 1358.0313,237.5781 Q1356.6875,237.5781 1356,238.6563 Q1355.3125,239.7188 1355.3125,241.8125 Q1355.3125,243.9063 1356,244.9844 Q1356.6875,246.0469 1358.0313,246.0469 Q1358.6563,246.0469 1359.25,245.7813 Q1359.8438,245.5 1360.4688,244.9219 L1360.4688,247.6406 Z "/><text fill="#000000" font-family="sans-serif" font-size="12" lengthAdjust="spacingAndGlyphs" textLength="45" x="1371.5" y="246.1543">Stream</text><line style="stroke: #A80036; stroke-width: 1.5;" x1="1343.5" x2="1418.5" y1="258" y2="258"/><line style="stroke: #A80036; stroke-width: 1.5;" x1="1343.5" x2="1418.5" y1="266" y2="266"/><!--class Debugger--><rect fill="#FEFECE" filter="url(#fnpi2wgffkpyw)" height="48" id="Debugger" style="stroke: #A80036; stroke-width: 1.5;" width="94" x="1413" y="117"/><ellipse cx="1428" cy="133" fill="#ADD1B2" rx="11" ry="11" style="stroke: #A80036; stroke-width: 1.0;"/><path d="M1430.9688,138.6406 Q1430.3906,138.9375 1429.75,139.0781 Q1429.1094,139.2344 1428.4063,139.2344 Q1425.9063,139.2344 1424.5781,137.5938 Q1423.2656,135.9375 1423.2656,132.8125 Q1423.2656,129.6875 1424.5781,128.0313 Q1425.9063,126.375 1428.4063,126.375 Q1429.1094,126.375 1429.75,126.5313 Q1430.4063,126.6875 1430.9688,126.9844 L1430.9688,129.7031 Q1430.3438,129.125 1429.75,128.8594 Q1429.1563,128.5781 1428.5313,128.5781 Q1427.1875,128.5781 1426.5,129.6563 Q1425.8125,130.7188 1425.8125,132.8125 Q1425.8125,134.9063 1426.5,135.9844 Q1427.1875,137.0469 1428.5313,137.0469 Q1429.1563,137.0469 1429.75,136.7813 Q1430.3438,136.5 1430.9688,135.9219 L1430.9688,138.6406 Z "/><text fill="#000000" font-family="sans-serif" font-size="12" lengthAdjust="spacingAndGlyphs" textLength="62" x="1442" y="137.1543">Debugger</text><line style="stroke: #A80036; stroke-width: 1.5;" x1="1414" x2="1506" y1="149" y2="149"/><line style="stroke: #A80036; stroke-width: 1.5;" x1="1414" x2="1506" y1="157" y2="157"/><!--class SyncConnection--><rect fill="#FEFECE" filter="url(#fnpi2wgffkpyw)" height="48" id="SyncConnection" style="stroke: #A80036; stroke-width: 1.5;" width="132" x="1542" y="117"/><ellipse cx="1557" cy="133" fill="#ADD1B2" rx="11" ry="11" style="stroke: #A80036; stroke-width: 1.0;"/><path d="M1559.9688,138.6406 Q1559.3906,138.9375 1558.75,139.0781 Q1558.1094,139.2344 1557.4063,139.2344 Q1554.9063,139.2344 1553.5781,137.5938 Q1552.2656,135.9375 1552.2656,132.8125 Q1552.2656,129.6875 1553.5781,128.0313 Q1554.9063,126.375 1557.4063,126.375 Q1558.1094,126.375 1558.75,126.5313 Q1559.4063,126.6875 1559.9688,126.9844 L1559.9688,129.7031 Q1559.3438,129.125 1558.75,128.8594 Q1558.1563,128.5781 1557.5313,128.5781 Q1556.1875,128.5781 1555.5,129.6563 Q1554.8125,130.7188 1554.8125,132.8125 Q1554.8125,134.9063 1555.5,135.9844 Q1556.1875,137.0469 1557.5313,137.0469 Q1558.1563,137.0469 1558.75,136.7813 Q1559.3438,136.5 1559.9688,135.9219 L1559.9688,138.6406 Z "/><text fill="#000000" font-family="sans-serif" font-size="12" lengthAdjust="spacingAndGlyphs" textLength="100" x="1571" y="137.1543">SyncConnection</text><line style="stroke: #A80036; stroke-width: 1.5;" x1="1543" x2="1673" y1="149" y2="149"/><line style="stroke: #A80036; stroke-width: 1.5;" x1="1543" x2="1673" y1="157" y2="157"/><!--class ZmqLayer--><rect fill="#FEFECE" filter="url(#fnpi2wgffkpyw)" height="48" id="ZmqLayer" style="stroke: #A80036; stroke-width: 1.5;" width="94" x="1131" y="476"/><ellipse cx="1146" cy="492" fill="#A9DCDF" rx="11" ry="11" style="stroke: #A80036; stroke-width: 1.0;"/><path d="M1146.1094,487.3438 L1144.9531,492.4219 L1147.2813,492.4219 L1146.1094,487.3438 Z M1144.625,485.1094 L1147.6094,485.1094 L1150.9688,497.5 L1148.5156,497.5 L1147.75,494.4375 L1144.4688,494.4375 L1143.7188,497.5 L1141.2813,497.5 L1144.625,485.1094 Z "/><text fill="#000000" font-family="sans-serif" font-size="12" font-style="italic" lengthAdjust="spacingAndGlyphs" textLength="62" x="1160" y="496.1543">ZmqLayer</text><line style="stroke: #A80036; stroke-width: 1.5;" x1="1132" x2="1224" y1="508" y2="508"/><line style="stroke: #A80036; stroke-width: 1.5;" x1="1132" x2="1224" y1="516" y2="516"/><!--class DebugZmqLayer--><rect fill="#FEFECE" filter="url(#fnpi2wgffkpyw)" height="48" id="DebugZmqLayer" style="stroke: #A80036; stroke-width: 1.5;" width="134" x="1130" y="585"/><ellipse cx="1145" cy="601" fill="#ADD1B2" rx="11" ry="11" style="stroke: #A80036; stroke-width: 1.0;"/><path d="M1147.9688,606.6406 Q1147.3906,606.9375 1146.75,607.0781 Q1146.1094,607.2344 1145.4063,607.2344 Q1142.9063,607.2344 1141.5781,605.5938 Q1140.2656,603.9375 1140.2656,600.8125 Q1140.2656,597.6875 1141.5781,596.0313 Q1142.9063,594.375 1145.4063,594.375 Q1146.1094,594.375 1146.75,594.5313 Q1147.4063,594.6875 1147.9688,594.9844 L1147.9688,597.7031 Q1147.3438,597.125 1146.75,596.8594 Q1146.1563,596.5781 1145.5313,596.5781 Q1144.1875,596.5781 1143.5,597.6563 Q1142.8125,598.7188 1142.8125,600.8125 Q1142.8125,602.9063 1143.5,603.9844 Q1144.1875,605.0469 1145.5313,605.0469 Q1146.1563,605.0469 1146.75,604.7813 Q1147.3438,604.5 1147.9688,603.9219 L1147.9688,606.6406 Z "/><text fill="#000000" font-family="sans-serif" font-size="12" lengthAdjust="spacingAndGlyphs" textLength="102" x="1159" y="605.1543">DebugZmqLayer</text><line style="stroke: #A80036; stroke-width: 1.5;" x1="1131" x2="1263" y1="617" y2="617"/><line style="stroke: #A80036; stroke-width: 1.5;" x1="1131" x2="1263" y1="625" y2="625"/><!--class SyncZmqLayer--><rect fill="#FEFECE" filter="url(#fnpi2wgffkpyw)" height="48" id="SyncZmqLayer" style="stroke: #A80036; stroke-width: 1.5;" width="122" x="973" y="585"/><ellipse cx="988" cy="601" fill="#ADD1B2" rx="11" ry="11" style="stroke: #A80036; stroke-width: 1.0;"/><path d="M990.9688,606.6406 Q990.3906,606.9375 989.75,607.0781 Q989.1094,607.2344 988.4063,607.2344 Q985.9063,607.2344 984.5781,605.5938 Q983.2656,603.9375 983.2656,600.8125 Q983.2656,597.6875 984.5781,596.0313 Q985.9063,594.375 988.4063,594.375 Q989.1094,594.375 989.75,594.5313 Q990.4063,594.6875 990.9688,594.9844 L990.9688,597.7031 Q990.3438,597.125 989.75,596.8594 Q989.1563,596.5781 988.5313,596.5781 Q987.1875,596.5781 986.5,597.6563 Q985.8125,598.7188 985.8125,600.8125 Q985.8125,602.9063 986.5,603.9844 Q987.1875,605.0469 988.5313,605.0469 Q989.1563,605.0469 989.75,604.7813 Q990.3438,604.5 990.9688,603.9219 L990.9688,606.6406 Z "/><text fill="#000000" font-family="sans-serif" font-size="12" lengthAdjust="spacingAndGlyphs" textLength="90" x="1002" y="605.1543">SyncZmqLayer</text><line style="stroke: #A80036; stroke-width: 1.5;" x1="974" x2="1094" y1="617" y2="617"/><line style="stroke: #A80036; stroke-width: 1.5;" x1="974" x2="1094" y1="625" y2="625"/><!--class Loopback--><rect fill="#FEFECE" filter="url(#fnpi2wgffkpyw)" height="48" id="Loopback" style="stroke: #A80036; stroke-width: 1.5;" width="92" x="862" y="8"/><ellipse cx="877" cy="24" fill="#ADD1B2" rx="11" ry="11" style="stroke: #A80036; stroke-width: 1.0;"/><path d="M879.9688,29.6406 Q879.3906,29.9375 878.75,30.0781 Q878.1094,30.2344 877.4063,30.2344 Q874.9063,30.2344 873.5781,28.5938 Q872.2656,26.9375 872.2656,23.8125 Q872.2656,20.6875 873.5781,19.0313 Q874.9063,17.375 877.4063,17.375 Q878.1094,17.375 878.75,17.5313 Q879.4063,17.6875 879.9688,17.9844 L879.9688,20.7031 Q879.3438,20.125 878.75,19.8594 Q878.1563,19.5781 877.5313,19.5781 Q876.1875,19.5781 875.5,20.6563 Q874.8125,21.7188 874.8125,23.8125 Q874.8125,25.9063 875.5,26.9844 Q876.1875,28.0469 877.5313,28.0469 Q878.1563,28.0469 878.75,27.7813 Q879.3438,27.5 879.9688,26.9219 L879.9688,29.6406 Z "/><text fill="#000000" font-family="sans-serif" font-size="12" lengthAdjust="spacingAndGlyphs" textLength="60" x="891" y="28.1543">Loopback</text><line style="stroke: #A80036; stroke-width: 1.5;" x1="863" x2="953" y1="40" y2="40"/><line style="stroke: #A80036; stroke-width: 1.5;" x1="863" x2="953" y1="48" y2="48"/><!--class Poller--><rect fill="#FEFECE" filter="url(#fnpi2wgffkpyw)" height="48" id="Poller" style="stroke: #A80036; stroke-width: 1.5;" width="67" x="989.5" y="8"/><ellipse cx="1004.5" cy="24" fill="#ADD1B2" rx="11" ry="11" style="stroke: #A80036; stroke-width: 1.0;"/><path d="M1007.4688,29.6406 Q1006.8906,29.9375 1006.25,30.0781 Q1005.6094,30.2344 1004.9063,30.2344 Q1002.4063,30.2344 1001.0781,28.5938 Q999.7656,26.9375 999.7656,23.8125 Q999.7656,20.6875 1001.0781,19.0313 Q1002.4063,17.375 1004.9063,17.375 Q1005.6094,17.375 1006.25,17.5313 Q1006.9063,17.6875 1007.4688,17.9844 L1007.4688,20.7031 Q1006.8438,20.125 1006.25,19.8594 Q1005.6563,19.5781 1005.0313,19.5781 Q1003.6875,19.5781 1003,20.6563 Q1002.3125,21.7188 1002.3125,23.8125 Q1002.3125,25.9063 1003,26.9844 Q1003.6875,28.0469 1005.0313,28.0469 Q1005.6563,28.0469 1006.25,27.7813 Q1006.8438,27.5 1007.4688,26.9219 L1007.4688,29.6406 Z "/><text fill="#000000" font-family="sans-serif" font-size="12" lengthAdjust="spacingAndGlyphs" textLength="35" x="1018.5" y="28.1543">Poller</text><line style="stroke: #A80036; stroke-width: 1.5;" x1="990.5" x2="1055.5" y1="40" y2="40"/><line style="stroke: #A80036; stroke-width: 1.5;" x1="990.5" x2="1055.5" y1="48" y2="48"/><!--class FifoLoopback--><rect fill="#FEFECE" filter="url(#fnpi2wgffkpyw)" height="48" id="FifoLoopback" style="stroke: #A80036; stroke-width: 1.5;" width="114" x="1122" y="117"/><ellipse cx="1137" cy="133" fill="#ADD1B2" rx="11" ry="11" style="stroke: #A80036; stroke-width: 1.0;"/><path d="M1139.9688,138.6406 Q1139.3906,138.9375 1138.75,139.0781 Q1138.1094,139.2344 1137.4063,139.2344 Q1134.9063,139.2344 1133.5781,137.5938 Q1132.2656,135.9375 1132.2656,132.8125 Q1132.2656,129.6875 1133.5781,128.0313 Q1134.9063,126.375 1137.4063,126.375 Q1138.1094,126.375 1138.75,126.5313 Q1139.4063,126.6875 1139.9688,126.9844 L1139.9688,129.7031 Q1139.3438,129.125 1138.75,128.8594 Q1138.1563,128.5781 1137.5313,128.5781 Q1136.1875,128.5781 1135.5,129.6563 Q1134.8125,130.7188 1134.8125,132.8125 Q1134.8125,134.9063 1135.5,135.9844 Q1136.1875,137.0469 1137.5313,137.0469 Q1138.1563,137.0469 1138.75,136.7813 Q1139.3438,136.5 1139.9688,135.9219 L1139.9688,138.6406 Z "/><text fill="#000000" font-family="sans-serif" font-size="12" lengthAdjust="spacingAndGlyphs" textLength="82" x="1151" y="137.1543">FifoLoopback</text><line style="stroke: #A80036; stroke-width: 1.5;" x1="1123" x2="1235" y1="149" y2="149"/><line style="stroke: #A80036; stroke-width: 1.5;" x1="1123" x2="1235" y1="157" y2="157"/><!--link ProtocolLayer to AsciiEscapeLayer--><path d="M688.7956,36.263 C564.306,43.6317 328.8084,60.4579 249,86 C226.8747,93.081 204.1784,105.6086 186.3079,116.9206 " fill="none" id="ProtocolLayer-AsciiEscapeLayer" style="stroke: #A80036; stroke-width: 1.0;"/><polygon fill="none" points="688.5004,29.2684,708.8719,35.0998,689.3103,43.245,688.5004,29.2684" style="stroke: #A80036; stroke-width: 1.0;"/><!--link ProtocolLayer to TerminalLayer--><path d="M688.7169,35.5951 C513.2822,44.3833 104.5633,69.765 65,117 C8.3408,184.6458 38.8837,300.9625 55.9715,350.9842 " fill="none" id="ProtocolLayer-TerminalLayer" style="stroke: #A80036; stroke-width: 1.0;"/><polygon fill="none" points="688.5957,28.5928,708.9144,34.6053,689.2811,42.576,688.5957,28.5928" style="stroke: #A80036; stroke-width: 1.0;"/><!--link AsciiEscapeLayer to TerminalLayer--><!--link ProtocolLayer to SegmentationLayer--><path d="M689.0538,42.5567 C636.9164,50.9533 567.6501,64.8563 509,86 C486.7112,94.0352 463.2681,106.0813 444.2932,116.8535 " fill="none" id="ProtocolLayer-SegmentationLayer" style="stroke: #A80036; stroke-width: 1.0;"/><polygon fill="none" points="688.012,35.6347,708.8461,39.4999,690.1489,49.4706,688.012,35.6347" style="stroke: #A80036; stroke-width: 1.0;"/><!--link ProtocolLayer to Crc8Layer--><path d="M722.7544,69.081 C703.4837,84.8742 681.552,102.8484 664.4345,116.877 " fill="none" id="ProtocolLayer-Crc8Layer" style="stroke: #A80036; stroke-width: 1.0;"/><polygon fill="none" points="718.5771,63.454,738.483,56.1906,727.4513,74.2822,718.5771,63.454" style="stroke: #A80036; stroke-width: 1.0;"/><!--link ProtocolLayer to Crc16Layer--><path d="M689.0265,45.8643 C647.0551,57.5253 598.5668,78.732 571,117 C519.4997,188.4922 533.9633,301.7469 543.572,350.9078 " fill="none" id="ProtocolLayer-Crc16Layer" style="stroke: #A80036; stroke-width: 1.0;"/><polygon fill="none" points="687.5756,39.0116,708.6771,40.943,690.9768,52.5921,687.5756,39.0116" style="stroke: #A80036; stroke-width: 1.0;"/><!--link Crc8Layer to Crc16Layer--><!--link ProtocolLayer to BufferLayer--><path d="M768,76.5974 C768,90.3785 768,105.0337 768,116.877 " fill="none" id="ProtocolLayer-BufferLayer" style="stroke: #A80036; stroke-width: 1.0;"/><polygon fill="none" points="761.0001,76.1907,768,56.1906,775.0001,76.1906,761.0001,76.1907" style="stroke: #A80036; stroke-width: 1.0;"/><!--link ProtocolLayer to PrintLayer--><path d="M813.2456,69.081 C832.5163,84.8742 854.448,102.8484 871.5655,116.877 " fill="none" id="ProtocolLayer-PrintLayer" style="stroke: #A80036; stroke-width: 1.0;"/><polygon fill="none" points="808.5487,74.2822,797.517,56.1906,817.4229,63.454,808.5487,74.2822" style="stroke: #A80036; stroke-width: 1.0;"/><!--link SegmentationLayer to ArqLayer--><!--link ProtocolLayer to ArqLayer--><path d="M688.7922,34.9634 C570.9239,41.225 358.1412,60.2822 311,117 C254.6459,184.8023 293.6418,300.5249 314.813,350.6552 " fill="none" id="ProtocolLayer-ArqLayer" style="stroke: #A80036; stroke-width: 1.0;"/><polygon fill="none" points="688.6193,27.9635,708.9402,33.9685,689.3098,41.9465,688.6193,27.9635" style="stroke: #A80036; stroke-width: 1.0;"/><!--link ArqLayer to DebugArqLayer--><path d="M326,419.1823 C326,438.2919 326,459.9075 326,475.9727 " fill="none" id="ArqLayer-DebugArqLayer" style="stroke: #A80036; stroke-width: 1.0;"/><polygon fill="none" points="319.0001,419.1013,326,399.1013,333.0001,419.1012,319.0001,419.1013" style="stroke: #A80036; stroke-width: 1.0;"/><!--link ProtocolLayer to PolledLayer--><path d="M845.4946,63.6364 C889.6938,81.6802 943.897,103.8081 982.995,119.7695 " fill="none" id="ProtocolLayer-PolledLayer" style="stroke: #A80036; stroke-width: 1.0;"/><polygon fill="none" points="842.7956,70.0954,826.9248,56.0555,848.087,57.1339,842.7956,70.0954" style="stroke: #A80036; stroke-width: 1.0;"/><!--link PolledLayer to PolledFileLayer--><path d="M986.6203,177.3682 C965.3848,193.3314 941.0335,211.6369 922.0902,225.877 " fill="none" id="PolledLayer-PolledFileLayer" style="stroke: #A80036; stroke-width: 1.0;"/><polygon fill="none" points="982.6268,171.6129,1002.8198,165.1906,991.0392,182.8037,982.6268,171.6129" style="stroke: #A80036; stroke-width: 1.0;"/><!--link PolledFileLayer to FileLayer--><path d="M890,294.1823 C890,313.2919 890,334.9075 890,350.9727 " fill="none" id="PolledFileLayer-FileLayer" style="stroke: #A80036; stroke-width: 1.0;"/><polygon fill="none" points="883.0001,294.1013,890,274.1013,897.0001,294.1012,883.0001,294.1013" style="stroke: #A80036; stroke-width: 1.0;"/><!--link FileLayer to NamedPipeLayer--><path d="M886.222,419.2028 C882.02,468.3658 875.386,545.9836 872.0538,584.9707 " fill="none" id="FileLayer-NamedPipeLayer" style="stroke: #A80036; stroke-width: 1.0;"/><polygon fill="none" points="879.2571,418.492,887.935,399.1608,893.2063,419.6843,879.2571,418.492" style="stroke: #A80036; stroke-width: 1.0;"/><!--link PolledFileLayer to DoublePipeLayer--><path d="M843.1108,286.6322 C816.5524,307.381 784.0823,332.7482 760.7549,350.9727 " fill="none" id="PolledFileLayer-DoublePipeLayer" style="stroke: #A80036; stroke-width: 1.0;"/><polygon fill="none" points="839.0804,280.898,859.1504,274.1013,847.6994,291.9304,839.0804,280.898" style="stroke: #A80036; stroke-width: 1.0;"/><!--link DoublePipeLayer to XsimLayer--><path d="M705.1439,416.4269 C693.2878,436.1871 679.5219,459.1302 669.4164,475.9727 " fill="none" id="DoublePipeLayer-XsimLayer" style="stroke: #A80036; stroke-width: 1.0;"/><polygon fill="none" points="699.2468,412.6496,715.5392,399.1013,711.2517,419.8526,699.2468,412.6496" style="stroke: #A80036; stroke-width: 1.0;"/><!--link XsimLayer to NamedPipeLayer--><path d="M701.6518,523.6514 C735.8103,540.969 782.1906,564.4827 817.6203,582.4447 " fill="none" id="XsimLayer-NamedPipeLayer" style="stroke: #A80036; stroke-width: 1.0;"/><polygon fill="#A80036" points="822.3241,584.8294,816.1057,577.1919,817.8645,582.5684,812.4881,584.3273,822.3241,584.8294" style="stroke: #A80036; stroke-width: 1.0;"/><!--link PolledLayer to PolledSocketLayer--><path d="M1084.3067,178.4016 C1099.6602,192.0169 1115.5482,208.4196 1127,226 C1152.8917,265.7482 1167.1135,320.0582 1173.591,350.9347 " fill="none" id="PolledLayer-PolledSocketLayer" style="stroke: #A80036; stroke-width: 1.0;"/><polygon fill="none" points="1079.5136,183.5171,1068.7085,165.2893,1088.5222,172.8005,1079.5136,183.5171" style="stroke: #A80036; stroke-width: 1.0;"/><text fill="#000000" font-family="sans-serif" font-size="13" lengthAdjust="spacingAndGlyphs" textLength="54" x="1152" y="254.5669">Windows</text><!--link PolledFileLayer to PolledSocketLayer--><path d="M971.9513,278.2206 C993.3185,286.0903 1016.1843,294.9711 1037,304 C1069.9387,318.2873 1106.0884,336.5442 1133.5376,350.9669 " fill="none" id="PolledFileLayer-PolledSocketLayer" style="stroke: #A80036; stroke-width: 1.0;"/><polygon fill="none" points="969.2718,284.6952,952.8514,271.3023,974.0398,271.5321,969.2718,284.6952" style="stroke: #A80036; stroke-width: 1.0;"/><text fill="#000000" font-family="sans-serif" font-size="13" lengthAdjust="spacingAndGlyphs" textLength="38" x="1074" y="317.0669">POSIX</text><!--link PolledFileLayer to StdioLayer--><path d="M918.5557,291.2367 C941.3716,326.2758 972.215,378.7487 989,429 C994.0817,444.2138 997.3317,461.9638 999.3113,475.9104 " fill="none" id="PolledFileLayer-StdioLayer" style="stroke: #A80036; stroke-width: 1.0;"/><polygon fill="none" points="912.4325,294.6714,907.1601,274.1481,924.0802,286.9041,912.4325,294.6714" style="stroke: #A80036; stroke-width: 1.0;"/><text fill="#000000" font-family="sans-serif" font-size="13" lengthAdjust="spacingAndGlyphs" textLength="54" x="978" y="379.5669">Windows</text><!--link FileLayer to StdioLayer--><path d="M919.3181,415.065 C927.3413,425.4005 936.2465,436.3312 945,446 C954.2402,456.2064 965.0617,466.7647 974.7784,475.8085 " fill="none" id="FileLayer-StdioLayer" style="stroke: #A80036; stroke-width: 1.0;"/><polygon fill="none" points="913.7031,419.2454,907.2108,399.0748,924.8646,410.7942,913.7031,419.2454" style="stroke: #A80036; stroke-width: 1.0;"/><text fill="#000000" font-family="sans-serif" font-size="13" lengthAdjust="spacingAndGlyphs" textLength="38" x="946" y="442.0669">POSIX</text><!--link ProtocolLayer to CompressLayer--><path d="M846.7919,55.8661 C1028.8982,91.2881 1112.1904,8.9203 1253,117 C1262.9985,124.6745 1329.7416,287.8405 1355.1785,350.6529 " fill="none" id="ProtocolLayer-CompressLayer" style="stroke: #A80036; stroke-width: 1.0;"/><polygon fill="none" points="845.173,62.6782,827.0798,51.6492,848.1017,48.988,845.173,62.6782" style="stroke: #A80036; stroke-width: 1.0;"/><!--link PolledLayer to FifoLoopback1--><path d="M1040.6649,185.1055 C1042.4533,199.0291 1044.3624,213.8927 1045.9016,225.877 " fill="none" id="PolledLayer-FifoLoopback1" style="stroke: #A80036; stroke-width: 1.0;"/><polygon fill="none" points="1033.7121,185.9195,1038.1071,165.1906,1047.598,184.1359,1033.7121,185.9195" style="stroke: #A80036; stroke-width: 1.0;"/><!--link FileLayer to SerialLayer--><path d="M857.3596,414.6121 C840.75,434.7694 821.1038,458.612 806.7985,475.9727 " fill="none" id="FileLayer-SerialLayer" style="stroke: #A80036; stroke-width: 1.0;"/><polygon fill="none" points="852.0198,410.0848,870.1406,399.1013,862.8243,418.9878,852.0198,410.0848" style="stroke: #A80036; stroke-width: 1.0;"/><!--link ProtocolLayer to Stream--><path d="M847.4087,54.8671 C949.6589,64.3223 1275.6554,57.5597 1315,86 C1360.6427,118.9929 1374.763,188.9502 1379.1001,225.9283 " fill="none" id="ProtocolLayer-Stream" style="stroke: #A80036; stroke-width: 1.0;"/><polygon fill="none" points="846.3193,61.7844,827.3939,52.2539,848.1319,47.9022,846.3193,61.7844" style="stroke: #A80036; stroke-width: 1.0;"/><!--link Debugger to Stream--><path d="M1442.4673,165.1906 C1430.3985,181.8426 1414.3178,204.0298 1401.6314,221.5339 " fill="none" id="Debugger-Stream" style="stroke: #A80036; stroke-width: 1.0;"/><polygon fill="#A80036" points="1398.4837,225.877,1407.0041,220.9371,1401.4179,221.8285,1400.5265,216.2423,1398.4837,225.877" style="stroke: #A80036; stroke-width: 1.0;"/><!--link Stream to CompressLayer--><path d="M1377.915,274.1013 C1375.2921,294.5931 1371.5182,324.0764 1368.7268,345.8844 " fill="none" id="Stream-CompressLayer" style="stroke: #A80036; stroke-width: 1.0;"/><polygon fill="#A80036" points="1368.0755,350.9727,1373.1859,342.5534,1368.7104,346.0132,1365.2506,341.5376,1368.0755,350.9727" style="stroke: #A80036; stroke-width: 1.0;"/><!--link ProtocolLayer to Debugger--><path d="M847.5219,55.4997 C991.2889,74.7608 1277.8874,46.875 1386,86 C1404.2127,92.591 1421.7406,105.2387 1435.1622,116.7451 " fill="none" id="ProtocolLayer-Debugger" style="stroke: #A80036; stroke-width: 1.0;"/><polygon fill="none" points="846.0397,62.3521,827.385,52.3022,848.2353,48.5254,846.0397,62.3521" style="stroke: #A80036; stroke-width: 1.0;"/><!--link ProtocolLayer to SyncConnection--><path d="M847.2888,55.8427 C1097.2954,98.4163 1170.0601,45.7219 1414,86 C1457.348,93.1574 1504.8187,106.5153 1541.952,118.2742 " fill="none" id="ProtocolLayer-SyncConnection" style="stroke: #A80036; stroke-width: 1.0;"/><polygon fill="none" points="845.8553,62.6979,827.3821,52.318,848.2963,48.9123,845.8553,62.6979" style="stroke: #A80036; stroke-width: 1.0;"/><!--link PolledSocketLayer to ZmqLayer--><path d="M1178,419.1823 C1178,438.2919 1178,459.9075 1178,475.9727 " fill="none" id="PolledSocketLayer-ZmqLayer" style="stroke: #A80036; stroke-width: 1.0;"/><polygon fill="none" points="1171.0001,419.1013,1178,399.1013,1185.0001,419.1012,1171.0001,419.1013" style="stroke: #A80036; stroke-width: 1.0;"/><!--link ZmqLayer to DebugZmqLayer--><path d="M1185.6881,544.1055 C1188.1152,558.0291 1190.7061,572.8927 1192.7951,584.877 " fill="none" id="ZmqLayer-DebugZmqLayer" style="stroke: #A80036; stroke-width: 1.0;"/><polygon fill="none" points="1178.7552,545.0956,1182.2167,524.1906,1192.5473,542.6915,1178.7552,545.0956" style="stroke: #A80036; stroke-width: 1.0;"/><!--link ZmqLayer to SyncZmqLayer--><path d="M1129.9539,536.3682 C1108.8649,552.3314 1084.6816,570.6369 1065.8689,584.877 " fill="none" id="ZmqLayer-SyncZmqLayer" style="stroke: #A80036; stroke-width: 1.0;"/><polygon fill="none" points="1125.8702,530.6801,1146.0417,524.1906,1134.3198,541.8428,1125.8702,530.6801" style="stroke: #A80036; stroke-width: 1.0;"/><!--link FifoLoopback to FifoLoopback1--><path d="M1150.1488,165.1906 C1129.8679,182.1954 1102.7026,204.9724 1081.6311,222.6401 " fill="none" id="FifoLoopback-FifoLoopback1" style="stroke: #A80036; stroke-width: 1.0;"/><polygon fill="#A80036" points="1077.7706,225.877,1087.2372,223.1597,1081.6021,222.6645,1082.0972,217.0294,1077.7706,225.877" style="stroke: #A80036; stroke-width: 1.0;"/><!--
@startuml
abstract ProtocolLayer
ProtocolLayer <|- - AsciiEscapeLayer
ProtocolLayer <|- - TerminalLayer
AsciiEscapeLayer -[hidden]- -> TerminalLayer
ProtocolLayer <|- - SegmentationLayer
ProtocolLayer <|- - Crc8Layer
ProtocolLayer <|- - Crc16Layer
Crc8Layer -[hidden]- -> Crc16Layer
ProtocolLayer <|- - BufferLayer
ProtocolLayer <|- - PrintLayer

abstract ArqLayer
SegmentationLayer -[hidden]- -> ArqLayer
ProtocolLayer <|- - ArqLayer
ArqLayer <|- - DebugArqLayer

abstract PolledLayer
abstract PolledFileLayer
abstract PolledSocketLayer
ProtocolLayer <|- - PolledLayer
PolledLayer <|- - PolledFileLayer
PolledFileLayer <|- - FileLayer
FileLayer <|- - NamedPipeLayer
PolledFileLayer <|- - DoublePipeLayer
DoublePipeLayer <|- - XsimLayer
XsimLayer - -> NamedPipeLayer
PolledLayer <|- - PolledSocketLayer : Windows
PolledFileLayer <|- - PolledSocketLayer : POSIX
PolledFileLayer <|- - StdioLayer : Windows
FileLayer <|- - StdioLayer : POSIX
ProtocolLayer <|- - CompressLayer
PolledLayer <|- - FifoLoopback1
FileLayer <|- - SerialLayer

ProtocolLayer <|- - Stream
Debugger - -> Stream
Stream - -> CompressLayer
ProtocolLayer <|- - Debugger
ProtocolLayer <|- - SyncConnection

abstract ZmqLayer
PolledSocketLayer <|- - ZmqLayer
ZmqLayer <|- - DebugZmqLayer
ZmqLayer <|- - SyncZmqLayer

class Loopback
class Poller
FifoLoopback - -> FifoLoopback1

@enduml

PlantUML version 1.2017.15(Mon Jul 03 16:45:34 UTC 2017)
(GPL source distribution)
Java Runtime: OpenJDK Runtime Environment
JVM: OpenJDK 64-Bit Server VM
Java Version: 1.8.0_282-b08
Operating System: Linux
OS Version: 5.4.0-1039-azure
Default Encoding: UTF-8
Language: en
Country: null
--></g></svg>