<?xml version="1.0" encoding="UTF-8" standalone="no"?><svg xmlns="http://www.w3.org/2000/svg" xmlns:xlink="http://www.w3.org/1999/xlink" contentScriptType="application/ecmascript" contentStyleType="text/css" height="644px" preserveAspectRatio="none" style="width:1530px;height:644px;" version="1.1" viewBox="0 0 1530 644" width="1530px" zoomAndPan="magnify"><defs><filter height="300%" id="f1b1swsk25khbm" width="300%" x="-1" y="-1"><feGaussianBlur result="blurOut" stdDeviation="2.0"/><feColorMatrix in="blurOut" result="blurOut2" type="matrix" values="0 0 0 0 0 0 0 0 0 0 0 0 0 0 0 0 0 0 .4 0"/><feOffset dx="4.0" dy="4.0" in="blurOut2" result="blurOut3"/><feBlend in="SourceGraphic" in2="blurOut3" mode="normal"/></filter></defs><g><!--class ProtocolLayer--><rect fill="#FEFECE" filter="url(#f1b1swsk25khbm)" height="48" id="ProtocolLayer" style="stroke: #A80036; stroke-width: 1.5;" width="118" x="703.5" y="8"/><ellipse cx="718.5" cy="24" fill="#A9DCDF" rx="11" ry="11" style="stroke: #A80036; stroke-width: 1.0;"/><path d="M718.6094,19.3438 L717.4531,24.4219 L719.7813,24.4219 L718.6094,19.3438 Z M717.125,17.1094 L720.1094,17.1094 L723.4688,29.5 L721.0156,29.5 L720.25,26.4375 L716.9688,26.4375 L716.2188,29.5 L713.7813,29.5 L717.125,17.1094 Z "/><text fill="#000000" font-family="sans-serif" font-size="12" font-style="italic" lengthAdjust="spacingAndGlyphs" textLength="86" x="732.5" y="28.1543">ProtocolLayer</text><line style="stroke: #A80036; stroke-width: 1.5;" x1="704.5" x2="820.5" y1="40" y2="40"/><line style="stroke: #A80036; stroke-width: 1.5;" x1="704.5" x2="820.5" y1="48" y2="48"/><!--class AsciiEscapeLayer--><rect fill="#FEFECE" filter="url(#f1b1swsk25khbm)" height="48" id="AsciiEscapeLayer" style="stroke: #A80036; stroke-width: 1.5;" width="139" x="6" y="117"/><ellipse cx="21" cy="133" fill="#ADD1B2" rx="11" ry="11" style="stroke: #A80036; stroke-width: 1.0;"/><path d="M23.9688,138.6406 Q23.3906,138.9375 22.75,139.0781 Q22.1094,139.2344 21.4063,139.2344 Q18.9063,139.2344 17.5781,137.5938 Q16.2656,135.9375 16.2656,132.8125 Q16.2656,129.6875 17.5781,128.0313 Q18.9063,126.375 21.4063,126.375 Q22.1094,126.375 22.75,126.5313 Q23.4063,126.6875 23.9688,126.9844 L23.9688,129.7031 Q23.3438,129.125 22.75,128.8594 Q22.1563,128.5781 21.5313,128.5781 Q20.1875,128.5781 19.5,129.6563 Q18.8125,130.7188 18.8125,132.8125 Q18.8125,134.9063 19.5,135.9844 Q20.1875,137.0469 21.5313,137.0469 Q22.1563,137.0469 22.75,136.7813 Q23.3438,136.5 23.9688,135.9219 L23.9688,138.6406 Z "/><text fill="#000000" font-family="sans-serif" font-size="12" lengthAdjust="spacingAndGlyphs" textLength="107" x="35" y="137.1543">AsciiEscapeLayer</text><line style="stroke: #A80036; stroke-width: 1.5;" x1="7" x2="144" y1="149" y2="149"/><line style="stroke: #A80036; stroke-width: 1.5;" x1="7" x2="144" y1="157" y2="157"/><!--class TerminalLayer--><rect fill="#FEFECE" filter="url(#f1b1swsk25khbm)" height="48" id="TerminalLayer" style="stroke: #A80036; stroke-width: 1.5;" width="118" x="91.5" y="351"/><ellipse cx="106.5" cy="367" fill="#ADD1B2" rx="11" ry="11" style="stroke: #A80036; stroke-width: 1.0;"/><path d="M109.4688,372.6406 Q108.8906,372.9375 108.25,373.0781 Q107.6094,373.2344 106.9063,373.2344 Q104.4063,373.2344 103.0781,371.5938 Q101.7656,369.9375 101.7656,366.8125 Q101.7656,363.6875 103.0781,362.0313 Q104.4063,360.375 106.9063,360.375 Q107.6094,360.375 108.25,360.5313 Q108.9063,360.6875 109.4688,360.9844 L109.4688,363.7031 Q108.8438,363.125 108.25,362.8594 Q107.6563,362.5781 107.0313,362.5781 Q105.6875,362.5781 105,363.6563 Q104.3125,364.7188 104.3125,366.8125 Q104.3125,368.9063 105,369.9844 Q105.6875,371.0469 107.0313,371.0469 Q107.6563,371.0469 108.25,370.7813 Q108.8438,370.5 109.4688,369.9219 L109.4688,372.6406 Z "/><text fill="#000000" font-family="sans-serif" font-size="12" lengthAdjust="spacingAndGlyphs" textLength="86" x="120.5" y="371.1543">TerminalLayer</text><line style="stroke: #A80036; stroke-width: 1.5;" x1="92.5" x2="208.5" y1="383" y2="383"/><line style="stroke: #A80036; stroke-width: 1.5;" x1="92.5" x2="208.5" y1="391" y2="391"/><!--class SegmentationLayer--><rect fill="#FEFECE" filter="url(#f1b1swsk25khbm)" height="48" id="SegmentationLayer" style="stroke: #A80036; stroke-width: 1.5;" width="153" x="252" y="117"/><ellipse cx="267" cy="133" fill="#ADD1B2" rx="11" ry="11" style="stroke: #A80036; stroke-width: 1.0;"/><path d="M269.9688,138.6406 Q269.3906,138.9375 268.75,139.0781 Q268.1094,139.2344 267.4063,139.2344 Q264.9063,139.2344 263.5781,137.5938 Q262.2656,135.9375 262.2656,132.8125 Q262.2656,129.6875 263.5781,128.0313 Q264.9063,126.375 267.4063,126.375 Q268.1094,126.375 268.75,126.5313 Q269.4063,126.6875 269.9688,126.9844 L269.9688,129.7031 Q269.3438,129.125 268.75,128.8594 Q268.1563,128.5781 267.5313,128.5781 Q266.1875,128.5781 265.5,129.6563 Q264.8125,130.7188 264.8125,132.8125 Q264.8125,134.9063 265.5,135.9844 Q266.1875,137.0469 267.5313,137.0469 Q268.1563,137.0469 268.75,136.7813 Q269.3438,136.5 269.9688,135.9219 L269.9688,138.6406 Z "/><text fill="#000000" font-family="sans-serif" font-size="12" lengthAdjust="spacingAndGlyphs" textLength="121" x="281" y="137.1543">SegmentationLayer</text><line style="stroke: #A80036; stroke-width: 1.5;" x1="253" x2="404" y1="149" y2="149"/><line style="stroke: #A80036; stroke-width: 1.5;" x1="253" x2="404" y1="157" y2="157"/><!--class Crc8Layer--><rect fill="#FEFECE" filter="url(#f1b1swsk25khbm)" height="48" id="Crc8Layer" style="stroke: #A80036; stroke-width: 1.5;" width="93" x="512" y="117"/><ellipse cx="527" cy="133" fill="#ADD1B2" rx="11" ry="11" style="stroke: #A80036; stroke-width: 1.0;"/><path d="M529.9688,138.6406 Q529.3906,138.9375 528.75,139.0781 Q528.1094,139.2344 527.4063,139.2344 Q524.9063,139.2344 523.5781,137.5938 Q522.2656,135.9375 522.2656,132.8125 Q522.2656,129.6875 523.5781,128.0313 Q524.9063,126.375 527.4063,126.375 Q528.1094,126.375 528.75,126.5313 Q529.4063,126.6875 529.9688,126.9844 L529.9688,129.7031 Q529.3438,129.125 528.75,128.8594 Q528.1563,128.5781 527.5313,128.5781 Q526.1875,128.5781 525.5,129.6563 Q524.8125,130.7188 524.8125,132.8125 Q524.8125,134.9063 525.5,135.9844 Q526.1875,137.0469 527.5313,137.0469 Q528.1563,137.0469 528.75,136.7813 Q529.3438,136.5 529.9688,135.9219 L529.9688,138.6406 Z "/><text fill="#000000" font-family="sans-serif" font-size="12" lengthAdjust="spacingAndGlyphs" textLength="61" x="541" y="137.1543">Crc8Layer</text><line style="stroke: #A80036; stroke-width: 1.5;" x1="513" x2="604" y1="149" y2="149"/><line style="stroke: #A80036; stroke-width: 1.5;" x1="513" x2="604" y1="157" y2="157"/><!--class Crc16Layer--><rect fill="#FEFECE" filter="url(#f1b1swsk25khbm)" height="48" id="Crc16Layer" style="stroke: #A80036; stroke-width: 1.5;" width="101" x="521" y="351"/><ellipse cx="536" cy="367" fill="#ADD1B2" rx="11" ry="11" style="stroke: #A80036; stroke-width: 1.0;"/><path d="M538.9688,372.6406 Q538.3906,372.9375 537.75,373.0781 Q537.1094,373.2344 536.4063,373.2344 Q533.9063,373.2344 532.5781,371.5938 Q531.2656,369.9375 531.2656,366.8125 Q531.2656,363.6875 532.5781,362.0313 Q533.9063,360.375 536.4063,360.375 Q537.1094,360.375 537.75,360.5313 Q538.4063,360.6875 538.9688,360.9844 L538.9688,363.7031 Q538.3438,363.125 537.75,362.8594 Q537.1563,362.5781 536.5313,362.5781 Q535.1875,362.5781 534.5,363.6563 Q533.8125,364.7188 533.8125,366.8125 Q533.8125,368.9063 534.5,369.9844 Q535.1875,371.0469 536.5313,371.0469 Q537.1563,371.0469 537.75,370.7813 Q538.3438,370.5 538.9688,369.9219 L538.9688,372.6406 Z "/><text fill="#000000" font-family="sans-serif" font-size="12" lengthAdjust="spacingAndGlyphs" textLength="69" x="550" y="371.1543">Crc16Layer</text><line style="stroke: #A80036; stroke-width: 1.5;" x1="522" x2="621" y1="383" y2="383"/><line style="stroke: #A80036; stroke-width: 1.5;" x1="522" x2="621" y1="391" y2="391"/><!--class BufferLayer--><rect fill="#FEFECE" filter="url(#f1b1swsk25khbm)" height="48" id="BufferLayer" style="stroke: #A80036; stroke-width: 1.5;" width="102" x="711.5" y="117"/><ellipse cx="726.5" cy="133" fill="#ADD1B2" rx="11" ry="11" style="stroke: #A80036; stroke-width: 1.0;"/><path d="M729.4688,138.6406 Q728.8906,138.9375 728.25,139.0781 Q727.6094,139.2344 726.9063,139.2344 Q724.4063,139.2344 723.0781,137.5938 Q721.7656,135.9375 721.7656,132.8125 Q721.7656,129.6875 723.0781,128.0313 Q724.4063,126.375 726.9063,126.375 Q727.6094,126.375 728.25,126.5313 Q728.9063,126.6875 729.4688,126.9844 L729.4688,129.7031 Q728.8438,129.125 728.25,128.8594 Q727.6563,128.5781 727.0313,128.5781 Q725.6875,128.5781 725,129.6563 Q724.3125,130.7188 724.3125,132.8125 Q724.3125,134.9063 725,135.9844 Q725.6875,137.0469 727.0313,137.0469 Q727.6563,137.0469 728.25,136.7813 Q728.8438,136.5 729.4688,135.9219 L729.4688,138.6406 Z "/><text fill="#000000" font-family="sans-serif" font-size="12" lengthAdjust="spacingAndGlyphs" textLength="70" x="740.5" y="137.1543">BufferLayer</text><line style="stroke: #A80036; stroke-width: 1.5;" x1="712.5" x2="812.5" y1="149" y2="149"/><line style="stroke: #A80036; stroke-width: 1.5;" x1="712.5" x2="812.5" y1="157" y2="157"/><!--class PrintLayer--><rect fill="#FEFECE" filter="url(#f1b1swsk25khbm)" height="48" id="PrintLayer" style="stroke: #A80036; stroke-width: 1.5;" width="94" x="848.5" y="117"/><ellipse cx="863.5" cy="133" fill="#ADD1B2" rx="11" ry="11" style="stroke: #A80036; stroke-width: 1.0;"/><path d="M866.4688,138.6406 Q865.8906,138.9375 865.25,139.0781 Q864.6094,139.2344 863.9063,139.2344 Q861.4063,139.2344 860.0781,137.5938 Q858.7656,135.9375 858.7656,132.8125 Q858.7656,129.6875 860.0781,128.0313 Q861.4063,126.375 863.9063,126.375 Q864.6094,126.375 865.25,126.5313 Q865.9063,126.6875 866.4688,126.9844 L866.4688,129.7031 Q865.8438,129.125 865.25,128.8594 Q864.6563,128.5781 864.0313,128.5781 Q862.6875,128.5781 862,129.6563 Q861.3125,130.7188 861.3125,132.8125 Q861.3125,134.9063 862,135.9844 Q862.6875,137.0469 864.0313,137.0469 Q864.6563,137.0469 865.25,136.7813 Q865.8438,136.5 866.4688,135.9219 L866.4688,138.6406 Z "/><text fill="#000000" font-family="sans-serif" font-size="12" lengthAdjust="spacingAndGlyphs" textLength="62" x="877.5" y="137.1543">PrintLayer</text><line style="stroke: #A80036; stroke-width: 1.5;" x1="849.5" x2="941.5" y1="149" y2="149"/><line style="stroke: #A80036; stroke-width: 1.5;" x1="849.5" x2="941.5" y1="157" y2="157"/><!--class ArqLayer--><rect fill="#FEFECE" filter="url(#f1b1swsk25khbm)" height="48" id="ArqLayer" style="stroke: #A80036; stroke-width: 1.5;" width="88" x="334.5" y="351"/><ellipse cx="349.5" cy="367" fill="#A9DCDF" rx="11" ry="11" style="stroke: #A80036; stroke-width: 1.0;"/><path d="M349.6094,362.3438 L348.4531,367.4219 L350.7813,367.4219 L349.6094,362.3438 Z M348.125,360.1094 L351.1094,360.1094 L354.4688,372.5 L352.0156,372.5 L351.25,369.4375 L347.9688,369.4375 L347.2188,372.5 L344.7813,372.5 L348.125,360.1094 Z "/><text fill="#000000" font-family="sans-serif" font-size="12" font-style="italic" lengthAdjust="spacingAndGlyphs" textLength="56" x="363.5" y="371.1543">ArqLayer</text><line style="stroke: #A80036; stroke-width: 1.5;" x1="335.5" x2="421.5" y1="383" y2="383"/><line style="stroke: #A80036; stroke-width: 1.5;" x1="335.5" x2="421.5" y1="391" y2="391"/><!--class DebugArqLayer--><rect fill="#FEFECE" filter="url(#f1b1swsk25khbm)" height="48" id="DebugArqLayer" style="stroke: #A80036; stroke-width: 1.5;" width="127" x="315" y="476"/><ellipse cx="330" cy="492" fill="#ADD1B2" rx="11" ry="11" style="stroke: #A80036; stroke-width: 1.0;"/><path d="M332.9688,497.6406 Q332.3906,497.9375 331.75,498.0781 Q331.1094,498.2344 330.4063,498.2344 Q327.9063,498.2344 326.5781,496.5938 Q325.2656,494.9375 325.2656,491.8125 Q325.2656,488.6875 326.5781,487.0313 Q327.9063,485.375 330.4063,485.375 Q331.1094,485.375 331.75,485.5313 Q332.4063,485.6875 332.9688,485.9844 L332.9688,488.7031 Q332.3438,488.125 331.75,487.8594 Q331.1563,487.5781 330.5313,487.5781 Q329.1875,487.5781 328.5,488.6563 Q327.8125,489.7188 327.8125,491.8125 Q327.8125,493.9063 328.5,494.9844 Q329.1875,496.0469 330.5313,496.0469 Q331.1563,496.0469 331.75,495.7813 Q332.3438,495.5 332.9688,494.9219 L332.9688,497.6406 Z "/><text fill="#000000" font-family="sans-serif" font-size="12" lengthAdjust="spacingAndGlyphs" textLength="95" x="344" y="496.1543">DebugArqLayer</text><line style="stroke: #A80036; stroke-width: 1.5;" x1="316" x2="441" y1="508" y2="508"/><line style="stroke: #A80036; stroke-width: 1.5;" x1="316" x2="441" y1="516" y2="516"/><!--class PolledLayer--><rect fill="#FEFECE" filter="url(#f1b1swsk25khbm)" height="48" id="PolledLayer" style="stroke: #A80036; stroke-width: 1.5;" width="104" x="977.5" y="117"/><ellipse cx="992.5" cy="133" fill="#A9DCDF" rx="11" ry="11" style="stroke: #A80036; stroke-width: 1.0;"/><path d="M992.6094,128.3438 L991.4531,133.4219 L993.7813,133.4219 L992.6094,128.3438 Z M991.125,126.1094 L994.1094,126.1094 L997.4688,138.5 L995.0156,138.5 L994.25,135.4375 L990.9688,135.4375 L990.2188,138.5 L987.7813,138.5 L991.125,126.1094 Z "/><text fill="#000000" font-family="sans-serif" font-size="12" font-style="italic" lengthAdjust="spacingAndGlyphs" textLength="72" x="1006.5" y="137.1543">PolledLayer</text><line style="stroke: #A80036; stroke-width: 1.5;" x1="978.5" x2="1080.5" y1="149" y2="149"/><line style="stroke: #A80036; stroke-width: 1.5;" x1="978.5" x2="1080.5" y1="157" y2="157"/><!--class PolledFileLayer--><rect fill="#FEFECE" filter="url(#f1b1swsk25khbm)" height="48" id="PolledFileLayer" style="stroke: #A80036; stroke-width: 1.5;" width="125" x="880" y="226"/><ellipse cx="895" cy="242" fill="#A9DCDF" rx="11" ry="11" style="stroke: #A80036; stroke-width: 1.0;"/><path d="M895.1094,237.3438 L893.9531,242.4219 L896.2813,242.4219 L895.1094,237.3438 Z M893.625,235.1094 L896.6094,235.1094 L899.9688,247.5 L897.5156,247.5 L896.75,244.4375 L893.4688,244.4375 L892.7188,247.5 L890.2813,247.5 L893.625,235.1094 Z "/><text fill="#000000" font-family="sans-serif" font-size="12" font-style="italic" lengthAdjust="spacingAndGlyphs" textLength="93" x="909" y="246.1543">PolledFileLayer</text><line style="stroke: #A80036; stroke-width: 1.5;" x1="881" x2="1004" y1="258" y2="258"/><line style="stroke: #A80036; stroke-width: 1.5;" x1="881" x2="1004" y1="266" y2="266"/><!--class PolledSocketLayer--><rect fill="#FEFECE" filter="url(#f1b1swsk25khbm)" height="48" id="PolledSocketLayer" style="stroke: #A80036; stroke-width: 1.5;" width="147" x="670" y="351"/><ellipse cx="685" cy="367" fill="#A9DCDF" rx="11" ry="11" style="stroke: #A80036; stroke-width: 1.0;"/><path d="M685.1094,362.3438 L683.9531,367.4219 L686.2813,367.4219 L685.1094,362.3438 Z M683.625,360.1094 L686.6094,360.1094 L689.9688,372.5 L687.5156,372.5 L686.75,369.4375 L683.4688,369.4375 L682.7188,372.5 L680.2813,372.5 L683.625,360.1094 Z "/><text fill="#000000" font-family="sans-serif" font-size="12" font-style="italic" lengthAdjust="spacingAndGlyphs" textLength="115" x="699" y="371.1543">PolledSocketLayer</text><line style="stroke: #A80036; stroke-width: 1.5;" x1="671" x2="816" y1="383" y2="383"/><line style="stroke: #A80036; stroke-width: 1.5;" x1="671" x2="816" y1="391" y2="391"/><!--class FileLayer--><rect fill="#FEFECE" filter="url(#f1b1swsk25khbm)" height="48" id="FileLayer" style="stroke: #A80036; stroke-width: 1.5;" width="86" x="978.5" y="351"/><ellipse cx="993.5" cy="367" fill="#ADD1B2" rx="11" ry="11" style="stroke: #A80036; stroke-width: 1.0;"/><path d="M996.4688,372.6406 Q995.8906,372.9375 995.25,373.0781 Q994.6094,373.2344 993.9063,373.2344 Q991.4063,373.2344 990.0781,371.5938 Q988.7656,369.9375 988.7656,366.8125 Q988.7656,363.6875 990.0781,362.0313 Q991.4063,360.375 993.9063,360.375 Q994.6094,360.375 995.25,360.5313 Q995.9063,360.6875 996.4688,360.9844 L996.4688,363.7031 Q995.8438,363.125 995.25,362.8594 Q994.6563,362.5781 994.0313,362.5781 Q992.6875,362.5781 992,363.6563 Q991.3125,364.7188 991.3125,366.8125 Q991.3125,368.9063 992,369.9844 Q992.6875,371.0469 994.0313,371.0469 Q994.6563,371.0469 995.25,370.7813 Q995.8438,370.5 996.4688,369.9219 L996.4688,372.6406 Z "/><text fill="#000000" font-family="sans-serif" font-size="12" lengthAdjust="spacingAndGlyphs" textLength="54" x="1007.5" y="371.1543">FileLayer</text><line style="stroke: #A80036; stroke-width: 1.5;" x1="979.5" x2="1063.5" y1="383" y2="383"/><line style="stroke: #A80036; stroke-width: 1.5;" x1="979.5" x2="1063.5" y1="391" y2="391"/><!--class NamedPipeLayer--><rect fill="#FEFECE" filter="url(#f1b1swsk25khbm)" height="48" id="NamedPipeLayer" style="stroke: #A80036; stroke-width: 1.5;" width="136" x="999.5" y="585"/><ellipse cx="1014.5" cy="601" fill="#ADD1B2" rx="11" ry="11" style="stroke: #A80036; stroke-width: 1.0;"/><path d="M1017.4688,606.6406 Q1016.8906,606.9375 1016.25,607.0781 Q1015.6094,607.2344 1014.9063,607.2344 Q1012.4063,607.2344 1011.0781,605.5938 Q1009.7656,603.9375 1009.7656,600.8125 Q1009.7656,597.6875 1011.0781,596.0313 Q1012.4063,594.375 1014.9063,594.375 Q1015.6094,594.375 1016.25,594.5313 Q1016.9063,594.6875 1017.4688,594.9844 L1017.4688,597.7031 Q1016.8438,597.125 1016.25,596.8594 Q1015.6563,596.5781 1015.0313,596.5781 Q1013.6875,596.5781 1013,597.6563 Q1012.3125,598.7188 1012.3125,600.8125 Q1012.3125,602.9063 1013,603.9844 Q1013.6875,605.0469 1015.0313,605.0469 Q1015.6563,605.0469 1016.25,604.7813 Q1016.8438,604.5 1017.4688,603.9219 L1017.4688,606.6406 Z "/><text fill="#000000" font-family="sans-serif" font-size="12" lengthAdjust="spacingAndGlyphs" textLength="104" x="1028.5" y="605.1543">NamedPipeLayer</text><line style="stroke: #A80036; stroke-width: 1.5;" x1="1000.5" x2="1134.5" y1="617" y2="617"/><line style="stroke: #A80036; stroke-width: 1.5;" x1="1000.5" x2="1134.5" y1="625" y2="625"/><!--class DoublePipeLayer--><rect fill="#FEFECE" filter="url(#f1b1swsk25khbm)" height="48" id="DoublePipeLayer" style="stroke: #A80036; stroke-width: 1.5;" width="136" x="1099.5" y="351"/><ellipse cx="1114.5" cy="367" fill="#ADD1B2" rx="11" ry="11" style="stroke: #A80036; stroke-width: 1.0;"/><path d="M1117.4688,372.6406 Q1116.8906,372.9375 1116.25,373.0781 Q1115.6094,373.2344 1114.9063,373.2344 Q1112.4063,373.2344 1111.0781,371.5938 Q1109.7656,369.9375 1109.7656,366.8125 Q1109.7656,363.6875 1111.0781,362.0313 Q1112.4063,360.375 1114.9063,360.375 Q1115.6094,360.375 1116.25,360.5313 Q1116.9063,360.6875 1117.4688,360.9844 L1117.4688,363.7031 Q1116.8438,363.125 1116.25,362.8594 Q1115.6563,362.5781 1115.0313,362.5781 Q1113.6875,362.5781 1113,363.6563 Q1112.3125,364.7188 1112.3125,366.8125 Q1112.3125,368.9063 1113,369.9844 Q1113.6875,371.0469 1115.0313,371.0469 Q1115.6563,371.0469 1116.25,370.7813 Q1116.8438,370.5 1117.4688,369.9219 L1117.4688,372.6406 Z "/><text fill="#000000" font-family="sans-serif" font-size="12" lengthAdjust="spacingAndGlyphs" textLength="104" x="1128.5" y="371.1543">DoublePipeLayer</text><line style="stroke: #A80036; stroke-width: 1.5;" x1="1100.5" x2="1234.5" y1="383" y2="383"/><line style="stroke: #A80036; stroke-width: 1.5;" x1="1100.5" x2="1234.5" y1="391" y2="391"/><!--class XsimLayer--><rect fill="#FEFECE" filter="url(#f1b1swsk25khbm)" height="48" id="XsimLayer" style="stroke: #A80036; stroke-width: 1.5;" width="93" x="1109" y="476"/><ellipse cx="1124" cy="492" fill="#ADD1B2" rx="11" ry="11" style="stroke: #A80036; stroke-width: 1.0;"/><path d="M1126.9688,497.6406 Q1126.3906,497.9375 1125.75,498.0781 Q1125.1094,498.2344 1124.4063,498.2344 Q1121.9063,498.2344 1120.5781,496.5938 Q1119.2656,494.9375 1119.2656,491.8125 Q1119.2656,488.6875 1120.5781,487.0313 Q1121.9063,485.375 1124.4063,485.375 Q1125.1094,485.375 1125.75,485.5313 Q1126.4063,485.6875 1126.9688,485.9844 L1126.9688,488.7031 Q1126.3438,488.125 1125.75,487.8594 Q1125.1563,487.5781 1124.5313,487.5781 Q1123.1875,487.5781 1122.5,488.6563 Q1121.8125,489.7188 1121.8125,491.8125 Q1121.8125,493.9063 1122.5,494.9844 Q1123.1875,496.0469 1124.5313,496.0469 Q1125.1563,496.0469 1125.75,495.7813 Q1126.3438,495.5 1126.9688,494.9219 L1126.9688,497.6406 Z "/><text fill="#000000" font-family="sans-serif" font-size="12" lengthAdjust="spacingAndGlyphs" textLength="61" x="1138" y="496.1543">XsimLayer</text><line style="stroke: #A80036; stroke-width: 1.5;" x1="1110" x2="1201" y1="508" y2="508"/><line style="stroke: #A80036; stroke-width: 1.5;" x1="1110" x2="1201" y1="516" y2="516"/><!--class StdioLayer--><rect fill="#FEFECE" filter="url(#f1b1swsk25khbm)" height="48" id="StdioLayer" style="stroke: #A80036; stroke-width: 1.5;" width="97" x="866" y="476"/><ellipse cx="881" cy="492" fill="#ADD1B2" rx="11" ry="11" style="stroke: #A80036; stroke-width: 1.0;"/><path d="M883.9688,497.6406 Q883.3906,497.9375 882.75,498.0781 Q882.1094,498.2344 881.4063,498.2344 Q878.9063,498.2344 877.5781,496.5938 Q876.2656,494.9375 876.2656,491.8125 Q876.2656,488.6875 877.5781,487.0313 Q878.9063,485.375 881.4063,485.375 Q882.1094,485.375 882.75,485.5313 Q883.4063,485.6875 883.9688,485.9844 L883.9688,488.7031 Q883.3438,488.125 882.75,487.8594 Q882.1563,487.5781 881.5313,487.5781 Q880.1875,487.5781 879.5,488.6563 Q878.8125,489.7188 878.8125,491.8125 Q878.8125,493.9063 879.5,494.9844 Q880.1875,496.0469 881.5313,496.0469 Q882.1563,496.0469 882.75,495.7813 Q883.3438,495.5 883.9688,494.9219 L883.9688,497.6406 Z "/><text fill="#000000" font-family="sans-serif" font-size="12" lengthAdjust="spacingAndGlyphs" textLength="65" x="895" y="496.1543">StdioLayer</text><line style="stroke: #A80036; stroke-width: 1.5;" x1="867" x2="962" y1="508" y2="508"/><line style="stroke: #A80036; stroke-width: 1.5;" x1="867" x2="962" y1="516" y2="516"/><!--class CompressLayer--><rect fill="#FEFECE" filter="url(#f1b1swsk25khbm)" height="48" id="CompressLayer" style="stroke: #A80036; stroke-width: 1.5;" width="127" x="1271" y="351"/><ellipse cx="1286" cy="367" fill="#ADD1B2" rx="11" ry="11" style="stroke: #A80036; stroke-width: 1.0;"/><path d="M1288.9688,372.6406 Q1288.3906,372.9375 1287.75,373.0781 Q1287.1094,373.2344 1286.4063,373.2344 Q1283.9063,373.2344 1282.5781,371.5938 Q1281.2656,369.9375 1281.2656,366.8125 Q1281.2656,363.6875 1282.5781,362.0313 Q1283.9063,360.375 1286.4063,360.375 Q1287.1094,360.375 1287.75,360.5313 Q1288.4063,360.6875 1288.9688,360.9844 L1288.9688,363.7031 Q1288.3438,363.125 1287.75,362.8594 Q1287.1563,362.5781 1286.5313,362.5781 Q1285.1875,362.5781 1284.5,363.6563 Q1283.8125,364.7188 1283.8125,366.8125 Q1283.8125,368.9063 1284.5,369.9844 Q1285.1875,371.0469 1286.5313,371.0469 Q1287.1563,371.0469 1287.75,370.7813 Q1288.3438,370.5 1288.9688,369.9219 L1288.9688,372.6406 Z "/><text fill="#000000" font-family="sans-serif" font-size="12" lengthAdjust="spacingAndGlyphs" textLength="95" x="1300" y="371.1543">CompressLayer</text><line style="stroke: #A80036; stroke-width: 1.5;" x1="1272" x2="1397" y1="383" y2="383"/><line style="stroke: #A80036; stroke-width: 1.5;" x1="1272" x2="1397" y1="391" y2="391"/><!--class FifoLoopback--><rect fill="#FEFECE" filter="url(#f1b1swsk25khbm)" height="48" id="FifoLoopback" style="stroke: #A80036; stroke-width: 1.5;" width="114" x="1040.5" y="226"/><ellipse cx="1055.5" cy="242" fill="#ADD1B2" rx="11" ry="11" style="stroke: #A80036; stroke-width: 1.0;"/><path d="M1058.4688,247.6406 Q1057.8906,247.9375 1057.25,248.0781 Q1056.6094,248.2344 1055.9063,248.2344 Q1053.4063,248.2344 1052.0781,246.5938 Q1050.7656,244.9375 1050.7656,241.8125 Q1050.7656,238.6875 1052.0781,237.0313 Q1053.4063,235.375 1055.9063,235.375 Q1056.6094,235.375 1057.25,235.5313 Q1057.9063,235.6875 1058.4688,235.9844 L1058.4688,238.7031 Q1057.8438,238.125 1057.25,237.8594 Q1056.6563,237.5781 1056.0313,237.5781 Q1054.6875,237.5781 1054,238.6563 Q1053.3125,239.7188 1053.3125,241.8125 Q1053.3125,243.9063 1054,244.9844 Q1054.6875,246.0469 1056.0313,246.0469 Q1056.6563,246.0469 1057.25,245.7813 Q1057.8438,245.5 1058.4688,244.9219 L1058.4688,247.6406 Z "/><text fill="#000000" font-family="sans-serif" font-size="12" lengthAdjust="spacingAndGlyphs" textLength="82" x="1069.5" y="246.1543">FifoLoopback</text><line style="stroke: #A80036; stroke-width: 1.5;" x1="1041.5" x2="1153.5" y1="258" y2="258"/><line style="stroke: #A80036; stroke-width: 1.5;" x1="1041.5" x2="1153.5" y1="266" y2="266"/><!--class Stream--><rect fill="#FEFECE" filter="url(#f1b1swsk25khbm)" height="48" id="Stream" style="stroke: #A80036; stroke-width: 1.5;" width="77" x="1204" y="226"/><ellipse cx="1219" cy="242" fill="#ADD1B2" rx="11" ry="11" style="stroke: #A80036; stroke-width: 1.0;"/><path d="M1221.9688,247.6406 Q1221.3906,247.9375 1220.75,248.0781 Q1220.1094,248.2344 1219.4063,248.2344 Q1216.9063,248.2344 1215.5781,246.5938 Q1214.2656,244.9375 1214.2656,241.8125 Q1214.2656,238.6875 1215.5781,237.0313 Q1216.9063,235.375 1219.4063,235.375 Q1220.1094,235.375 1220.75,235.5313 Q1221.4063,235.6875 1221.9688,235.9844 L1221.9688,238.7031 Q1221.3438,238.125 1220.75,237.8594 Q1220.1563,237.5781 1219.5313,237.5781 Q1218.1875,237.5781 1217.5,238.6563 Q1216.8125,239.7188 1216.8125,241.8125 Q1216.8125,243.9063 1217.5,244.9844 Q1218.1875,246.0469 1219.5313,246.0469 Q1220.1563,246.0469 1220.75,245.7813 Q1221.3438,245.5 1221.9688,244.9219 L1221.9688,247.6406 Z "/><text fill="#000000" font-family="sans-serif" font-size="12" lengthAdjust="spacingAndGlyphs" textLength="45" x="1233" y="246.1543">Stream</text><line style="stroke: #A80036; stroke-width: 1.5;" x1="1205" x2="1280" y1="258" y2="258"/><line style="stroke: #A80036; stroke-width: 1.5;" x1="1205" x2="1280" y1="266" y2="266"/><!--class Debugger--><rect fill="#FEFECE" filter="url(#f1b1swsk25khbm)" height="48" id="Debugger" style="stroke: #A80036; stroke-width: 1.5;" width="94" x="1116.5" y="117"/><ellipse cx="1131.5" cy="133" fill="#ADD1B2" rx="11" ry="11" style="stroke: #A80036; stroke-width: 1.0;"/><path d="M1134.4688,138.6406 Q1133.8906,138.9375 1133.25,139.0781 Q1132.6094,139.2344 1131.9063,139.2344 Q1129.4063,139.2344 1128.0781,137.5938 Q1126.7656,135.9375 1126.7656,132.8125 Q1126.7656,129.6875 1128.0781,128.0313 Q1129.4063,126.375 1131.9063,126.375 Q1132.6094,126.375 1133.25,126.5313 Q1133.9063,126.6875 1134.4688,126.9844 L1134.4688,129.7031 Q1133.8438,129.125 1133.25,128.8594 Q1132.6563,128.5781 1132.0313,128.5781 Q1130.6875,128.5781 1130,129.6563 Q1129.3125,130.7188 1129.3125,132.8125 Q1129.3125,134.9063 1130,135.9844 Q1130.6875,137.0469 1132.0313,137.0469 Q1132.6563,137.0469 1133.25,136.7813 Q1133.8438,136.5 1134.4688,135.9219 L1134.4688,138.6406 Z "/><text fill="#000000" font-family="sans-serif" font-size="12" lengthAdjust="spacingAndGlyphs" textLength="62" x="1145.5" y="137.1543">Debugger</text><line style="stroke: #A80036; stroke-width: 1.5;" x1="1117.5" x2="1209.5" y1="149" y2="149"/><line style="stroke: #A80036; stroke-width: 1.5;" x1="1117.5" x2="1209.5" y1="157" y2="157"/><!--class SyncConnection--><rect fill="#FEFECE" filter="url(#f1b1swsk25khbm)" height="48" id="SyncConnection" style="stroke: #A80036; stroke-width: 1.5;" width="132" x="1387.5" y="117"/><ellipse cx="1402.5" cy="133" fill="#ADD1B2" rx="11" ry="11" style="stroke: #A80036; stroke-width: 1.0;"/><path d="M1405.4688,138.6406 Q1404.8906,138.9375 1404.25,139.0781 Q1403.6094,139.2344 1402.9063,139.2344 Q1400.4063,139.2344 1399.0781,137.5938 Q1397.7656,135.9375 1397.7656,132.8125 Q1397.7656,129.6875 1399.0781,128.0313 Q1400.4063,126.375 1402.9063,126.375 Q1403.6094,126.375 1404.25,126.5313 Q1404.9063,126.6875 1405.4688,126.9844 L1405.4688,129.7031 Q1404.8438,129.125 1404.25,128.8594 Q1403.6563,128.5781 1403.0313,128.5781 Q1401.6875,128.5781 1401,129.6563 Q1400.3125,130.7188 1400.3125,132.8125 Q1400.3125,134.9063 1401,135.9844 Q1401.6875,137.0469 1403.0313,137.0469 Q1403.6563,137.0469 1404.25,136.7813 Q1404.8438,136.5 1405.4688,135.9219 L1405.4688,138.6406 Z "/><text fill="#000000" font-family="sans-serif" font-size="12" lengthAdjust="spacingAndGlyphs" textLength="100" x="1416.5" y="137.1543">SyncConnection</text><line style="stroke: #A80036; stroke-width: 1.5;" x1="1388.5" x2="1518.5" y1="149" y2="149"/><line style="stroke: #A80036; stroke-width: 1.5;" x1="1388.5" x2="1518.5" y1="157" y2="157"/><!--class ZmqLayer--><rect fill="#FEFECE" filter="url(#f1b1swsk25khbm)" height="48" id="ZmqLayer" style="stroke: #A80036; stroke-width: 1.5;" width="94" x="696.5" y="476"/><ellipse cx="711.5" cy="492" fill="#A9DCDF" rx="11" ry="11" style="stroke: #A80036; stroke-width: 1.0;"/><path d="M711.6094,487.3438 L710.4531,492.4219 L712.7813,492.4219 L711.6094,487.3438 Z M710.125,485.1094 L713.1094,485.1094 L716.4688,497.5 L714.0156,497.5 L713.25,494.4375 L709.9688,494.4375 L709.2188,497.5 L706.7813,497.5 L710.125,485.1094 Z "/><text fill="#000000" font-family="sans-serif" font-size="12" font-style="italic" lengthAdjust="spacingAndGlyphs" textLength="62" x="725.5" y="496.1543">ZmqLayer</text><line style="stroke: #A80036; stroke-width: 1.5;" x1="697.5" x2="789.5" y1="508" y2="508"/><line style="stroke: #A80036; stroke-width: 1.5;" x1="697.5" x2="789.5" y1="516" y2="516"/><!--class DebugZmqLayer--><rect fill="#FEFECE" filter="url(#f1b1swsk25khbm)" height="48" id="DebugZmqLayer" style="stroke: #A80036; stroke-width: 1.5;" width="134" x="757.5" y="585"/><ellipse cx="772.5" cy="601" fill="#ADD1B2" rx="11" ry="11" style="stroke: #A80036; stroke-width: 1.0;"/><path d="M775.4688,606.6406 Q774.8906,606.9375 774.25,607.0781 Q773.6094,607.2344 772.9063,607.2344 Q770.4063,607.2344 769.0781,605.5938 Q767.7656,603.9375 767.7656,600.8125 Q767.7656,597.6875 769.0781,596.0313 Q770.4063,594.375 772.9063,594.375 Q773.6094,594.375 774.25,594.5313 Q774.9063,594.6875 775.4688,594.9844 L775.4688,597.7031 Q774.8438,597.125 774.25,596.8594 Q773.6563,596.5781 773.0313,596.5781 Q771.6875,596.5781 771,597.6563 Q770.3125,598.7188 770.3125,600.8125 Q770.3125,602.9063 771,603.9844 Q771.6875,605.0469 773.0313,605.0469 Q773.6563,605.0469 774.25,604.7813 Q774.8438,604.5 775.4688,603.9219 L775.4688,606.6406 Z "/><text fill="#000000" font-family="sans-serif" font-size="12" lengthAdjust="spacingAndGlyphs" textLength="102" x="786.5" y="605.1543">DebugZmqLayer</text><line style="stroke: #A80036; stroke-width: 1.5;" x1="758.5" x2="890.5" y1="617" y2="617"/><line style="stroke: #A80036; stroke-width: 1.5;" x1="758.5" x2="890.5" y1="625" y2="625"/><!--class SyncZmqLayer--><rect fill="#FEFECE" filter="url(#f1b1swsk25khbm)" height="48" id="SyncZmqLayer" style="stroke: #A80036; stroke-width: 1.5;" width="122" x="600.5" y="585"/><ellipse cx="615.5" cy="601" fill="#ADD1B2" rx="11" ry="11" style="stroke: #A80036; stroke-width: 1.0;"/><path d="M618.4688,606.6406 Q617.8906,606.9375 617.25,607.0781 Q616.6094,607.2344 615.9063,607.2344 Q613.4063,607.2344 612.0781,605.5938 Q610.7656,603.9375 610.7656,600.8125 Q610.7656,597.6875 612.0781,596.0313 Q613.4063,594.375 615.9063,594.375 Q616.6094,594.375 617.25,594.5313 Q617.9063,594.6875 618.4688,594.9844 L618.4688,597.7031 Q617.8438,597.125 617.25,596.8594 Q616.6563,596.5781 616.0313,596.5781 Q614.6875,596.5781 614,597.6563 Q613.3125,598.7188 613.3125,600.8125 Q613.3125,602.9063 614,603.9844 Q614.6875,605.0469 616.0313,605.0469 Q616.6563,605.0469 617.25,604.7813 Q617.8438,604.5 618.4688,603.9219 L618.4688,606.6406 Z "/><text fill="#000000" font-family="sans-serif" font-size="12" lengthAdjust="spacingAndGlyphs" textLength="90" x="629.5" y="605.1543">SyncZmqLayer</text><line style="stroke: #A80036; stroke-width: 1.5;" x1="601.5" x2="721.5" y1="617" y2="617"/><line style="stroke: #A80036; stroke-width: 1.5;" x1="601.5" x2="721.5" y1="625" y2="625"/><!--class Loopback--><rect fill="#FEFECE" filter="url(#f1b1swsk25khbm)" height="48" id="Loopback" style="stroke: #A80036; stroke-width: 1.5;" width="92" x="856.5" y="8"/><ellipse cx="871.5" cy="24" fill="#ADD1B2" rx="11" ry="11" style="stroke: #A80036; stroke-width: 1.0;"/><path d="M874.4688,29.6406 Q873.8906,29.9375 873.25,30.0781 Q872.6094,30.2344 871.9063,30.2344 Q869.4063,30.2344 868.0781,28.5938 Q866.7656,26.9375 866.7656,23.8125 Q866.7656,20.6875 868.0781,19.0313 Q869.4063,17.375 871.9063,17.375 Q872.6094,17.375 873.25,17.5313 Q873.9063,17.6875 874.4688,17.9844 L874.4688,20.7031 Q873.8438,20.125 873.25,19.8594 Q872.6563,19.5781 872.0313,19.5781 Q870.6875,19.5781 870,20.6563 Q869.3125,21.7188 869.3125,23.8125 Q869.3125,25.9063 870,26.9844 Q870.6875,28.0469 872.0313,28.0469 Q872.6563,28.0469 873.25,27.7813 Q873.8438,27.5 874.4688,26.9219 L874.4688,29.6406 Z "/><text fill="#000000" font-family="sans-serif" font-size="12" lengthAdjust="spacingAndGlyphs" textLength="60" x="885.5" y="28.1543">Loopback</text><line style="stroke: #A80036; stroke-width: 1.5;" x1="857.5" x2="947.5" y1="40" y2="40"/><line style="stroke: #A80036; stroke-width: 1.5;" x1="857.5" x2="947.5" y1="48" y2="48"/><!--class Poller--><rect fill="#FEFECE" filter="url(#f1b1swsk25khbm)" height="48" id="Poller" style="stroke: #A80036; stroke-width: 1.5;" width="67" x="984" y="8"/><ellipse cx="999" cy="24" fill="#ADD1B2" rx="11" ry="11" style="stroke: #A80036; stroke-width: 1.0;"/><path d="M1001.9688,29.6406 Q1001.3906,29.9375 1000.75,30.0781 Q1000.1094,30.2344 999.4063,30.2344 Q996.9063,30.2344 995.5781,28.5938 Q994.2656,26.9375 994.2656,23.8125 Q994.2656,20.6875 995.5781,19.0313 Q996.9063,17.375 999.4063,17.375 Q1000.1094,17.375 1000.75,17.5313 Q1001.4063,17.6875 1001.9688,17.9844 L1001.9688,20.7031 Q1001.3438,20.125 1000.75,19.8594 Q1000.1563,19.5781 999.5313,19.5781 Q998.1875,19.5781 997.5,20.6563 Q996.8125,21.7188 996.8125,23.8125 Q996.8125,25.9063 997.5,26.9844 Q998.1875,28.0469 999.5313,28.0469 Q1000.1563,28.0469 1000.75,27.7813 Q1001.3438,27.5 1001.9688,26.9219 L1001.9688,29.6406 Z "/><text fill="#000000" font-family="sans-serif" font-size="12" lengthAdjust="spacingAndGlyphs" textLength="35" x="1013" y="28.1543">Poller</text><line style="stroke: #A80036; stroke-width: 1.5;" x1="985" x2="1050" y1="40" y2="40"/><line style="stroke: #A80036; stroke-width: 1.5;" x1="985" x2="1050" y1="48" y2="48"/><!--link ProtocolLayer to AsciiEscapeLayer--><path d="M683.1408,35.1163 C544.8681,41.2341 265.6302,56.8298 172.5,86 C150.3312,92.9437 127.6322,105.4626 109.7711,116.8043 " fill="none" id="ProtocolLayer-AsciiEscapeLayer" style="stroke: #A80036; stroke-width: 1.0;"/><polygon fill="none" points="682.9938,28.1162,703.2767,34.2485,683.5967,42.1032,682.9938,28.1162" style="stroke: #A80036; stroke-width: 1.0;"/><!--link ProtocolLayer to TerminalLayer--><path d="M683.0478,34.8517 C552.503,41.1237 300.4957,60.4025 234.5,117 C198.1167,148.202 166.4975,292.8281 155.0589,350.8351 " fill="none" id="ProtocolLayer-TerminalLayer" style="stroke: #A80036; stroke-width: 1.0;"/><polygon fill="none" points="682.9931,27.8471,703.2888,33.9369,683.6252,41.8328,682.9931,27.8471" style="stroke: #A80036; stroke-width: 1.0;"/><!--link AsciiEscapeLayer to TerminalLayer--><!--link ProtocolLayer to SegmentationLayer--><path d="M683.2809,37.7169 C615.3279,44.317 515.5306,58.0851 432.5,86 C409.6551,93.6805 385.7741,105.966 366.6659,116.9795 " fill="none" id="ProtocolLayer-SegmentationLayer" style="stroke: #A80036; stroke-width: 1.0;"/><polygon fill="none" points="682.7403,30.7372,703.2936,35.891,684.0124,44.6793,682.7403,30.7372" style="stroke: #A80036; stroke-width: 1.0;"/><!--link ProtocolLayer to Crc8Layer--><path d="M684.7843,60.6222 C667.197,68.096 648.8872,76.6948 632.5,86 C616.9101,94.8524 600.7973,106.4863 587.6031,116.7735 " fill="none" id="ProtocolLayer-Crc8Layer" style="stroke: #A80036; stroke-width: 1.0;"/><polygon fill="none" points="682.2988,54.0759,703.4598,52.9738,687.6047,67.0315,682.2988,54.0759" style="stroke: #A80036; stroke-width: 1.0;"/><!--link ProtocolLayer to Crc16Layer--><path d="M726.9669,71.7143 C715.5271,85.5175 703.2897,101.4471 693.5,117 C666.9082,159.2463 606.5937,294.8293 582.1181,350.6433 " fill="none" id="ProtocolLayer-Crc16Layer" style="stroke: #A80036; stroke-width: 1.0;"/><polygon fill="none" points="721.9935,66.7591,740.3072,56.1002,732.6377,75.8532,721.9935,66.7591" style="stroke: #A80036; stroke-width: 1.0;"/><!--link Crc8Layer to Crc16Layer--><!--link ProtocolLayer to BufferLayer--><path d="M762.5,76.5974 C762.5,90.3785 762.5,105.0337 762.5,116.877 " fill="none" id="ProtocolLayer-BufferLayer" style="stroke: #A80036; stroke-width: 1.0;"/><polygon fill="none" points="755.5001,76.1907,762.5,56.1906,769.5001,76.1906,755.5001,76.1907" style="stroke: #A80036; stroke-width: 1.0;"/><!--link ProtocolLayer to PrintLayer--><path d="M807.7456,69.081 C827.0163,84.8742 848.948,102.8484 866.0655,116.877 " fill="none" id="ProtocolLayer-PrintLayer" style="stroke: #A80036; stroke-width: 1.0;"/><polygon fill="none" points="803.0487,74.2822,792.017,56.1906,811.9229,63.454,803.0487,74.2822" style="stroke: #A80036; stroke-width: 1.0;"/><!--link SegmentationLayer to ArqLayer--><!--link ProtocolLayer to ArqLayer--><path d="M683.2732,39.7847 C624.9013,49.283 546.878,70.3428 494.5,117 C457.2785,150.1561 406.1472,292.959 386.5711,350.6671 " fill="none" id="ProtocolLayer-ArqLayer" style="stroke: #A80036; stroke-width: 1.0;"/><polygon fill="none" points="682.6119,32.8069,703.4155,36.8332,684.6417,46.659,682.6119,32.8069" style="stroke: #A80036; stroke-width: 1.0;"/><!--link ArqLayer to DebugArqLayer--><path d="M378.5,419.1823 C378.5,438.2919 378.5,459.9075 378.5,475.9727 " fill="none" id="ArqLayer-DebugArqLayer" style="stroke: #A80036; stroke-width: 1.0;"/><polygon fill="none" points="371.5001,419.1013,378.5,399.1013,385.5001,419.1012,371.5001,419.1013" style="stroke: #A80036; stroke-width: 1.0;"/><!--link ProtocolLayer to PolledLayer--><path d="M839.9946,63.6364 C884.1938,81.6802 938.397,103.8081 977.495,119.7695 " fill="none" id="ProtocolLayer-PolledLayer" style="stroke: #A80036; stroke-width: 1.0;"/><polygon fill="none" points="837.2956,70.0954,821.4248,56.0555,842.587,57.1339,837.2956,70.0954" style="stroke: #A80036; stroke-width: 1.0;"/><!--link PolledLayer to PolledFileLayer--><path d="M997.4119,181.2023 C985.4367,196.2058 972.2198,212.7648 961.7541,225.877 " fill="none" id="PolledLayer-PolledFileLayer" style="stroke: #A80036; stroke-width: 1.0;"/><polygon fill="none" points="992.2445,176.4553,1010.1919,165.1906,1003.1864,185.1888,992.2445,176.4553" style="stroke: #A80036; stroke-width: 1.0;"/><!--link PolledFileLayer to FileLayer--><path d="M968.4898,291.1231 C981.0214,310.9516 995.6157,334.0438 1006.3148,350.9727 " fill="none" id="PolledFileLayer-FileLayer" style="stroke: #A80036; stroke-width: 1.0;"/><polygon fill="none" points="962.4997,294.7476,957.732,274.1013,974.3343,287.2681,962.4997,294.7476" style="stroke: #A80036; stroke-width: 1.0;"/><!--link FileLayer to NamedPipeLayer--><path d="M1030.1244,418.8718 C1039.7853,468.0167 1055.0949,545.896 1062.7763,584.9707 " fill="none" id="FileLayer-NamedPipeLayer" style="stroke: #A80036; stroke-width: 1.0;"/><polygon fill="none" points="1023.2389,420.1354,1026.2496,399.1608,1036.976,417.4349,1023.2389,420.1354" style="stroke: #A80036; stroke-width: 1.0;"/><!--link PolledFileLayer to DoublePipeLayer--><path d="M1003.4459,283.8588 C1041.648,305.0822 1089.9699,331.9277 1124.2509,350.9727 " fill="none" id="PolledFileLayer-DoublePipeLayer" style="stroke: #A80036; stroke-width: 1.0;"/><polygon fill="none" points="999.9659,289.9333,985.8823,274.1013,1006.7649,277.6951,999.9659,289.9333" style="stroke: #A80036; stroke-width: 1.0;"/><!--link DoublePipeLayer to XsimLayer--><path d="M1163.2585,419.1823 C1161.424,438.2919 1159.3489,459.9075 1157.8066,475.9727 " fill="none" id="DoublePipeLayer-XsimLayer" style="stroke: #A80036; stroke-width: 1.0;"/><polygon fill="none" points="1156.307,418.3408,1165.1863,399.1013,1170.2429,419.6787,1156.307,418.3408" style="stroke: #A80036; stroke-width: 1.0;"/><!--link XsimLayer to NamedPipeLayer--><path d="M1135.9699,524.1906 C1122.4122,540.9837 1104.3096,563.4063 1090.1233,580.9779 " fill="none" id="XsimLayer-NamedPipeLayer" style="stroke: #A80036; stroke-width: 1.0;"/><polygon fill="#A80036" points="1086.9755,584.877,1095.7413,580.387,1090.1163,580.9866,1089.5167,575.3616,1086.9755,584.877" style="stroke: #A80036; stroke-width: 1.0;"/><!--link PolledLayer to PolledSocketLayer--><path d="M958.4237,166.5694 C895.3847,189.4834 812.3689,220.3379 806.5,226 C770.8256,260.4177 754.3961,318.2031 747.6322,350.7741 " fill="none" id="PolledLayer-PolledSocketLayer" style="stroke: #A80036; stroke-width: 1.0;"/><polygon fill="none" points="956.0504,159.9841,977.2387,159.7498,960.8211,173.1462,956.0504,159.9841" style="stroke: #A80036; stroke-width: 1.0;"/><text fill="#000000" font-family="sans-serif" font-size="13" lengthAdjust="spacingAndGlyphs" textLength="54" x="807.5" y="254.5669">Windows</text><!--link PolledFileLayer to PolledSocketLayer--><path d="M861.3797,281.8792 C847.6662,288.474 833.8762,295.9073 821.5,304 C801.1164,317.3286 780.8595,335.9718 766.0994,350.8098 " fill="none" id="PolledFileLayer-PolledSocketLayer" style="stroke: #A80036; stroke-width: 1.0;"/><polygon fill="none" points="858.7922,275.3655,879.8926,273.4229,864.609,288.0999,858.7922,275.3655" style="stroke: #A80036; stroke-width: 1.0;"/><text fill="#000000" font-family="sans-serif" font-size="13" lengthAdjust="spacingAndGlyphs" textLength="38" x="822.5" y="317.0669">POSIX</text><!--link PolledFileLayer to StdioLayer--><path d="M922.5025,292.7957 C915.3082,310.4155 908.0859,331.2861 904.5,351 C896.5893,394.4906 903.6517,446.1433 909.2515,475.7945 " fill="none" id="PolledFileLayer-StdioLayer" style="stroke: #A80036; stroke-width: 1.0;"/><polygon fill="none" points="916.1889,289.7604,930.5663,274.1947,929.0338,295.3289,916.1889,289.7604" style="stroke: #A80036; stroke-width: 1.0;"/><text fill="#000000" font-family="sans-serif" font-size="13" lengthAdjust="spacingAndGlyphs" textLength="54" x="905.5" y="379.5669">Windows</text><!--link FileLayer to StdioLayer--><path d="M980.6249,413.6467 C975.7397,418.6948 970.9221,423.89 966.5,429 C953.6025,443.9038 940.4994,461.8158 930.6728,475.9199 " fill="none" id="FileLayer-StdioLayer" style="stroke: #A80036; stroke-width: 1.0;"/><polygon fill="none" points="976.0437,408.3298,995.1545,399.1766,985.9229,418.2496,976.0437,408.3298" style="stroke: #A80036; stroke-width: 1.0;"/><text fill="#000000" font-family="sans-serif" font-size="13" lengthAdjust="spacingAndGlyphs" textLength="38" x="967.5" y="442.0669">POSIX</text><!--link ProtocolLayer to CompressLayer--><path d="M841.4025,55.3384 C961.4981,71.728 1203.7242,50.2017 1264.5,117 C1326.03,184.6273 1334.314,300.954 1334.8641,350.9812 " fill="none" id="ProtocolLayer-CompressLayer" style="stroke: #A80036; stroke-width: 1.0;"/><polygon fill="none" points="840.0764,62.214,821.5005,52.0191,842.3796,48.4048,840.0764,62.214" style="stroke: #A80036; stroke-width: 1.0;"/><!--link PolledLayer to FifoLoopback--><path d="M1055.1855,182.1724 C1064.3836,196.9164 1074.4466,213.0468 1082.4508,225.877 " fill="none" id="PolledLayer-FifoLoopback" style="stroke: #A80036; stroke-width: 1.0;"/><polygon fill="none" points="1049.2384,185.8645,1044.5914,165.1906,1061.1165,178.4542,1049.2384,185.8645" style="stroke: #A80036; stroke-width: 1.0;"/><!--link ProtocolLayer to Stream--><path d="M841.2698,55.4983 C952.0204,73.6665 1170.5848,57.5691 1227.5,117 C1255.1434,145.8653 1252.4123,195.9812 1247.6436,225.7619 " fill="none" id="ProtocolLayer-Stream" style="stroke: #A80036; stroke-width: 1.0;"/><polygon fill="none" points="839.8515,62.3534,821.59,51.6054,842.5683,48.6195,839.8515,62.3534" style="stroke: #A80036; stroke-width: 1.0;"/><!--link Debugger to Stream--><path d="M1181.0327,165.1906 C1193.1015,181.8426 1209.1822,204.0298 1221.8686,221.5339 " fill="none" id="Debugger-Stream" style="stroke: #A80036; stroke-width: 1.0;"/><polygon fill="#A80036" points="1225.0163,225.877,1222.9735,216.2423,1222.0821,221.8285,1216.4959,220.9371,1225.0163,225.877" style="stroke: #A80036; stroke-width: 1.0;"/><!--link Stream to CompressLayer--><path d="M1260.2385,274.1013 C1275.5114,294.8525 1297.5707,324.8243 1313.6777,346.7088 " fill="none" id="Stream-CompressLayer" style="stroke: #A80036; stroke-width: 1.0;"/><polygon fill="#A80036" points="1316.8159,350.9727,1314.7024,341.3533,1313.852,346.9458,1308.2595,346.0954,1316.8159,350.9727" style="stroke: #A80036; stroke-width: 1.0;"/><!--link ProtocolLayer to Debugger--><path d="M841.3072,56.4853 C956.4705,87.0742 990.7167,84.5923 1098.5,117 C1104.26,118.7319 1110.2495,120.7028 1116.1592,122.7532 " fill="none" id="ProtocolLayer-Debugger" style="stroke: #A80036; stroke-width: 1.0;"/><polygon fill="none" points="839.1725,63.1593,821.701,51.1697,842.8359,49.6471,839.1725,63.1593" style="stroke: #A80036; stroke-width: 1.0;"/><!--link ProtocolLayer to SyncConnection--><path d="M841.6153,55.7622 C1071.0635,93.7304 1144.284,20.1246 1360.5,86 C1382.2119,92.615 1404.1758,105.264 1421.303,116.7651 " fill="none" id="ProtocolLayer-SyncConnection" style="stroke: #A80036; stroke-width: 1.0;"/><polygon fill="none" points="840.3711,62.6509,821.8872,52.2899,842.7979,48.8628,840.3711,62.6509" style="stroke: #A80036; stroke-width: 1.0;"/><!--link PolledSocketLayer to ZmqLayer--><path d="M743.5,419.1823 C743.5,438.2919 743.5,459.9075 743.5,475.9727 " fill="none" id="PolledSocketLayer-ZmqLayer" style="stroke: #A80036; stroke-width: 1.0;"/><polygon fill="none" points="736.5001,419.1013,743.5,399.1013,750.5001,419.1012,736.5001,419.1013" style="stroke: #A80036; stroke-width: 1.0;"/><!--link ZmqLayer to DebugZmqLayer--><path d="M773.7352,540.6869 C784.7888,555.5615 796.9346,571.9058 806.5737,584.877 " fill="none" id="ZmqLayer-DebugZmqLayer" style="stroke: #A80036; stroke-width: 1.0;"/><polygon fill="none" points="767.7872,544.4187,761.4765,524.1906,779.0243,536.0683,767.7872,544.4187" style="stroke: #A80036; stroke-width: 1.0;"/><!--link ZmqLayer to SyncZmqLayer--><path d="M713.256,540.2023 C701.9691,555.2058 689.5118,571.7648 679.6476,584.877 " fill="none" id="ZmqLayer-SyncZmqLayer" style="stroke: #A80036; stroke-width: 1.0;"/><polygon fill="none" points="707.6842,535.9648,725.3015,524.1906,718.8719,544.3813,707.6842,535.9648" style="stroke: #A80036; stroke-width: 1.0;"/><!--
@startuml
abstract ProtocolLayer
ProtocolLayer <|- - AsciiEscapeLayer
ProtocolLayer <|- - TerminalLayer
AsciiEscapeLayer -[hidden]- -> TerminalLayer
ProtocolLayer <|- - SegmentationLayer
ProtocolLayer <|- - Crc8Layer
ProtocolLayer <|- - Crc16Layer
Crc8Layer -[hidden]- -> Crc16Layer
ProtocolLayer <|- - BufferLayer
ProtocolLayer <|- - PrintLayer

abstract ArqLayer
SegmentationLayer -[hidden]- -> ArqLayer
ProtocolLayer <|- - ArqLayer
ArqLayer <|- - DebugArqLayer

abstract PolledLayer
abstract PolledFileLayer
abstract PolledSocketLayer
ProtocolLayer <|- - PolledLayer
PolledLayer <|- - PolledFileLayer
PolledFileLayer <|- - FileLayer
FileLayer <|- - NamedPipeLayer
PolledFileLayer <|- - DoublePipeLayer
DoublePipeLayer <|- - XsimLayer
XsimLayer - -> NamedPipeLayer
PolledLayer <|- - PolledSocketLayer : Windows
PolledFileLayer <|- - PolledSocketLayer : POSIX
PolledFileLayer <|- - StdioLayer : Windows
FileLayer <|- - StdioLayer : POSIX
ProtocolLayer <|- - CompressLayer
PolledLayer <|- - FifoLoopback

ProtocolLayer <|- - Stream
Debugger - -> Stream
Stream - -> CompressLayer
ProtocolLayer <|- - Debugger
ProtocolLayer <|- - SyncConnection

abstract ZmqLayer
PolledSocketLayer <|- - ZmqLayer
ZmqLayer <|- - DebugZmqLayer
ZmqLayer <|- - SyncZmqLayer

class Loopback
class Poller

@enduml

PlantUML version 1.2017.15(Mon Jul 03 16:45:34 UTC 2017)
(GPL source distribution)
Java Runtime: OpenJDK Runtime Environment
JVM: OpenJDK 64-Bit Server VM
Java Version: 1.8.0_282-b08
Operating System: Linux
OS Version: 5.4.0-1039-azure
Default Encoding: UTF-8
Language: en
Country: null
--></g></svg>